%TF.GenerationSoftware,KiCad,Pcbnew,10.0.5*%
%TF.CreationDate,2026-08-27T00:57:08+09:00*%
%TF.ProjectId,OdytsseySwitch,4f647974-7373-4657-9953-77697463682e,rev?*%
%TF.SameCoordinates,Original*%
%TF.FileFunction,Paste,Bot*%
%TF.FilePolarity,Positive*%
%FSLAX46Y46*%
G04 Gerber Fmt 4.6, Leading zero omitted, Abs format (unit mm)*
G04 Created by KiCad (PCBNEW 10.0.5) date 2026-08-27 00:57:08*
%MOMM*%
%LPD*%
G01*
G04 APERTURE LIST*
G04 Aperture macros list*
%AMRoundRect*
0 Rectangle with rounded corners*
0 $1 Rounding radius*
0 $2 $3 $4 $5 $6 $7 $8 $9 X,Y pos of 4 corners*
0 Add a 4 corners polygon primitive as box body*
4,1,4,$2,$3,$4,$5,$6,$7,$8,$9,$2,$3,0*
0 Add four circle primitives for the rounded corners*
1,1,$1+$1,$2,$3*
1,1,$1+$1,$4,$5*
1,1,$1+$1,$6,$7*
1,1,$1+$1,$8,$9*
0 Add four rect primitives between the rounded corners*
20,1,$1+$1,$2,$3,$4,$5,0*
20,1,$1+$1,$4,$5,$6,$7,0*
20,1,$1+$1,$6,$7,$8,$9,0*
20,1,$1+$1,$8,$9,$2,$3,0*%
G04 Aperture macros list end*
%ADD10RoundRect,0.250000X-1.025000X-1.000000X1.025000X-1.000000X1.025000X1.000000X-1.025000X1.000000X0*%
%ADD11RoundRect,0.225000X-0.225000X-0.250000X0.225000X-0.250000X0.225000X0.250000X-0.225000X0.250000X0*%
%ADD12RoundRect,0.200000X-0.200000X-0.275000X0.200000X-0.275000X0.200000X0.275000X-0.200000X0.275000X0*%
%ADD13RoundRect,0.200000X0.275000X-0.200000X0.275000X0.200000X-0.275000X0.200000X-0.275000X-0.200000X0*%
%ADD14R,1.700000X1.000000*%
%ADD15RoundRect,0.250000X-0.325000X-0.650000X0.325000X-0.650000X0.325000X0.650000X-0.325000X0.650000X0*%
%ADD16RoundRect,0.250000X0.650000X-0.325000X0.650000X0.325000X-0.650000X0.325000X-0.650000X-0.325000X0*%
%ADD17RoundRect,0.150000X-0.150000X-0.575000X0.150000X-0.575000X0.150000X0.575000X-0.150000X0.575000X0*%
%ADD18RoundRect,0.075000X-0.075000X-0.650000X0.075000X-0.650000X0.075000X0.650000X-0.075000X0.650000X0*%
%ADD19RoundRect,0.150000X-0.512500X-0.150000X0.512500X-0.150000X0.512500X0.150000X-0.512500X0.150000X0*%
%ADD20RoundRect,0.225000X0.250000X-0.225000X0.250000X0.225000X-0.250000X0.225000X-0.250000X-0.225000X0*%
%ADD21RoundRect,0.218750X0.256250X-0.218750X0.256250X0.218750X-0.256250X0.218750X-0.256250X-0.218750X0*%
%ADD22RoundRect,0.150000X-0.150000X-0.625000X0.150000X-0.625000X0.150000X0.625000X-0.150000X0.625000X0*%
%ADD23RoundRect,0.250000X-0.350000X-0.650000X0.350000X-0.650000X0.350000X0.650000X-0.350000X0.650000X0*%
%ADD24R,0.900000X0.900000*%
%ADD25R,0.900000X1.500000*%
%ADD26R,1.500000X0.900000*%
G04 APERTURE END LIST*
D10*
%TO.C,SW3*%
X140465000Y-74960000D03*
X153392000Y-72420000D03*
%TD*%
%TO.C,SW1*%
X102365000Y-74960000D03*
X115292000Y-72420000D03*
%TD*%
%TO.C,SW5*%
X130940000Y-127460000D03*
X143867000Y-124920000D03*
%TD*%
%TO.C,SW2*%
X121415000Y-74960000D03*
X134342000Y-72420000D03*
%TD*%
%TO.C,SW4*%
X111890000Y-127460000D03*
X124817000Y-124920000D03*
%TD*%
D11*
%TO.C,C7*%
X112725000Y-150000000D03*
X114275000Y-150000000D03*
%TD*%
D12*
%TO.C,R1*%
X105675000Y-150000000D03*
X107325000Y-150000000D03*
%TD*%
D13*
%TO.C,R5*%
X123500000Y-108825000D03*
X123500000Y-107175000D03*
%TD*%
D14*
%TO.C,SW7*%
X106350000Y-145899999D03*
X112650000Y-145900000D03*
X106350000Y-142100000D03*
X112650000Y-142100001D03*
%TD*%
D15*
%TO.C,C5*%
X122025000Y-96000000D03*
X124975000Y-96000000D03*
%TD*%
D16*
%TO.C,C3*%
X113500000Y-61475000D03*
X113500000Y-58525000D03*
%TD*%
D12*
%TO.C,R3*%
X152675000Y-64500000D03*
X154325000Y-64500000D03*
%TD*%
D13*
%TO.C,R9*%
X164500000Y-94825000D03*
X164500000Y-93175000D03*
%TD*%
D17*
%TO.C,J1*%
X125250000Y-63344999D03*
X126050000Y-63344999D03*
D18*
X127250000Y-63345000D03*
X128250000Y-63345000D03*
X128749999Y-63345000D03*
X129749999Y-63345000D03*
D17*
X130949999Y-63345000D03*
X131749999Y-63345000D03*
X131749999Y-63345000D03*
X130949999Y-63345000D03*
D18*
X130249999Y-63345000D03*
X129249999Y-63345000D03*
X127750000Y-63345000D03*
X126750000Y-63345000D03*
D17*
X126050000Y-63344999D03*
X125250000Y-63344999D03*
%TD*%
D19*
%TO.C,U4*%
X145362500Y-63949999D03*
X145362500Y-63000000D03*
X145362500Y-62050000D03*
X147637500Y-62050001D03*
X147637500Y-63000000D03*
X147637500Y-63950000D03*
%TD*%
D20*
%TO.C,C2*%
X97000000Y-66275000D03*
X97000000Y-64725000D03*
%TD*%
D21*
%TO.C,D1*%
X135500000Y-96787500D03*
X135500000Y-95212500D03*
%TD*%
D20*
%TO.C,C9*%
X164500000Y-102775000D03*
X164500000Y-101225000D03*
%TD*%
D16*
%TO.C,C1*%
X97000000Y-61475000D03*
X97000000Y-58525000D03*
%TD*%
D20*
%TO.C,C4*%
X113500000Y-66275000D03*
X113500000Y-64725000D03*
%TD*%
D12*
%TO.C,R7*%
X154175000Y-150000000D03*
X155825000Y-150000000D03*
%TD*%
D14*
%TO.C,SW6*%
X97350000Y-145899999D03*
X103650000Y-145900000D03*
X97350000Y-142100000D03*
X103650000Y-142100001D03*
%TD*%
D13*
%TO.C,R6*%
X127500000Y-108825000D03*
X127500000Y-107175000D03*
%TD*%
%TO.C,R8*%
X131500000Y-96825000D03*
X131500000Y-95175000D03*
%TD*%
D22*
%TO.C,J4*%
X181000000Y-151999999D03*
X182000000Y-152000000D03*
X182999999Y-152000000D03*
X183999999Y-152000000D03*
D23*
X179700000Y-148125000D03*
X185300000Y-148125001D03*
%TD*%
D19*
%TO.C,U3*%
X103362500Y-63449999D03*
X103362500Y-62500000D03*
X103362500Y-61550000D03*
X105637500Y-61550001D03*
X105637500Y-63450000D03*
%TD*%
D12*
%TO.C,R4*%
X99675000Y-150000000D03*
X101325000Y-150000000D03*
%TD*%
D24*
%TO.C,U1*%
X106309998Y-100100000D03*
X109109998Y-100100001D03*
X107709998Y-100100001D03*
X109109999Y-101500001D03*
X107709999Y-101500001D03*
X106309998Y-101500001D03*
X109110000Y-102900001D03*
X107710000Y-102900001D03*
X106310000Y-102900001D03*
D25*
X99990001Y-94250001D03*
X101260001Y-94250000D03*
X102530001Y-94250000D03*
X103800001Y-94250000D03*
X105070001Y-94250000D03*
X106339998Y-94250000D03*
X107609998Y-94250000D03*
X108879998Y-94250000D03*
X110149998Y-94250000D03*
X111419998Y-94250000D03*
X112689998Y-94250000D03*
X113959998Y-94250001D03*
X115229998Y-94250001D03*
X116499998Y-94250001D03*
D26*
X117749999Y-96015001D03*
X117749999Y-97285001D03*
X117750000Y-98555001D03*
X117750000Y-99825001D03*
X117750000Y-101095001D03*
X117750000Y-102365001D03*
X117750000Y-103634998D03*
X117750000Y-104904998D03*
X117750000Y-106174998D03*
X117750000Y-107444998D03*
X117750000Y-108714998D03*
X117750000Y-109984998D03*
D25*
X116499999Y-111749998D03*
X115229999Y-111749998D03*
X113959999Y-111749998D03*
X112689999Y-111749999D03*
X111419999Y-111749999D03*
X110149999Y-111750000D03*
X108879999Y-111750000D03*
X107609999Y-111750000D03*
X106339999Y-111750000D03*
X105070002Y-111750000D03*
X103800002Y-111750000D03*
X102530002Y-111750000D03*
X101260002Y-111750000D03*
X99990002Y-111750000D03*
%TD*%
D12*
%TO.C,R2*%
X152675000Y-60500000D03*
X154325000Y-60500000D03*
%TD*%
D11*
%TO.C,C6*%
X122725000Y-100000000D03*
X124275000Y-100000000D03*
%TD*%
D20*
%TO.C,C8*%
X164500000Y-98775000D03*
X164500000Y-97225000D03*
%TD*%
M02*
