%TF.GenerationSoftware,KiCad,Pcbnew,10.0.5*%
%TF.CreationDate,2026-08-27T00:57:08+09:00*%
%TF.ProjectId,OdytsseySwitch,4f647974-7373-4657-9953-77697463682e,rev?*%
%TF.SameCoordinates,Original*%
%TF.FileFunction,Legend,Top*%
%TF.FilePolarity,Positive*%
%FSLAX46Y46*%
G04 Gerber Fmt 4.6, Leading zero omitted, Abs format (unit mm)*
G04 Created by KiCad (PCBNEW 10.0.5) date 2026-08-27 00:57:08*
%MOMM*%
%LPD*%
G01*
G04 APERTURE LIST*
%ADD10C,0.200000*%
%ADD11C,0.160000*%
%ADD12C,0.180000*%
%ADD13C,0.550000*%
%ADD14C,0.150000*%
%ADD15C,0.120000*%
%ADD16R,1.700000X1.700000*%
%ADD17C,1.700000*%
%ADD18C,1.750000*%
%ADD19C,3.050000*%
%ADD20C,4.000000*%
%ADD21C,0.650000*%
%ADD22O,1.000000X1.600000*%
%ADD23O,1.000000X2.100000*%
G04 APERTURE END LIST*
D10*
X114750000Y-86400000D02*
X142250000Y-86400000D01*
X114750000Y-116000000D02*
X114750000Y-86400000D01*
X142250000Y-86400000D02*
X142250000Y-116000000D01*
X142250000Y-116000000D02*
X114750000Y-116000000D01*
X169500000Y-88000000D02*
X195500000Y-88000000D01*
X169500000Y-122000000D02*
X169500000Y-88000000D01*
X195500000Y-88000000D02*
X195500000Y-122000000D01*
X195500000Y-122000000D02*
X169500000Y-122000000D01*
D11*
X98785714Y-56930489D02*
X99119047Y-56930489D01*
X99261904Y-57454299D02*
X98785714Y-57454299D01*
X98785714Y-57454299D02*
X98785714Y-56454299D01*
X98785714Y-56454299D02*
X99261904Y-56454299D01*
X99642857Y-57406680D02*
X99785714Y-57454299D01*
X99785714Y-57454299D02*
X100023809Y-57454299D01*
X100023809Y-57454299D02*
X100119047Y-57406680D01*
X100119047Y-57406680D02*
X100166666Y-57359060D01*
X100166666Y-57359060D02*
X100214285Y-57263822D01*
X100214285Y-57263822D02*
X100214285Y-57168584D01*
X100214285Y-57168584D02*
X100166666Y-57073346D01*
X100166666Y-57073346D02*
X100119047Y-57025727D01*
X100119047Y-57025727D02*
X100023809Y-56978108D01*
X100023809Y-56978108D02*
X99833333Y-56930489D01*
X99833333Y-56930489D02*
X99738095Y-56882870D01*
X99738095Y-56882870D02*
X99690476Y-56835251D01*
X99690476Y-56835251D02*
X99642857Y-56740013D01*
X99642857Y-56740013D02*
X99642857Y-56644775D01*
X99642857Y-56644775D02*
X99690476Y-56549537D01*
X99690476Y-56549537D02*
X99738095Y-56501918D01*
X99738095Y-56501918D02*
X99833333Y-56454299D01*
X99833333Y-56454299D02*
X100071428Y-56454299D01*
X100071428Y-56454299D02*
X100214285Y-56501918D01*
X100642857Y-57454299D02*
X100642857Y-56454299D01*
X100642857Y-56454299D02*
X101023809Y-56454299D01*
X101023809Y-56454299D02*
X101119047Y-56501918D01*
X101119047Y-56501918D02*
X101166666Y-56549537D01*
X101166666Y-56549537D02*
X101214285Y-56644775D01*
X101214285Y-56644775D02*
X101214285Y-56787632D01*
X101214285Y-56787632D02*
X101166666Y-56882870D01*
X101166666Y-56882870D02*
X101119047Y-56930489D01*
X101119047Y-56930489D02*
X101023809Y-56978108D01*
X101023809Y-56978108D02*
X100642857Y-56978108D01*
X101547619Y-56454299D02*
X102166666Y-56454299D01*
X102166666Y-56454299D02*
X101833333Y-56835251D01*
X101833333Y-56835251D02*
X101976190Y-56835251D01*
X101976190Y-56835251D02*
X102071428Y-56882870D01*
X102071428Y-56882870D02*
X102119047Y-56930489D01*
X102119047Y-56930489D02*
X102166666Y-57025727D01*
X102166666Y-57025727D02*
X102166666Y-57263822D01*
X102166666Y-57263822D02*
X102119047Y-57359060D01*
X102119047Y-57359060D02*
X102071428Y-57406680D01*
X102071428Y-57406680D02*
X101976190Y-57454299D01*
X101976190Y-57454299D02*
X101690476Y-57454299D01*
X101690476Y-57454299D02*
X101595238Y-57406680D01*
X101595238Y-57406680D02*
X101547619Y-57359060D01*
X102547619Y-56549537D02*
X102595238Y-56501918D01*
X102595238Y-56501918D02*
X102690476Y-56454299D01*
X102690476Y-56454299D02*
X102928571Y-56454299D01*
X102928571Y-56454299D02*
X103023809Y-56501918D01*
X103023809Y-56501918D02*
X103071428Y-56549537D01*
X103071428Y-56549537D02*
X103119047Y-56644775D01*
X103119047Y-56644775D02*
X103119047Y-56740013D01*
X103119047Y-56740013D02*
X103071428Y-56882870D01*
X103071428Y-56882870D02*
X102500000Y-57454299D01*
X102500000Y-57454299D02*
X103119047Y-57454299D01*
X103547619Y-57073346D02*
X104309524Y-57073346D01*
X104738095Y-57406680D02*
X104880952Y-57454299D01*
X104880952Y-57454299D02*
X105119047Y-57454299D01*
X105119047Y-57454299D02*
X105214285Y-57406680D01*
X105214285Y-57406680D02*
X105261904Y-57359060D01*
X105261904Y-57359060D02*
X105309523Y-57263822D01*
X105309523Y-57263822D02*
X105309523Y-57168584D01*
X105309523Y-57168584D02*
X105261904Y-57073346D01*
X105261904Y-57073346D02*
X105214285Y-57025727D01*
X105214285Y-57025727D02*
X105119047Y-56978108D01*
X105119047Y-56978108D02*
X104928571Y-56930489D01*
X104928571Y-56930489D02*
X104833333Y-56882870D01*
X104833333Y-56882870D02*
X104785714Y-56835251D01*
X104785714Y-56835251D02*
X104738095Y-56740013D01*
X104738095Y-56740013D02*
X104738095Y-56644775D01*
X104738095Y-56644775D02*
X104785714Y-56549537D01*
X104785714Y-56549537D02*
X104833333Y-56501918D01*
X104833333Y-56501918D02*
X104928571Y-56454299D01*
X104928571Y-56454299D02*
X105166666Y-56454299D01*
X105166666Y-56454299D02*
X105309523Y-56501918D01*
X105642857Y-56454299D02*
X106261904Y-56454299D01*
X106261904Y-56454299D02*
X105928571Y-56835251D01*
X105928571Y-56835251D02*
X106071428Y-56835251D01*
X106071428Y-56835251D02*
X106166666Y-56882870D01*
X106166666Y-56882870D02*
X106214285Y-56930489D01*
X106214285Y-56930489D02*
X106261904Y-57025727D01*
X106261904Y-57025727D02*
X106261904Y-57263822D01*
X106261904Y-57263822D02*
X106214285Y-57359060D01*
X106214285Y-57359060D02*
X106166666Y-57406680D01*
X106166666Y-57406680D02*
X106071428Y-57454299D01*
X106071428Y-57454299D02*
X105785714Y-57454299D01*
X105785714Y-57454299D02*
X105690476Y-57406680D01*
X105690476Y-57406680D02*
X105642857Y-57359060D01*
X124309524Y-117054299D02*
X124500000Y-117054299D01*
X124500000Y-117054299D02*
X124595238Y-117101918D01*
X124595238Y-117101918D02*
X124690476Y-117197156D01*
X124690476Y-117197156D02*
X124738095Y-117387632D01*
X124738095Y-117387632D02*
X124738095Y-117720965D01*
X124738095Y-117720965D02*
X124690476Y-117911441D01*
X124690476Y-117911441D02*
X124595238Y-118006680D01*
X124595238Y-118006680D02*
X124500000Y-118054299D01*
X124500000Y-118054299D02*
X124309524Y-118054299D01*
X124309524Y-118054299D02*
X124214286Y-118006680D01*
X124214286Y-118006680D02*
X124119048Y-117911441D01*
X124119048Y-117911441D02*
X124071429Y-117720965D01*
X124071429Y-117720965D02*
X124071429Y-117387632D01*
X124071429Y-117387632D02*
X124119048Y-117197156D01*
X124119048Y-117197156D02*
X124214286Y-117101918D01*
X124214286Y-117101918D02*
X124309524Y-117054299D01*
X125642857Y-118054299D02*
X125166667Y-118054299D01*
X125166667Y-118054299D02*
X125166667Y-117054299D01*
X125976191Y-117530489D02*
X126309524Y-117530489D01*
X126452381Y-118054299D02*
X125976191Y-118054299D01*
X125976191Y-118054299D02*
X125976191Y-117054299D01*
X125976191Y-117054299D02*
X126452381Y-117054299D01*
X126880953Y-118054299D02*
X126880953Y-117054299D01*
X126880953Y-117054299D02*
X127119048Y-117054299D01*
X127119048Y-117054299D02*
X127261905Y-117101918D01*
X127261905Y-117101918D02*
X127357143Y-117197156D01*
X127357143Y-117197156D02*
X127404762Y-117292394D01*
X127404762Y-117292394D02*
X127452381Y-117482870D01*
X127452381Y-117482870D02*
X127452381Y-117625727D01*
X127452381Y-117625727D02*
X127404762Y-117816203D01*
X127404762Y-117816203D02*
X127357143Y-117911441D01*
X127357143Y-117911441D02*
X127261905Y-118006680D01*
X127261905Y-118006680D02*
X127119048Y-118054299D01*
X127119048Y-118054299D02*
X126880953Y-118054299D01*
X128833334Y-117054299D02*
X128928572Y-117054299D01*
X128928572Y-117054299D02*
X129023810Y-117101918D01*
X129023810Y-117101918D02*
X129071429Y-117149537D01*
X129071429Y-117149537D02*
X129119048Y-117244775D01*
X129119048Y-117244775D02*
X129166667Y-117435251D01*
X129166667Y-117435251D02*
X129166667Y-117673346D01*
X129166667Y-117673346D02*
X129119048Y-117863822D01*
X129119048Y-117863822D02*
X129071429Y-117959060D01*
X129071429Y-117959060D02*
X129023810Y-118006680D01*
X129023810Y-118006680D02*
X128928572Y-118054299D01*
X128928572Y-118054299D02*
X128833334Y-118054299D01*
X128833334Y-118054299D02*
X128738096Y-118006680D01*
X128738096Y-118006680D02*
X128690477Y-117959060D01*
X128690477Y-117959060D02*
X128642858Y-117863822D01*
X128642858Y-117863822D02*
X128595239Y-117673346D01*
X128595239Y-117673346D02*
X128595239Y-117435251D01*
X128595239Y-117435251D02*
X128642858Y-117244775D01*
X128642858Y-117244775D02*
X128690477Y-117149537D01*
X128690477Y-117149537D02*
X128738096Y-117101918D01*
X128738096Y-117101918D02*
X128833334Y-117054299D01*
X129595239Y-117959060D02*
X129642858Y-118006680D01*
X129642858Y-118006680D02*
X129595239Y-118054299D01*
X129595239Y-118054299D02*
X129547620Y-118006680D01*
X129547620Y-118006680D02*
X129595239Y-117959060D01*
X129595239Y-117959060D02*
X129595239Y-118054299D01*
X130119048Y-118054299D02*
X130309524Y-118054299D01*
X130309524Y-118054299D02*
X130404762Y-118006680D01*
X130404762Y-118006680D02*
X130452381Y-117959060D01*
X130452381Y-117959060D02*
X130547619Y-117816203D01*
X130547619Y-117816203D02*
X130595238Y-117625727D01*
X130595238Y-117625727D02*
X130595238Y-117244775D01*
X130595238Y-117244775D02*
X130547619Y-117149537D01*
X130547619Y-117149537D02*
X130500000Y-117101918D01*
X130500000Y-117101918D02*
X130404762Y-117054299D01*
X130404762Y-117054299D02*
X130214286Y-117054299D01*
X130214286Y-117054299D02*
X130119048Y-117101918D01*
X130119048Y-117101918D02*
X130071429Y-117149537D01*
X130071429Y-117149537D02*
X130023810Y-117244775D01*
X130023810Y-117244775D02*
X130023810Y-117482870D01*
X130023810Y-117482870D02*
X130071429Y-117578108D01*
X130071429Y-117578108D02*
X130119048Y-117625727D01*
X130119048Y-117625727D02*
X130214286Y-117673346D01*
X130214286Y-117673346D02*
X130404762Y-117673346D01*
X130404762Y-117673346D02*
X130500000Y-117625727D01*
X130500000Y-117625727D02*
X130547619Y-117578108D01*
X130547619Y-117578108D02*
X130595238Y-117482870D01*
X131452381Y-117054299D02*
X131261905Y-117054299D01*
X131261905Y-117054299D02*
X131166667Y-117101918D01*
X131166667Y-117101918D02*
X131119048Y-117149537D01*
X131119048Y-117149537D02*
X131023810Y-117292394D01*
X131023810Y-117292394D02*
X130976191Y-117482870D01*
X130976191Y-117482870D02*
X130976191Y-117863822D01*
X130976191Y-117863822D02*
X131023810Y-117959060D01*
X131023810Y-117959060D02*
X131071429Y-118006680D01*
X131071429Y-118006680D02*
X131166667Y-118054299D01*
X131166667Y-118054299D02*
X131357143Y-118054299D01*
X131357143Y-118054299D02*
X131452381Y-118006680D01*
X131452381Y-118006680D02*
X131500000Y-117959060D01*
X131500000Y-117959060D02*
X131547619Y-117863822D01*
X131547619Y-117863822D02*
X131547619Y-117625727D01*
X131547619Y-117625727D02*
X131500000Y-117530489D01*
X131500000Y-117530489D02*
X131452381Y-117482870D01*
X131452381Y-117482870D02*
X131357143Y-117435251D01*
X131357143Y-117435251D02*
X131166667Y-117435251D01*
X131166667Y-117435251D02*
X131071429Y-117482870D01*
X131071429Y-117482870D02*
X131023810Y-117530489D01*
X131023810Y-117530489D02*
X130976191Y-117625727D01*
X131976191Y-118054299D02*
X131976191Y-117387632D01*
X131976191Y-117054299D02*
X131928572Y-117101918D01*
X131928572Y-117101918D02*
X131976191Y-117149537D01*
X131976191Y-117149537D02*
X132023810Y-117101918D01*
X132023810Y-117101918D02*
X131976191Y-117054299D01*
X131976191Y-117054299D02*
X131976191Y-117149537D01*
X132452381Y-117387632D02*
X132452381Y-118054299D01*
X132452381Y-117482870D02*
X132500000Y-117435251D01*
X132500000Y-117435251D02*
X132595238Y-117387632D01*
X132595238Y-117387632D02*
X132738095Y-117387632D01*
X132738095Y-117387632D02*
X132833333Y-117435251D01*
X132833333Y-117435251D02*
X132880952Y-117530489D01*
X132880952Y-117530489D02*
X132880952Y-118054299D01*
X179595238Y-85854299D02*
X179595238Y-86568584D01*
X179595238Y-86568584D02*
X179547619Y-86711441D01*
X179547619Y-86711441D02*
X179452381Y-86806680D01*
X179452381Y-86806680D02*
X179309524Y-86854299D01*
X179309524Y-86854299D02*
X179214286Y-86854299D01*
X180261905Y-85854299D02*
X180452381Y-85854299D01*
X180452381Y-85854299D02*
X180547619Y-85901918D01*
X180547619Y-85901918D02*
X180642857Y-85997156D01*
X180642857Y-85997156D02*
X180690476Y-86187632D01*
X180690476Y-86187632D02*
X180690476Y-86520965D01*
X180690476Y-86520965D02*
X180642857Y-86711441D01*
X180642857Y-86711441D02*
X180547619Y-86806680D01*
X180547619Y-86806680D02*
X180452381Y-86854299D01*
X180452381Y-86854299D02*
X180261905Y-86854299D01*
X180261905Y-86854299D02*
X180166667Y-86806680D01*
X180166667Y-86806680D02*
X180071429Y-86711441D01*
X180071429Y-86711441D02*
X180023810Y-86520965D01*
X180023810Y-86520965D02*
X180023810Y-86187632D01*
X180023810Y-86187632D02*
X180071429Y-85997156D01*
X180071429Y-85997156D02*
X180166667Y-85901918D01*
X180166667Y-85901918D02*
X180261905Y-85854299D01*
X181309524Y-86378108D02*
X181309524Y-86854299D01*
X180976191Y-85854299D02*
X181309524Y-86378108D01*
X181309524Y-86378108D02*
X181642857Y-85854299D01*
X181928572Y-86806680D02*
X182071429Y-86854299D01*
X182071429Y-86854299D02*
X182309524Y-86854299D01*
X182309524Y-86854299D02*
X182404762Y-86806680D01*
X182404762Y-86806680D02*
X182452381Y-86759060D01*
X182452381Y-86759060D02*
X182500000Y-86663822D01*
X182500000Y-86663822D02*
X182500000Y-86568584D01*
X182500000Y-86568584D02*
X182452381Y-86473346D01*
X182452381Y-86473346D02*
X182404762Y-86425727D01*
X182404762Y-86425727D02*
X182309524Y-86378108D01*
X182309524Y-86378108D02*
X182119048Y-86330489D01*
X182119048Y-86330489D02*
X182023810Y-86282870D01*
X182023810Y-86282870D02*
X181976191Y-86235251D01*
X181976191Y-86235251D02*
X181928572Y-86140013D01*
X181928572Y-86140013D02*
X181928572Y-86044775D01*
X181928572Y-86044775D02*
X181976191Y-85949537D01*
X181976191Y-85949537D02*
X182023810Y-85901918D01*
X182023810Y-85901918D02*
X182119048Y-85854299D01*
X182119048Y-85854299D02*
X182357143Y-85854299D01*
X182357143Y-85854299D02*
X182500000Y-85901918D01*
X182785715Y-85854299D02*
X183357143Y-85854299D01*
X183071429Y-86854299D02*
X183071429Y-85854299D01*
X183690477Y-86854299D02*
X183690477Y-85854299D01*
X184738095Y-86759060D02*
X184690476Y-86806680D01*
X184690476Y-86806680D02*
X184547619Y-86854299D01*
X184547619Y-86854299D02*
X184452381Y-86854299D01*
X184452381Y-86854299D02*
X184309524Y-86806680D01*
X184309524Y-86806680D02*
X184214286Y-86711441D01*
X184214286Y-86711441D02*
X184166667Y-86616203D01*
X184166667Y-86616203D02*
X184119048Y-86425727D01*
X184119048Y-86425727D02*
X184119048Y-86282870D01*
X184119048Y-86282870D02*
X184166667Y-86092394D01*
X184166667Y-86092394D02*
X184214286Y-85997156D01*
X184214286Y-85997156D02*
X184309524Y-85901918D01*
X184309524Y-85901918D02*
X184452381Y-85854299D01*
X184452381Y-85854299D02*
X184547619Y-85854299D01*
X184547619Y-85854299D02*
X184690476Y-85901918D01*
X184690476Y-85901918D02*
X184738095Y-85949537D01*
X185166667Y-86854299D02*
X185166667Y-85854299D01*
X185738095Y-86854299D02*
X185309524Y-86282870D01*
X185738095Y-85854299D02*
X185166667Y-86425727D01*
X195119047Y-57454299D02*
X194785714Y-56978108D01*
X194547619Y-57454299D02*
X194547619Y-56454299D01*
X194547619Y-56454299D02*
X194928571Y-56454299D01*
X194928571Y-56454299D02*
X195023809Y-56501918D01*
X195023809Y-56501918D02*
X195071428Y-56549537D01*
X195071428Y-56549537D02*
X195119047Y-56644775D01*
X195119047Y-56644775D02*
X195119047Y-56787632D01*
X195119047Y-56787632D02*
X195071428Y-56882870D01*
X195071428Y-56882870D02*
X195023809Y-56930489D01*
X195023809Y-56930489D02*
X194928571Y-56978108D01*
X194928571Y-56978108D02*
X194547619Y-56978108D01*
X195928571Y-57406680D02*
X195833333Y-57454299D01*
X195833333Y-57454299D02*
X195642857Y-57454299D01*
X195642857Y-57454299D02*
X195547619Y-57406680D01*
X195547619Y-57406680D02*
X195500000Y-57311441D01*
X195500000Y-57311441D02*
X195500000Y-56930489D01*
X195500000Y-56930489D02*
X195547619Y-56835251D01*
X195547619Y-56835251D02*
X195642857Y-56787632D01*
X195642857Y-56787632D02*
X195833333Y-56787632D01*
X195833333Y-56787632D02*
X195928571Y-56835251D01*
X195928571Y-56835251D02*
X195976190Y-56930489D01*
X195976190Y-56930489D02*
X195976190Y-57025727D01*
X195976190Y-57025727D02*
X195500000Y-57120965D01*
X196309524Y-56787632D02*
X196547619Y-57454299D01*
X196547619Y-57454299D02*
X196785714Y-56787632D01*
X198261905Y-56930489D02*
X198404762Y-56978108D01*
X198404762Y-56978108D02*
X198452381Y-57025727D01*
X198452381Y-57025727D02*
X198500000Y-57120965D01*
X198500000Y-57120965D02*
X198500000Y-57263822D01*
X198500000Y-57263822D02*
X198452381Y-57359060D01*
X198452381Y-57359060D02*
X198404762Y-57406680D01*
X198404762Y-57406680D02*
X198309524Y-57454299D01*
X198309524Y-57454299D02*
X197928572Y-57454299D01*
X197928572Y-57454299D02*
X197928572Y-56454299D01*
X197928572Y-56454299D02*
X198261905Y-56454299D01*
X198261905Y-56454299D02*
X198357143Y-56501918D01*
X198357143Y-56501918D02*
X198404762Y-56549537D01*
X198404762Y-56549537D02*
X198452381Y-56644775D01*
X198452381Y-56644775D02*
X198452381Y-56740013D01*
X198452381Y-56740013D02*
X198404762Y-56835251D01*
X198404762Y-56835251D02*
X198357143Y-56882870D01*
X198357143Y-56882870D02*
X198261905Y-56930489D01*
X198261905Y-56930489D02*
X197928572Y-56930489D01*
D12*
X125880952Y-65399520D02*
X125880952Y-66289997D01*
X125880952Y-66289997D02*
X125933333Y-66394759D01*
X125933333Y-66394759D02*
X125985714Y-66447140D01*
X125985714Y-66447140D02*
X126090476Y-66499520D01*
X126090476Y-66499520D02*
X126300000Y-66499520D01*
X126300000Y-66499520D02*
X126404762Y-66447140D01*
X126404762Y-66447140D02*
X126457143Y-66394759D01*
X126457143Y-66394759D02*
X126509524Y-66289997D01*
X126509524Y-66289997D02*
X126509524Y-65399520D01*
X126980952Y-66447140D02*
X127138095Y-66499520D01*
X127138095Y-66499520D02*
X127400000Y-66499520D01*
X127400000Y-66499520D02*
X127504762Y-66447140D01*
X127504762Y-66447140D02*
X127557143Y-66394759D01*
X127557143Y-66394759D02*
X127609524Y-66289997D01*
X127609524Y-66289997D02*
X127609524Y-66185235D01*
X127609524Y-66185235D02*
X127557143Y-66080473D01*
X127557143Y-66080473D02*
X127504762Y-66028092D01*
X127504762Y-66028092D02*
X127400000Y-65975711D01*
X127400000Y-65975711D02*
X127190476Y-65923330D01*
X127190476Y-65923330D02*
X127085714Y-65870949D01*
X127085714Y-65870949D02*
X127033333Y-65818568D01*
X127033333Y-65818568D02*
X126980952Y-65713806D01*
X126980952Y-65713806D02*
X126980952Y-65609044D01*
X126980952Y-65609044D02*
X127033333Y-65504282D01*
X127033333Y-65504282D02*
X127085714Y-65451901D01*
X127085714Y-65451901D02*
X127190476Y-65399520D01*
X127190476Y-65399520D02*
X127452381Y-65399520D01*
X127452381Y-65399520D02*
X127609524Y-65451901D01*
X128447619Y-65923330D02*
X128604762Y-65975711D01*
X128604762Y-65975711D02*
X128657143Y-66028092D01*
X128657143Y-66028092D02*
X128709524Y-66132854D01*
X128709524Y-66132854D02*
X128709524Y-66289997D01*
X128709524Y-66289997D02*
X128657143Y-66394759D01*
X128657143Y-66394759D02*
X128604762Y-66447140D01*
X128604762Y-66447140D02*
X128500000Y-66499520D01*
X128500000Y-66499520D02*
X128080952Y-66499520D01*
X128080952Y-66499520D02*
X128080952Y-65399520D01*
X128080952Y-65399520D02*
X128447619Y-65399520D01*
X128447619Y-65399520D02*
X128552381Y-65451901D01*
X128552381Y-65451901D02*
X128604762Y-65504282D01*
X128604762Y-65504282D02*
X128657143Y-65609044D01*
X128657143Y-65609044D02*
X128657143Y-65713806D01*
X128657143Y-65713806D02*
X128604762Y-65818568D01*
X128604762Y-65818568D02*
X128552381Y-65870949D01*
X128552381Y-65870949D02*
X128447619Y-65923330D01*
X128447619Y-65923330D02*
X128080952Y-65923330D01*
X129180952Y-66080473D02*
X130019048Y-66080473D01*
X131171429Y-66394759D02*
X131119048Y-66447140D01*
X131119048Y-66447140D02*
X130961905Y-66499520D01*
X130961905Y-66499520D02*
X130857143Y-66499520D01*
X130857143Y-66499520D02*
X130700000Y-66447140D01*
X130700000Y-66447140D02*
X130595238Y-66342378D01*
X130595238Y-66342378D02*
X130542857Y-66237616D01*
X130542857Y-66237616D02*
X130490476Y-66028092D01*
X130490476Y-66028092D02*
X130490476Y-65870949D01*
X130490476Y-65870949D02*
X130542857Y-65661425D01*
X130542857Y-65661425D02*
X130595238Y-65556663D01*
X130595238Y-65556663D02*
X130700000Y-65451901D01*
X130700000Y-65451901D02*
X130857143Y-65399520D01*
X130857143Y-65399520D02*
X130961905Y-65399520D01*
X130961905Y-65399520D02*
X131119048Y-65451901D01*
X131119048Y-65451901D02*
X131171429Y-65504282D01*
D13*
X139433334Y-150651780D02*
X140042858Y-150651780D01*
X140042858Y-150651780D02*
X140347620Y-150804161D01*
X140347620Y-150804161D02*
X140652382Y-151108923D01*
X140652382Y-151108923D02*
X140804763Y-151718447D01*
X140804763Y-151718447D02*
X140804763Y-152785114D01*
X140804763Y-152785114D02*
X140652382Y-153394638D01*
X140652382Y-153394638D02*
X140347620Y-153699400D01*
X140347620Y-153699400D02*
X140042858Y-153851780D01*
X140042858Y-153851780D02*
X139433334Y-153851780D01*
X139433334Y-153851780D02*
X139128572Y-153699400D01*
X139128572Y-153699400D02*
X138823810Y-153394638D01*
X138823810Y-153394638D02*
X138671429Y-152785114D01*
X138671429Y-152785114D02*
X138671429Y-151718447D01*
X138671429Y-151718447D02*
X138823810Y-151108923D01*
X138823810Y-151108923D02*
X139128572Y-150804161D01*
X139128572Y-150804161D02*
X139433334Y-150651780D01*
X143547620Y-153851780D02*
X143547620Y-150651780D01*
X143547620Y-153699400D02*
X143242858Y-153851780D01*
X143242858Y-153851780D02*
X142633334Y-153851780D01*
X142633334Y-153851780D02*
X142328572Y-153699400D01*
X142328572Y-153699400D02*
X142176191Y-153547019D01*
X142176191Y-153547019D02*
X142023810Y-153242257D01*
X142023810Y-153242257D02*
X142023810Y-152327971D01*
X142023810Y-152327971D02*
X142176191Y-152023209D01*
X142176191Y-152023209D02*
X142328572Y-151870828D01*
X142328572Y-151870828D02*
X142633334Y-151718447D01*
X142633334Y-151718447D02*
X143242858Y-151718447D01*
X143242858Y-151718447D02*
X143547620Y-151870828D01*
X144766667Y-151718447D02*
X145528572Y-153851780D01*
X146290477Y-151718447D02*
X145528572Y-153851780D01*
X145528572Y-153851780D02*
X145223810Y-154613685D01*
X145223810Y-154613685D02*
X145071429Y-154766066D01*
X145071429Y-154766066D02*
X144766667Y-154918447D01*
X147052381Y-151718447D02*
X148271429Y-151718447D01*
X147509524Y-150651780D02*
X147509524Y-153394638D01*
X147509524Y-153394638D02*
X147661905Y-153699400D01*
X147661905Y-153699400D02*
X147966667Y-153851780D01*
X147966667Y-153851780D02*
X148271429Y-153851780D01*
X149185714Y-153699400D02*
X149490476Y-153851780D01*
X149490476Y-153851780D02*
X150100000Y-153851780D01*
X150100000Y-153851780D02*
X150404762Y-153699400D01*
X150404762Y-153699400D02*
X150557143Y-153394638D01*
X150557143Y-153394638D02*
X150557143Y-153242257D01*
X150557143Y-153242257D02*
X150404762Y-152937495D01*
X150404762Y-152937495D02*
X150100000Y-152785114D01*
X150100000Y-152785114D02*
X149642857Y-152785114D01*
X149642857Y-152785114D02*
X149338095Y-152632733D01*
X149338095Y-152632733D02*
X149185714Y-152327971D01*
X149185714Y-152327971D02*
X149185714Y-152175590D01*
X149185714Y-152175590D02*
X149338095Y-151870828D01*
X149338095Y-151870828D02*
X149642857Y-151718447D01*
X149642857Y-151718447D02*
X150100000Y-151718447D01*
X150100000Y-151718447D02*
X150404762Y-151870828D01*
X151776190Y-153699400D02*
X152080952Y-153851780D01*
X152080952Y-153851780D02*
X152690476Y-153851780D01*
X152690476Y-153851780D02*
X152995238Y-153699400D01*
X152995238Y-153699400D02*
X153147619Y-153394638D01*
X153147619Y-153394638D02*
X153147619Y-153242257D01*
X153147619Y-153242257D02*
X152995238Y-152937495D01*
X152995238Y-152937495D02*
X152690476Y-152785114D01*
X152690476Y-152785114D02*
X152233333Y-152785114D01*
X152233333Y-152785114D02*
X151928571Y-152632733D01*
X151928571Y-152632733D02*
X151776190Y-152327971D01*
X151776190Y-152327971D02*
X151776190Y-152175590D01*
X151776190Y-152175590D02*
X151928571Y-151870828D01*
X151928571Y-151870828D02*
X152233333Y-151718447D01*
X152233333Y-151718447D02*
X152690476Y-151718447D01*
X152690476Y-151718447D02*
X152995238Y-151870828D01*
X155738095Y-153699400D02*
X155433333Y-153851780D01*
X155433333Y-153851780D02*
X154823809Y-153851780D01*
X154823809Y-153851780D02*
X154519047Y-153699400D01*
X154519047Y-153699400D02*
X154366666Y-153394638D01*
X154366666Y-153394638D02*
X154366666Y-152175590D01*
X154366666Y-152175590D02*
X154519047Y-151870828D01*
X154519047Y-151870828D02*
X154823809Y-151718447D01*
X154823809Y-151718447D02*
X155433333Y-151718447D01*
X155433333Y-151718447D02*
X155738095Y-151870828D01*
X155738095Y-151870828D02*
X155890476Y-152175590D01*
X155890476Y-152175590D02*
X155890476Y-152480352D01*
X155890476Y-152480352D02*
X154366666Y-152785114D01*
X156957142Y-151718447D02*
X157719047Y-153851780D01*
X158480952Y-151718447D02*
X157719047Y-153851780D01*
X157719047Y-153851780D02*
X157414285Y-154613685D01*
X157414285Y-154613685D02*
X157261904Y-154766066D01*
X157261904Y-154766066D02*
X156957142Y-154918447D01*
D14*
X125574819Y-89333333D02*
X126289104Y-89333333D01*
X126289104Y-89333333D02*
X126431961Y-89380952D01*
X126431961Y-89380952D02*
X126527200Y-89476190D01*
X126527200Y-89476190D02*
X126574819Y-89619047D01*
X126574819Y-89619047D02*
X126574819Y-89714285D01*
X125670057Y-88904761D02*
X125622438Y-88857142D01*
X125622438Y-88857142D02*
X125574819Y-88761904D01*
X125574819Y-88761904D02*
X125574819Y-88523809D01*
X125574819Y-88523809D02*
X125622438Y-88428571D01*
X125622438Y-88428571D02*
X125670057Y-88380952D01*
X125670057Y-88380952D02*
X125765295Y-88333333D01*
X125765295Y-88333333D02*
X125860533Y-88333333D01*
X125860533Y-88333333D02*
X126003390Y-88380952D01*
X126003390Y-88380952D02*
X126574819Y-88952380D01*
X126574819Y-88952380D02*
X126574819Y-88333333D01*
X146216667Y-69907200D02*
X146359524Y-69954819D01*
X146359524Y-69954819D02*
X146597619Y-69954819D01*
X146597619Y-69954819D02*
X146692857Y-69907200D01*
X146692857Y-69907200D02*
X146740476Y-69859580D01*
X146740476Y-69859580D02*
X146788095Y-69764342D01*
X146788095Y-69764342D02*
X146788095Y-69669104D01*
X146788095Y-69669104D02*
X146740476Y-69573866D01*
X146740476Y-69573866D02*
X146692857Y-69526247D01*
X146692857Y-69526247D02*
X146597619Y-69478628D01*
X146597619Y-69478628D02*
X146407143Y-69431009D01*
X146407143Y-69431009D02*
X146311905Y-69383390D01*
X146311905Y-69383390D02*
X146264286Y-69335771D01*
X146264286Y-69335771D02*
X146216667Y-69240533D01*
X146216667Y-69240533D02*
X146216667Y-69145295D01*
X146216667Y-69145295D02*
X146264286Y-69050057D01*
X146264286Y-69050057D02*
X146311905Y-69002438D01*
X146311905Y-69002438D02*
X146407143Y-68954819D01*
X146407143Y-68954819D02*
X146645238Y-68954819D01*
X146645238Y-68954819D02*
X146788095Y-69002438D01*
X147121429Y-68954819D02*
X147359524Y-69954819D01*
X147359524Y-69954819D02*
X147550000Y-69240533D01*
X147550000Y-69240533D02*
X147740476Y-69954819D01*
X147740476Y-69954819D02*
X147978572Y-68954819D01*
X148264286Y-68954819D02*
X148883333Y-68954819D01*
X148883333Y-68954819D02*
X148550000Y-69335771D01*
X148550000Y-69335771D02*
X148692857Y-69335771D01*
X148692857Y-69335771D02*
X148788095Y-69383390D01*
X148788095Y-69383390D02*
X148835714Y-69431009D01*
X148835714Y-69431009D02*
X148883333Y-69526247D01*
X148883333Y-69526247D02*
X148883333Y-69764342D01*
X148883333Y-69764342D02*
X148835714Y-69859580D01*
X148835714Y-69859580D02*
X148788095Y-69907200D01*
X148788095Y-69907200D02*
X148692857Y-69954819D01*
X148692857Y-69954819D02*
X148407143Y-69954819D01*
X148407143Y-69954819D02*
X148311905Y-69907200D01*
X148311905Y-69907200D02*
X148264286Y-69859580D01*
X108116667Y-69907200D02*
X108259524Y-69954819D01*
X108259524Y-69954819D02*
X108497619Y-69954819D01*
X108497619Y-69954819D02*
X108592857Y-69907200D01*
X108592857Y-69907200D02*
X108640476Y-69859580D01*
X108640476Y-69859580D02*
X108688095Y-69764342D01*
X108688095Y-69764342D02*
X108688095Y-69669104D01*
X108688095Y-69669104D02*
X108640476Y-69573866D01*
X108640476Y-69573866D02*
X108592857Y-69526247D01*
X108592857Y-69526247D02*
X108497619Y-69478628D01*
X108497619Y-69478628D02*
X108307143Y-69431009D01*
X108307143Y-69431009D02*
X108211905Y-69383390D01*
X108211905Y-69383390D02*
X108164286Y-69335771D01*
X108164286Y-69335771D02*
X108116667Y-69240533D01*
X108116667Y-69240533D02*
X108116667Y-69145295D01*
X108116667Y-69145295D02*
X108164286Y-69050057D01*
X108164286Y-69050057D02*
X108211905Y-69002438D01*
X108211905Y-69002438D02*
X108307143Y-68954819D01*
X108307143Y-68954819D02*
X108545238Y-68954819D01*
X108545238Y-68954819D02*
X108688095Y-69002438D01*
X109021429Y-68954819D02*
X109259524Y-69954819D01*
X109259524Y-69954819D02*
X109450000Y-69240533D01*
X109450000Y-69240533D02*
X109640476Y-69954819D01*
X109640476Y-69954819D02*
X109878572Y-68954819D01*
X110783333Y-69954819D02*
X110211905Y-69954819D01*
X110497619Y-69954819D02*
X110497619Y-68954819D01*
X110497619Y-68954819D02*
X110402381Y-69097676D01*
X110402381Y-69097676D02*
X110307143Y-69192914D01*
X110307143Y-69192914D02*
X110211905Y-69240533D01*
X136691667Y-122407200D02*
X136834524Y-122454819D01*
X136834524Y-122454819D02*
X137072619Y-122454819D01*
X137072619Y-122454819D02*
X137167857Y-122407200D01*
X137167857Y-122407200D02*
X137215476Y-122359580D01*
X137215476Y-122359580D02*
X137263095Y-122264342D01*
X137263095Y-122264342D02*
X137263095Y-122169104D01*
X137263095Y-122169104D02*
X137215476Y-122073866D01*
X137215476Y-122073866D02*
X137167857Y-122026247D01*
X137167857Y-122026247D02*
X137072619Y-121978628D01*
X137072619Y-121978628D02*
X136882143Y-121931009D01*
X136882143Y-121931009D02*
X136786905Y-121883390D01*
X136786905Y-121883390D02*
X136739286Y-121835771D01*
X136739286Y-121835771D02*
X136691667Y-121740533D01*
X136691667Y-121740533D02*
X136691667Y-121645295D01*
X136691667Y-121645295D02*
X136739286Y-121550057D01*
X136739286Y-121550057D02*
X136786905Y-121502438D01*
X136786905Y-121502438D02*
X136882143Y-121454819D01*
X136882143Y-121454819D02*
X137120238Y-121454819D01*
X137120238Y-121454819D02*
X137263095Y-121502438D01*
X137596429Y-121454819D02*
X137834524Y-122454819D01*
X137834524Y-122454819D02*
X138025000Y-121740533D01*
X138025000Y-121740533D02*
X138215476Y-122454819D01*
X138215476Y-122454819D02*
X138453572Y-121454819D01*
X139310714Y-121454819D02*
X138834524Y-121454819D01*
X138834524Y-121454819D02*
X138786905Y-121931009D01*
X138786905Y-121931009D02*
X138834524Y-121883390D01*
X138834524Y-121883390D02*
X138929762Y-121835771D01*
X138929762Y-121835771D02*
X139167857Y-121835771D01*
X139167857Y-121835771D02*
X139263095Y-121883390D01*
X139263095Y-121883390D02*
X139310714Y-121931009D01*
X139310714Y-121931009D02*
X139358333Y-122026247D01*
X139358333Y-122026247D02*
X139358333Y-122264342D01*
X139358333Y-122264342D02*
X139310714Y-122359580D01*
X139310714Y-122359580D02*
X139263095Y-122407200D01*
X139263095Y-122407200D02*
X139167857Y-122454819D01*
X139167857Y-122454819D02*
X138929762Y-122454819D01*
X138929762Y-122454819D02*
X138834524Y-122407200D01*
X138834524Y-122407200D02*
X138786905Y-122359580D01*
X127166667Y-69907200D02*
X127309524Y-69954819D01*
X127309524Y-69954819D02*
X127547619Y-69954819D01*
X127547619Y-69954819D02*
X127642857Y-69907200D01*
X127642857Y-69907200D02*
X127690476Y-69859580D01*
X127690476Y-69859580D02*
X127738095Y-69764342D01*
X127738095Y-69764342D02*
X127738095Y-69669104D01*
X127738095Y-69669104D02*
X127690476Y-69573866D01*
X127690476Y-69573866D02*
X127642857Y-69526247D01*
X127642857Y-69526247D02*
X127547619Y-69478628D01*
X127547619Y-69478628D02*
X127357143Y-69431009D01*
X127357143Y-69431009D02*
X127261905Y-69383390D01*
X127261905Y-69383390D02*
X127214286Y-69335771D01*
X127214286Y-69335771D02*
X127166667Y-69240533D01*
X127166667Y-69240533D02*
X127166667Y-69145295D01*
X127166667Y-69145295D02*
X127214286Y-69050057D01*
X127214286Y-69050057D02*
X127261905Y-69002438D01*
X127261905Y-69002438D02*
X127357143Y-68954819D01*
X127357143Y-68954819D02*
X127595238Y-68954819D01*
X127595238Y-68954819D02*
X127738095Y-69002438D01*
X128071429Y-68954819D02*
X128309524Y-69954819D01*
X128309524Y-69954819D02*
X128500000Y-69240533D01*
X128500000Y-69240533D02*
X128690476Y-69954819D01*
X128690476Y-69954819D02*
X128928572Y-68954819D01*
X129261905Y-69050057D02*
X129309524Y-69002438D01*
X129309524Y-69002438D02*
X129404762Y-68954819D01*
X129404762Y-68954819D02*
X129642857Y-68954819D01*
X129642857Y-68954819D02*
X129738095Y-69002438D01*
X129738095Y-69002438D02*
X129785714Y-69050057D01*
X129785714Y-69050057D02*
X129833333Y-69145295D01*
X129833333Y-69145295D02*
X129833333Y-69240533D01*
X129833333Y-69240533D02*
X129785714Y-69383390D01*
X129785714Y-69383390D02*
X129214286Y-69954819D01*
X129214286Y-69954819D02*
X129833333Y-69954819D01*
X117641667Y-122407200D02*
X117784524Y-122454819D01*
X117784524Y-122454819D02*
X118022619Y-122454819D01*
X118022619Y-122454819D02*
X118117857Y-122407200D01*
X118117857Y-122407200D02*
X118165476Y-122359580D01*
X118165476Y-122359580D02*
X118213095Y-122264342D01*
X118213095Y-122264342D02*
X118213095Y-122169104D01*
X118213095Y-122169104D02*
X118165476Y-122073866D01*
X118165476Y-122073866D02*
X118117857Y-122026247D01*
X118117857Y-122026247D02*
X118022619Y-121978628D01*
X118022619Y-121978628D02*
X117832143Y-121931009D01*
X117832143Y-121931009D02*
X117736905Y-121883390D01*
X117736905Y-121883390D02*
X117689286Y-121835771D01*
X117689286Y-121835771D02*
X117641667Y-121740533D01*
X117641667Y-121740533D02*
X117641667Y-121645295D01*
X117641667Y-121645295D02*
X117689286Y-121550057D01*
X117689286Y-121550057D02*
X117736905Y-121502438D01*
X117736905Y-121502438D02*
X117832143Y-121454819D01*
X117832143Y-121454819D02*
X118070238Y-121454819D01*
X118070238Y-121454819D02*
X118213095Y-121502438D01*
X118546429Y-121454819D02*
X118784524Y-122454819D01*
X118784524Y-122454819D02*
X118975000Y-121740533D01*
X118975000Y-121740533D02*
X119165476Y-122454819D01*
X119165476Y-122454819D02*
X119403572Y-121454819D01*
X120213095Y-121788152D02*
X120213095Y-122454819D01*
X119975000Y-121407200D02*
X119736905Y-122121485D01*
X119736905Y-122121485D02*
X120355952Y-122121485D01*
X171166666Y-95074819D02*
X171166666Y-95789104D01*
X171166666Y-95789104D02*
X171119047Y-95931961D01*
X171119047Y-95931961D02*
X171023809Y-96027200D01*
X171023809Y-96027200D02*
X170880952Y-96074819D01*
X170880952Y-96074819D02*
X170785714Y-96074819D01*
X171547619Y-95074819D02*
X172214285Y-95074819D01*
X172214285Y-95074819D02*
X171785714Y-96074819D01*
%TO.C,J2*%
D15*
X127120000Y-90380000D02*
X127120000Y-89000000D01*
X128500000Y-90380000D02*
X127120000Y-90380000D01*
X129770000Y-87620000D02*
X137500000Y-87620001D01*
X129770000Y-90380000D02*
X129770000Y-87620000D01*
X129770000Y-90380000D02*
X137500000Y-90380000D01*
X137500000Y-90380000D02*
X137500000Y-87620001D01*
%TO.C,SW3*%
X140450000Y-70400000D02*
X140450000Y-84600000D01*
X140450000Y-84600000D02*
X154650000Y-84600000D01*
X154650000Y-70400000D02*
X140450000Y-70400000D01*
X154650000Y-84600000D02*
X154650000Y-70400000D01*
%TO.C,SW1*%
X102350000Y-70400000D02*
X102350000Y-84600000D01*
X102350000Y-84600000D02*
X116550000Y-84600000D01*
X116550000Y-70400000D02*
X102350000Y-70400000D01*
X116550000Y-84600000D02*
X116550000Y-70400000D01*
%TO.C,SW5*%
X130925000Y-122900000D02*
X130925000Y-137100000D01*
X130925000Y-137100000D02*
X145125000Y-137100000D01*
X145125000Y-122900000D02*
X130925000Y-122900000D01*
X145125000Y-137100000D02*
X145125000Y-122900000D01*
%TO.C,SW2*%
X121400000Y-70400000D02*
X121400000Y-84600000D01*
X121400000Y-84600000D02*
X135600000Y-84600000D01*
X135600000Y-70400000D02*
X121400000Y-70400000D01*
X135600000Y-84600000D02*
X135600000Y-70400000D01*
%TO.C,SW4*%
X111875000Y-122900000D02*
X111875000Y-137100000D01*
X111875000Y-137100000D02*
X126075000Y-137100000D01*
X126075000Y-122900000D02*
X111875000Y-122900000D01*
X126075000Y-137100000D02*
X126075000Y-122900000D01*
%TO.C,J7*%
X170120000Y-96620000D02*
X171500000Y-96620000D01*
X170120000Y-98000000D02*
X170120000Y-96620000D01*
X170120000Y-99270000D02*
X170120000Y-109540000D01*
X170120000Y-99270000D02*
X172880000Y-99270000D01*
X170120000Y-109540000D02*
X172880000Y-109540000D01*
X172880000Y-99270000D02*
X172880000Y-109540000D01*
%TD*%
%LPC*%
D16*
%TO.C,J2*%
X128500000Y-89000000D03*
D17*
X131040000Y-89000000D03*
X133580000Y-89000000D03*
X136120000Y-89000000D03*
%TD*%
D18*
%TO.C,SW3*%
X142470000Y-77500000D03*
D19*
X143740000Y-74960000D03*
D20*
X147550000Y-77500000D03*
D19*
X150090000Y-72420000D03*
D18*
X152630000Y-77500000D03*
%TD*%
%TO.C,SW1*%
X104370000Y-77500000D03*
D19*
X105640000Y-74960000D03*
D20*
X109450000Y-77500000D03*
D19*
X111990000Y-72420000D03*
D18*
X114530000Y-77500000D03*
%TD*%
%TO.C,SW5*%
X132945000Y-130000000D03*
D19*
X134215000Y-127460000D03*
D20*
X138025000Y-130000000D03*
D19*
X140565000Y-124920000D03*
D18*
X143105000Y-130000000D03*
%TD*%
%TO.C,SW2*%
X123420000Y-77500000D03*
D19*
X124690000Y-74960000D03*
D20*
X128500000Y-77500000D03*
D19*
X131040000Y-72420000D03*
D18*
X133580000Y-77500000D03*
%TD*%
%TO.C,SW4*%
X113895000Y-130000000D03*
D19*
X115165000Y-127460000D03*
D20*
X118975000Y-130000000D03*
D19*
X121515000Y-124920000D03*
D18*
X124055000Y-130000000D03*
%TD*%
D16*
%TO.C,J7*%
X171500000Y-98000000D03*
D17*
X171500000Y-100540000D03*
X171500000Y-103080000D03*
X171500000Y-105620000D03*
X171500000Y-108160000D03*
%TD*%
D16*
%TO.C,J5*%
X155000000Y-144000000D03*
D17*
X152460000Y-144000000D03*
X149920000Y-144000000D03*
%TD*%
D21*
%TO.C,J1*%
X125610000Y-61899999D03*
X131389999Y-61900000D03*
D22*
X124180000Y-58250000D03*
D23*
X124180000Y-62429999D03*
D22*
X132820000Y-58250001D03*
D23*
X132820000Y-62430000D03*
%TD*%
D16*
%TO.C,J6*%
X136000000Y-146000000D03*
D17*
X133460000Y-146000000D03*
X130920000Y-146000000D03*
X128380000Y-146000000D03*
X125840000Y-146000000D03*
X123300000Y-146000000D03*
X120760000Y-146000000D03*
X118220000Y-146000000D03*
%TD*%
%LPD*%
M02*
