M48
; DRILL file KiCad 10.0.5 date 2026-08-27T10:30:51
; FORMAT={-:-/ absolute / metric / decimal}
; #@! TF.CreationDate,2026-08-27T10:30:51+09:00
; #@! TF.GenerationSoftware,Kicad,Pcbnew,10.0.5
; #@! TF.FileFunction,Plated,1,2,PTH
FMAT,2
METRIC
; #@! TA.AperFunction,Plated,PTH,ComponentDrill
T1C0.200
; #@! TA.AperFunction,Plated,PTH,ViaDrill
T2C0.300
; #@! TA.AperFunction,Plated,PTH,ComponentDrill
T3C0.600
%
G90
G05
T1
X106.31Y-100.8
X106.31Y-102.2
X107.01Y-100.1
X107.01Y-101.5
X107.01Y-102.9
X107.71Y-100.8
X107.71Y-102.2
X108.41Y-100.1
X108.41Y-101.5
X108.41Y-102.9
X109.11Y-100.8
X109.11Y-102.2
T2
X97.5Y-71.0
X97.5Y-131.0
X97.5Y-137.0
X97.5Y-149.0
X101.794Y-95.989
X102.836Y-99.262
X103.5Y-59.0
X103.5Y-71.0
X103.5Y-131.0
X103.5Y-149.0
X104.454Y-108.27
X105.687Y-119.6
X105.687Y-122.52
X108.64Y-81.64
X109.486Y-82.495
X109.5Y-59.0
X109.5Y-65.0
X109.5Y-71.0
X109.5Y-137.0
X109.5Y-143.0
X109.5Y-149.0
X109.571Y-98.102
X111.593Y-113.761
X111.709Y-95.806
X111.746Y-98.969
X114.049Y-88.979
X114.38Y-142.596
X114.598Y-109.244
X115.261Y-107.698
X115.5Y-59.0
X115.5Y-65.0
X115.5Y-131.0
X115.5Y-137.0
X116.461Y-98.227
X119.587Y-79.558
X120.162Y-95.222
X120.485Y-81.674
X121.03Y-94.901
X121.5Y-59.0
X121.5Y-77.0
X121.5Y-119.0
X121.5Y-143.0
X121.5Y-149.0
X121.713Y-115.896
X123.869Y-95.332
X126.191Y-113.412
X126.49Y-90.65
X127.403Y-60.664
X127.5Y-149.0
X129.309Y-87.211
X129.362Y-95.863
X129.538Y-61.964
X129.715Y-129.315
X130.124Y-125.44
X130.354Y-130.253
X130.397Y-61.159
X133.5Y-101.0
X133.5Y-107.0
X133.5Y-119.0
X133.5Y-125.0
X133.5Y-137.0
X133.5Y-143.0
X135.11Y-60.823
X136.056Y-131.984
X138.141Y-78.694
X138.198Y-81.671
X139.5Y-95.0
X139.5Y-101.0
X139.5Y-107.0
X144.072Y-113.76
X144.15Y-144.35
X145.074Y-61.224
X145.147Y-64.965
X145.5Y-71.0
X145.5Y-83.0
X145.5Y-95.0
X145.5Y-101.0
X145.5Y-107.0
X145.5Y-119.0
X145.5Y-137.0
X145.667Y-124.92
X149.978Y-64.565
X150.134Y-61.2
X151.5Y-59.0
X151.5Y-83.0
X151.5Y-95.0
X151.5Y-101.0
X151.5Y-107.0
X151.5Y-113.0
X151.5Y-119.0
X151.5Y-125.0
X151.5Y-131.0
X151.5Y-137.0
X151.5Y-143.0
X157.5Y-59.0
X157.5Y-65.0
X157.5Y-149.0
X163.5Y-59.0
X163.5Y-65.0
X163.5Y-71.0
X163.5Y-77.0
X163.5Y-83.0
X163.5Y-89.0
X163.5Y-131.0
X163.5Y-137.0
X163.5Y-143.0
X163.5Y-149.0
X164.185Y-96.0
X164.603Y-99.973
X165.472Y-96.485
X167.083Y-96.485
X168.078Y-101.468
X169.5Y-59.0
X169.5Y-65.0
X169.5Y-71.0
X169.5Y-77.0
X169.5Y-83.0
X169.5Y-89.0
X169.5Y-107.0
X169.5Y-113.0
X169.5Y-119.0
X169.5Y-125.0
X169.5Y-131.0
X169.5Y-137.0
X169.5Y-143.0
X169.5Y-149.0
X170.088Y-96.5
X175.5Y-59.0
X175.5Y-65.0
X175.5Y-71.0
X175.5Y-77.0
X175.5Y-83.0
X175.5Y-89.0
X175.5Y-95.0
X175.5Y-101.0
X175.5Y-107.0
X175.5Y-113.0
X175.5Y-119.0
X175.5Y-125.0
X175.5Y-131.0
X175.5Y-137.0
X175.5Y-143.0
X175.5Y-149.0
X181.5Y-59.0
X181.5Y-65.0
X181.5Y-71.0
X181.5Y-77.0
X181.5Y-83.0
X181.5Y-89.0
X181.5Y-95.0
X181.5Y-101.0
X181.5Y-107.0
X181.5Y-113.0
X181.5Y-119.0
X181.5Y-125.0
X181.5Y-131.0
X181.5Y-137.0
X181.5Y-143.0
X187.5Y-59.0
X187.5Y-65.0
X187.5Y-71.0
X187.5Y-77.0
X187.5Y-83.0
X187.5Y-89.0
X187.5Y-95.0
X187.5Y-101.0
X187.5Y-107.0
X187.5Y-113.0
X187.5Y-119.0
X187.5Y-125.0
X187.5Y-131.0
X187.5Y-137.0
X187.5Y-143.0
X187.5Y-149.0
X193.5Y-59.0
X193.5Y-65.0
X193.5Y-71.0
X193.5Y-77.0
X193.5Y-83.0
X193.5Y-89.0
X193.5Y-95.0
X193.5Y-101.0
X193.5Y-107.0
X193.5Y-113.0
X193.5Y-119.0
X193.5Y-125.0
X193.5Y-131.0
X193.5Y-137.0
X193.5Y-143.0
X193.5Y-149.0
X199.5Y-59.0
X199.5Y-65.0
X199.5Y-71.0
X199.5Y-77.0
X199.5Y-83.0
X199.5Y-89.0
X199.5Y-95.0
X199.5Y-101.0
X199.5Y-107.0
X199.5Y-113.0
X199.5Y-119.0
X199.5Y-125.0
X199.5Y-131.0
X199.5Y-137.0
X199.5Y-143.0
X199.5Y-149.0
T3
X124.18Y-57.95G85X124.18Y-58.55
G05
X124.18Y-61.88G85X124.18Y-62.98
G05
X132.82Y-57.95G85X132.82Y-58.55
G05
X132.82Y-61.88G85X132.82Y-62.98
G05
M30
