%TF.GenerationSoftware,KiCad,Pcbnew,10.0.5*%
%TF.CreationDate,2026-08-27T00:57:08+09:00*%
%TF.ProjectId,OdytsseySwitch,4f647974-7373-4657-9953-77697463682e,rev?*%
%TF.SameCoordinates,Original*%
%TF.FileFunction,Soldermask,Top*%
%TF.FilePolarity,Negative*%
%FSLAX46Y46*%
G04 Gerber Fmt 4.6, Leading zero omitted, Abs format (unit mm)*
G04 Created by KiCad (PCBNEW 10.0.5) date 2026-08-27 00:57:08*
%MOMM*%
%LPD*%
G01*
G04 APERTURE LIST*
%ADD10R,1.700000X1.700000*%
%ADD11C,1.700000*%
%ADD12C,1.750000*%
%ADD13C,3.050000*%
%ADD14C,4.000000*%
%ADD15C,0.650000*%
%ADD16O,1.000000X1.600000*%
%ADD17O,1.000000X2.100000*%
G04 APERTURE END LIST*
D10*
%TO.C,J2*%
X128500000Y-89000000D03*
D11*
X131040000Y-89000000D03*
X133580000Y-89000000D03*
X136120000Y-89000000D03*
%TD*%
D12*
%TO.C,SW3*%
X142470000Y-77500000D03*
D13*
X143740000Y-74960000D03*
D14*
X147550000Y-77500000D03*
D13*
X150090000Y-72420000D03*
D12*
X152630000Y-77500000D03*
%TD*%
%TO.C,SW1*%
X104370000Y-77500000D03*
D13*
X105640000Y-74960000D03*
D14*
X109450000Y-77500000D03*
D13*
X111990000Y-72420000D03*
D12*
X114530000Y-77500000D03*
%TD*%
%TO.C,SW5*%
X132945000Y-130000000D03*
D13*
X134215000Y-127460000D03*
D14*
X138025000Y-130000000D03*
D13*
X140565000Y-124920000D03*
D12*
X143105000Y-130000000D03*
%TD*%
%TO.C,SW2*%
X123420000Y-77500000D03*
D13*
X124690000Y-74960000D03*
D14*
X128500000Y-77500000D03*
D13*
X131040000Y-72420000D03*
D12*
X133580000Y-77500000D03*
%TD*%
%TO.C,SW4*%
X113895000Y-130000000D03*
D13*
X115165000Y-127460000D03*
D14*
X118975000Y-130000000D03*
D13*
X121515000Y-124920000D03*
D12*
X124055000Y-130000000D03*
%TD*%
D10*
%TO.C,J7*%
X171500000Y-98000000D03*
D11*
X171500000Y-100540000D03*
X171500000Y-103080000D03*
X171500000Y-105620000D03*
X171500000Y-108160000D03*
%TD*%
D10*
%TO.C,J5*%
X155000000Y-144000000D03*
D11*
X152460000Y-144000000D03*
X149920000Y-144000000D03*
%TD*%
D15*
%TO.C,J1*%
X125610000Y-61899999D03*
X131389999Y-61900000D03*
D16*
X124180000Y-58250000D03*
D17*
X124180000Y-62429999D03*
D16*
X132820000Y-58250001D03*
D17*
X132820000Y-62430000D03*
%TD*%
D10*
%TO.C,J6*%
X136000000Y-146000000D03*
D11*
X133460000Y-146000000D03*
X130920000Y-146000000D03*
X128380000Y-146000000D03*
X125840000Y-146000000D03*
X123300000Y-146000000D03*
X120760000Y-146000000D03*
X118220000Y-146000000D03*
%TD*%
M02*
