%TF.GenerationSoftware,KiCad,Pcbnew,10.0.5*%
%TF.CreationDate,2026-08-27T09:57:43+09:00*%
%TF.ProjectId,OdytsseySwitch,4f647974-7373-4657-9953-77697463682e,rev?*%
%TF.SameCoordinates,Original*%
%TF.FileFunction,Copper,L1,Top*%
%TF.FilePolarity,Positive*%
%FSLAX46Y46*%
G04 Gerber Fmt 4.6, Leading zero omitted, Abs format (unit mm)*
G04 Created by KiCad (PCBNEW 10.0.5) date 2026-08-27 09:57:43*
%MOMM*%
%LPD*%
G01*
G04 APERTURE LIST*
%TA.AperFunction,SMDPad,CuDef*%
%ADD10R,1.000000X1.900000*%
%TD*%
%TA.AperFunction,SMDPad,CuDef*%
%ADD11R,1.900000X1.000000*%
%TD*%
%TA.AperFunction,ComponentPad*%
%ADD12O,1.000000X1.600000*%
%TD*%
%TA.AperFunction,ComponentPad*%
%ADD13O,1.000000X2.100000*%
%TD*%
%TA.AperFunction,ComponentPad*%
%ADD14C,0.600000*%
%TD*%
%TA.AperFunction,ViaPad*%
%ADD15C,0.600000*%
%TD*%
%TA.AperFunction,Conductor*%
%ADD16C,0.300000*%
%TD*%
%TA.AperFunction,Conductor*%
%ADD17C,0.200000*%
%TD*%
G04 APERTURE END LIST*
D10*
%TO.P,J2,1,Pin_1_1*%
%TO.N,GND*%
X124690000Y-90650000D03*
%TO.P,J2,2,Pin_2_2*%
%TO.N,+3V3*%
X127230000Y-87350000D03*
%TO.P,J2,3,Pin_3_3*%
%TO.N,/OLED_SCL*%
X129770000Y-90650000D03*
%TO.P,J2,4,Pin_4_4*%
%TO.N,/OLED_SDA*%
X132310000Y-87350000D03*
%TD*%
D11*
%TO.P,J7,1,Pin_1_1*%
%TO.N,GND*%
X169850000Y-92920000D03*
%TO.P,J7,2,Pin_2_2*%
%TO.N,+3V3*%
X173150000Y-95460000D03*
%TO.P,J7,3,Pin_3_3*%
%TO.N,/JOY_VRX*%
X169850000Y-98000000D03*
%TO.P,J7,4,Pin_4_4*%
%TO.N,/JOY_VRY*%
X173150000Y-100540000D03*
%TO.P,J7,5,Pin_5_5*%
%TO.N,/JOY_SW*%
X169850000Y-103080000D03*
%TD*%
D12*
%TO.P,J1,SH,SHIELD_SH*%
%TO.N,GND*%
X124180000Y-58250000D03*
D13*
X124180000Y-62429999D03*
D12*
X132820000Y-58250001D03*
D13*
X132820000Y-62430000D03*
%TD*%
D14*
%TO.P,U1,41,GND_41*%
%TO.N,GND*%
X107009998Y-100100000D03*
X108409998Y-100100001D03*
X106309998Y-100800000D03*
X109109998Y-100800001D03*
X107709998Y-100800001D03*
X108409999Y-101500001D03*
X107009998Y-101500001D03*
X109110000Y-102200001D03*
X107710000Y-102200001D03*
X106309999Y-102200001D03*
X108410000Y-102900001D03*
X107010000Y-102900001D03*
%TD*%
D15*
%TO.N,GND*%
X175500000Y-107000000D03*
X181500000Y-83000000D03*
X187500000Y-131000000D03*
X169500000Y-65000000D03*
X109500000Y-149000000D03*
X193500000Y-65000000D03*
X145500000Y-83000000D03*
X157500000Y-59000000D03*
X181500000Y-101000000D03*
X163500000Y-131000000D03*
X133500000Y-137000000D03*
X151500000Y-131000000D03*
X127500000Y-149000000D03*
X133500000Y-143000000D03*
X193500000Y-95000000D03*
X181500000Y-119000000D03*
X121500000Y-119000000D03*
X133500000Y-125000000D03*
X145500000Y-95000000D03*
X199500000Y-137000000D03*
X181500000Y-59000000D03*
X193500000Y-59000000D03*
X169500000Y-83000000D03*
X187500000Y-143000000D03*
X199500000Y-65000000D03*
X193500000Y-77000000D03*
X145667000Y-124920000D03*
X145500000Y-137000000D03*
X175500000Y-77000000D03*
X109500000Y-65000000D03*
X109500000Y-71000000D03*
X103500000Y-59000000D03*
X199500000Y-89000000D03*
X187500000Y-149000000D03*
X187500000Y-59000000D03*
X169500000Y-137000000D03*
X193500000Y-101000000D03*
X193500000Y-113000000D03*
X169500000Y-89000000D03*
X169500000Y-143000000D03*
X121500000Y-77000000D03*
X181500000Y-89000000D03*
X175500000Y-137000000D03*
X199500000Y-83000000D03*
X163500000Y-149000000D03*
X199500000Y-119000000D03*
X151500000Y-59000000D03*
X163500000Y-65000000D03*
X115500000Y-137000000D03*
X181500000Y-131000000D03*
X175500000Y-83000000D03*
X169500000Y-131000000D03*
X169500000Y-107000000D03*
X163500000Y-137000000D03*
X199500000Y-107000000D03*
X187500000Y-77000000D03*
X169500000Y-71000000D03*
X181500000Y-71000000D03*
X151500000Y-107000000D03*
X175500000Y-143000000D03*
X133500000Y-101000000D03*
X187500000Y-71000000D03*
X163500000Y-143000000D03*
X169500000Y-125000000D03*
X175500000Y-65000000D03*
X187500000Y-65000000D03*
X139500000Y-107000000D03*
X169500000Y-77000000D03*
X133531919Y-62616750D03*
X151500000Y-83000000D03*
X181500000Y-137000000D03*
X151500000Y-95000000D03*
X170087500Y-96500000D03*
X145500000Y-101000000D03*
X193500000Y-71000000D03*
X181500000Y-65000000D03*
X199500000Y-101000000D03*
X144150000Y-144350000D03*
X163500000Y-77000000D03*
X175500000Y-125000000D03*
X139500000Y-95000000D03*
X169500000Y-113000000D03*
X181500000Y-143000000D03*
X109500000Y-137000000D03*
X169500000Y-59000000D03*
X187500000Y-125000000D03*
X199500000Y-125000000D03*
X151500000Y-143000000D03*
X175500000Y-71000000D03*
X175500000Y-95000000D03*
X199500000Y-95000000D03*
X175500000Y-101000000D03*
X187500000Y-101000000D03*
X193500000Y-119000000D03*
X157500000Y-149000000D03*
X109500000Y-143000000D03*
X187500000Y-95000000D03*
X199500000Y-131000000D03*
X97500000Y-149000000D03*
X175500000Y-119000000D03*
X115500000Y-131000000D03*
X187500000Y-83000000D03*
X193500000Y-137000000D03*
X169500000Y-149000000D03*
X145500000Y-71000000D03*
X121500000Y-59000000D03*
X145500000Y-119000000D03*
X193500000Y-143000000D03*
X133500000Y-107000000D03*
X199500000Y-143000000D03*
X187500000Y-119000000D03*
X139500000Y-101000000D03*
X193500000Y-83000000D03*
X109500000Y-59000000D03*
X133500000Y-119000000D03*
X175500000Y-59000000D03*
X175500000Y-131000000D03*
X193500000Y-149000000D03*
X199500000Y-113000000D03*
X187500000Y-107000000D03*
X121500000Y-143000000D03*
X114380271Y-142596148D03*
X97500000Y-131000000D03*
X103500000Y-71000000D03*
X126490000Y-90650000D03*
X115500000Y-65000000D03*
X151500000Y-125000000D03*
X199500000Y-71000000D03*
X121500000Y-149000000D03*
X181500000Y-77000000D03*
X181500000Y-107000000D03*
X151500000Y-113000000D03*
X103500000Y-131000000D03*
X151500000Y-119000000D03*
X157500000Y-65000000D03*
X97500000Y-71000000D03*
X151500000Y-101000000D03*
X187500000Y-89000000D03*
X163500000Y-71000000D03*
X193500000Y-107000000D03*
X181500000Y-95000000D03*
X199500000Y-149000000D03*
X175500000Y-89000000D03*
X97500000Y-137000000D03*
X103500000Y-149000000D03*
X199500000Y-77000000D03*
X181500000Y-125000000D03*
X169500000Y-119000000D03*
X199500000Y-59000000D03*
X181500000Y-113000000D03*
X115500000Y-59000000D03*
X187500000Y-137000000D03*
X193500000Y-125000000D03*
X151500000Y-137000000D03*
X175500000Y-149000000D03*
X163500000Y-89000000D03*
X163500000Y-83000000D03*
X145500000Y-107000000D03*
X163500000Y-59000000D03*
X193500000Y-89000000D03*
X187500000Y-113000000D03*
X193500000Y-131000000D03*
X175500000Y-113000000D03*
%TO.N,+3V3*%
X101794100Y-95988500D03*
X164185000Y-95999900D03*
X121029600Y-94901000D03*
%TO.N,/OLED_SCL*%
X123868600Y-95332500D03*
X120161700Y-95222000D03*
%TO.N,/OLED_SDA*%
X129308800Y-87210800D03*
X114049500Y-88979300D03*
%TO.N,/KEY3*%
X138197700Y-81670800D03*
X109485900Y-82495000D03*
%TO.N,/KEY5*%
X126191300Y-113412000D03*
X109571100Y-98101600D03*
%TO.N,/KEY2*%
X119587500Y-79557800D03*
X108639900Y-81640000D03*
%TO.N,/KEY4*%
X104454400Y-108270100D03*
X111593000Y-113761200D03*
%TO.N,/JOY_VRX*%
X167083200Y-96484900D03*
X102836300Y-99261800D03*
X165472200Y-96484900D03*
%TO.N,/JOY_VRY*%
X168078200Y-101467500D03*
X111745700Y-98968900D03*
%TO.N,/JOY_SW*%
X116460800Y-98227500D03*
X164602800Y-99972900D03*
%TO.N,/CC2*%
X130397000Y-61158800D03*
X149977700Y-64564600D03*
%TO.N,/CC1*%
X150134100Y-61200000D03*
X127402800Y-60663800D03*
%TO.N,/USBC_DP*%
X145147400Y-64965300D03*
X129538100Y-61964000D03*
%TO.N,/USBC_DM*%
X135110100Y-60823000D03*
X145074000Y-61223700D03*
%TO.N,/USB_DP_MCU*%
X120484900Y-81674200D03*
X138140700Y-78693800D03*
%TO.N,/RGB_DIN_MCU*%
X115261500Y-107697900D03*
X144072300Y-113760000D03*
%TO.N,/UART_TX*%
X136055800Y-131983600D03*
X105687200Y-122520000D03*
%TO.N,/UART_RX*%
X129715100Y-129315400D03*
X105687200Y-119600000D03*
%TO.N,/EXP_GPIO10*%
X121713400Y-115896200D03*
X114598400Y-109244100D03*
%TO.N,/EXP_GPIO11*%
X130353700Y-130253000D03*
X130124400Y-125440000D03*
%TO.N,/LED_CTRL*%
X111709500Y-95806100D03*
X129362300Y-95862800D03*
%TD*%
%TO.N,GND*%
D16*
X124690000Y-90650000D02*
X126490000Y-90650000D01*
%TO.N,+3V3*%
D17*
X127230000Y-88106200D02*
X127230000Y-88601700D01*
X157307400Y-89122300D02*
X128246100Y-89122300D01*
X164185000Y-95999900D02*
X157307400Y-89122300D01*
X127230000Y-88601700D02*
X124807900Y-88601700D01*
X119835900Y-93707300D02*
X121029600Y-94901000D01*
X164724900Y-95460000D02*
X164185000Y-95999900D01*
X173150000Y-95460000D02*
X164724900Y-95460000D01*
X127230000Y-87350000D02*
X127230000Y-88106200D01*
X104075300Y-93707300D02*
X119835900Y-93707300D01*
X101794100Y-95988500D02*
X104075300Y-93707300D01*
X128246100Y-89122300D02*
X127230000Y-88106200D01*
X119835900Y-93573700D02*
X119835900Y-93707300D01*
X124807900Y-88601700D02*
X119835900Y-93573700D01*
%TO.N,/OLED_SCL*%
X123698400Y-95502700D02*
X123868600Y-95332500D01*
X120442400Y-95502700D02*
X123698400Y-95502700D01*
X129770000Y-91901700D02*
X127299400Y-91901700D01*
X120161700Y-95222000D02*
X120442400Y-95502700D01*
X129770000Y-90650000D02*
X129770000Y-91901700D01*
X127299400Y-91901700D02*
X123868600Y-95332500D01*
%TO.N,/OLED_SDA*%
X129308800Y-86098300D02*
X116930500Y-86098300D01*
X129308800Y-86098300D02*
X129308800Y-87210800D01*
X132310000Y-87350000D02*
X132310000Y-86098300D01*
X132310000Y-86098300D02*
X129308800Y-86098300D01*
X116930500Y-86098300D02*
X114049500Y-88979300D01*
%TO.N,/KEY3*%
X138197700Y-81670800D02*
X137373500Y-82495000D01*
X137373500Y-82495000D02*
X109485900Y-82495000D01*
%TO.N,/KEY5*%
X126191300Y-113412000D02*
X124881500Y-113412000D01*
X124881500Y-113412000D02*
X109571100Y-98101600D01*
%TO.N,/KEY2*%
X117505300Y-81640000D02*
X108639900Y-81640000D01*
X119587500Y-79557800D02*
X117505300Y-81640000D01*
%TO.N,/KEY4*%
X106101900Y-108270100D02*
X111593000Y-113761200D01*
X104454400Y-108270100D02*
X106101900Y-108270100D01*
%TO.N,/JOY_VRX*%
X105115400Y-96982700D02*
X102836300Y-99261800D01*
X164974400Y-96982700D02*
X105115400Y-96982700D01*
X168598300Y-98000000D02*
X167083200Y-96484900D01*
X169850000Y-98000000D02*
X168598300Y-98000000D01*
X165472200Y-96484900D02*
X164974400Y-96982700D01*
X167083200Y-96484900D02*
X165472200Y-96484900D01*
%TO.N,/JOY_VRY*%
X113089100Y-97625500D02*
X164236200Y-97625500D01*
X111745700Y-98968900D02*
X113089100Y-97625500D01*
X164236200Y-97625500D02*
X168078200Y-101467500D01*
X169005700Y-100540000D02*
X168078200Y-101467500D01*
X173150000Y-100540000D02*
X169005700Y-100540000D01*
%TO.N,/JOY_SW*%
X169850000Y-103080000D02*
X168598300Y-103080000D01*
X164602800Y-99972900D02*
X165491200Y-99972900D01*
X165491200Y-99972900D02*
X168598300Y-103080000D01*
X162857400Y-98227500D02*
X164602800Y-99972900D01*
X116460800Y-98227500D02*
X162857400Y-98227500D01*
%TO.N,/CC2*%
X130552100Y-61003700D02*
X133506800Y-61003700D01*
X130397000Y-61158800D02*
X130552100Y-61003700D01*
X149205000Y-63791900D02*
X149977700Y-64564600D01*
X133506800Y-61003700D02*
X136295000Y-63791900D01*
X136295000Y-63791900D02*
X149205000Y-63791900D01*
%TO.N,/CC1*%
X149153300Y-60219200D02*
X150134100Y-61200000D01*
X127847400Y-60219200D02*
X149153300Y-60219200D01*
X127402800Y-60663800D02*
X127847400Y-60219200D01*
%TO.N,/USBC_DP*%
X132539400Y-64965300D02*
X129538100Y-61964000D01*
X145147400Y-64965300D02*
X132539400Y-64965300D01*
%TO.N,/USBC_DM*%
X145074000Y-61223700D02*
X135510800Y-61223700D01*
X135510800Y-61223700D02*
X135110100Y-60823000D01*
%TO.N,/USB_DP_MCU*%
X135160300Y-81674200D02*
X120484900Y-81674200D01*
X138140700Y-78693800D02*
X135160300Y-81674200D01*
%TO.N,/RGB_DIN_MCU*%
X121598200Y-114034600D02*
X143797700Y-114034600D01*
X143797700Y-114034600D02*
X144072300Y-113760000D01*
X115261500Y-107697900D02*
X121598200Y-114034600D01*
%TO.N,/UART_TX*%
X131118700Y-131983600D02*
X136055800Y-131983600D01*
X126131800Y-126996700D02*
X131118700Y-131983600D01*
X119578200Y-126996700D02*
X126131800Y-126996700D01*
X115101500Y-122520000D02*
X119578200Y-126996700D01*
X105687200Y-122520000D02*
X115101500Y-122520000D01*
%TO.N,/UART_RX*%
X119999700Y-119600000D02*
X105687200Y-119600000D01*
X129715100Y-129315400D02*
X119999700Y-119600000D01*
%TO.N,/EXP_GPIO10*%
X121713400Y-115896200D02*
X115061300Y-109244100D01*
X115061300Y-109244100D02*
X114598400Y-109244100D01*
%TO.N,/EXP_GPIO11*%
X130353700Y-125669300D02*
X130353700Y-130253000D01*
X130124400Y-125440000D02*
X130353700Y-125669300D01*
%TO.N,/LED_CTRL*%
X111860400Y-95957000D02*
X111709500Y-95806100D01*
X129268100Y-95957000D02*
X111860400Y-95957000D01*
X129362300Y-95862800D02*
X129268100Y-95957000D01*
%TD*%
%TA.AperFunction,Conductor*%
%TO.N,GND*%
G36*
X157158690Y-89541707D02*
G01*
X157170503Y-89551796D01*
X163555504Y-95936797D01*
X163583281Y-95991314D01*
X163584500Y-96006801D01*
X163584500Y-96078957D01*
X163625423Y-96231684D01*
X163704480Y-96368616D01*
X163749062Y-96413198D01*
X163776838Y-96467713D01*
X163767267Y-96528145D01*
X163724002Y-96571410D01*
X163679057Y-96582200D01*
X129686735Y-96582200D01*
X129628544Y-96563293D01*
X129592580Y-96513793D01*
X129592580Y-96452607D01*
X129628544Y-96403107D01*
X129637221Y-96397471D01*
X129731016Y-96343320D01*
X129842820Y-96231516D01*
X129921877Y-96094584D01*
X129962800Y-95941857D01*
X129962800Y-95783743D01*
X129921877Y-95631016D01*
X129842820Y-95494084D01*
X129731016Y-95382280D01*
X129594084Y-95303223D01*
X129441357Y-95262300D01*
X129283243Y-95262300D01*
X129148542Y-95298393D01*
X129130516Y-95303223D01*
X128993584Y-95382280D01*
X128881778Y-95494086D01*
X128874322Y-95507001D01*
X128828852Y-95547941D01*
X128788586Y-95556500D01*
X124559282Y-95556500D01*
X124501091Y-95537593D01*
X124465127Y-95488093D01*
X124463655Y-95431878D01*
X124464447Y-95428923D01*
X124469100Y-95411557D01*
X124469100Y-95339401D01*
X124488007Y-95281210D01*
X124498096Y-95269397D01*
X127436297Y-92331196D01*
X127490814Y-92303419D01*
X127506301Y-92302200D01*
X129822725Y-92302200D01*
X129822727Y-92302200D01*
X129924587Y-92274907D01*
X130015913Y-92222180D01*
X130090480Y-92147613D01*
X130143207Y-92056287D01*
X130165289Y-91973874D01*
X130198612Y-91922562D01*
X130255733Y-91900635D01*
X130260915Y-91900499D01*
X130314861Y-91900499D01*
X130314864Y-91900499D01*
X130339991Y-91897585D01*
X130442765Y-91852206D01*
X130522206Y-91772765D01*
X130567585Y-91669991D01*
X130570500Y-91644865D01*
X130570499Y-89655136D01*
X130569548Y-89646942D01*
X130567956Y-89633202D01*
X130580035Y-89573221D01*
X130625064Y-89531795D01*
X130666297Y-89522800D01*
X157100499Y-89522800D01*
X157158690Y-89541707D01*
G37*
%TD.AperFunction*%
%TA.AperFunction,Conductor*%
G36*
X127528196Y-88970981D02*
G01*
X127531957Y-88974550D01*
X127925620Y-89368213D01*
X127925619Y-89368213D01*
X128000187Y-89442780D01*
X128091513Y-89495507D01*
X128193373Y-89522800D01*
X128873703Y-89522800D01*
X128931894Y-89541707D01*
X128967858Y-89591207D01*
X128972043Y-89633207D01*
X128969501Y-89655131D01*
X128969500Y-89655137D01*
X128969501Y-91402200D01*
X128950594Y-91460391D01*
X128901094Y-91496355D01*
X128870501Y-91501200D01*
X127352127Y-91501200D01*
X127246673Y-91501200D01*
X127184329Y-91517904D01*
X127144807Y-91528494D01*
X127053491Y-91581216D01*
X123931703Y-94703004D01*
X123877186Y-94730781D01*
X123861699Y-94732000D01*
X123789543Y-94732000D01*
X123636816Y-94772923D01*
X123499884Y-94851980D01*
X123388079Y-94963785D01*
X123372820Y-94990216D01*
X123336744Y-95052700D01*
X123291277Y-95093641D01*
X123251009Y-95102200D01*
X121726391Y-95102200D01*
X121668200Y-95083293D01*
X121632236Y-95033793D01*
X121631003Y-94986719D01*
X121629253Y-94986489D01*
X121630100Y-94980056D01*
X121630100Y-94821944D01*
X121616965Y-94772923D01*
X121589177Y-94669216D01*
X121510120Y-94532284D01*
X121398316Y-94420480D01*
X121261384Y-94341423D01*
X121108657Y-94300500D01*
X121108655Y-94300500D01*
X121036500Y-94300500D01*
X120978309Y-94281593D01*
X120966496Y-94271504D01*
X120405496Y-93710504D01*
X120377719Y-93655987D01*
X120387290Y-93595555D01*
X120405496Y-93570496D01*
X124944797Y-89031196D01*
X124999314Y-89003419D01*
X125014801Y-89002200D01*
X127282725Y-89002200D01*
X127282727Y-89002200D01*
X127384587Y-88974907D01*
X127412455Y-88958816D01*
X127472299Y-88946096D01*
X127528196Y-88970981D01*
G37*
%TD.AperFunction*%
%TA.AperFunction,Conductor*%
G36*
X133358090Y-61423107D02*
G01*
X133369903Y-61433196D01*
X136049087Y-64112380D01*
X136049089Y-64112381D01*
X136049090Y-64112382D01*
X136049091Y-64112383D01*
X136140408Y-64165105D01*
X136140406Y-64165105D01*
X136140410Y-64165106D01*
X136140412Y-64165107D01*
X136242273Y-64192400D01*
X136347727Y-64192400D01*
X144959769Y-64192400D01*
X145017960Y-64211307D01*
X145053924Y-64260807D01*
X145053924Y-64321993D01*
X145017960Y-64371493D01*
X144985393Y-64387026D01*
X144915616Y-64405723D01*
X144778681Y-64484782D01*
X144727659Y-64535804D01*
X144673142Y-64563581D01*
X144657656Y-64564800D01*
X132746301Y-64564800D01*
X132688110Y-64545893D01*
X132676297Y-64535804D01*
X130167596Y-62027103D01*
X130139819Y-61972586D01*
X130138600Y-61957099D01*
X130138600Y-61884944D01*
X130138600Y-61884943D01*
X130132838Y-61863439D01*
X130136039Y-61802339D01*
X130174543Y-61754789D01*
X130233644Y-61738952D01*
X130254077Y-61742187D01*
X130317943Y-61759300D01*
X130317946Y-61759300D01*
X130476055Y-61759300D01*
X130476057Y-61759300D01*
X130628784Y-61718377D01*
X130675056Y-61691661D01*
X130734904Y-61678940D01*
X130790800Y-61703827D01*
X130821393Y-61756815D01*
X130820183Y-61803019D01*
X130814499Y-61824231D01*
X130814499Y-61824233D01*
X130814499Y-61824234D01*
X130814499Y-61975766D01*
X130849085Y-62104847D01*
X130853719Y-62122139D01*
X130929480Y-62253360D01*
X130929482Y-62253362D01*
X130929484Y-62253365D01*
X131036634Y-62360515D01*
X131036636Y-62360516D01*
X131036638Y-62360518D01*
X131167860Y-62436279D01*
X131167858Y-62436279D01*
X131167862Y-62436280D01*
X131167864Y-62436281D01*
X131314233Y-62475500D01*
X131314235Y-62475500D01*
X131465763Y-62475500D01*
X131465765Y-62475500D01*
X131612134Y-62436281D01*
X131612136Y-62436279D01*
X131612138Y-62436279D01*
X131743359Y-62360518D01*
X131743359Y-62360517D01*
X131743364Y-62360515D01*
X131850514Y-62253365D01*
X131850517Y-62253360D01*
X131926278Y-62122139D01*
X131926278Y-62122137D01*
X131926280Y-62122135D01*
X131965499Y-61975766D01*
X131965499Y-61824234D01*
X131926280Y-61677865D01*
X131926278Y-61677862D01*
X131926278Y-61677860D01*
X131854016Y-61552700D01*
X131841294Y-61492852D01*
X131866180Y-61436956D01*
X131919168Y-61406363D01*
X131939752Y-61404200D01*
X133299899Y-61404200D01*
X133358090Y-61423107D01*
G37*
%TD.AperFunction*%
%TA.AperFunction,Conductor*%
G36*
X201502992Y-54500681D02*
G01*
X201795310Y-54518362D01*
X201807165Y-54519802D01*
X202092281Y-54572051D01*
X202103883Y-54574911D01*
X202380623Y-54661147D01*
X202391786Y-54665380D01*
X202656117Y-54784346D01*
X202656119Y-54784347D01*
X202666702Y-54789902D01*
X202914758Y-54939856D01*
X202924583Y-54946638D01*
X203152755Y-55125399D01*
X203161704Y-55133326D01*
X203366673Y-55338295D01*
X203374599Y-55347243D01*
X203495481Y-55501538D01*
X203553356Y-55575409D01*
X203560147Y-55585248D01*
X203710096Y-55833295D01*
X203715652Y-55843880D01*
X203834616Y-56108206D01*
X203838855Y-56119384D01*
X203925087Y-56396113D01*
X203927948Y-56407721D01*
X203980196Y-56692827D01*
X203981637Y-56704694D01*
X203999319Y-56997006D01*
X203999500Y-57002984D01*
X203999500Y-152997015D01*
X203999319Y-153002993D01*
X203981637Y-153295304D01*
X203980196Y-153307171D01*
X203927948Y-153592277D01*
X203925087Y-153603885D01*
X203838855Y-153880615D01*
X203834616Y-153891793D01*
X203715652Y-154156118D01*
X203710096Y-154166703D01*
X203560142Y-154414758D01*
X203553356Y-154424590D01*
X203374599Y-154652755D01*
X203366672Y-154661704D01*
X203161704Y-154866672D01*
X203152755Y-154874599D01*
X202924590Y-155053356D01*
X202914758Y-155060142D01*
X202677212Y-155203744D01*
X202666703Y-155210097D01*
X202656118Y-155215652D01*
X202391793Y-155334616D01*
X202380615Y-155338855D01*
X202103885Y-155425087D01*
X202092277Y-155427948D01*
X201807171Y-155480196D01*
X201795304Y-155481637D01*
X201523993Y-155498048D01*
X201502991Y-155499319D01*
X201497015Y-155499500D01*
X95502985Y-155499500D01*
X95497008Y-155499319D01*
X95473822Y-155497916D01*
X95204694Y-155481637D01*
X95192827Y-155480196D01*
X94907721Y-155427948D01*
X94896113Y-155425087D01*
X94619384Y-155338855D01*
X94608206Y-155334616D01*
X94343880Y-155215652D01*
X94333295Y-155210096D01*
X94172942Y-155113160D01*
X94085245Y-155060145D01*
X94075413Y-155053358D01*
X93847243Y-154874599D01*
X93838295Y-154866673D01*
X93633326Y-154661704D01*
X93625399Y-154652755D01*
X93446638Y-154424583D01*
X93439856Y-154414758D01*
X93289902Y-154166703D01*
X93284347Y-154156119D01*
X93165383Y-153891793D01*
X93161147Y-153880623D01*
X93074911Y-153603883D01*
X93072051Y-153592278D01*
X93019803Y-153307172D01*
X93018362Y-153295304D01*
X93000681Y-153002992D01*
X93000500Y-152997015D01*
X93000500Y-129911417D01*
X112769500Y-129911417D01*
X112769500Y-130088582D01*
X112797213Y-130263552D01*
X112851957Y-130432040D01*
X112878831Y-130484784D01*
X112932386Y-130589890D01*
X113036517Y-130733214D01*
X113161786Y-130858483D01*
X113305110Y-130962614D01*
X113462958Y-131043042D01*
X113631445Y-131097786D01*
X113701435Y-131108871D01*
X113806418Y-131125500D01*
X113806421Y-131125500D01*
X113983582Y-131125500D01*
X114071067Y-131111643D01*
X114158555Y-131097786D01*
X114327042Y-131043042D01*
X114484890Y-130962614D01*
X114628214Y-130858483D01*
X114753483Y-130733214D01*
X114857614Y-130589890D01*
X114938042Y-130432042D01*
X114992786Y-130263555D01*
X115020500Y-130088579D01*
X115020500Y-129911421D01*
X115020500Y-129911417D01*
X115013107Y-129864740D01*
X115011167Y-129852494D01*
X116724500Y-129852494D01*
X116724500Y-130147506D01*
X116763007Y-130439993D01*
X116811699Y-130621715D01*
X116839361Y-130724953D01*
X116952253Y-130997499D01*
X116952255Y-130997503D01*
X116952257Y-130997507D01*
X117099762Y-131252994D01*
X117099764Y-131252997D01*
X117279348Y-131487035D01*
X117279350Y-131487037D01*
X117279354Y-131487042D01*
X117487958Y-131695646D01*
X117487962Y-131695649D01*
X117487964Y-131695651D01*
X117566468Y-131755889D01*
X117722006Y-131875238D01*
X117977493Y-132022743D01*
X118250048Y-132135639D01*
X118535007Y-132211993D01*
X118827494Y-132250500D01*
X118827495Y-132250500D01*
X119122505Y-132250500D01*
X119122506Y-132250500D01*
X119414993Y-132211993D01*
X119699952Y-132135639D01*
X119972507Y-132022743D01*
X120227994Y-131875238D01*
X120462042Y-131695646D01*
X120670646Y-131487042D01*
X120850238Y-131252994D01*
X120997743Y-130997507D01*
X121110639Y-130724952D01*
X121186993Y-130439993D01*
X121225500Y-130147506D01*
X121225500Y-129911417D01*
X122929500Y-129911417D01*
X122929500Y-130088582D01*
X122957213Y-130263552D01*
X123011957Y-130432040D01*
X123038831Y-130484784D01*
X123092386Y-130589890D01*
X123196517Y-130733214D01*
X123321786Y-130858483D01*
X123465110Y-130962614D01*
X123622958Y-131043042D01*
X123791445Y-131097786D01*
X123861435Y-131108871D01*
X123966418Y-131125500D01*
X123966421Y-131125500D01*
X124143582Y-131125500D01*
X124231067Y-131111643D01*
X124318555Y-131097786D01*
X124487042Y-131043042D01*
X124644890Y-130962614D01*
X124788214Y-130858483D01*
X124913483Y-130733214D01*
X125017614Y-130589890D01*
X125098042Y-130432042D01*
X125152786Y-130263555D01*
X125180500Y-130088579D01*
X125180500Y-129911421D01*
X125180500Y-129911417D01*
X125159485Y-129778742D01*
X125152786Y-129736445D01*
X125098042Y-129567958D01*
X125017614Y-129410110D01*
X124913483Y-129266786D01*
X124788214Y-129141517D01*
X124644890Y-129037386D01*
X124644889Y-129037385D01*
X124644887Y-129037384D01*
X124487040Y-128956957D01*
X124318552Y-128902213D01*
X124143582Y-128874500D01*
X124143579Y-128874500D01*
X123966421Y-128874500D01*
X123966418Y-128874500D01*
X123791447Y-128902213D01*
X123622959Y-128956957D01*
X123465112Y-129037384D01*
X123321787Y-129141516D01*
X123196516Y-129266787D01*
X123092384Y-129410112D01*
X123011957Y-129567959D01*
X122957213Y-129736447D01*
X122929500Y-129911417D01*
X121225500Y-129911417D01*
X121225500Y-129852494D01*
X121186993Y-129560007D01*
X121110639Y-129275048D01*
X120997743Y-129002493D01*
X120850238Y-128747006D01*
X120811094Y-128695993D01*
X120670651Y-128512964D01*
X120670649Y-128512962D01*
X120670646Y-128512958D01*
X120462042Y-128304354D01*
X120462037Y-128304350D01*
X120462035Y-128304348D01*
X120227997Y-128124764D01*
X120227994Y-128124762D01*
X119972507Y-127977257D01*
X119972503Y-127977255D01*
X119972499Y-127977253D01*
X119699953Y-127864361D01*
X119633183Y-127846470D01*
X119414993Y-127788007D01*
X119414986Y-127788006D01*
X119122506Y-127749500D01*
X118827494Y-127749500D01*
X118827493Y-127749500D01*
X118535013Y-127788006D01*
X118535011Y-127788006D01*
X118535007Y-127788007D01*
X118383584Y-127828580D01*
X118250046Y-127864361D01*
X117977500Y-127977253D01*
X117722002Y-128124764D01*
X117487964Y-128304348D01*
X117279348Y-128512964D01*
X117099764Y-128747002D01*
X116952253Y-129002500D01*
X116839361Y-129275046D01*
X116827998Y-129317454D01*
X116763007Y-129560007D01*
X116763006Y-129560011D01*
X116763006Y-129560013D01*
X116736061Y-129764681D01*
X116724500Y-129852494D01*
X115011167Y-129852494D01*
X114997258Y-129764681D01*
X114992786Y-129736445D01*
X114938042Y-129567958D01*
X114857614Y-129410110D01*
X114846241Y-129394457D01*
X114832574Y-129375645D01*
X114813666Y-129317454D01*
X114832573Y-129259264D01*
X114882073Y-129223300D01*
X114925585Y-129219301D01*
X115048628Y-129235500D01*
X115048629Y-129235500D01*
X115281371Y-129235500D01*
X115281372Y-129235500D01*
X115512126Y-129205121D01*
X115736940Y-129144882D01*
X115951969Y-129055815D01*
X116153532Y-128939442D01*
X116338181Y-128797756D01*
X116502756Y-128633181D01*
X116644442Y-128448532D01*
X116760815Y-128246969D01*
X116849882Y-128031940D01*
X116910121Y-127807126D01*
X116940500Y-127576372D01*
X116940500Y-127343628D01*
X116910121Y-127112874D01*
X116849882Y-126888060D01*
X116760815Y-126673031D01*
X116716143Y-126595658D01*
X116644443Y-126471470D01*
X116644442Y-126471468D01*
X116502756Y-126286819D01*
X116338181Y-126122244D01*
X116338176Y-126122240D01*
X116338174Y-126122238D01*
X116153529Y-125980556D01*
X115951970Y-125864185D01*
X115951965Y-125864183D01*
X115736945Y-125775120D01*
X115736944Y-125775119D01*
X115736940Y-125775118D01*
X115512126Y-125714879D01*
X115512123Y-125714878D01*
X115512121Y-125714878D01*
X115281373Y-125684500D01*
X115281372Y-125684500D01*
X115048628Y-125684500D01*
X115048626Y-125684500D01*
X114817881Y-125714878D01*
X114817876Y-125714878D01*
X114593067Y-125775116D01*
X114593054Y-125775120D01*
X114378034Y-125864183D01*
X114378029Y-125864185D01*
X114176470Y-125980556D01*
X113991825Y-126122238D01*
X113827238Y-126286825D01*
X113685556Y-126471470D01*
X113569185Y-126673029D01*
X113569183Y-126673034D01*
X113480120Y-126888054D01*
X113480116Y-126888067D01*
X113419878Y-127112876D01*
X113419878Y-127112881D01*
X113389500Y-127343626D01*
X113389500Y-127576373D01*
X113419878Y-127807118D01*
X113419878Y-127807123D01*
X113480116Y-128031932D01*
X113480120Y-128031945D01*
X113569183Y-128246965D01*
X113569185Y-128246970D01*
X113685556Y-128448529D01*
X113827238Y-128633174D01*
X113827240Y-128633176D01*
X113827244Y-128633181D01*
X113899561Y-128705498D01*
X113927337Y-128760013D01*
X113917766Y-128820445D01*
X113874501Y-128863710D01*
X113829556Y-128874500D01*
X113806418Y-128874500D01*
X113631447Y-128902213D01*
X113462959Y-128956957D01*
X113305112Y-129037384D01*
X113161787Y-129141516D01*
X113036516Y-129266787D01*
X112932384Y-129410112D01*
X112851957Y-129567959D01*
X112797213Y-129736447D01*
X112769500Y-129911417D01*
X93000500Y-129911417D01*
X93000500Y-127098999D01*
X93019407Y-127040808D01*
X93068907Y-127004844D01*
X93099499Y-126999999D01*
X98500002Y-127000000D01*
X98500002Y-119520943D01*
X105086700Y-119520943D01*
X105086700Y-119679057D01*
X105127623Y-119831784D01*
X105206680Y-119968716D01*
X105318484Y-120080520D01*
X105455416Y-120159577D01*
X105608143Y-120200500D01*
X105608145Y-120200500D01*
X105766255Y-120200500D01*
X105766257Y-120200500D01*
X105918984Y-120159577D01*
X106055916Y-120080520D01*
X106081429Y-120055006D01*
X106106941Y-120029496D01*
X106161458Y-120001719D01*
X106176944Y-120000500D01*
X119792799Y-120000500D01*
X119850990Y-120019407D01*
X119862803Y-120029496D01*
X126260503Y-126427196D01*
X126288280Y-126481713D01*
X126278709Y-126542145D01*
X126235444Y-126585410D01*
X126190499Y-126596200D01*
X122532210Y-126596200D01*
X122474019Y-126577293D01*
X122438055Y-126527793D01*
X122438055Y-126466607D01*
X122474019Y-126417107D01*
X122482711Y-126411463D01*
X122503532Y-126399442D01*
X122688174Y-126257761D01*
X122688181Y-126257756D01*
X122852756Y-126093181D01*
X122994442Y-125908532D01*
X123110815Y-125706969D01*
X123199882Y-125491940D01*
X123260121Y-125267126D01*
X123290500Y-125036372D01*
X123290500Y-124803628D01*
X123260121Y-124572874D01*
X123199882Y-124348060D01*
X123110815Y-124133031D01*
X122994442Y-123931468D01*
X122852756Y-123746819D01*
X122688181Y-123582244D01*
X122688176Y-123582240D01*
X122688174Y-123582238D01*
X122503529Y-123440556D01*
X122301970Y-123324185D01*
X122301965Y-123324183D01*
X122086945Y-123235120D01*
X122086944Y-123235119D01*
X122086940Y-123235118D01*
X121862126Y-123174879D01*
X121862123Y-123174878D01*
X121862121Y-123174878D01*
X121631373Y-123144500D01*
X121631372Y-123144500D01*
X121398628Y-123144500D01*
X121398626Y-123144500D01*
X121167881Y-123174878D01*
X121167876Y-123174878D01*
X120943067Y-123235116D01*
X120943054Y-123235120D01*
X120728034Y-123324183D01*
X120728029Y-123324185D01*
X120526470Y-123440556D01*
X120341825Y-123582238D01*
X120177238Y-123746825D01*
X120035556Y-123931470D01*
X119919185Y-124133029D01*
X119919183Y-124133034D01*
X119830120Y-124348054D01*
X119830116Y-124348067D01*
X119769878Y-124572876D01*
X119769878Y-124572881D01*
X119739500Y-124803626D01*
X119739500Y-125036373D01*
X119769878Y-125267118D01*
X119769878Y-125267123D01*
X119830116Y-125491932D01*
X119830120Y-125491945D01*
X119919183Y-125706965D01*
X119919185Y-125706970D01*
X120035556Y-125908529D01*
X120177238Y-126093174D01*
X120177240Y-126093176D01*
X120177244Y-126093181D01*
X120341819Y-126257756D01*
X120341823Y-126257759D01*
X120341825Y-126257761D01*
X120526467Y-126399442D01*
X120547289Y-126411463D01*
X120588231Y-126456932D01*
X120594627Y-126517783D01*
X120564034Y-126570771D01*
X120508139Y-126595658D01*
X120497790Y-126596200D01*
X119785101Y-126596200D01*
X119726910Y-126577293D01*
X119715097Y-126567204D01*
X117720767Y-124572874D01*
X115347413Y-122199520D01*
X115347410Y-122199518D01*
X115347409Y-122199517D01*
X115347408Y-122199516D01*
X115256091Y-122146794D01*
X115256093Y-122146794D01*
X115216570Y-122136204D01*
X115154227Y-122119500D01*
X115154225Y-122119500D01*
X106176944Y-122119500D01*
X106118753Y-122100593D01*
X106106941Y-122090504D01*
X106055918Y-122039482D01*
X106055916Y-122039480D01*
X105918984Y-121960423D01*
X105766257Y-121919500D01*
X105608143Y-121919500D01*
X105455416Y-121960423D01*
X105318484Y-122039480D01*
X105206680Y-122151284D01*
X105127623Y-122288216D01*
X105086700Y-122440943D01*
X105086700Y-122599057D01*
X105127623Y-122751784D01*
X105206680Y-122888716D01*
X105318484Y-123000520D01*
X105455416Y-123079577D01*
X105608143Y-123120500D01*
X105608145Y-123120500D01*
X105766255Y-123120500D01*
X105766257Y-123120500D01*
X105918984Y-123079577D01*
X106055916Y-123000520D01*
X106081429Y-122975006D01*
X106106941Y-122949496D01*
X106161458Y-122921719D01*
X106176944Y-122920500D01*
X114894599Y-122920500D01*
X114952790Y-122939407D01*
X114964603Y-122949496D01*
X119332287Y-127317180D01*
X119332289Y-127317181D01*
X119332290Y-127317182D01*
X119332291Y-127317183D01*
X119423608Y-127369905D01*
X119423606Y-127369905D01*
X119423610Y-127369906D01*
X119423612Y-127369907D01*
X119525473Y-127397200D01*
X119630927Y-127397200D01*
X125924899Y-127397200D01*
X125983090Y-127416107D01*
X125994903Y-127426196D01*
X128421201Y-129852493D01*
X130798218Y-132229510D01*
X130798220Y-132229513D01*
X130872787Y-132304080D01*
X130903341Y-132321720D01*
X130942082Y-132344088D01*
X130942085Y-132344089D01*
X130964113Y-132356807D01*
X131065970Y-132384100D01*
X131065972Y-132384101D01*
X131065973Y-132384101D01*
X131177490Y-132384101D01*
X131177506Y-132384100D01*
X135566056Y-132384100D01*
X135624247Y-132403007D01*
X135636059Y-132413096D01*
X135687081Y-132464117D01*
X135687084Y-132464120D01*
X135824016Y-132543177D01*
X135976743Y-132584100D01*
X135976745Y-132584100D01*
X136134855Y-132584100D01*
X136134857Y-132584100D01*
X136287584Y-132543177D01*
X136424516Y-132464120D01*
X136536320Y-132352316D01*
X136615377Y-132215384D01*
X136656300Y-132062657D01*
X136656300Y-131979908D01*
X136675207Y-131921717D01*
X136724707Y-131885753D01*
X136785893Y-131885753D01*
X136804795Y-131894169D01*
X137027493Y-132022743D01*
X137300048Y-132135639D01*
X137585007Y-132211993D01*
X137877494Y-132250500D01*
X137877495Y-132250500D01*
X138172505Y-132250500D01*
X138172506Y-132250500D01*
X138464993Y-132211993D01*
X138749952Y-132135639D01*
X139022507Y-132022743D01*
X139277994Y-131875238D01*
X139512042Y-131695646D01*
X139720646Y-131487042D01*
X139900238Y-131252994D01*
X140047743Y-130997507D01*
X140160639Y-130724952D01*
X140236993Y-130439993D01*
X140275500Y-130147506D01*
X140275500Y-129911417D01*
X141979500Y-129911417D01*
X141979500Y-130088582D01*
X142007213Y-130263552D01*
X142061957Y-130432040D01*
X142088831Y-130484784D01*
X142142386Y-130589890D01*
X142246517Y-130733214D01*
X142371786Y-130858483D01*
X142515110Y-130962614D01*
X142672958Y-131043042D01*
X142841445Y-131097786D01*
X142911435Y-131108871D01*
X143016418Y-131125500D01*
X143016421Y-131125500D01*
X143193582Y-131125500D01*
X143281067Y-131111643D01*
X143368555Y-131097786D01*
X143537042Y-131043042D01*
X143694890Y-130962614D01*
X143838214Y-130858483D01*
X143963483Y-130733214D01*
X144067614Y-130589890D01*
X144148042Y-130432042D01*
X144202786Y-130263555D01*
X144230500Y-130088579D01*
X144230500Y-129911421D01*
X144230500Y-129911417D01*
X144209485Y-129778742D01*
X144202786Y-129736445D01*
X144148042Y-129567958D01*
X144067614Y-129410110D01*
X143963483Y-129266786D01*
X143838214Y-129141517D01*
X143694890Y-129037386D01*
X143694889Y-129037385D01*
X143694887Y-129037384D01*
X143537040Y-128956957D01*
X143368552Y-128902213D01*
X143193582Y-128874500D01*
X143193579Y-128874500D01*
X143016421Y-128874500D01*
X143016418Y-128874500D01*
X142841447Y-128902213D01*
X142672959Y-128956957D01*
X142515112Y-129037384D01*
X142371787Y-129141516D01*
X142246516Y-129266787D01*
X142142384Y-129410112D01*
X142061957Y-129567959D01*
X142007213Y-129736447D01*
X141979500Y-129911417D01*
X140275500Y-129911417D01*
X140275500Y-129852494D01*
X140236993Y-129560007D01*
X140160639Y-129275048D01*
X140047743Y-129002493D01*
X139900238Y-128747006D01*
X139861094Y-128695993D01*
X139720651Y-128512964D01*
X139720649Y-128512962D01*
X139720646Y-128512958D01*
X139512042Y-128304354D01*
X139512037Y-128304350D01*
X139512035Y-128304348D01*
X139277997Y-128124764D01*
X139277994Y-128124762D01*
X139022507Y-127977257D01*
X139022503Y-127977255D01*
X139022499Y-127977253D01*
X138749953Y-127864361D01*
X138683183Y-127846470D01*
X138464993Y-127788007D01*
X138464986Y-127788006D01*
X138172506Y-127749500D01*
X137877494Y-127749500D01*
X137877493Y-127749500D01*
X137585013Y-127788006D01*
X137585011Y-127788006D01*
X137585007Y-127788007D01*
X137433584Y-127828580D01*
X137300046Y-127864361D01*
X137027500Y-127977253D01*
X136772002Y-128124764D01*
X136537964Y-128304348D01*
X136329348Y-128512964D01*
X136149764Y-128747002D01*
X136002253Y-129002500D01*
X135889361Y-129275046D01*
X135877998Y-129317454D01*
X135813007Y-129560007D01*
X135813006Y-129560011D01*
X135813006Y-129560013D01*
X135786061Y-129764681D01*
X135774500Y-129852494D01*
X135774500Y-130147506D01*
X135813007Y-130439993D01*
X135861699Y-130621715D01*
X135889361Y-130724953D01*
X136002253Y-130997499D01*
X136002255Y-130997503D01*
X136002257Y-130997507D01*
X136139143Y-131234602D01*
X136151864Y-131294448D01*
X136126977Y-131350344D01*
X136073989Y-131380937D01*
X136053406Y-131383100D01*
X135976743Y-131383100D01*
X135832309Y-131421801D01*
X135824016Y-131424023D01*
X135687081Y-131503082D01*
X135636059Y-131554104D01*
X135581542Y-131581881D01*
X135566056Y-131583100D01*
X131325600Y-131583100D01*
X131267409Y-131564193D01*
X131255596Y-131554104D01*
X130631439Y-130929947D01*
X130603662Y-130875430D01*
X130613233Y-130814998D01*
X130651942Y-130774207D01*
X130722416Y-130733520D01*
X130834220Y-130621716D01*
X130913277Y-130484784D01*
X130954200Y-130332057D01*
X130954200Y-130173943D01*
X130913277Y-130021216D01*
X130849885Y-129911417D01*
X131819500Y-129911417D01*
X131819500Y-130088582D01*
X131847213Y-130263552D01*
X131901957Y-130432040D01*
X131928831Y-130484784D01*
X131982386Y-130589890D01*
X132086517Y-130733214D01*
X132211786Y-130858483D01*
X132355110Y-130962614D01*
X132512958Y-131043042D01*
X132681445Y-131097786D01*
X132751435Y-131108871D01*
X132856418Y-131125500D01*
X132856421Y-131125500D01*
X133033582Y-131125500D01*
X133121067Y-131111643D01*
X133208555Y-131097786D01*
X133377042Y-131043042D01*
X133534890Y-130962614D01*
X133678214Y-130858483D01*
X133803483Y-130733214D01*
X133907614Y-130589890D01*
X133988042Y-130432042D01*
X134042786Y-130263555D01*
X134070500Y-130088579D01*
X134070500Y-129911421D01*
X134070500Y-129911417D01*
X134049485Y-129778742D01*
X134042786Y-129736445D01*
X133988042Y-129567958D01*
X133907614Y-129410110D01*
X133896241Y-129394457D01*
X133882574Y-129375645D01*
X133863666Y-129317454D01*
X133882573Y-129259264D01*
X133932073Y-129223300D01*
X133975585Y-129219301D01*
X134098628Y-129235500D01*
X134098629Y-129235500D01*
X134331371Y-129235500D01*
X134331372Y-129235500D01*
X134562126Y-129205121D01*
X134786940Y-129144882D01*
X135001969Y-129055815D01*
X135203532Y-128939442D01*
X135388181Y-128797756D01*
X135552756Y-128633181D01*
X135694442Y-128448532D01*
X135810815Y-128246969D01*
X135899882Y-128031940D01*
X135960121Y-127807126D01*
X135990500Y-127576372D01*
X135990500Y-127343628D01*
X135960121Y-127112874D01*
X135899882Y-126888060D01*
X135810815Y-126673031D01*
X135766143Y-126595658D01*
X135694443Y-126471470D01*
X135694442Y-126471468D01*
X135552756Y-126286819D01*
X135388181Y-126122244D01*
X135388176Y-126122240D01*
X135388174Y-126122238D01*
X135203529Y-125980556D01*
X135001970Y-125864185D01*
X135001965Y-125864183D01*
X134786945Y-125775120D01*
X134786944Y-125775119D01*
X134786940Y-125775118D01*
X134562126Y-125714879D01*
X134562123Y-125714878D01*
X134562121Y-125714878D01*
X134331373Y-125684500D01*
X134331372Y-125684500D01*
X134098628Y-125684500D01*
X134098626Y-125684500D01*
X133867881Y-125714878D01*
X133867876Y-125714878D01*
X133643067Y-125775116D01*
X133643054Y-125775120D01*
X133428034Y-125864183D01*
X133428029Y-125864185D01*
X133226470Y-125980556D01*
X133041825Y-126122238D01*
X132877238Y-126286825D01*
X132735556Y-126471470D01*
X132619185Y-126673029D01*
X132619183Y-126673034D01*
X132530120Y-126888054D01*
X132530116Y-126888067D01*
X132469878Y-127112876D01*
X132469878Y-127112881D01*
X132439500Y-127343626D01*
X132439500Y-127576373D01*
X132469878Y-127807118D01*
X132469878Y-127807123D01*
X132530116Y-128031932D01*
X132530120Y-128031945D01*
X132619183Y-128246965D01*
X132619185Y-128246970D01*
X132735556Y-128448529D01*
X132877238Y-128633174D01*
X132877240Y-128633176D01*
X132877244Y-128633181D01*
X132949561Y-128705498D01*
X132977337Y-128760013D01*
X132967766Y-128820445D01*
X132924501Y-128863710D01*
X132879556Y-128874500D01*
X132856418Y-128874500D01*
X132681447Y-128902213D01*
X132512959Y-128956957D01*
X132355112Y-129037384D01*
X132211787Y-129141516D01*
X132086516Y-129266787D01*
X131982384Y-129410112D01*
X131901957Y-129567959D01*
X131847213Y-129736447D01*
X131819500Y-129911417D01*
X130849885Y-129911417D01*
X130834220Y-129884284D01*
X130778309Y-129828373D01*
X130774145Y-129822849D01*
X130766321Y-129800139D01*
X130755419Y-129778742D01*
X130754373Y-129765460D01*
X130754215Y-129765000D01*
X130754312Y-129764681D01*
X130754200Y-129763256D01*
X130754200Y-125616574D01*
X130754200Y-125616573D01*
X130728273Y-125519810D01*
X130724900Y-125494188D01*
X130724900Y-125360944D01*
X130724900Y-125360943D01*
X130683977Y-125208216D01*
X130604920Y-125071284D01*
X130493116Y-124959480D01*
X130366056Y-124886122D01*
X130366055Y-124886121D01*
X130356186Y-124880424D01*
X130356185Y-124880423D01*
X130356184Y-124880423D01*
X130203457Y-124839500D01*
X130045343Y-124839500D01*
X129892616Y-124880423D01*
X129755684Y-124959480D01*
X129643880Y-125071284D01*
X129564823Y-125208216D01*
X129523900Y-125360943D01*
X129523900Y-125519057D01*
X129564823Y-125671784D01*
X129643880Y-125808716D01*
X129755684Y-125920520D01*
X129892616Y-125999577D01*
X129892618Y-125999577D01*
X129898236Y-126002821D01*
X129897543Y-126004019D01*
X129938609Y-126039090D01*
X129953200Y-126090821D01*
X129953200Y-128628496D01*
X129934293Y-128686687D01*
X129884793Y-128722651D01*
X129828578Y-128724123D01*
X129794157Y-128714900D01*
X129794156Y-128714900D01*
X129722001Y-128714900D01*
X129663810Y-128695993D01*
X129651997Y-128685904D01*
X125769719Y-124803626D01*
X138789500Y-124803626D01*
X138789500Y-125036373D01*
X138819878Y-125267118D01*
X138819878Y-125267123D01*
X138880116Y-125491932D01*
X138880120Y-125491945D01*
X138969183Y-125706965D01*
X138969185Y-125706970D01*
X139085556Y-125908529D01*
X139227238Y-126093174D01*
X139227240Y-126093176D01*
X139227244Y-126093181D01*
X139391819Y-126257756D01*
X139391823Y-126257759D01*
X139391825Y-126257761D01*
X139470397Y-126318051D01*
X139576468Y-126399442D01*
X139778031Y-126515815D01*
X139993060Y-126604882D01*
X140217874Y-126665121D01*
X140448628Y-126695500D01*
X140448629Y-126695500D01*
X140681371Y-126695500D01*
X140681372Y-126695500D01*
X140912126Y-126665121D01*
X141136940Y-126604882D01*
X141351969Y-126515815D01*
X141553532Y-126399442D01*
X141738181Y-126257756D01*
X141902756Y-126093181D01*
X142044442Y-125908532D01*
X142160815Y-125706969D01*
X142249882Y-125491940D01*
X142310121Y-125267126D01*
X142340500Y-125036372D01*
X142340500Y-124803628D01*
X142310121Y-124572874D01*
X142249882Y-124348060D01*
X142160815Y-124133031D01*
X142044442Y-123931468D01*
X141902756Y-123746819D01*
X141738181Y-123582244D01*
X141738176Y-123582240D01*
X141738174Y-123582238D01*
X141553529Y-123440556D01*
X141351970Y-123324185D01*
X141351965Y-123324183D01*
X141136945Y-123235120D01*
X141136944Y-123235119D01*
X141136940Y-123235118D01*
X140912126Y-123174879D01*
X140912123Y-123174878D01*
X140912121Y-123174878D01*
X140681373Y-123144500D01*
X140681372Y-123144500D01*
X140448628Y-123144500D01*
X140448626Y-123144500D01*
X140217881Y-123174878D01*
X140217876Y-123174878D01*
X139993067Y-123235116D01*
X139993054Y-123235120D01*
X139778034Y-123324183D01*
X139778029Y-123324185D01*
X139576470Y-123440556D01*
X139391825Y-123582238D01*
X139227238Y-123746825D01*
X139085556Y-123931470D01*
X138969185Y-124133029D01*
X138969183Y-124133034D01*
X138880120Y-124348054D01*
X138880116Y-124348067D01*
X138819878Y-124572876D01*
X138819878Y-124572881D01*
X138789500Y-124803626D01*
X125769719Y-124803626D01*
X125099122Y-124133029D01*
X120245613Y-119279520D01*
X120245610Y-119279518D01*
X120245609Y-119279517D01*
X120245608Y-119279516D01*
X120154291Y-119226794D01*
X120154293Y-119226794D01*
X120114770Y-119216204D01*
X120052427Y-119199500D01*
X120052425Y-119199500D01*
X106176944Y-119199500D01*
X106118753Y-119180593D01*
X106106941Y-119170504D01*
X106055918Y-119119482D01*
X106055916Y-119119480D01*
X105918984Y-119040423D01*
X105766257Y-118999500D01*
X105608143Y-118999500D01*
X105455416Y-119040423D01*
X105318484Y-119119480D01*
X105206680Y-119231284D01*
X105127623Y-119368216D01*
X105086700Y-119520943D01*
X98500002Y-119520943D01*
X98500001Y-108191043D01*
X103853900Y-108191043D01*
X103853900Y-108349157D01*
X103894823Y-108501884D01*
X103973880Y-108638816D01*
X104085684Y-108750620D01*
X104222616Y-108829677D01*
X104375343Y-108870600D01*
X104375345Y-108870600D01*
X104533455Y-108870600D01*
X104533457Y-108870600D01*
X104686184Y-108829677D01*
X104823116Y-108750620D01*
X104848629Y-108725106D01*
X104874141Y-108699596D01*
X104928658Y-108671819D01*
X104944144Y-108670600D01*
X105894999Y-108670600D01*
X105953190Y-108689507D01*
X105965003Y-108699596D01*
X110963504Y-113698097D01*
X110991281Y-113752614D01*
X110992500Y-113768101D01*
X110992500Y-113840257D01*
X111033423Y-113992984D01*
X111112480Y-114129916D01*
X111224284Y-114241720D01*
X111361216Y-114320777D01*
X111513943Y-114361700D01*
X111513945Y-114361700D01*
X111672055Y-114361700D01*
X111672057Y-114361700D01*
X111824784Y-114320777D01*
X111961716Y-114241720D01*
X112073520Y-114129916D01*
X112152577Y-113992984D01*
X112193500Y-113840257D01*
X112193500Y-113682143D01*
X112152577Y-113529416D01*
X112073520Y-113392484D01*
X111961716Y-113280680D01*
X111824784Y-113201623D01*
X111672057Y-113160700D01*
X111672055Y-113160700D01*
X111599901Y-113160700D01*
X111541710Y-113141793D01*
X111529897Y-113131704D01*
X111209693Y-112811500D01*
X107563236Y-109165043D01*
X113997900Y-109165043D01*
X113997900Y-109323157D01*
X114038823Y-109475884D01*
X114117880Y-109612816D01*
X114229684Y-109724620D01*
X114366616Y-109803677D01*
X114519343Y-109844600D01*
X114519345Y-109844600D01*
X114677455Y-109844600D01*
X114677457Y-109844600D01*
X114830184Y-109803677D01*
X114906598Y-109759559D01*
X114966444Y-109746839D01*
X115022340Y-109771726D01*
X115026100Y-109775293D01*
X121083904Y-115833097D01*
X121111681Y-115887614D01*
X121112900Y-115903101D01*
X121112900Y-115975257D01*
X121153823Y-116127984D01*
X121232880Y-116264916D01*
X121344684Y-116376720D01*
X121481616Y-116455777D01*
X121634343Y-116496700D01*
X121634345Y-116496700D01*
X121792455Y-116496700D01*
X121792457Y-116496700D01*
X121945184Y-116455777D01*
X122082116Y-116376720D01*
X122193920Y-116264916D01*
X122272977Y-116127984D01*
X122313900Y-115975257D01*
X122313900Y-115817143D01*
X122272977Y-115664416D01*
X122193920Y-115527484D01*
X122082116Y-115415680D01*
X121945184Y-115336623D01*
X121792457Y-115295700D01*
X121792455Y-115295700D01*
X121720301Y-115295700D01*
X121662110Y-115276793D01*
X121650297Y-115266704D01*
X119195093Y-112811500D01*
X115307213Y-108923620D01*
X115307210Y-108923618D01*
X115307209Y-108923617D01*
X115307208Y-108923616D01*
X115215891Y-108870894D01*
X115215893Y-108870894D01*
X115176370Y-108860304D01*
X115114027Y-108843600D01*
X115114025Y-108843600D01*
X115088144Y-108843600D01*
X115029953Y-108824693D01*
X115018141Y-108814604D01*
X114967118Y-108763582D01*
X114967116Y-108763580D01*
X114830184Y-108684523D01*
X114677457Y-108643600D01*
X114519343Y-108643600D01*
X114366616Y-108684523D01*
X114229684Y-108763580D01*
X114117880Y-108875384D01*
X114038823Y-109012316D01*
X113997900Y-109165043D01*
X107563236Y-109165043D01*
X106347813Y-107949620D01*
X106347810Y-107949618D01*
X106347808Y-107949616D01*
X106256491Y-107896894D01*
X106256493Y-107896894D01*
X106216970Y-107886304D01*
X106154627Y-107869600D01*
X106154625Y-107869600D01*
X104944144Y-107869600D01*
X104885953Y-107850693D01*
X104874141Y-107840604D01*
X104823118Y-107789582D01*
X104823116Y-107789580D01*
X104686184Y-107710523D01*
X104533457Y-107669600D01*
X104375343Y-107669600D01*
X104222616Y-107710523D01*
X104085684Y-107789580D01*
X103973880Y-107901384D01*
X103894823Y-108038316D01*
X103853900Y-108191043D01*
X98500001Y-108191043D01*
X98500001Y-95909443D01*
X101193600Y-95909443D01*
X101193600Y-96067557D01*
X101234523Y-96220284D01*
X101313580Y-96357216D01*
X101425384Y-96469020D01*
X101562316Y-96548077D01*
X101715043Y-96589000D01*
X101715045Y-96589000D01*
X101873155Y-96589000D01*
X101873157Y-96589000D01*
X102025884Y-96548077D01*
X102162816Y-96469020D01*
X102274620Y-96357216D01*
X102353677Y-96220284D01*
X102394600Y-96067557D01*
X102394600Y-95995401D01*
X102413507Y-95937210D01*
X102423596Y-95925397D01*
X104212197Y-94136796D01*
X104266714Y-94109019D01*
X104282201Y-94107800D01*
X119628999Y-94107800D01*
X119687190Y-94126707D01*
X119699002Y-94136796D01*
X120041099Y-94478892D01*
X120068877Y-94533409D01*
X120059306Y-94593841D01*
X120016041Y-94637106D01*
X119996720Y-94644522D01*
X119929919Y-94662421D01*
X119929918Y-94662421D01*
X119851330Y-94707794D01*
X119792984Y-94741480D01*
X119681180Y-94853284D01*
X119602123Y-94990216D01*
X119561200Y-95142943D01*
X119561200Y-95301057D01*
X119596253Y-95431879D01*
X119593052Y-95492978D01*
X119554546Y-95540528D01*
X119500627Y-95556500D01*
X112315949Y-95556500D01*
X112257758Y-95537593D01*
X112230213Y-95507000D01*
X112190021Y-95437386D01*
X112190020Y-95437384D01*
X112078216Y-95325580D01*
X111941284Y-95246523D01*
X111788557Y-95205600D01*
X111630443Y-95205600D01*
X111477716Y-95246523D01*
X111340784Y-95325580D01*
X111228980Y-95437384D01*
X111149923Y-95574316D01*
X111109000Y-95727043D01*
X111109000Y-95885157D01*
X111149923Y-96037884D01*
X111228980Y-96174816D01*
X111340784Y-96286620D01*
X111477716Y-96365677D01*
X111559436Y-96387573D01*
X111610749Y-96420897D01*
X111632676Y-96478019D01*
X111616840Y-96537119D01*
X111569290Y-96575624D01*
X111533812Y-96582200D01*
X105168127Y-96582200D01*
X105062673Y-96582200D01*
X105000329Y-96598904D01*
X104960807Y-96609494D01*
X104869491Y-96662216D01*
X102899403Y-98632304D01*
X102844886Y-98660081D01*
X102829399Y-98661300D01*
X102757243Y-98661300D01*
X102604516Y-98702223D01*
X102467584Y-98781280D01*
X102355780Y-98893084D01*
X102276723Y-99030016D01*
X102235800Y-99182743D01*
X102235800Y-99340857D01*
X102276723Y-99493584D01*
X102355780Y-99630516D01*
X102467584Y-99742320D01*
X102604516Y-99821377D01*
X102757243Y-99862300D01*
X102757245Y-99862300D01*
X102915355Y-99862300D01*
X102915357Y-99862300D01*
X103068084Y-99821377D01*
X103205016Y-99742320D01*
X103316820Y-99630516D01*
X103395877Y-99493584D01*
X103436800Y-99340857D01*
X103436800Y-99268701D01*
X103455707Y-99210510D01*
X103465796Y-99198697D01*
X105252297Y-97412196D01*
X105306814Y-97384419D01*
X105322301Y-97383200D01*
X109244933Y-97383200D01*
X109303124Y-97402107D01*
X109339088Y-97451607D01*
X109339088Y-97512793D01*
X109303124Y-97562293D01*
X109294447Y-97567927D01*
X109202384Y-97621080D01*
X109090580Y-97732884D01*
X109011523Y-97869816D01*
X108970600Y-98022543D01*
X108970600Y-98180657D01*
X109011523Y-98333384D01*
X109090580Y-98470316D01*
X109202384Y-98582120D01*
X109339316Y-98661177D01*
X109492043Y-98702100D01*
X109564199Y-98702100D01*
X109622390Y-98721007D01*
X109634203Y-98731096D01*
X124368203Y-113465096D01*
X124395980Y-113519613D01*
X124386409Y-113580045D01*
X124343144Y-113623310D01*
X124298199Y-113634100D01*
X121805101Y-113634100D01*
X121746910Y-113615193D01*
X121735097Y-113605104D01*
X115890996Y-107761003D01*
X115863219Y-107706486D01*
X115862000Y-107690999D01*
X115862000Y-107618844D01*
X115862000Y-107618843D01*
X115821077Y-107466116D01*
X115742020Y-107329184D01*
X115630216Y-107217380D01*
X115493284Y-107138323D01*
X115340557Y-107097400D01*
X115182443Y-107097400D01*
X115029716Y-107138323D01*
X114892784Y-107217380D01*
X114780980Y-107329184D01*
X114701923Y-107466116D01*
X114661000Y-107618843D01*
X114661000Y-107776957D01*
X114701923Y-107929684D01*
X114780980Y-108066616D01*
X114892784Y-108178420D01*
X115029716Y-108257477D01*
X115182443Y-108298400D01*
X115254599Y-108298400D01*
X115312790Y-108317307D01*
X115324603Y-108327396D01*
X121352287Y-114355080D01*
X121352289Y-114355081D01*
X121352290Y-114355082D01*
X121352291Y-114355083D01*
X121443608Y-114407805D01*
X121443606Y-114407805D01*
X121443610Y-114407806D01*
X121443612Y-114407807D01*
X121545473Y-114435100D01*
X121545475Y-114435100D01*
X143850425Y-114435100D01*
X143850427Y-114435100D01*
X143952288Y-114407807D01*
X143952290Y-114407805D01*
X143952292Y-114407805D01*
X144011253Y-114373764D01*
X144060753Y-114360500D01*
X144151355Y-114360500D01*
X144151357Y-114360500D01*
X144304084Y-114319577D01*
X144441016Y-114240520D01*
X144552820Y-114128716D01*
X144631877Y-113991784D01*
X144672800Y-113839057D01*
X144672800Y-113680943D01*
X144631877Y-113528216D01*
X144552820Y-113391284D01*
X144441016Y-113279480D01*
X144304084Y-113200423D01*
X144151357Y-113159500D01*
X143993243Y-113159500D01*
X143840516Y-113200423D01*
X143703584Y-113279480D01*
X143591780Y-113391284D01*
X143512722Y-113528218D01*
X143504012Y-113560724D01*
X143470688Y-113612038D01*
X143413566Y-113633964D01*
X143408386Y-113634100D01*
X126882491Y-113634100D01*
X126824300Y-113615193D01*
X126788336Y-113565693D01*
X126786864Y-113509477D01*
X126791800Y-113491057D01*
X126791800Y-113332943D01*
X126750877Y-113180216D01*
X126671820Y-113043284D01*
X126560016Y-112931480D01*
X126423084Y-112852423D01*
X126270357Y-112811500D01*
X126112243Y-112811500D01*
X125959516Y-112852423D01*
X125822581Y-112931482D01*
X125771559Y-112982504D01*
X125717042Y-113010281D01*
X125701556Y-113011500D01*
X125088401Y-113011500D01*
X125030210Y-112992593D01*
X125018397Y-112982504D01*
X111772778Y-99736885D01*
X111745001Y-99682368D01*
X111754572Y-99621936D01*
X111797837Y-99578671D01*
X111818780Y-99572168D01*
X111818489Y-99571079D01*
X111824755Y-99569400D01*
X111824757Y-99569400D01*
X111977484Y-99528477D01*
X112114416Y-99449420D01*
X112226220Y-99337616D01*
X112305277Y-99200684D01*
X112346200Y-99047957D01*
X112346200Y-98975801D01*
X112365107Y-98917610D01*
X112375196Y-98905797D01*
X113225997Y-98054996D01*
X113280514Y-98027219D01*
X113296001Y-98026000D01*
X115764089Y-98026000D01*
X115822280Y-98044907D01*
X115858244Y-98094407D01*
X115859486Y-98141792D01*
X115861147Y-98142011D01*
X115860300Y-98148442D01*
X115860300Y-98148443D01*
X115860300Y-98306557D01*
X115901223Y-98459284D01*
X115980280Y-98596216D01*
X116092084Y-98708020D01*
X116229016Y-98787077D01*
X116381743Y-98828000D01*
X116381745Y-98828000D01*
X116539855Y-98828000D01*
X116539857Y-98828000D01*
X116692584Y-98787077D01*
X116829516Y-98708020D01*
X116864772Y-98672764D01*
X116880541Y-98656996D01*
X116935058Y-98629219D01*
X116950544Y-98628000D01*
X162650499Y-98628000D01*
X162708690Y-98646907D01*
X162720503Y-98656996D01*
X163973304Y-99909797D01*
X164001081Y-99964314D01*
X164002300Y-99979801D01*
X164002300Y-100051957D01*
X164043223Y-100204684D01*
X164122280Y-100341616D01*
X164234084Y-100453420D01*
X164371016Y-100532477D01*
X164523743Y-100573400D01*
X164523745Y-100573400D01*
X164681855Y-100573400D01*
X164681857Y-100573400D01*
X164834584Y-100532477D01*
X164971516Y-100453420D01*
X164997029Y-100427906D01*
X165022541Y-100402396D01*
X165077058Y-100374619D01*
X165092544Y-100373400D01*
X165284299Y-100373400D01*
X165342490Y-100392307D01*
X165354303Y-100402396D01*
X168352387Y-103400480D01*
X168352389Y-103400481D01*
X168352390Y-103400482D01*
X168352391Y-103400483D01*
X168443708Y-103453205D01*
X168443709Y-103453205D01*
X168443712Y-103453207D01*
X168526124Y-103475288D01*
X168577438Y-103508612D01*
X168599365Y-103565733D01*
X168599501Y-103570915D01*
X168599501Y-103624863D01*
X168602414Y-103649990D01*
X168627756Y-103707385D01*
X168647794Y-103752765D01*
X168727235Y-103832206D01*
X168830009Y-103877585D01*
X168855135Y-103880500D01*
X170844864Y-103880499D01*
X170869991Y-103877585D01*
X170972765Y-103832206D01*
X171052206Y-103752765D01*
X171097585Y-103649991D01*
X171100500Y-103624865D01*
X171100499Y-102535136D01*
X171097585Y-102510009D01*
X171052206Y-102407235D01*
X170972765Y-102327794D01*
X170869991Y-102282415D01*
X170869990Y-102282414D01*
X170869988Y-102282414D01*
X170844868Y-102279500D01*
X168855139Y-102279500D01*
X168855136Y-102279501D01*
X168830009Y-102282414D01*
X168727235Y-102327794D01*
X168647794Y-102407235D01*
X168647793Y-102407236D01*
X168641308Y-102413722D01*
X168638900Y-102411314D01*
X168603312Y-102438704D01*
X168542150Y-102440394D01*
X168500127Y-102415434D01*
X168274593Y-102189900D01*
X168246816Y-102135383D01*
X168256387Y-102074951D01*
X168299652Y-102031686D01*
X168306716Y-102028430D01*
X168309978Y-102027078D01*
X168309984Y-102027077D01*
X168446916Y-101948020D01*
X168558720Y-101836216D01*
X168637777Y-101699284D01*
X168678700Y-101546557D01*
X168678700Y-101474401D01*
X168697607Y-101416210D01*
X168707696Y-101404397D01*
X169142597Y-100969496D01*
X169197114Y-100941719D01*
X169212601Y-100940500D01*
X171800501Y-100940500D01*
X171858692Y-100959407D01*
X171894656Y-101008907D01*
X171899501Y-101039500D01*
X171899501Y-101084863D01*
X171902414Y-101109990D01*
X171927756Y-101167385D01*
X171947794Y-101212765D01*
X172027235Y-101292206D01*
X172130009Y-101337585D01*
X172155135Y-101340500D01*
X174144864Y-101340499D01*
X174169991Y-101337585D01*
X174272765Y-101292206D01*
X174352206Y-101212765D01*
X174397585Y-101109991D01*
X174400500Y-101084865D01*
X174400499Y-99995136D01*
X174397585Y-99970009D01*
X174352206Y-99867235D01*
X174272765Y-99787794D01*
X174169991Y-99742415D01*
X174169990Y-99742414D01*
X174169988Y-99742414D01*
X174144868Y-99739500D01*
X172155139Y-99739500D01*
X172155136Y-99739501D01*
X172130009Y-99742414D01*
X172027235Y-99787794D01*
X171947794Y-99867235D01*
X171902414Y-99970011D01*
X171899500Y-99995130D01*
X171899500Y-100040500D01*
X171880593Y-100098691D01*
X171831093Y-100134655D01*
X171800500Y-100139500D01*
X169058427Y-100139500D01*
X168952973Y-100139500D01*
X168890629Y-100156204D01*
X168851107Y-100166794D01*
X168759791Y-100219516D01*
X168759786Y-100219520D01*
X168148202Y-100831103D01*
X168093686Y-100858880D01*
X168033254Y-100849309D01*
X168008195Y-100831103D01*
X164729297Y-97552204D01*
X164701520Y-97497687D01*
X164711091Y-97437255D01*
X164754356Y-97393990D01*
X164799301Y-97383200D01*
X165027125Y-97383200D01*
X165027127Y-97383200D01*
X165128988Y-97355907D01*
X165128990Y-97355905D01*
X165128992Y-97355905D01*
X165220308Y-97303183D01*
X165220308Y-97303182D01*
X165220313Y-97303180D01*
X165323993Y-97199500D01*
X165409098Y-97114396D01*
X165463614Y-97086619D01*
X165479101Y-97085400D01*
X165551255Y-97085400D01*
X165551257Y-97085400D01*
X165703984Y-97044477D01*
X165840916Y-96965420D01*
X165866429Y-96939906D01*
X165891941Y-96914396D01*
X165946458Y-96886619D01*
X165961944Y-96885400D01*
X166593456Y-96885400D01*
X166651647Y-96904307D01*
X166663459Y-96914396D01*
X166714481Y-96965417D01*
X166714484Y-96965420D01*
X166851416Y-97044477D01*
X167004143Y-97085400D01*
X167076299Y-97085400D01*
X167134490Y-97104307D01*
X167146303Y-97114396D01*
X168352387Y-98320480D01*
X168352389Y-98320481D01*
X168352390Y-98320482D01*
X168352391Y-98320483D01*
X168443708Y-98373205D01*
X168443709Y-98373205D01*
X168443712Y-98373207D01*
X168526124Y-98395288D01*
X168577438Y-98428612D01*
X168599365Y-98485733D01*
X168599501Y-98490915D01*
X168599501Y-98544863D01*
X168602414Y-98569990D01*
X168607770Y-98582119D01*
X168647794Y-98672765D01*
X168727235Y-98752206D01*
X168830009Y-98797585D01*
X168855135Y-98800500D01*
X170844864Y-98800499D01*
X170869991Y-98797585D01*
X170972765Y-98752206D01*
X171052206Y-98672765D01*
X171097585Y-98569991D01*
X171100500Y-98544865D01*
X171100499Y-97455136D01*
X171097585Y-97430009D01*
X171052206Y-97327235D01*
X170972765Y-97247794D01*
X170869991Y-97202415D01*
X170869990Y-97202414D01*
X170869988Y-97202414D01*
X170844868Y-97199500D01*
X168855139Y-97199500D01*
X168855136Y-97199501D01*
X168830009Y-97202414D01*
X168727235Y-97247794D01*
X168647794Y-97327235D01*
X168647793Y-97327236D01*
X168641308Y-97333722D01*
X168638900Y-97331314D01*
X168603312Y-97358704D01*
X168542150Y-97360394D01*
X168500127Y-97335434D01*
X167712696Y-96548003D01*
X167684919Y-96493486D01*
X167683700Y-96477999D01*
X167683700Y-96405844D01*
X167682967Y-96403107D01*
X167642777Y-96253116D01*
X167563720Y-96116184D01*
X167477037Y-96029501D01*
X167449262Y-95974987D01*
X167458833Y-95914555D01*
X167502098Y-95871290D01*
X167547043Y-95860500D01*
X171800501Y-95860500D01*
X171858692Y-95879407D01*
X171894656Y-95928907D01*
X171899501Y-95959500D01*
X171899501Y-96004863D01*
X171902414Y-96029990D01*
X171925901Y-96083181D01*
X171947794Y-96132765D01*
X172027235Y-96212206D01*
X172130009Y-96257585D01*
X172155135Y-96260500D01*
X174144864Y-96260499D01*
X174169991Y-96257585D01*
X174272765Y-96212206D01*
X174352206Y-96132765D01*
X174397585Y-96029991D01*
X174400500Y-96004865D01*
X174400499Y-94915136D01*
X174397585Y-94890009D01*
X174352206Y-94787235D01*
X174272765Y-94707794D01*
X174169991Y-94662415D01*
X174169990Y-94662414D01*
X174169988Y-94662414D01*
X174144868Y-94659500D01*
X172155139Y-94659500D01*
X172155136Y-94659501D01*
X172130009Y-94662414D01*
X172027235Y-94707794D01*
X171947794Y-94787235D01*
X171902414Y-94890011D01*
X171899500Y-94915130D01*
X171899500Y-94960500D01*
X171880593Y-95018691D01*
X171831093Y-95054655D01*
X171800500Y-95059500D01*
X164777627Y-95059500D01*
X164672173Y-95059500D01*
X164609829Y-95076204D01*
X164570307Y-95086794D01*
X164478991Y-95139516D01*
X164478986Y-95139520D01*
X164255003Y-95363503D01*
X164200487Y-95391280D01*
X164140055Y-95381709D01*
X164114996Y-95363503D01*
X160899103Y-92147610D01*
X157553313Y-88801820D01*
X157553310Y-88801818D01*
X157553309Y-88801817D01*
X157553308Y-88801816D01*
X157461991Y-88749094D01*
X157461993Y-88749094D01*
X157422470Y-88738504D01*
X157360127Y-88721800D01*
X157360125Y-88721800D01*
X133052178Y-88721800D01*
X132993987Y-88702893D01*
X132958023Y-88653393D01*
X132958023Y-88592207D01*
X132982174Y-88552796D01*
X132982763Y-88552206D01*
X132982765Y-88552206D01*
X133062206Y-88472765D01*
X133107585Y-88369991D01*
X133110500Y-88344865D01*
X133110499Y-86355136D01*
X133107585Y-86330009D01*
X133062206Y-86227235D01*
X132982765Y-86147794D01*
X132879991Y-86102415D01*
X132879990Y-86102414D01*
X132879988Y-86102414D01*
X132854869Y-86099500D01*
X132854865Y-86099500D01*
X132800915Y-86099500D01*
X132742724Y-86080593D01*
X132706760Y-86031093D01*
X132705288Y-86026123D01*
X132683207Y-85943713D01*
X132630480Y-85852387D01*
X132555913Y-85777820D01*
X132555906Y-85777816D01*
X132464589Y-85725094D01*
X132464588Y-85725093D01*
X132464587Y-85725093D01*
X132362727Y-85697800D01*
X129361527Y-85697800D01*
X116983227Y-85697800D01*
X116877773Y-85697800D01*
X116815429Y-85714504D01*
X116775907Y-85725094D01*
X116684591Y-85777816D01*
X114112603Y-88349804D01*
X114058086Y-88377581D01*
X114042599Y-88378800D01*
X113970443Y-88378800D01*
X113817716Y-88419723D01*
X113680784Y-88498780D01*
X113568980Y-88610584D01*
X113489923Y-88747516D01*
X113449000Y-88900243D01*
X113449000Y-89058357D01*
X113489923Y-89211084D01*
X113568980Y-89348016D01*
X113680784Y-89459820D01*
X113817716Y-89538877D01*
X113970443Y-89579800D01*
X113970445Y-89579800D01*
X114128555Y-89579800D01*
X114128557Y-89579800D01*
X114281284Y-89538877D01*
X114418216Y-89459820D01*
X114530020Y-89348016D01*
X114609077Y-89211084D01*
X114650000Y-89058357D01*
X114650000Y-88986201D01*
X114668907Y-88928010D01*
X114678996Y-88916197D01*
X117067397Y-86527796D01*
X117121914Y-86500019D01*
X117137401Y-86498800D01*
X126330500Y-86498800D01*
X126388691Y-86517707D01*
X126424655Y-86567207D01*
X126429500Y-86597800D01*
X126429501Y-88102200D01*
X126410594Y-88160391D01*
X126361094Y-88196355D01*
X126330501Y-88201200D01*
X124860627Y-88201200D01*
X124755173Y-88201200D01*
X124692829Y-88217904D01*
X124653307Y-88228494D01*
X124561991Y-88281216D01*
X119565403Y-93277804D01*
X119510886Y-93305581D01*
X119495399Y-93306800D01*
X104128027Y-93306800D01*
X104022573Y-93306800D01*
X103960229Y-93323504D01*
X103920707Y-93334094D01*
X103829391Y-93386816D01*
X101857203Y-95359004D01*
X101802686Y-95386781D01*
X101787199Y-95388000D01*
X101715043Y-95388000D01*
X101562316Y-95428923D01*
X101425384Y-95507980D01*
X101313580Y-95619784D01*
X101234523Y-95756716D01*
X101193600Y-95909443D01*
X98500001Y-95909443D01*
X98500001Y-81560943D01*
X108039400Y-81560943D01*
X108039400Y-81719057D01*
X108080323Y-81871784D01*
X108159380Y-82008716D01*
X108271184Y-82120520D01*
X108408116Y-82199577D01*
X108560843Y-82240500D01*
X108560845Y-82240500D01*
X108718956Y-82240500D01*
X108718957Y-82240500D01*
X108783290Y-82223262D01*
X108844391Y-82226463D01*
X108891941Y-82264968D01*
X108907777Y-82324069D01*
X108904540Y-82344510D01*
X108885400Y-82415943D01*
X108885400Y-82574057D01*
X108926323Y-82726784D01*
X109005380Y-82863716D01*
X109117184Y-82975520D01*
X109254116Y-83054577D01*
X109406843Y-83095500D01*
X109406845Y-83095500D01*
X109564955Y-83095500D01*
X109564957Y-83095500D01*
X109717684Y-83054577D01*
X109854616Y-82975520D01*
X109880129Y-82950006D01*
X109905641Y-82924496D01*
X109960158Y-82896719D01*
X109975644Y-82895500D01*
X137426225Y-82895500D01*
X137426227Y-82895500D01*
X137528088Y-82868207D01*
X137528090Y-82868205D01*
X137528092Y-82868205D01*
X137619408Y-82815483D01*
X137619408Y-82815482D01*
X137619413Y-82815480D01*
X138134597Y-82300296D01*
X138189114Y-82272519D01*
X138204601Y-82271300D01*
X138276755Y-82271300D01*
X138276757Y-82271300D01*
X138429484Y-82230377D01*
X138566416Y-82151320D01*
X138678220Y-82039516D01*
X138757277Y-81902584D01*
X138798200Y-81749857D01*
X138798200Y-81591743D01*
X138757277Y-81439016D01*
X138678220Y-81302084D01*
X138566416Y-81190280D01*
X138429484Y-81111223D01*
X138276757Y-81070300D01*
X138118643Y-81070300D01*
X137965916Y-81111223D01*
X137828984Y-81190280D01*
X137717180Y-81302084D01*
X137638123Y-81439016D01*
X137597200Y-81591744D01*
X137597200Y-81663899D01*
X137578293Y-81722090D01*
X137568204Y-81733903D01*
X137236603Y-82065504D01*
X137182086Y-82093281D01*
X137166599Y-82094500D01*
X135545400Y-82094500D01*
X135487209Y-82075593D01*
X135451245Y-82026093D01*
X135451245Y-81964907D01*
X135475394Y-81925498D01*
X138077597Y-79323296D01*
X138132114Y-79295519D01*
X138147601Y-79294300D01*
X138219755Y-79294300D01*
X138219757Y-79294300D01*
X138372484Y-79253377D01*
X138509416Y-79174320D01*
X138621220Y-79062516D01*
X138700277Y-78925584D01*
X138741200Y-78772857D01*
X138741200Y-78614743D01*
X138700277Y-78462016D01*
X138621220Y-78325084D01*
X138509416Y-78213280D01*
X138372484Y-78134223D01*
X138219757Y-78093300D01*
X138061643Y-78093300D01*
X137908916Y-78134223D01*
X137771984Y-78213280D01*
X137660180Y-78325084D01*
X137581123Y-78462016D01*
X137540200Y-78614744D01*
X137540200Y-78686899D01*
X137521293Y-78745090D01*
X137511204Y-78756903D01*
X135023403Y-81244704D01*
X134968886Y-81272481D01*
X134953399Y-81273700D01*
X120974644Y-81273700D01*
X120916453Y-81254793D01*
X120904641Y-81244704D01*
X120853618Y-81193682D01*
X120853616Y-81193680D01*
X120716684Y-81114623D01*
X120563957Y-81073700D01*
X120405843Y-81073700D01*
X120253116Y-81114623D01*
X120116184Y-81193680D01*
X120004380Y-81305484D01*
X119925323Y-81442416D01*
X119884400Y-81595143D01*
X119884400Y-81753257D01*
X119925323Y-81905984D01*
X119925324Y-81905985D01*
X119925324Y-81905987D01*
X119948426Y-81946000D01*
X119961148Y-82005848D01*
X119936261Y-82061744D01*
X119883273Y-82092337D01*
X119862690Y-82094500D01*
X117856200Y-82094500D01*
X117798009Y-82075593D01*
X117762045Y-82026093D01*
X117762045Y-81964907D01*
X117786194Y-81925498D01*
X119524397Y-80187296D01*
X119578914Y-80159519D01*
X119594401Y-80158300D01*
X119666555Y-80158300D01*
X119666557Y-80158300D01*
X119819284Y-80117377D01*
X119956216Y-80038320D01*
X120068020Y-79926516D01*
X120147077Y-79789584D01*
X120188000Y-79636857D01*
X120188000Y-79478743D01*
X120147077Y-79326016D01*
X120068020Y-79189084D01*
X119956216Y-79077280D01*
X119819284Y-78998223D01*
X119666557Y-78957300D01*
X119508443Y-78957300D01*
X119355716Y-78998223D01*
X119218784Y-79077280D01*
X119106980Y-79189084D01*
X119027923Y-79326016D01*
X118987000Y-79478744D01*
X118987000Y-79550899D01*
X118968093Y-79609090D01*
X118958004Y-79620903D01*
X117368403Y-81210504D01*
X117313886Y-81238281D01*
X117298399Y-81239500D01*
X109129644Y-81239500D01*
X109071453Y-81220593D01*
X109059641Y-81210504D01*
X109008618Y-81159482D01*
X109008616Y-81159480D01*
X108871684Y-81080423D01*
X108718957Y-81039500D01*
X108560843Y-81039500D01*
X108408116Y-81080423D01*
X108271184Y-81159480D01*
X108159380Y-81271284D01*
X108080323Y-81408216D01*
X108039400Y-81560943D01*
X98500001Y-81560943D01*
X98500001Y-79000000D01*
X98500000Y-79000000D01*
X93099500Y-79000000D01*
X93041309Y-78981093D01*
X93005345Y-78931593D01*
X93000500Y-78901000D01*
X93000500Y-77411417D01*
X103244500Y-77411417D01*
X103244500Y-77588582D01*
X103272213Y-77763552D01*
X103272214Y-77763555D01*
X103326958Y-77932042D01*
X103407386Y-78089890D01*
X103511517Y-78233214D01*
X103636786Y-78358483D01*
X103780110Y-78462614D01*
X103937958Y-78543042D01*
X104106445Y-78597786D01*
X104176435Y-78608871D01*
X104281418Y-78625500D01*
X104281421Y-78625500D01*
X104458582Y-78625500D01*
X104546067Y-78611643D01*
X104633555Y-78597786D01*
X104802042Y-78543042D01*
X104959890Y-78462614D01*
X105103214Y-78358483D01*
X105228483Y-78233214D01*
X105332614Y-78089890D01*
X105413042Y-77932042D01*
X105467786Y-77763555D01*
X105495500Y-77588579D01*
X105495500Y-77411421D01*
X105495500Y-77411417D01*
X105488107Y-77364740D01*
X105486167Y-77352494D01*
X107199500Y-77352494D01*
X107199500Y-77647506D01*
X107238007Y-77939993D01*
X107296470Y-78158183D01*
X107314361Y-78224953D01*
X107427253Y-78497499D01*
X107427255Y-78497503D01*
X107427257Y-78497507D01*
X107560278Y-78727907D01*
X107574764Y-78752997D01*
X107754348Y-78987035D01*
X107754350Y-78987037D01*
X107754354Y-78987042D01*
X107962958Y-79195646D01*
X107962962Y-79195649D01*
X107962964Y-79195651D01*
X108129314Y-79323296D01*
X108197006Y-79375238D01*
X108452493Y-79522743D01*
X108725048Y-79635639D01*
X109010007Y-79711993D01*
X109302494Y-79750500D01*
X109302495Y-79750500D01*
X109597505Y-79750500D01*
X109597506Y-79750500D01*
X109889993Y-79711993D01*
X110174952Y-79635639D01*
X110447507Y-79522743D01*
X110702994Y-79375238D01*
X110937042Y-79195646D01*
X111145646Y-78987042D01*
X111325238Y-78752994D01*
X111472743Y-78497507D01*
X111585639Y-78224952D01*
X111661993Y-77939993D01*
X111700500Y-77647506D01*
X111700500Y-77411417D01*
X113404500Y-77411417D01*
X113404500Y-77588582D01*
X113432213Y-77763552D01*
X113432214Y-77763555D01*
X113486958Y-77932042D01*
X113567386Y-78089890D01*
X113671517Y-78233214D01*
X113796786Y-78358483D01*
X113940110Y-78462614D01*
X114097958Y-78543042D01*
X114266445Y-78597786D01*
X114336435Y-78608871D01*
X114441418Y-78625500D01*
X114441421Y-78625500D01*
X114618582Y-78625500D01*
X114706067Y-78611643D01*
X114793555Y-78597786D01*
X114962042Y-78543042D01*
X115119890Y-78462614D01*
X115263214Y-78358483D01*
X115388483Y-78233214D01*
X115492614Y-78089890D01*
X115573042Y-77932042D01*
X115627786Y-77763555D01*
X115655500Y-77588579D01*
X115655500Y-77411421D01*
X115655500Y-77411417D01*
X122294500Y-77411417D01*
X122294500Y-77588582D01*
X122322213Y-77763552D01*
X122322214Y-77763555D01*
X122376958Y-77932042D01*
X122457386Y-78089890D01*
X122561517Y-78233214D01*
X122686786Y-78358483D01*
X122830110Y-78462614D01*
X122987958Y-78543042D01*
X123156445Y-78597786D01*
X123226435Y-78608871D01*
X123331418Y-78625500D01*
X123331421Y-78625500D01*
X123508582Y-78625500D01*
X123596067Y-78611643D01*
X123683555Y-78597786D01*
X123852042Y-78543042D01*
X124009890Y-78462614D01*
X124153214Y-78358483D01*
X124278483Y-78233214D01*
X124382614Y-78089890D01*
X124463042Y-77932042D01*
X124517786Y-77763555D01*
X124545500Y-77588579D01*
X124545500Y-77411421D01*
X124545500Y-77411417D01*
X124538107Y-77364740D01*
X124536167Y-77352494D01*
X126249500Y-77352494D01*
X126249500Y-77647506D01*
X126288007Y-77939993D01*
X126346470Y-78158183D01*
X126364361Y-78224953D01*
X126477253Y-78497499D01*
X126477255Y-78497503D01*
X126477257Y-78497507D01*
X126610278Y-78727907D01*
X126624764Y-78752997D01*
X126804348Y-78987035D01*
X126804350Y-78987037D01*
X126804354Y-78987042D01*
X127012958Y-79195646D01*
X127012962Y-79195649D01*
X127012964Y-79195651D01*
X127179314Y-79323296D01*
X127247006Y-79375238D01*
X127502493Y-79522743D01*
X127775048Y-79635639D01*
X128060007Y-79711993D01*
X128352494Y-79750500D01*
X128352495Y-79750500D01*
X128647505Y-79750500D01*
X128647506Y-79750500D01*
X128939993Y-79711993D01*
X129224952Y-79635639D01*
X129497507Y-79522743D01*
X129752994Y-79375238D01*
X129987042Y-79195646D01*
X130195646Y-78987042D01*
X130375238Y-78752994D01*
X130522743Y-78497507D01*
X130635639Y-78224952D01*
X130711993Y-77939993D01*
X130750500Y-77647506D01*
X130750500Y-77411417D01*
X132454500Y-77411417D01*
X132454500Y-77588582D01*
X132482213Y-77763552D01*
X132482214Y-77763555D01*
X132536958Y-77932042D01*
X132617386Y-78089890D01*
X132721517Y-78233214D01*
X132846786Y-78358483D01*
X132990110Y-78462614D01*
X133147958Y-78543042D01*
X133316445Y-78597786D01*
X133386435Y-78608871D01*
X133491418Y-78625500D01*
X133491421Y-78625500D01*
X133668582Y-78625500D01*
X133756067Y-78611643D01*
X133843555Y-78597786D01*
X134012042Y-78543042D01*
X134169890Y-78462614D01*
X134313214Y-78358483D01*
X134438483Y-78233214D01*
X134542614Y-78089890D01*
X134623042Y-77932042D01*
X134677786Y-77763555D01*
X134705500Y-77588579D01*
X134705500Y-77411421D01*
X134705500Y-77411417D01*
X141344500Y-77411417D01*
X141344500Y-77588582D01*
X141372213Y-77763552D01*
X141372214Y-77763555D01*
X141426958Y-77932042D01*
X141507386Y-78089890D01*
X141611517Y-78233214D01*
X141736786Y-78358483D01*
X141880110Y-78462614D01*
X142037958Y-78543042D01*
X142206445Y-78597786D01*
X142276435Y-78608871D01*
X142381418Y-78625500D01*
X142381421Y-78625500D01*
X142558582Y-78625500D01*
X142646067Y-78611643D01*
X142733555Y-78597786D01*
X142902042Y-78543042D01*
X143059890Y-78462614D01*
X143203214Y-78358483D01*
X143328483Y-78233214D01*
X143432614Y-78089890D01*
X143513042Y-77932042D01*
X143567786Y-77763555D01*
X143595500Y-77588579D01*
X143595500Y-77411421D01*
X143595500Y-77411417D01*
X143588107Y-77364740D01*
X143586167Y-77352494D01*
X145299500Y-77352494D01*
X145299500Y-77647506D01*
X145338007Y-77939993D01*
X145396470Y-78158183D01*
X145414361Y-78224953D01*
X145527253Y-78497499D01*
X145527255Y-78497503D01*
X145527257Y-78497507D01*
X145660278Y-78727907D01*
X145674764Y-78752997D01*
X145854348Y-78987035D01*
X145854350Y-78987037D01*
X145854354Y-78987042D01*
X146062958Y-79195646D01*
X146062962Y-79195649D01*
X146062964Y-79195651D01*
X146229314Y-79323296D01*
X146297006Y-79375238D01*
X146552493Y-79522743D01*
X146825048Y-79635639D01*
X147110007Y-79711993D01*
X147402494Y-79750500D01*
X147402495Y-79750500D01*
X147697505Y-79750500D01*
X147697506Y-79750500D01*
X147989993Y-79711993D01*
X148274952Y-79635639D01*
X148547507Y-79522743D01*
X148802994Y-79375238D01*
X149037042Y-79195646D01*
X149245646Y-78987042D01*
X149425238Y-78752994D01*
X149572743Y-78497507D01*
X149685639Y-78224952D01*
X149761993Y-77939993D01*
X149800500Y-77647506D01*
X149800500Y-77411417D01*
X151504500Y-77411417D01*
X151504500Y-77588582D01*
X151532213Y-77763552D01*
X151532214Y-77763555D01*
X151586958Y-77932042D01*
X151667386Y-78089890D01*
X151771517Y-78233214D01*
X151896786Y-78358483D01*
X152040110Y-78462614D01*
X152197958Y-78543042D01*
X152366445Y-78597786D01*
X152436435Y-78608871D01*
X152541418Y-78625500D01*
X152541421Y-78625500D01*
X152718582Y-78625500D01*
X152806067Y-78611643D01*
X152893555Y-78597786D01*
X153062042Y-78543042D01*
X153219890Y-78462614D01*
X153363214Y-78358483D01*
X153488483Y-78233214D01*
X153592614Y-78089890D01*
X153673042Y-77932042D01*
X153727786Y-77763555D01*
X153755500Y-77588579D01*
X153755500Y-77411421D01*
X153755500Y-77411417D01*
X153727786Y-77236447D01*
X153727786Y-77236445D01*
X153673042Y-77067958D01*
X153592614Y-76910110D01*
X153488483Y-76766786D01*
X153363214Y-76641517D01*
X153219890Y-76537386D01*
X153219889Y-76537385D01*
X153219887Y-76537384D01*
X153062040Y-76456957D01*
X152893552Y-76402213D01*
X152718582Y-76374500D01*
X152718579Y-76374500D01*
X152541421Y-76374500D01*
X152541418Y-76374500D01*
X152366447Y-76402213D01*
X152197959Y-76456957D01*
X152040112Y-76537384D01*
X151896787Y-76641516D01*
X151771516Y-76766787D01*
X151667384Y-76910112D01*
X151586957Y-77067959D01*
X151532213Y-77236447D01*
X151504500Y-77411417D01*
X149800500Y-77411417D01*
X149800500Y-77352494D01*
X149761993Y-77060007D01*
X149685639Y-76775048D01*
X149572743Y-76502493D01*
X149425238Y-76247006D01*
X149337897Y-76133181D01*
X149245651Y-76012964D01*
X149245649Y-76012962D01*
X149245646Y-76012958D01*
X149037042Y-75804354D01*
X149037037Y-75804350D01*
X149037035Y-75804348D01*
X148802997Y-75624764D01*
X148802994Y-75624762D01*
X148547507Y-75477257D01*
X148547503Y-75477255D01*
X148547499Y-75477253D01*
X148274953Y-75364361D01*
X148208183Y-75346470D01*
X147989993Y-75288007D01*
X147989986Y-75288006D01*
X147697506Y-75249500D01*
X147402494Y-75249500D01*
X147402493Y-75249500D01*
X147110013Y-75288006D01*
X147110011Y-75288006D01*
X147110007Y-75288007D01*
X146958584Y-75328580D01*
X146825046Y-75364361D01*
X146552500Y-75477253D01*
X146297002Y-75624764D01*
X146062964Y-75804348D01*
X145854348Y-76012964D01*
X145674764Y-76247002D01*
X145527253Y-76502500D01*
X145414361Y-76775046D01*
X145402998Y-76817454D01*
X145338007Y-77060007D01*
X145299500Y-77352494D01*
X143586167Y-77352494D01*
X143567786Y-77236447D01*
X143567786Y-77236445D01*
X143513042Y-77067958D01*
X143432614Y-76910110D01*
X143407574Y-76875645D01*
X143388666Y-76817454D01*
X143407573Y-76759264D01*
X143457073Y-76723300D01*
X143500585Y-76719301D01*
X143623628Y-76735500D01*
X143623629Y-76735500D01*
X143856371Y-76735500D01*
X143856372Y-76735500D01*
X144087126Y-76705121D01*
X144311940Y-76644882D01*
X144526969Y-76555815D01*
X144728532Y-76439442D01*
X144913181Y-76297756D01*
X145077756Y-76133181D01*
X145219442Y-75948532D01*
X145335815Y-75746969D01*
X145424882Y-75531940D01*
X145485121Y-75307126D01*
X145515500Y-75076372D01*
X145515500Y-74843628D01*
X145485121Y-74612874D01*
X145424882Y-74388060D01*
X145335815Y-74173031D01*
X145219442Y-73971468D01*
X145077756Y-73786819D01*
X144913181Y-73622244D01*
X144913176Y-73622240D01*
X144913174Y-73622238D01*
X144728529Y-73480556D01*
X144526970Y-73364185D01*
X144526965Y-73364183D01*
X144311945Y-73275120D01*
X144311944Y-73275119D01*
X144311940Y-73275118D01*
X144087126Y-73214879D01*
X144087123Y-73214878D01*
X144087121Y-73214878D01*
X143856373Y-73184500D01*
X143856372Y-73184500D01*
X143623628Y-73184500D01*
X143623626Y-73184500D01*
X143392881Y-73214878D01*
X143392876Y-73214878D01*
X143168067Y-73275116D01*
X143168054Y-73275120D01*
X142953034Y-73364183D01*
X142953029Y-73364185D01*
X142751470Y-73480556D01*
X142566825Y-73622238D01*
X142402238Y-73786825D01*
X142260556Y-73971470D01*
X142144185Y-74173029D01*
X142144183Y-74173034D01*
X142055120Y-74388054D01*
X142055116Y-74388067D01*
X141994878Y-74612876D01*
X141994878Y-74612881D01*
X141964500Y-74843626D01*
X141964500Y-75076373D01*
X141994878Y-75307118D01*
X141994878Y-75307123D01*
X142055116Y-75531932D01*
X142055120Y-75531945D01*
X142144183Y-75746965D01*
X142144185Y-75746970D01*
X142260556Y-75948529D01*
X142402238Y-76133174D01*
X142402240Y-76133176D01*
X142402244Y-76133181D01*
X142474561Y-76205498D01*
X142502337Y-76260013D01*
X142492766Y-76320445D01*
X142449501Y-76363710D01*
X142404556Y-76374500D01*
X142381418Y-76374500D01*
X142206447Y-76402213D01*
X142037959Y-76456957D01*
X141880112Y-76537384D01*
X141736787Y-76641516D01*
X141611516Y-76766787D01*
X141507384Y-76910112D01*
X141426957Y-77067959D01*
X141372213Y-77236447D01*
X141344500Y-77411417D01*
X134705500Y-77411417D01*
X134677786Y-77236447D01*
X134677786Y-77236445D01*
X134623042Y-77067958D01*
X134542614Y-76910110D01*
X134438483Y-76766786D01*
X134313214Y-76641517D01*
X134169890Y-76537386D01*
X134169889Y-76537385D01*
X134169887Y-76537384D01*
X134012040Y-76456957D01*
X133843552Y-76402213D01*
X133668582Y-76374500D01*
X133668579Y-76374500D01*
X133491421Y-76374500D01*
X133491418Y-76374500D01*
X133316447Y-76402213D01*
X133147959Y-76456957D01*
X132990112Y-76537384D01*
X132846787Y-76641516D01*
X132721516Y-76766787D01*
X132617384Y-76910112D01*
X132536957Y-77067959D01*
X132482213Y-77236447D01*
X132454500Y-77411417D01*
X130750500Y-77411417D01*
X130750500Y-77352494D01*
X130711993Y-77060007D01*
X130635639Y-76775048D01*
X130522743Y-76502493D01*
X130375238Y-76247006D01*
X130287897Y-76133181D01*
X130195651Y-76012964D01*
X130195649Y-76012962D01*
X130195646Y-76012958D01*
X129987042Y-75804354D01*
X129987037Y-75804350D01*
X129987035Y-75804348D01*
X129752997Y-75624764D01*
X129752994Y-75624762D01*
X129497507Y-75477257D01*
X129497503Y-75477255D01*
X129497499Y-75477253D01*
X129224953Y-75364361D01*
X129158183Y-75346470D01*
X128939993Y-75288007D01*
X128939986Y-75288006D01*
X128647506Y-75249500D01*
X128352494Y-75249500D01*
X128352493Y-75249500D01*
X128060013Y-75288006D01*
X128060011Y-75288006D01*
X128060007Y-75288007D01*
X127908584Y-75328580D01*
X127775046Y-75364361D01*
X127502500Y-75477253D01*
X127247002Y-75624764D01*
X127012964Y-75804348D01*
X126804348Y-76012964D01*
X126624764Y-76247002D01*
X126477253Y-76502500D01*
X126364361Y-76775046D01*
X126352998Y-76817454D01*
X126288007Y-77060007D01*
X126249500Y-77352494D01*
X124536167Y-77352494D01*
X124517786Y-77236447D01*
X124517786Y-77236445D01*
X124463042Y-77067958D01*
X124382614Y-76910110D01*
X124357574Y-76875645D01*
X124338666Y-76817454D01*
X124357573Y-76759264D01*
X124407073Y-76723300D01*
X124450585Y-76719301D01*
X124573628Y-76735500D01*
X124573629Y-76735500D01*
X124806371Y-76735500D01*
X124806372Y-76735500D01*
X125037126Y-76705121D01*
X125261940Y-76644882D01*
X125476969Y-76555815D01*
X125678532Y-76439442D01*
X125863181Y-76297756D01*
X126027756Y-76133181D01*
X126169442Y-75948532D01*
X126285815Y-75746969D01*
X126374882Y-75531940D01*
X126435121Y-75307126D01*
X126465500Y-75076372D01*
X126465500Y-74843628D01*
X126435121Y-74612874D01*
X126374882Y-74388060D01*
X126285815Y-74173031D01*
X126169442Y-73971468D01*
X126027756Y-73786819D01*
X125863181Y-73622244D01*
X125863176Y-73622240D01*
X125863174Y-73622238D01*
X125678529Y-73480556D01*
X125476970Y-73364185D01*
X125476965Y-73364183D01*
X125261945Y-73275120D01*
X125261944Y-73275119D01*
X125261940Y-73275118D01*
X125037126Y-73214879D01*
X125037123Y-73214878D01*
X125037121Y-73214878D01*
X124806373Y-73184500D01*
X124806372Y-73184500D01*
X124573628Y-73184500D01*
X124573626Y-73184500D01*
X124342881Y-73214878D01*
X124342876Y-73214878D01*
X124118067Y-73275116D01*
X124118054Y-73275120D01*
X123903034Y-73364183D01*
X123903029Y-73364185D01*
X123701470Y-73480556D01*
X123516825Y-73622238D01*
X123352238Y-73786825D01*
X123210556Y-73971470D01*
X123094185Y-74173029D01*
X123094183Y-74173034D01*
X123005120Y-74388054D01*
X123005116Y-74388067D01*
X122944878Y-74612876D01*
X122944878Y-74612881D01*
X122914500Y-74843626D01*
X122914500Y-75076373D01*
X122944878Y-75307118D01*
X122944878Y-75307123D01*
X123005116Y-75531932D01*
X123005120Y-75531945D01*
X123094183Y-75746965D01*
X123094185Y-75746970D01*
X123210556Y-75948529D01*
X123352238Y-76133174D01*
X123352240Y-76133176D01*
X123352244Y-76133181D01*
X123424561Y-76205498D01*
X123452337Y-76260013D01*
X123442766Y-76320445D01*
X123399501Y-76363710D01*
X123354556Y-76374500D01*
X123331418Y-76374500D01*
X123156447Y-76402213D01*
X122987959Y-76456957D01*
X122830112Y-76537384D01*
X122686787Y-76641516D01*
X122561516Y-76766787D01*
X122457384Y-76910112D01*
X122376957Y-77067959D01*
X122322213Y-77236447D01*
X122294500Y-77411417D01*
X115655500Y-77411417D01*
X115627786Y-77236447D01*
X115627786Y-77236445D01*
X115573042Y-77067958D01*
X115492614Y-76910110D01*
X115388483Y-76766786D01*
X115263214Y-76641517D01*
X115119890Y-76537386D01*
X115119889Y-76537385D01*
X115119887Y-76537384D01*
X114962040Y-76456957D01*
X114793552Y-76402213D01*
X114618582Y-76374500D01*
X114618579Y-76374500D01*
X114441421Y-76374500D01*
X114441418Y-76374500D01*
X114266447Y-76402213D01*
X114097959Y-76456957D01*
X113940112Y-76537384D01*
X113796787Y-76641516D01*
X113671516Y-76766787D01*
X113567384Y-76910112D01*
X113486957Y-77067959D01*
X113432213Y-77236447D01*
X113404500Y-77411417D01*
X111700500Y-77411417D01*
X111700500Y-77352494D01*
X111661993Y-77060007D01*
X111585639Y-76775048D01*
X111472743Y-76502493D01*
X111325238Y-76247006D01*
X111237897Y-76133181D01*
X111145651Y-76012964D01*
X111145649Y-76012962D01*
X111145646Y-76012958D01*
X110937042Y-75804354D01*
X110937037Y-75804350D01*
X110937035Y-75804348D01*
X110702997Y-75624764D01*
X110702994Y-75624762D01*
X110447507Y-75477257D01*
X110447503Y-75477255D01*
X110447499Y-75477253D01*
X110174953Y-75364361D01*
X110108183Y-75346470D01*
X109889993Y-75288007D01*
X109889986Y-75288006D01*
X109597506Y-75249500D01*
X109302494Y-75249500D01*
X109302493Y-75249500D01*
X109010013Y-75288006D01*
X109010011Y-75288006D01*
X109010007Y-75288007D01*
X108858584Y-75328580D01*
X108725046Y-75364361D01*
X108452500Y-75477253D01*
X108197002Y-75624764D01*
X107962964Y-75804348D01*
X107754348Y-76012964D01*
X107574764Y-76247002D01*
X107427253Y-76502500D01*
X107314361Y-76775046D01*
X107302998Y-76817454D01*
X107238007Y-77060007D01*
X107199500Y-77352494D01*
X105486167Y-77352494D01*
X105467786Y-77236447D01*
X105467786Y-77236445D01*
X105413042Y-77067958D01*
X105332614Y-76910110D01*
X105307574Y-76875645D01*
X105288666Y-76817454D01*
X105307573Y-76759264D01*
X105357073Y-76723300D01*
X105400585Y-76719301D01*
X105523628Y-76735500D01*
X105523629Y-76735500D01*
X105756371Y-76735500D01*
X105756372Y-76735500D01*
X105987126Y-76705121D01*
X106211940Y-76644882D01*
X106426969Y-76555815D01*
X106628532Y-76439442D01*
X106813181Y-76297756D01*
X106977756Y-76133181D01*
X107119442Y-75948532D01*
X107235815Y-75746969D01*
X107324882Y-75531940D01*
X107385121Y-75307126D01*
X107415500Y-75076372D01*
X107415500Y-74843628D01*
X107385121Y-74612874D01*
X107324882Y-74388060D01*
X107235815Y-74173031D01*
X107119442Y-73971468D01*
X106977756Y-73786819D01*
X106813181Y-73622244D01*
X106813176Y-73622240D01*
X106813174Y-73622238D01*
X106628529Y-73480556D01*
X106426970Y-73364185D01*
X106426965Y-73364183D01*
X106211945Y-73275120D01*
X106211944Y-73275119D01*
X106211940Y-73275118D01*
X105987126Y-73214879D01*
X105987123Y-73214878D01*
X105987121Y-73214878D01*
X105756373Y-73184500D01*
X105756372Y-73184500D01*
X105523628Y-73184500D01*
X105523626Y-73184500D01*
X105292881Y-73214878D01*
X105292876Y-73214878D01*
X105068067Y-73275116D01*
X105068054Y-73275120D01*
X104853034Y-73364183D01*
X104853029Y-73364185D01*
X104651470Y-73480556D01*
X104466825Y-73622238D01*
X104302238Y-73786825D01*
X104160556Y-73971470D01*
X104044185Y-74173029D01*
X104044183Y-74173034D01*
X103955120Y-74388054D01*
X103955116Y-74388067D01*
X103894878Y-74612876D01*
X103894878Y-74612881D01*
X103864500Y-74843626D01*
X103864500Y-75076373D01*
X103894878Y-75307118D01*
X103894878Y-75307123D01*
X103955116Y-75531932D01*
X103955120Y-75531945D01*
X104044183Y-75746965D01*
X104044185Y-75746970D01*
X104160556Y-75948529D01*
X104302238Y-76133174D01*
X104302240Y-76133176D01*
X104302244Y-76133181D01*
X104374561Y-76205498D01*
X104402337Y-76260013D01*
X104392766Y-76320445D01*
X104349501Y-76363710D01*
X104304556Y-76374500D01*
X104281418Y-76374500D01*
X104106447Y-76402213D01*
X103937959Y-76456957D01*
X103780112Y-76537384D01*
X103636787Y-76641516D01*
X103511516Y-76766787D01*
X103407384Y-76910112D01*
X103326957Y-77067959D01*
X103272213Y-77236447D01*
X103244500Y-77411417D01*
X93000500Y-77411417D01*
X93000500Y-72303626D01*
X110214500Y-72303626D01*
X110214500Y-72536373D01*
X110244878Y-72767118D01*
X110244878Y-72767123D01*
X110305116Y-72991932D01*
X110305120Y-72991945D01*
X110394183Y-73206965D01*
X110394185Y-73206970D01*
X110510556Y-73408529D01*
X110652238Y-73593174D01*
X110652240Y-73593176D01*
X110652244Y-73593181D01*
X110816819Y-73757756D01*
X110816823Y-73757759D01*
X110816825Y-73757761D01*
X110895397Y-73818051D01*
X111001468Y-73899442D01*
X111203031Y-74015815D01*
X111418060Y-74104882D01*
X111642874Y-74165121D01*
X111873628Y-74195500D01*
X111873629Y-74195500D01*
X112106371Y-74195500D01*
X112106372Y-74195500D01*
X112337126Y-74165121D01*
X112561940Y-74104882D01*
X112776969Y-74015815D01*
X112978532Y-73899442D01*
X113163181Y-73757756D01*
X113327756Y-73593181D01*
X113469442Y-73408532D01*
X113585815Y-73206969D01*
X113674882Y-72991940D01*
X113735121Y-72767126D01*
X113765500Y-72536372D01*
X113765500Y-72303628D01*
X113765500Y-72303626D01*
X129264500Y-72303626D01*
X129264500Y-72536373D01*
X129294878Y-72767118D01*
X129294878Y-72767123D01*
X129355116Y-72991932D01*
X129355120Y-72991945D01*
X129444183Y-73206965D01*
X129444185Y-73206970D01*
X129560556Y-73408529D01*
X129702238Y-73593174D01*
X129702240Y-73593176D01*
X129702244Y-73593181D01*
X129866819Y-73757756D01*
X129866823Y-73757759D01*
X129866825Y-73757761D01*
X129945397Y-73818051D01*
X130051468Y-73899442D01*
X130253031Y-74015815D01*
X130468060Y-74104882D01*
X130692874Y-74165121D01*
X130923628Y-74195500D01*
X130923629Y-74195500D01*
X131156371Y-74195500D01*
X131156372Y-74195500D01*
X131387126Y-74165121D01*
X131611940Y-74104882D01*
X131826969Y-74015815D01*
X132028532Y-73899442D01*
X132213181Y-73757756D01*
X132377756Y-73593181D01*
X132519442Y-73408532D01*
X132635815Y-73206969D01*
X132724882Y-72991940D01*
X132785121Y-72767126D01*
X132815500Y-72536372D01*
X132815500Y-72303628D01*
X132815500Y-72303626D01*
X148314500Y-72303626D01*
X148314500Y-72536373D01*
X148344878Y-72767118D01*
X148344878Y-72767123D01*
X148405116Y-72991932D01*
X148405120Y-72991945D01*
X148494183Y-73206965D01*
X148494185Y-73206970D01*
X148610556Y-73408529D01*
X148752238Y-73593174D01*
X148752240Y-73593176D01*
X148752244Y-73593181D01*
X148916819Y-73757756D01*
X148916823Y-73757759D01*
X148916825Y-73757761D01*
X148995397Y-73818051D01*
X149101468Y-73899442D01*
X149303031Y-74015815D01*
X149518060Y-74104882D01*
X149742874Y-74165121D01*
X149973628Y-74195500D01*
X149973629Y-74195500D01*
X150206371Y-74195500D01*
X150206372Y-74195500D01*
X150437126Y-74165121D01*
X150661940Y-74104882D01*
X150876969Y-74015815D01*
X151078532Y-73899442D01*
X151263181Y-73757756D01*
X151427756Y-73593181D01*
X151569442Y-73408532D01*
X151685815Y-73206969D01*
X151774882Y-72991940D01*
X151835121Y-72767126D01*
X151865500Y-72536372D01*
X151865500Y-72303628D01*
X151835121Y-72072874D01*
X151774882Y-71848060D01*
X151685815Y-71633031D01*
X151569442Y-71431468D01*
X151427756Y-71246819D01*
X151263181Y-71082244D01*
X151263176Y-71082240D01*
X151263174Y-71082238D01*
X151078529Y-70940556D01*
X150876970Y-70824185D01*
X150876965Y-70824183D01*
X150661945Y-70735120D01*
X150661944Y-70735119D01*
X150661940Y-70735118D01*
X150437126Y-70674879D01*
X150437123Y-70674878D01*
X150437121Y-70674878D01*
X150206373Y-70644500D01*
X150206372Y-70644500D01*
X149973628Y-70644500D01*
X149973626Y-70644500D01*
X149742881Y-70674878D01*
X149742876Y-70674878D01*
X149518067Y-70735116D01*
X149518054Y-70735120D01*
X149303034Y-70824183D01*
X149303029Y-70824185D01*
X149101470Y-70940556D01*
X148916825Y-71082238D01*
X148752238Y-71246825D01*
X148610556Y-71431470D01*
X148494185Y-71633029D01*
X148494183Y-71633034D01*
X148405120Y-71848054D01*
X148405116Y-71848067D01*
X148344878Y-72072876D01*
X148344878Y-72072881D01*
X148314500Y-72303626D01*
X132815500Y-72303626D01*
X132785121Y-72072874D01*
X132724882Y-71848060D01*
X132635815Y-71633031D01*
X132519442Y-71431468D01*
X132377756Y-71246819D01*
X132213181Y-71082244D01*
X132213176Y-71082240D01*
X132213174Y-71082238D01*
X132028529Y-70940556D01*
X131826970Y-70824185D01*
X131826965Y-70824183D01*
X131611945Y-70735120D01*
X131611944Y-70735119D01*
X131611940Y-70735118D01*
X131387126Y-70674879D01*
X131387123Y-70674878D01*
X131387121Y-70674878D01*
X131156373Y-70644500D01*
X131156372Y-70644500D01*
X130923628Y-70644500D01*
X130923626Y-70644500D01*
X130692881Y-70674878D01*
X130692876Y-70674878D01*
X130468067Y-70735116D01*
X130468054Y-70735120D01*
X130253034Y-70824183D01*
X130253029Y-70824185D01*
X130051470Y-70940556D01*
X129866825Y-71082238D01*
X129702238Y-71246825D01*
X129560556Y-71431470D01*
X129444185Y-71633029D01*
X129444183Y-71633034D01*
X129355120Y-71848054D01*
X129355116Y-71848067D01*
X129294878Y-72072876D01*
X129294878Y-72072881D01*
X129264500Y-72303626D01*
X113765500Y-72303626D01*
X113735121Y-72072874D01*
X113674882Y-71848060D01*
X113585815Y-71633031D01*
X113469442Y-71431468D01*
X113327756Y-71246819D01*
X113163181Y-71082244D01*
X113163176Y-71082240D01*
X113163174Y-71082238D01*
X112978529Y-70940556D01*
X112776970Y-70824185D01*
X112776965Y-70824183D01*
X112561945Y-70735120D01*
X112561944Y-70735119D01*
X112561940Y-70735118D01*
X112337126Y-70674879D01*
X112337123Y-70674878D01*
X112337121Y-70674878D01*
X112106373Y-70644500D01*
X112106372Y-70644500D01*
X111873628Y-70644500D01*
X111873626Y-70644500D01*
X111642881Y-70674878D01*
X111642876Y-70674878D01*
X111418067Y-70735116D01*
X111418054Y-70735120D01*
X111203034Y-70824183D01*
X111203029Y-70824185D01*
X111001470Y-70940556D01*
X110816825Y-71082238D01*
X110652238Y-71246825D01*
X110510556Y-71431470D01*
X110394185Y-71633029D01*
X110394183Y-71633034D01*
X110305120Y-71848054D01*
X110305116Y-71848067D01*
X110244878Y-72072876D01*
X110244878Y-72072881D01*
X110214500Y-72303626D01*
X93000500Y-72303626D01*
X93000500Y-61824233D01*
X125034500Y-61824233D01*
X125034500Y-61975765D01*
X125048256Y-62027103D01*
X125073720Y-62122138D01*
X125149481Y-62253359D01*
X125149483Y-62253361D01*
X125149485Y-62253364D01*
X125256635Y-62360514D01*
X125256637Y-62360515D01*
X125256639Y-62360517D01*
X125387861Y-62436278D01*
X125387859Y-62436278D01*
X125387863Y-62436279D01*
X125387865Y-62436280D01*
X125534234Y-62475499D01*
X125534236Y-62475499D01*
X125685764Y-62475499D01*
X125685766Y-62475499D01*
X125832135Y-62436280D01*
X125832137Y-62436278D01*
X125832139Y-62436278D01*
X125963360Y-62360517D01*
X125963360Y-62360516D01*
X125963365Y-62360514D01*
X126070515Y-62253364D01*
X126146281Y-62122134D01*
X126185500Y-61975765D01*
X126185500Y-61824233D01*
X126146281Y-61677864D01*
X126146279Y-61677860D01*
X126146279Y-61677859D01*
X126070518Y-61546638D01*
X126070516Y-61546636D01*
X126070515Y-61546634D01*
X125963365Y-61439484D01*
X125963362Y-61439482D01*
X125963360Y-61439480D01*
X125832138Y-61363719D01*
X125832140Y-61363719D01*
X125775347Y-61348502D01*
X125685766Y-61324499D01*
X125534234Y-61324499D01*
X125444652Y-61348502D01*
X125387860Y-61363719D01*
X125256639Y-61439480D01*
X125149481Y-61546638D01*
X125073720Y-61677859D01*
X125057351Y-61738952D01*
X125034500Y-61824233D01*
X93000500Y-61824233D01*
X93000500Y-60584743D01*
X126802300Y-60584743D01*
X126802300Y-60742857D01*
X126843223Y-60895584D01*
X126922280Y-61032516D01*
X127034084Y-61144320D01*
X127171016Y-61223377D01*
X127323743Y-61264300D01*
X127323745Y-61264300D01*
X127481855Y-61264300D01*
X127481857Y-61264300D01*
X127634584Y-61223377D01*
X127771516Y-61144320D01*
X127883320Y-61032516D01*
X127962377Y-60895584D01*
X128003300Y-60742857D01*
X128003300Y-60718700D01*
X128022207Y-60660509D01*
X128071707Y-60624545D01*
X128102300Y-60619700D01*
X129847857Y-60619700D01*
X129906048Y-60638607D01*
X129942012Y-60688107D01*
X129942012Y-60749293D01*
X129920254Y-60784798D01*
X129920431Y-60784934D01*
X129919140Y-60786615D01*
X129917862Y-60788701D01*
X129916480Y-60790084D01*
X129837423Y-60927016D01*
X129809155Y-61032516D01*
X129796500Y-61079744D01*
X129796500Y-61237856D01*
X129802262Y-61259361D01*
X129799059Y-61320462D01*
X129760554Y-61368012D01*
X129701453Y-61383847D01*
X129681013Y-61380610D01*
X129617157Y-61363500D01*
X129459043Y-61363500D01*
X129306316Y-61404423D01*
X129169384Y-61483480D01*
X129057580Y-61595284D01*
X128978523Y-61732216D01*
X128937600Y-61884943D01*
X128937600Y-62043057D01*
X128978523Y-62195784D01*
X129057580Y-62332716D01*
X129169384Y-62444520D01*
X129306316Y-62523577D01*
X129459043Y-62564500D01*
X129531199Y-62564500D01*
X129589390Y-62583407D01*
X129601203Y-62593496D01*
X132293487Y-65285780D01*
X132293489Y-65285781D01*
X132293490Y-65285782D01*
X132293491Y-65285783D01*
X132384808Y-65338505D01*
X132384806Y-65338505D01*
X132384810Y-65338506D01*
X132384812Y-65338507D01*
X132486673Y-65365800D01*
X144657656Y-65365800D01*
X144715847Y-65384707D01*
X144727659Y-65394796D01*
X144778681Y-65445817D01*
X144778684Y-65445820D01*
X144915616Y-65524877D01*
X145068343Y-65565800D01*
X145068345Y-65565800D01*
X145226455Y-65565800D01*
X145226457Y-65565800D01*
X145379184Y-65524877D01*
X145516116Y-65445820D01*
X145627920Y-65334016D01*
X145706977Y-65197084D01*
X145747900Y-65044357D01*
X145747900Y-64886243D01*
X145706977Y-64733516D01*
X145627920Y-64596584D01*
X145516116Y-64484780D01*
X145379184Y-64405723D01*
X145309406Y-64387026D01*
X145258093Y-64353703D01*
X145236167Y-64296581D01*
X145252003Y-64237481D01*
X145299553Y-64198976D01*
X145335031Y-64192400D01*
X148998099Y-64192400D01*
X149056290Y-64211307D01*
X149068103Y-64221396D01*
X149348204Y-64501497D01*
X149375981Y-64556014D01*
X149377200Y-64571501D01*
X149377200Y-64643657D01*
X149418123Y-64796384D01*
X149497180Y-64933316D01*
X149608984Y-65045120D01*
X149745916Y-65124177D01*
X149898643Y-65165100D01*
X149898645Y-65165100D01*
X150056755Y-65165100D01*
X150056757Y-65165100D01*
X150209484Y-65124177D01*
X150346416Y-65045120D01*
X150458220Y-64933316D01*
X150537277Y-64796384D01*
X150578200Y-64643657D01*
X150578200Y-64485543D01*
X150537277Y-64332816D01*
X150458220Y-64195884D01*
X150346416Y-64084080D01*
X150209484Y-64005023D01*
X150056757Y-63964100D01*
X150056755Y-63964100D01*
X149984601Y-63964100D01*
X149926410Y-63945193D01*
X149914598Y-63935104D01*
X149450913Y-63471420D01*
X149450908Y-63471416D01*
X149359591Y-63418694D01*
X149359593Y-63418694D01*
X149320070Y-63408104D01*
X149257727Y-63391400D01*
X149257725Y-63391400D01*
X136501901Y-63391400D01*
X136443710Y-63372493D01*
X136431897Y-63362404D01*
X135191627Y-62122134D01*
X133858194Y-60788701D01*
X133830419Y-60734187D01*
X133839990Y-60673755D01*
X133883255Y-60630490D01*
X133928200Y-60619700D01*
X134413872Y-60619700D01*
X134472063Y-60638607D01*
X134508027Y-60688107D01*
X134509314Y-60737361D01*
X134510447Y-60737511D01*
X134509600Y-60743942D01*
X134509600Y-60743943D01*
X134509600Y-60902057D01*
X134550523Y-61054784D01*
X134629580Y-61191716D01*
X134741384Y-61303520D01*
X134878316Y-61382577D01*
X135031043Y-61423500D01*
X135103199Y-61423500D01*
X135161390Y-61442407D01*
X135173203Y-61452496D01*
X135190320Y-61469613D01*
X135190319Y-61469613D01*
X135248223Y-61527516D01*
X135264887Y-61544180D01*
X135356213Y-61596907D01*
X135458073Y-61624200D01*
X144584256Y-61624200D01*
X144642447Y-61643107D01*
X144654259Y-61653196D01*
X144680004Y-61678940D01*
X144705284Y-61704220D01*
X144842216Y-61783277D01*
X144994943Y-61824200D01*
X144994945Y-61824200D01*
X145153055Y-61824200D01*
X145153057Y-61824200D01*
X145305784Y-61783277D01*
X145442716Y-61704220D01*
X145554520Y-61592416D01*
X145633577Y-61455484D01*
X145674500Y-61302757D01*
X145674500Y-61144643D01*
X145633577Y-60991916D01*
X145554520Y-60854984D01*
X145488237Y-60788701D01*
X145460462Y-60734187D01*
X145470033Y-60673755D01*
X145513298Y-60630490D01*
X145558243Y-60619700D01*
X148946399Y-60619700D01*
X149004590Y-60638607D01*
X149016402Y-60648696D01*
X149504603Y-61136896D01*
X149532381Y-61191413D01*
X149533600Y-61206900D01*
X149533600Y-61279057D01*
X149574523Y-61431784D01*
X149653580Y-61568716D01*
X149765384Y-61680520D01*
X149902316Y-61759577D01*
X150055043Y-61800500D01*
X150055045Y-61800500D01*
X150213155Y-61800500D01*
X150213157Y-61800500D01*
X150365884Y-61759577D01*
X150502816Y-61680520D01*
X150614620Y-61568716D01*
X150693677Y-61431784D01*
X150734600Y-61279057D01*
X150734600Y-61120943D01*
X150693677Y-60968216D01*
X150614620Y-60831284D01*
X150502816Y-60719480D01*
X150365884Y-60640423D01*
X150213157Y-60599500D01*
X150213155Y-60599500D01*
X150141000Y-60599500D01*
X150082809Y-60580593D01*
X150070996Y-60570504D01*
X149795576Y-60295084D01*
X149399213Y-59898720D01*
X149399210Y-59898718D01*
X149399208Y-59898716D01*
X149307891Y-59845994D01*
X149307893Y-59845994D01*
X149268370Y-59835404D01*
X149206027Y-59818700D01*
X127794673Y-59818700D01*
X127692813Y-59845993D01*
X127692812Y-59845993D01*
X127692810Y-59845994D01*
X127692809Y-59845994D01*
X127601487Y-59898719D01*
X127465902Y-60034304D01*
X127411386Y-60062081D01*
X127395899Y-60063300D01*
X127323743Y-60063300D01*
X127171016Y-60104223D01*
X127034084Y-60183280D01*
X126922280Y-60295084D01*
X126843223Y-60432016D01*
X126802300Y-60584743D01*
X93000500Y-60584743D01*
X93000500Y-57002984D01*
X93000681Y-56997007D01*
X93018362Y-56704695D01*
X93018363Y-56704694D01*
X93018362Y-56704687D01*
X93019801Y-56692836D01*
X93072052Y-56407714D01*
X93074906Y-56396131D01*
X93161152Y-56119355D01*
X93165374Y-56108224D01*
X93284349Y-55843873D01*
X93289898Y-55833302D01*
X93439860Y-55585233D01*
X93446631Y-55575423D01*
X93625406Y-55347234D01*
X93633318Y-55338302D01*
X93838302Y-55133318D01*
X93847234Y-55125406D01*
X94075423Y-54946631D01*
X94085233Y-54939860D01*
X94333302Y-54789898D01*
X94343873Y-54784349D01*
X94608224Y-54665374D01*
X94619355Y-54661152D01*
X94896131Y-54574906D01*
X94907714Y-54572052D01*
X95192836Y-54519801D01*
X95204687Y-54518362D01*
X95497008Y-54500681D01*
X95502985Y-54500500D01*
X95565892Y-54500500D01*
X201434108Y-54500500D01*
X201497015Y-54500500D01*
X201502992Y-54500681D01*
G37*
%TD.AperFunction*%
%TD*%
M02*
