%TF.GenerationSoftware,KiCad,Pcbnew,10.0.5*%
%TF.CreationDate,2026-08-27T10:30:52+09:00*%
%TF.ProjectId,OdytsseySwitch,4f647974-7373-4657-9953-77697463682e,rev?*%
%TF.SameCoordinates,Original*%
%TF.FileFunction,Drillmap*%
%TF.FilePolarity,Positive*%
%FSLAX45Y45*%
G04 Gerber Fmt 4.5, Leading zero omitted, Abs format (unit mm)*
G04 Created by KiCad (PCBNEW 10.0.5) date 2026-08-27 10:30:52*
%MOMM*%
%LPD*%
G01*
G04 APERTURE LIST*
%ADD10C,0.100000*%
%ADD11C,0.200000*%
%ADD12C,0.175000*%
%ADD13C,0.305000*%
%ADD14C,0.400000*%
G04 APERTURE END LIST*
D10*
X9250000Y-5700000D02*
G75*
G02*
X9550000Y-5400000I300000J0D01*
G01*
X9250000Y-15300000D02*
X9250000Y-5700000D01*
X9550000Y-5400000D02*
X20150000Y-5400000D01*
X9550000Y-15600000D02*
G75*
G02*
X9250000Y-15300000I0J300000D01*
G01*
X20150000Y-5400000D02*
G75*
G02*
X20450000Y-5700000I0J-300000D01*
G01*
X20150000Y-15600000D02*
X9550000Y-15600000D01*
X20450000Y-5700000D02*
X20450000Y-15300000D01*
X20450000Y-15300000D02*
G75*
G02*
X20150000Y-15600000I-300000J0D01*
G01*
D11*
D10*
X12528500Y-6157500D02*
X12593500Y-6222500D01*
X12593500Y-6157500D02*
X12528500Y-6222500D01*
X13106500Y-6157500D02*
X13171500Y-6222500D01*
X13171500Y-6157500D02*
X13106500Y-6222500D01*
D12*
X10524500Y-7750000D02*
G75*
G02*
X10349500Y-7750000I-87500J0D01*
G01*
X10349500Y-7750000D02*
G75*
G02*
X10524500Y-7750000I87500J0D01*
G01*
X11477000Y-13000000D02*
G75*
G02*
X11302000Y-13000000I-87500J0D01*
G01*
X11302000Y-13000000D02*
G75*
G02*
X11477000Y-13000000I87500J0D01*
G01*
X11540500Y-7750000D02*
G75*
G02*
X11365500Y-7750000I-87500J0D01*
G01*
X11365500Y-7750000D02*
G75*
G02*
X11540500Y-7750000I87500J0D01*
G01*
X12429500Y-7750000D02*
G75*
G02*
X12254500Y-7750000I-87500J0D01*
G01*
X12254500Y-7750000D02*
G75*
G02*
X12429500Y-7750000I87500J0D01*
G01*
X12493000Y-13000000D02*
G75*
G02*
X12318000Y-13000000I-87500J0D01*
G01*
X12318000Y-13000000D02*
G75*
G02*
X12493000Y-13000000I87500J0D01*
G01*
X13382000Y-13000000D02*
G75*
G02*
X13207000Y-13000000I-87500J0D01*
G01*
X13207000Y-13000000D02*
G75*
G02*
X13382000Y-13000000I87500J0D01*
G01*
X13445500Y-7750000D02*
G75*
G02*
X13270500Y-7750000I-87500J0D01*
G01*
X13270500Y-7750000D02*
G75*
G02*
X13445500Y-7750000I87500J0D01*
G01*
X14334500Y-7750000D02*
G75*
G02*
X14159500Y-7750000I-87500J0D01*
G01*
X14159500Y-7750000D02*
G75*
G02*
X14334500Y-7750000I87500J0D01*
G01*
X14398000Y-13000000D02*
G75*
G02*
X14223000Y-13000000I-87500J0D01*
G01*
X14223000Y-13000000D02*
G75*
G02*
X14398000Y-13000000I87500J0D01*
G01*
X15350500Y-7750000D02*
G75*
G02*
X15175500Y-7750000I-87500J0D01*
G01*
X15175500Y-7750000D02*
G75*
G02*
X15350500Y-7750000I87500J0D01*
G01*
D13*
X10564000Y-7343500D02*
X10564000Y-7648500D01*
X10411500Y-7496000D02*
X10716500Y-7496000D01*
X11199000Y-7089500D02*
X11199000Y-7394500D01*
X11046500Y-7242000D02*
X11351500Y-7242000D01*
X11516500Y-12593500D02*
X11516500Y-12898500D01*
X11364000Y-12746000D02*
X11669000Y-12746000D01*
X12151500Y-12339500D02*
X12151500Y-12644500D01*
X11999000Y-12492000D02*
X12304000Y-12492000D01*
X12469000Y-7343500D02*
X12469000Y-7648500D01*
X12316500Y-7496000D02*
X12621500Y-7496000D01*
X13104000Y-7089500D02*
X13104000Y-7394500D01*
X12951500Y-7242000D02*
X13256500Y-7242000D01*
X13421500Y-12593500D02*
X13421500Y-12898500D01*
X13269000Y-12746000D02*
X13574000Y-12746000D01*
X14056500Y-12339500D02*
X14056500Y-12644500D01*
X13904000Y-12492000D02*
X14209000Y-12492000D01*
X14374000Y-7343500D02*
X14374000Y-7648500D01*
X14221500Y-7496000D02*
X14526500Y-7496000D01*
X15009000Y-7089500D02*
X15009000Y-7394500D01*
X14856500Y-7242000D02*
X15161500Y-7242000D01*
D14*
X11086423Y-7891423D02*
X11086423Y-7608577D01*
X10803577Y-7608577D01*
X10803577Y-7891423D01*
X11086423Y-7891423D01*
X12038923Y-13141423D02*
X12038923Y-12858577D01*
X11756077Y-12858577D01*
X11756077Y-13141423D01*
X12038923Y-13141423D01*
X12991423Y-7891423D02*
X12991423Y-7608577D01*
X12708577Y-7608577D01*
X12708577Y-7891423D01*
X12991423Y-7891423D01*
X13943923Y-13141423D02*
X13943923Y-12858577D01*
X13661077Y-12858577D01*
X13661077Y-13141423D01*
X13943923Y-13141423D01*
X14896423Y-7891423D02*
X14896423Y-7608577D01*
X14613577Y-7608577D01*
X14613577Y-7891423D01*
X14896423Y-7891423D01*
D11*
X9505777Y-15916484D02*
X9505777Y-15716484D01*
X9505777Y-15716484D02*
X9553396Y-15716484D01*
X9553396Y-15716484D02*
X9581967Y-15726008D01*
X9581967Y-15726008D02*
X9601015Y-15745055D01*
X9601015Y-15745055D02*
X9610539Y-15764103D01*
X9610539Y-15764103D02*
X9620063Y-15802198D01*
X9620063Y-15802198D02*
X9620063Y-15830769D01*
X9620063Y-15830769D02*
X9610539Y-15868865D01*
X9610539Y-15868865D02*
X9601015Y-15887912D01*
X9601015Y-15887912D02*
X9581967Y-15906960D01*
X9581967Y-15906960D02*
X9553396Y-15916484D01*
X9553396Y-15916484D02*
X9505777Y-15916484D01*
X9705777Y-15916484D02*
X9705777Y-15783150D01*
X9705777Y-15821246D02*
X9715301Y-15802198D01*
X9715301Y-15802198D02*
X9724824Y-15792674D01*
X9724824Y-15792674D02*
X9743872Y-15783150D01*
X9743872Y-15783150D02*
X9762920Y-15783150D01*
X9829586Y-15916484D02*
X9829586Y-15783150D01*
X9829586Y-15716484D02*
X9820063Y-15726008D01*
X9820063Y-15726008D02*
X9829586Y-15735531D01*
X9829586Y-15735531D02*
X9839110Y-15726008D01*
X9839110Y-15726008D02*
X9829586Y-15716484D01*
X9829586Y-15716484D02*
X9829586Y-15735531D01*
X9953396Y-15916484D02*
X9934348Y-15906960D01*
X9934348Y-15906960D02*
X9924824Y-15887912D01*
X9924824Y-15887912D02*
X9924824Y-15716484D01*
X10058158Y-15916484D02*
X10039110Y-15906960D01*
X10039110Y-15906960D02*
X10029586Y-15887912D01*
X10029586Y-15887912D02*
X10029586Y-15716484D01*
X10286729Y-15916484D02*
X10286729Y-15716484D01*
X10286729Y-15716484D02*
X10353396Y-15859341D01*
X10353396Y-15859341D02*
X10420063Y-15716484D01*
X10420063Y-15716484D02*
X10420063Y-15916484D01*
X10601015Y-15916484D02*
X10601015Y-15811722D01*
X10601015Y-15811722D02*
X10591491Y-15792674D01*
X10591491Y-15792674D02*
X10572444Y-15783150D01*
X10572444Y-15783150D02*
X10534348Y-15783150D01*
X10534348Y-15783150D02*
X10515301Y-15792674D01*
X10601015Y-15906960D02*
X10581967Y-15916484D01*
X10581967Y-15916484D02*
X10534348Y-15916484D01*
X10534348Y-15916484D02*
X10515301Y-15906960D01*
X10515301Y-15906960D02*
X10505777Y-15887912D01*
X10505777Y-15887912D02*
X10505777Y-15868865D01*
X10505777Y-15868865D02*
X10515301Y-15849817D01*
X10515301Y-15849817D02*
X10534348Y-15840293D01*
X10534348Y-15840293D02*
X10581967Y-15840293D01*
X10581967Y-15840293D02*
X10601015Y-15830769D01*
X10696253Y-15783150D02*
X10696253Y-15983150D01*
X10696253Y-15792674D02*
X10715301Y-15783150D01*
X10715301Y-15783150D02*
X10753396Y-15783150D01*
X10753396Y-15783150D02*
X10772444Y-15792674D01*
X10772444Y-15792674D02*
X10781967Y-15802198D01*
X10781967Y-15802198D02*
X10791491Y-15821246D01*
X10791491Y-15821246D02*
X10791491Y-15878388D01*
X10791491Y-15878388D02*
X10781967Y-15897436D01*
X10781967Y-15897436D02*
X10772444Y-15906960D01*
X10772444Y-15906960D02*
X10753396Y-15916484D01*
X10753396Y-15916484D02*
X10715301Y-15916484D01*
X10715301Y-15916484D02*
X10696253Y-15906960D01*
X10877205Y-15897436D02*
X10886729Y-15906960D01*
X10886729Y-15906960D02*
X10877205Y-15916484D01*
X10877205Y-15916484D02*
X10867682Y-15906960D01*
X10867682Y-15906960D02*
X10877205Y-15897436D01*
X10877205Y-15897436D02*
X10877205Y-15916484D01*
X10877205Y-15792674D02*
X10886729Y-15802198D01*
X10886729Y-15802198D02*
X10877205Y-15811722D01*
X10877205Y-15811722D02*
X10867682Y-15802198D01*
X10867682Y-15802198D02*
X10877205Y-15792674D01*
X10877205Y-15792674D02*
X10877205Y-15811722D01*
D10*
X9180000Y-16212500D02*
X9245000Y-16277500D01*
X9245000Y-16212500D02*
X9180000Y-16277500D01*
D11*
X9543872Y-16136484D02*
X9562920Y-16136484D01*
X9562920Y-16136484D02*
X9581967Y-16146008D01*
X9581967Y-16146008D02*
X9591491Y-16155531D01*
X9591491Y-16155531D02*
X9601015Y-16174579D01*
X9601015Y-16174579D02*
X9610539Y-16212674D01*
X9610539Y-16212674D02*
X9610539Y-16260293D01*
X9610539Y-16260293D02*
X9601015Y-16298388D01*
X9601015Y-16298388D02*
X9591491Y-16317436D01*
X9591491Y-16317436D02*
X9581967Y-16326960D01*
X9581967Y-16326960D02*
X9562920Y-16336484D01*
X9562920Y-16336484D02*
X9543872Y-16336484D01*
X9543872Y-16336484D02*
X9524824Y-16326960D01*
X9524824Y-16326960D02*
X9515301Y-16317436D01*
X9515301Y-16317436D02*
X9505777Y-16298388D01*
X9505777Y-16298388D02*
X9496253Y-16260293D01*
X9496253Y-16260293D02*
X9496253Y-16212674D01*
X9496253Y-16212674D02*
X9505777Y-16174579D01*
X9505777Y-16174579D02*
X9515301Y-16155531D01*
X9515301Y-16155531D02*
X9524824Y-16146008D01*
X9524824Y-16146008D02*
X9543872Y-16136484D01*
X9696253Y-16317436D02*
X9705777Y-16326960D01*
X9705777Y-16326960D02*
X9696253Y-16336484D01*
X9696253Y-16336484D02*
X9686729Y-16326960D01*
X9686729Y-16326960D02*
X9696253Y-16317436D01*
X9696253Y-16317436D02*
X9696253Y-16336484D01*
X9877205Y-16136484D02*
X9839110Y-16136484D01*
X9839110Y-16136484D02*
X9820063Y-16146008D01*
X9820063Y-16146008D02*
X9810539Y-16155531D01*
X9810539Y-16155531D02*
X9791491Y-16184103D01*
X9791491Y-16184103D02*
X9781967Y-16222198D01*
X9781967Y-16222198D02*
X9781967Y-16298388D01*
X9781967Y-16298388D02*
X9791491Y-16317436D01*
X9791491Y-16317436D02*
X9801015Y-16326960D01*
X9801015Y-16326960D02*
X9820063Y-16336484D01*
X9820063Y-16336484D02*
X9858158Y-16336484D01*
X9858158Y-16336484D02*
X9877205Y-16326960D01*
X9877205Y-16326960D02*
X9886729Y-16317436D01*
X9886729Y-16317436D02*
X9896253Y-16298388D01*
X9896253Y-16298388D02*
X9896253Y-16250769D01*
X9896253Y-16250769D02*
X9886729Y-16231722D01*
X9886729Y-16231722D02*
X9877205Y-16222198D01*
X9877205Y-16222198D02*
X9858158Y-16212674D01*
X9858158Y-16212674D02*
X9820063Y-16212674D01*
X9820063Y-16212674D02*
X9801015Y-16222198D01*
X9801015Y-16222198D02*
X9791491Y-16231722D01*
X9791491Y-16231722D02*
X9781967Y-16250769D01*
X10077205Y-16136484D02*
X9981967Y-16136484D01*
X9981967Y-16136484D02*
X9972444Y-16231722D01*
X9972444Y-16231722D02*
X9981967Y-16222198D01*
X9981967Y-16222198D02*
X10001015Y-16212674D01*
X10001015Y-16212674D02*
X10048634Y-16212674D01*
X10048634Y-16212674D02*
X10067682Y-16222198D01*
X10067682Y-16222198D02*
X10077205Y-16231722D01*
X10077205Y-16231722D02*
X10086729Y-16250769D01*
X10086729Y-16250769D02*
X10086729Y-16298388D01*
X10086729Y-16298388D02*
X10077205Y-16317436D01*
X10077205Y-16317436D02*
X10067682Y-16326960D01*
X10067682Y-16326960D02*
X10048634Y-16336484D01*
X10048634Y-16336484D02*
X10001015Y-16336484D01*
X10001015Y-16336484D02*
X9981967Y-16326960D01*
X9981967Y-16326960D02*
X9972444Y-16317436D01*
X10210539Y-16136484D02*
X10229586Y-16136484D01*
X10229586Y-16136484D02*
X10248634Y-16146008D01*
X10248634Y-16146008D02*
X10258158Y-16155531D01*
X10258158Y-16155531D02*
X10267682Y-16174579D01*
X10267682Y-16174579D02*
X10277205Y-16212674D01*
X10277205Y-16212674D02*
X10277205Y-16260293D01*
X10277205Y-16260293D02*
X10267682Y-16298388D01*
X10267682Y-16298388D02*
X10258158Y-16317436D01*
X10258158Y-16317436D02*
X10248634Y-16326960D01*
X10248634Y-16326960D02*
X10229586Y-16336484D01*
X10229586Y-16336484D02*
X10210539Y-16336484D01*
X10210539Y-16336484D02*
X10191491Y-16326960D01*
X10191491Y-16326960D02*
X10181967Y-16317436D01*
X10181967Y-16317436D02*
X10172444Y-16298388D01*
X10172444Y-16298388D02*
X10162920Y-16260293D01*
X10162920Y-16260293D02*
X10162920Y-16212674D01*
X10162920Y-16212674D02*
X10172444Y-16174579D01*
X10172444Y-16174579D02*
X10181967Y-16155531D01*
X10181967Y-16155531D02*
X10191491Y-16146008D01*
X10191491Y-16146008D02*
X10210539Y-16136484D01*
X10362920Y-16336484D02*
X10362920Y-16203150D01*
X10362920Y-16222198D02*
X10372444Y-16212674D01*
X10372444Y-16212674D02*
X10391491Y-16203150D01*
X10391491Y-16203150D02*
X10420063Y-16203150D01*
X10420063Y-16203150D02*
X10439110Y-16212674D01*
X10439110Y-16212674D02*
X10448634Y-16231722D01*
X10448634Y-16231722D02*
X10448634Y-16336484D01*
X10448634Y-16231722D02*
X10458158Y-16212674D01*
X10458158Y-16212674D02*
X10477205Y-16203150D01*
X10477205Y-16203150D02*
X10505777Y-16203150D01*
X10505777Y-16203150D02*
X10524825Y-16212674D01*
X10524825Y-16212674D02*
X10534348Y-16231722D01*
X10534348Y-16231722D02*
X10534348Y-16336484D01*
X10629586Y-16336484D02*
X10629586Y-16203150D01*
X10629586Y-16222198D02*
X10639110Y-16212674D01*
X10639110Y-16212674D02*
X10658158Y-16203150D01*
X10658158Y-16203150D02*
X10686729Y-16203150D01*
X10686729Y-16203150D02*
X10705777Y-16212674D01*
X10705777Y-16212674D02*
X10715301Y-16231722D01*
X10715301Y-16231722D02*
X10715301Y-16336484D01*
X10715301Y-16231722D02*
X10724825Y-16212674D01*
X10724825Y-16212674D02*
X10743872Y-16203150D01*
X10743872Y-16203150D02*
X10772444Y-16203150D01*
X10772444Y-16203150D02*
X10791491Y-16212674D01*
X10791491Y-16212674D02*
X10801015Y-16231722D01*
X10801015Y-16231722D02*
X10801015Y-16336484D01*
X11191491Y-16126960D02*
X11020063Y-16384103D01*
X11448634Y-16136484D02*
X11467682Y-16136484D01*
X11467682Y-16136484D02*
X11486729Y-16146008D01*
X11486729Y-16146008D02*
X11496253Y-16155531D01*
X11496253Y-16155531D02*
X11505777Y-16174579D01*
X11505777Y-16174579D02*
X11515301Y-16212674D01*
X11515301Y-16212674D02*
X11515301Y-16260293D01*
X11515301Y-16260293D02*
X11505777Y-16298388D01*
X11505777Y-16298388D02*
X11496253Y-16317436D01*
X11496253Y-16317436D02*
X11486729Y-16326960D01*
X11486729Y-16326960D02*
X11467682Y-16336484D01*
X11467682Y-16336484D02*
X11448634Y-16336484D01*
X11448634Y-16336484D02*
X11429586Y-16326960D01*
X11429586Y-16326960D02*
X11420063Y-16317436D01*
X11420063Y-16317436D02*
X11410539Y-16298388D01*
X11410539Y-16298388D02*
X11401015Y-16260293D01*
X11401015Y-16260293D02*
X11401015Y-16212674D01*
X11401015Y-16212674D02*
X11410539Y-16174579D01*
X11410539Y-16174579D02*
X11420063Y-16155531D01*
X11420063Y-16155531D02*
X11429586Y-16146008D01*
X11429586Y-16146008D02*
X11448634Y-16136484D01*
X11601015Y-16317436D02*
X11610539Y-16326960D01*
X11610539Y-16326960D02*
X11601015Y-16336484D01*
X11601015Y-16336484D02*
X11591491Y-16326960D01*
X11591491Y-16326960D02*
X11601015Y-16317436D01*
X11601015Y-16317436D02*
X11601015Y-16336484D01*
X11734348Y-16136484D02*
X11753396Y-16136484D01*
X11753396Y-16136484D02*
X11772444Y-16146008D01*
X11772444Y-16146008D02*
X11781967Y-16155531D01*
X11781967Y-16155531D02*
X11791491Y-16174579D01*
X11791491Y-16174579D02*
X11801015Y-16212674D01*
X11801015Y-16212674D02*
X11801015Y-16260293D01*
X11801015Y-16260293D02*
X11791491Y-16298388D01*
X11791491Y-16298388D02*
X11781967Y-16317436D01*
X11781967Y-16317436D02*
X11772444Y-16326960D01*
X11772444Y-16326960D02*
X11753396Y-16336484D01*
X11753396Y-16336484D02*
X11734348Y-16336484D01*
X11734348Y-16336484D02*
X11715301Y-16326960D01*
X11715301Y-16326960D02*
X11705777Y-16317436D01*
X11705777Y-16317436D02*
X11696253Y-16298388D01*
X11696253Y-16298388D02*
X11686729Y-16260293D01*
X11686729Y-16260293D02*
X11686729Y-16212674D01*
X11686729Y-16212674D02*
X11696253Y-16174579D01*
X11696253Y-16174579D02*
X11705777Y-16155531D01*
X11705777Y-16155531D02*
X11715301Y-16146008D01*
X11715301Y-16146008D02*
X11734348Y-16136484D01*
X11877206Y-16155531D02*
X11886729Y-16146008D01*
X11886729Y-16146008D02*
X11905777Y-16136484D01*
X11905777Y-16136484D02*
X11953396Y-16136484D01*
X11953396Y-16136484D02*
X11972444Y-16146008D01*
X11972444Y-16146008D02*
X11981967Y-16155531D01*
X11981967Y-16155531D02*
X11991491Y-16174579D01*
X11991491Y-16174579D02*
X11991491Y-16193627D01*
X11991491Y-16193627D02*
X11981967Y-16222198D01*
X11981967Y-16222198D02*
X11867682Y-16336484D01*
X11867682Y-16336484D02*
X11991491Y-16336484D01*
X12172444Y-16136484D02*
X12077206Y-16136484D01*
X12077206Y-16136484D02*
X12067682Y-16231722D01*
X12067682Y-16231722D02*
X12077206Y-16222198D01*
X12077206Y-16222198D02*
X12096253Y-16212674D01*
X12096253Y-16212674D02*
X12143872Y-16212674D01*
X12143872Y-16212674D02*
X12162920Y-16222198D01*
X12162920Y-16222198D02*
X12172444Y-16231722D01*
X12172444Y-16231722D02*
X12181967Y-16250769D01*
X12181967Y-16250769D02*
X12181967Y-16298388D01*
X12181967Y-16298388D02*
X12172444Y-16317436D01*
X12172444Y-16317436D02*
X12162920Y-16326960D01*
X12162920Y-16326960D02*
X12143872Y-16336484D01*
X12143872Y-16336484D02*
X12096253Y-16336484D01*
X12096253Y-16336484D02*
X12077206Y-16326960D01*
X12077206Y-16326960D02*
X12067682Y-16317436D01*
X12353396Y-16136484D02*
X12315301Y-16136484D01*
X12315301Y-16136484D02*
X12296253Y-16146008D01*
X12296253Y-16146008D02*
X12286729Y-16155531D01*
X12286729Y-16155531D02*
X12267682Y-16184103D01*
X12267682Y-16184103D02*
X12258158Y-16222198D01*
X12258158Y-16222198D02*
X12258158Y-16298388D01*
X12258158Y-16298388D02*
X12267682Y-16317436D01*
X12267682Y-16317436D02*
X12277206Y-16326960D01*
X12277206Y-16326960D02*
X12296253Y-16336484D01*
X12296253Y-16336484D02*
X12334348Y-16336484D01*
X12334348Y-16336484D02*
X12353396Y-16326960D01*
X12353396Y-16326960D02*
X12362920Y-16317436D01*
X12362920Y-16317436D02*
X12372444Y-16298388D01*
X12372444Y-16298388D02*
X12372444Y-16250769D01*
X12372444Y-16250769D02*
X12362920Y-16231722D01*
X12362920Y-16231722D02*
X12353396Y-16222198D01*
X12353396Y-16222198D02*
X12334348Y-16212674D01*
X12334348Y-16212674D02*
X12296253Y-16212674D01*
X12296253Y-16212674D02*
X12277206Y-16222198D01*
X12277206Y-16222198D02*
X12267682Y-16231722D01*
X12267682Y-16231722D02*
X12258158Y-16250769D01*
X12448634Y-16136484D02*
X12448634Y-16174579D01*
X12524825Y-16136484D02*
X12524825Y-16174579D01*
X12820063Y-16412674D02*
X12810539Y-16403150D01*
X12810539Y-16403150D02*
X12791491Y-16374579D01*
X12791491Y-16374579D02*
X12781968Y-16355531D01*
X12781968Y-16355531D02*
X12772444Y-16326960D01*
X12772444Y-16326960D02*
X12762920Y-16279341D01*
X12762920Y-16279341D02*
X12762920Y-16241246D01*
X12762920Y-16241246D02*
X12772444Y-16193627D01*
X12772444Y-16193627D02*
X12781968Y-16165055D01*
X12781968Y-16165055D02*
X12791491Y-16146008D01*
X12791491Y-16146008D02*
X12810539Y-16117436D01*
X12810539Y-16117436D02*
X12820063Y-16107912D01*
X12886729Y-16155531D02*
X12896253Y-16146008D01*
X12896253Y-16146008D02*
X12915301Y-16136484D01*
X12915301Y-16136484D02*
X12962920Y-16136484D01*
X12962920Y-16136484D02*
X12981968Y-16146008D01*
X12981968Y-16146008D02*
X12991491Y-16155531D01*
X12991491Y-16155531D02*
X13001015Y-16174579D01*
X13001015Y-16174579D02*
X13001015Y-16193627D01*
X13001015Y-16193627D02*
X12991491Y-16222198D01*
X12991491Y-16222198D02*
X12877206Y-16336484D01*
X12877206Y-16336484D02*
X13001015Y-16336484D01*
X13239110Y-16336484D02*
X13239110Y-16136484D01*
X13324825Y-16336484D02*
X13324825Y-16231722D01*
X13324825Y-16231722D02*
X13315301Y-16212674D01*
X13315301Y-16212674D02*
X13296253Y-16203150D01*
X13296253Y-16203150D02*
X13267682Y-16203150D01*
X13267682Y-16203150D02*
X13248634Y-16212674D01*
X13248634Y-16212674D02*
X13239110Y-16222198D01*
X13448634Y-16336484D02*
X13429587Y-16326960D01*
X13429587Y-16326960D02*
X13420063Y-16317436D01*
X13420063Y-16317436D02*
X13410539Y-16298388D01*
X13410539Y-16298388D02*
X13410539Y-16241246D01*
X13410539Y-16241246D02*
X13420063Y-16222198D01*
X13420063Y-16222198D02*
X13429587Y-16212674D01*
X13429587Y-16212674D02*
X13448634Y-16203150D01*
X13448634Y-16203150D02*
X13477206Y-16203150D01*
X13477206Y-16203150D02*
X13496253Y-16212674D01*
X13496253Y-16212674D02*
X13505777Y-16222198D01*
X13505777Y-16222198D02*
X13515301Y-16241246D01*
X13515301Y-16241246D02*
X13515301Y-16298388D01*
X13515301Y-16298388D02*
X13505777Y-16317436D01*
X13505777Y-16317436D02*
X13496253Y-16326960D01*
X13496253Y-16326960D02*
X13477206Y-16336484D01*
X13477206Y-16336484D02*
X13448634Y-16336484D01*
X13629587Y-16336484D02*
X13610539Y-16326960D01*
X13610539Y-16326960D02*
X13601015Y-16307912D01*
X13601015Y-16307912D02*
X13601015Y-16136484D01*
X13781968Y-16326960D02*
X13762920Y-16336484D01*
X13762920Y-16336484D02*
X13724825Y-16336484D01*
X13724825Y-16336484D02*
X13705777Y-16326960D01*
X13705777Y-16326960D02*
X13696253Y-16307912D01*
X13696253Y-16307912D02*
X13696253Y-16231722D01*
X13696253Y-16231722D02*
X13705777Y-16212674D01*
X13705777Y-16212674D02*
X13724825Y-16203150D01*
X13724825Y-16203150D02*
X13762920Y-16203150D01*
X13762920Y-16203150D02*
X13781968Y-16212674D01*
X13781968Y-16212674D02*
X13791491Y-16231722D01*
X13791491Y-16231722D02*
X13791491Y-16250769D01*
X13791491Y-16250769D02*
X13696253Y-16269817D01*
X13867682Y-16326960D02*
X13886730Y-16336484D01*
X13886730Y-16336484D02*
X13924825Y-16336484D01*
X13924825Y-16336484D02*
X13943872Y-16326960D01*
X13943872Y-16326960D02*
X13953396Y-16307912D01*
X13953396Y-16307912D02*
X13953396Y-16298388D01*
X13953396Y-16298388D02*
X13943872Y-16279341D01*
X13943872Y-16279341D02*
X13924825Y-16269817D01*
X13924825Y-16269817D02*
X13896253Y-16269817D01*
X13896253Y-16269817D02*
X13877206Y-16260293D01*
X13877206Y-16260293D02*
X13867682Y-16241246D01*
X13867682Y-16241246D02*
X13867682Y-16231722D01*
X13867682Y-16231722D02*
X13877206Y-16212674D01*
X13877206Y-16212674D02*
X13896253Y-16203150D01*
X13896253Y-16203150D02*
X13924825Y-16203150D01*
X13924825Y-16203150D02*
X13943872Y-16212674D01*
X14020063Y-16412674D02*
X14029587Y-16403150D01*
X14029587Y-16403150D02*
X14048634Y-16374579D01*
X14048634Y-16374579D02*
X14058158Y-16355531D01*
X14058158Y-16355531D02*
X14067682Y-16326960D01*
X14067682Y-16326960D02*
X14077206Y-16279341D01*
X14077206Y-16279341D02*
X14077206Y-16241246D01*
X14077206Y-16241246D02*
X14067682Y-16193627D01*
X14067682Y-16193627D02*
X14058158Y-16165055D01*
X14058158Y-16165055D02*
X14048634Y-16146008D01*
X14048634Y-16146008D02*
X14029587Y-16117436D01*
X14029587Y-16117436D02*
X14020063Y-16107912D01*
X14381968Y-16412674D02*
X14372444Y-16403150D01*
X14372444Y-16403150D02*
X14353396Y-16374579D01*
X14353396Y-16374579D02*
X14343872Y-16355531D01*
X14343872Y-16355531D02*
X14334349Y-16326960D01*
X14334349Y-16326960D02*
X14324825Y-16279341D01*
X14324825Y-16279341D02*
X14324825Y-16241246D01*
X14324825Y-16241246D02*
X14334349Y-16193627D01*
X14334349Y-16193627D02*
X14343872Y-16165055D01*
X14343872Y-16165055D02*
X14353396Y-16146008D01*
X14353396Y-16146008D02*
X14372444Y-16117436D01*
X14372444Y-16117436D02*
X14381968Y-16107912D01*
X14458158Y-16203150D02*
X14458158Y-16336484D01*
X14458158Y-16222198D02*
X14467682Y-16212674D01*
X14467682Y-16212674D02*
X14486730Y-16203150D01*
X14486730Y-16203150D02*
X14515301Y-16203150D01*
X14515301Y-16203150D02*
X14534349Y-16212674D01*
X14534349Y-16212674D02*
X14543872Y-16231722D01*
X14543872Y-16231722D02*
X14543872Y-16336484D01*
X14667682Y-16336484D02*
X14648634Y-16326960D01*
X14648634Y-16326960D02*
X14639111Y-16317436D01*
X14639111Y-16317436D02*
X14629587Y-16298388D01*
X14629587Y-16298388D02*
X14629587Y-16241246D01*
X14629587Y-16241246D02*
X14639111Y-16222198D01*
X14639111Y-16222198D02*
X14648634Y-16212674D01*
X14648634Y-16212674D02*
X14667682Y-16203150D01*
X14667682Y-16203150D02*
X14696253Y-16203150D01*
X14696253Y-16203150D02*
X14715301Y-16212674D01*
X14715301Y-16212674D02*
X14724825Y-16222198D01*
X14724825Y-16222198D02*
X14734349Y-16241246D01*
X14734349Y-16241246D02*
X14734349Y-16298388D01*
X14734349Y-16298388D02*
X14724825Y-16317436D01*
X14724825Y-16317436D02*
X14715301Y-16326960D01*
X14715301Y-16326960D02*
X14696253Y-16336484D01*
X14696253Y-16336484D02*
X14667682Y-16336484D01*
X14791492Y-16203150D02*
X14867682Y-16203150D01*
X14820063Y-16136484D02*
X14820063Y-16307912D01*
X14820063Y-16307912D02*
X14829587Y-16326960D01*
X14829587Y-16326960D02*
X14848634Y-16336484D01*
X14848634Y-16336484D02*
X14867682Y-16336484D01*
X15086730Y-16203150D02*
X15086730Y-16403150D01*
X15086730Y-16212674D02*
X15105777Y-16203150D01*
X15105777Y-16203150D02*
X15143873Y-16203150D01*
X15143873Y-16203150D02*
X15162920Y-16212674D01*
X15162920Y-16212674D02*
X15172444Y-16222198D01*
X15172444Y-16222198D02*
X15181968Y-16241246D01*
X15181968Y-16241246D02*
X15181968Y-16298388D01*
X15181968Y-16298388D02*
X15172444Y-16317436D01*
X15172444Y-16317436D02*
X15162920Y-16326960D01*
X15162920Y-16326960D02*
X15143873Y-16336484D01*
X15143873Y-16336484D02*
X15105777Y-16336484D01*
X15105777Y-16336484D02*
X15086730Y-16326960D01*
X15296253Y-16336484D02*
X15277206Y-16326960D01*
X15277206Y-16326960D02*
X15267682Y-16307912D01*
X15267682Y-16307912D02*
X15267682Y-16136484D01*
X15458158Y-16336484D02*
X15458158Y-16231722D01*
X15458158Y-16231722D02*
X15448634Y-16212674D01*
X15448634Y-16212674D02*
X15429587Y-16203150D01*
X15429587Y-16203150D02*
X15391492Y-16203150D01*
X15391492Y-16203150D02*
X15372444Y-16212674D01*
X15458158Y-16326960D02*
X15439111Y-16336484D01*
X15439111Y-16336484D02*
X15391492Y-16336484D01*
X15391492Y-16336484D02*
X15372444Y-16326960D01*
X15372444Y-16326960D02*
X15362920Y-16307912D01*
X15362920Y-16307912D02*
X15362920Y-16288865D01*
X15362920Y-16288865D02*
X15372444Y-16269817D01*
X15372444Y-16269817D02*
X15391492Y-16260293D01*
X15391492Y-16260293D02*
X15439111Y-16260293D01*
X15439111Y-16260293D02*
X15458158Y-16250769D01*
X15524825Y-16203150D02*
X15601015Y-16203150D01*
X15553396Y-16136484D02*
X15553396Y-16307912D01*
X15553396Y-16307912D02*
X15562920Y-16326960D01*
X15562920Y-16326960D02*
X15581968Y-16336484D01*
X15581968Y-16336484D02*
X15601015Y-16336484D01*
X15743873Y-16326960D02*
X15724825Y-16336484D01*
X15724825Y-16336484D02*
X15686730Y-16336484D01*
X15686730Y-16336484D02*
X15667682Y-16326960D01*
X15667682Y-16326960D02*
X15658158Y-16307912D01*
X15658158Y-16307912D02*
X15658158Y-16231722D01*
X15658158Y-16231722D02*
X15667682Y-16212674D01*
X15667682Y-16212674D02*
X15686730Y-16203150D01*
X15686730Y-16203150D02*
X15724825Y-16203150D01*
X15724825Y-16203150D02*
X15743873Y-16212674D01*
X15743873Y-16212674D02*
X15753396Y-16231722D01*
X15753396Y-16231722D02*
X15753396Y-16250769D01*
X15753396Y-16250769D02*
X15658158Y-16269817D01*
X15924825Y-16336484D02*
X15924825Y-16136484D01*
X15924825Y-16326960D02*
X15905777Y-16336484D01*
X15905777Y-16336484D02*
X15867682Y-16336484D01*
X15867682Y-16336484D02*
X15848634Y-16326960D01*
X15848634Y-16326960D02*
X15839111Y-16317436D01*
X15839111Y-16317436D02*
X15829587Y-16298388D01*
X15829587Y-16298388D02*
X15829587Y-16241246D01*
X15829587Y-16241246D02*
X15839111Y-16222198D01*
X15839111Y-16222198D02*
X15848634Y-16212674D01*
X15848634Y-16212674D02*
X15867682Y-16203150D01*
X15867682Y-16203150D02*
X15905777Y-16203150D01*
X15905777Y-16203150D02*
X15924825Y-16212674D01*
X16001015Y-16412674D02*
X16010539Y-16403150D01*
X16010539Y-16403150D02*
X16029587Y-16374579D01*
X16029587Y-16374579D02*
X16039111Y-16355531D01*
X16039111Y-16355531D02*
X16048634Y-16326960D01*
X16048634Y-16326960D02*
X16058158Y-16279341D01*
X16058158Y-16279341D02*
X16058158Y-16241246D01*
X16058158Y-16241246D02*
X16048634Y-16193627D01*
X16048634Y-16193627D02*
X16039111Y-16165055D01*
X16039111Y-16165055D02*
X16029587Y-16146008D01*
X16029587Y-16146008D02*
X16010539Y-16117436D01*
X16010539Y-16117436D02*
X16001015Y-16107912D01*
D12*
X9245000Y-16509000D02*
G75*
G02*
X9070000Y-16509000I-87500J0D01*
G01*
X9070000Y-16509000D02*
G75*
G02*
X9245000Y-16509000I87500J0D01*
G01*
D11*
X9610539Y-16600484D02*
X9496253Y-16600484D01*
X9553396Y-16600484D02*
X9553396Y-16400484D01*
X9553396Y-16400484D02*
X9534348Y-16429055D01*
X9534348Y-16429055D02*
X9515301Y-16448103D01*
X9515301Y-16448103D02*
X9496253Y-16457627D01*
X9696253Y-16581436D02*
X9705777Y-16590960D01*
X9705777Y-16590960D02*
X9696253Y-16600484D01*
X9696253Y-16600484D02*
X9686729Y-16590960D01*
X9686729Y-16590960D02*
X9696253Y-16581436D01*
X9696253Y-16581436D02*
X9696253Y-16600484D01*
X9772444Y-16400484D02*
X9905777Y-16400484D01*
X9905777Y-16400484D02*
X9820063Y-16600484D01*
X10077205Y-16400484D02*
X9981967Y-16400484D01*
X9981967Y-16400484D02*
X9972444Y-16495722D01*
X9972444Y-16495722D02*
X9981967Y-16486198D01*
X9981967Y-16486198D02*
X10001015Y-16476674D01*
X10001015Y-16476674D02*
X10048634Y-16476674D01*
X10048634Y-16476674D02*
X10067682Y-16486198D01*
X10067682Y-16486198D02*
X10077205Y-16495722D01*
X10077205Y-16495722D02*
X10086729Y-16514769D01*
X10086729Y-16514769D02*
X10086729Y-16562388D01*
X10086729Y-16562388D02*
X10077205Y-16581436D01*
X10077205Y-16581436D02*
X10067682Y-16590960D01*
X10067682Y-16590960D02*
X10048634Y-16600484D01*
X10048634Y-16600484D02*
X10001015Y-16600484D01*
X10001015Y-16600484D02*
X9981967Y-16590960D01*
X9981967Y-16590960D02*
X9972444Y-16581436D01*
X10210539Y-16400484D02*
X10229586Y-16400484D01*
X10229586Y-16400484D02*
X10248634Y-16410008D01*
X10248634Y-16410008D02*
X10258158Y-16419531D01*
X10258158Y-16419531D02*
X10267682Y-16438579D01*
X10267682Y-16438579D02*
X10277205Y-16476674D01*
X10277205Y-16476674D02*
X10277205Y-16524293D01*
X10277205Y-16524293D02*
X10267682Y-16562388D01*
X10267682Y-16562388D02*
X10258158Y-16581436D01*
X10258158Y-16581436D02*
X10248634Y-16590960D01*
X10248634Y-16590960D02*
X10229586Y-16600484D01*
X10229586Y-16600484D02*
X10210539Y-16600484D01*
X10210539Y-16600484D02*
X10191491Y-16590960D01*
X10191491Y-16590960D02*
X10181967Y-16581436D01*
X10181967Y-16581436D02*
X10172444Y-16562388D01*
X10172444Y-16562388D02*
X10162920Y-16524293D01*
X10162920Y-16524293D02*
X10162920Y-16476674D01*
X10162920Y-16476674D02*
X10172444Y-16438579D01*
X10172444Y-16438579D02*
X10181967Y-16419531D01*
X10181967Y-16419531D02*
X10191491Y-16410008D01*
X10191491Y-16410008D02*
X10210539Y-16400484D01*
X10362920Y-16600484D02*
X10362920Y-16467150D01*
X10362920Y-16486198D02*
X10372444Y-16476674D01*
X10372444Y-16476674D02*
X10391491Y-16467150D01*
X10391491Y-16467150D02*
X10420063Y-16467150D01*
X10420063Y-16467150D02*
X10439110Y-16476674D01*
X10439110Y-16476674D02*
X10448634Y-16495722D01*
X10448634Y-16495722D02*
X10448634Y-16600484D01*
X10448634Y-16495722D02*
X10458158Y-16476674D01*
X10458158Y-16476674D02*
X10477205Y-16467150D01*
X10477205Y-16467150D02*
X10505777Y-16467150D01*
X10505777Y-16467150D02*
X10524825Y-16476674D01*
X10524825Y-16476674D02*
X10534348Y-16495722D01*
X10534348Y-16495722D02*
X10534348Y-16600484D01*
X10629586Y-16600484D02*
X10629586Y-16467150D01*
X10629586Y-16486198D02*
X10639110Y-16476674D01*
X10639110Y-16476674D02*
X10658158Y-16467150D01*
X10658158Y-16467150D02*
X10686729Y-16467150D01*
X10686729Y-16467150D02*
X10705777Y-16476674D01*
X10705777Y-16476674D02*
X10715301Y-16495722D01*
X10715301Y-16495722D02*
X10715301Y-16600484D01*
X10715301Y-16495722D02*
X10724825Y-16476674D01*
X10724825Y-16476674D02*
X10743872Y-16467150D01*
X10743872Y-16467150D02*
X10772444Y-16467150D01*
X10772444Y-16467150D02*
X10791491Y-16476674D01*
X10791491Y-16476674D02*
X10801015Y-16495722D01*
X10801015Y-16495722D02*
X10801015Y-16600484D01*
X11191491Y-16390960D02*
X11020063Y-16648103D01*
X11448634Y-16400484D02*
X11467682Y-16400484D01*
X11467682Y-16400484D02*
X11486729Y-16410008D01*
X11486729Y-16410008D02*
X11496253Y-16419531D01*
X11496253Y-16419531D02*
X11505777Y-16438579D01*
X11505777Y-16438579D02*
X11515301Y-16476674D01*
X11515301Y-16476674D02*
X11515301Y-16524293D01*
X11515301Y-16524293D02*
X11505777Y-16562388D01*
X11505777Y-16562388D02*
X11496253Y-16581436D01*
X11496253Y-16581436D02*
X11486729Y-16590960D01*
X11486729Y-16590960D02*
X11467682Y-16600484D01*
X11467682Y-16600484D02*
X11448634Y-16600484D01*
X11448634Y-16600484D02*
X11429586Y-16590960D01*
X11429586Y-16590960D02*
X11420063Y-16581436D01*
X11420063Y-16581436D02*
X11410539Y-16562388D01*
X11410539Y-16562388D02*
X11401015Y-16524293D01*
X11401015Y-16524293D02*
X11401015Y-16476674D01*
X11401015Y-16476674D02*
X11410539Y-16438579D01*
X11410539Y-16438579D02*
X11420063Y-16419531D01*
X11420063Y-16419531D02*
X11429586Y-16410008D01*
X11429586Y-16410008D02*
X11448634Y-16400484D01*
X11601015Y-16581436D02*
X11610539Y-16590960D01*
X11610539Y-16590960D02*
X11601015Y-16600484D01*
X11601015Y-16600484D02*
X11591491Y-16590960D01*
X11591491Y-16590960D02*
X11601015Y-16581436D01*
X11601015Y-16581436D02*
X11601015Y-16600484D01*
X11734348Y-16400484D02*
X11753396Y-16400484D01*
X11753396Y-16400484D02*
X11772444Y-16410008D01*
X11772444Y-16410008D02*
X11781967Y-16419531D01*
X11781967Y-16419531D02*
X11791491Y-16438579D01*
X11791491Y-16438579D02*
X11801015Y-16476674D01*
X11801015Y-16476674D02*
X11801015Y-16524293D01*
X11801015Y-16524293D02*
X11791491Y-16562388D01*
X11791491Y-16562388D02*
X11781967Y-16581436D01*
X11781967Y-16581436D02*
X11772444Y-16590960D01*
X11772444Y-16590960D02*
X11753396Y-16600484D01*
X11753396Y-16600484D02*
X11734348Y-16600484D01*
X11734348Y-16600484D02*
X11715301Y-16590960D01*
X11715301Y-16590960D02*
X11705777Y-16581436D01*
X11705777Y-16581436D02*
X11696253Y-16562388D01*
X11696253Y-16562388D02*
X11686729Y-16524293D01*
X11686729Y-16524293D02*
X11686729Y-16476674D01*
X11686729Y-16476674D02*
X11696253Y-16438579D01*
X11696253Y-16438579D02*
X11705777Y-16419531D01*
X11705777Y-16419531D02*
X11715301Y-16410008D01*
X11715301Y-16410008D02*
X11734348Y-16400484D01*
X11972444Y-16400484D02*
X11934348Y-16400484D01*
X11934348Y-16400484D02*
X11915301Y-16410008D01*
X11915301Y-16410008D02*
X11905777Y-16419531D01*
X11905777Y-16419531D02*
X11886729Y-16448103D01*
X11886729Y-16448103D02*
X11877206Y-16486198D01*
X11877206Y-16486198D02*
X11877206Y-16562388D01*
X11877206Y-16562388D02*
X11886729Y-16581436D01*
X11886729Y-16581436D02*
X11896253Y-16590960D01*
X11896253Y-16590960D02*
X11915301Y-16600484D01*
X11915301Y-16600484D02*
X11953396Y-16600484D01*
X11953396Y-16600484D02*
X11972444Y-16590960D01*
X11972444Y-16590960D02*
X11981967Y-16581436D01*
X11981967Y-16581436D02*
X11991491Y-16562388D01*
X11991491Y-16562388D02*
X11991491Y-16514769D01*
X11991491Y-16514769D02*
X11981967Y-16495722D01*
X11981967Y-16495722D02*
X11972444Y-16486198D01*
X11972444Y-16486198D02*
X11953396Y-16476674D01*
X11953396Y-16476674D02*
X11915301Y-16476674D01*
X11915301Y-16476674D02*
X11896253Y-16486198D01*
X11896253Y-16486198D02*
X11886729Y-16495722D01*
X11886729Y-16495722D02*
X11877206Y-16514769D01*
X12105777Y-16486198D02*
X12086729Y-16476674D01*
X12086729Y-16476674D02*
X12077206Y-16467150D01*
X12077206Y-16467150D02*
X12067682Y-16448103D01*
X12067682Y-16448103D02*
X12067682Y-16438579D01*
X12067682Y-16438579D02*
X12077206Y-16419531D01*
X12077206Y-16419531D02*
X12086729Y-16410008D01*
X12086729Y-16410008D02*
X12105777Y-16400484D01*
X12105777Y-16400484D02*
X12143872Y-16400484D01*
X12143872Y-16400484D02*
X12162920Y-16410008D01*
X12162920Y-16410008D02*
X12172444Y-16419531D01*
X12172444Y-16419531D02*
X12181967Y-16438579D01*
X12181967Y-16438579D02*
X12181967Y-16448103D01*
X12181967Y-16448103D02*
X12172444Y-16467150D01*
X12172444Y-16467150D02*
X12162920Y-16476674D01*
X12162920Y-16476674D02*
X12143872Y-16486198D01*
X12143872Y-16486198D02*
X12105777Y-16486198D01*
X12105777Y-16486198D02*
X12086729Y-16495722D01*
X12086729Y-16495722D02*
X12077206Y-16505246D01*
X12077206Y-16505246D02*
X12067682Y-16524293D01*
X12067682Y-16524293D02*
X12067682Y-16562388D01*
X12067682Y-16562388D02*
X12077206Y-16581436D01*
X12077206Y-16581436D02*
X12086729Y-16590960D01*
X12086729Y-16590960D02*
X12105777Y-16600484D01*
X12105777Y-16600484D02*
X12143872Y-16600484D01*
X12143872Y-16600484D02*
X12162920Y-16590960D01*
X12162920Y-16590960D02*
X12172444Y-16581436D01*
X12172444Y-16581436D02*
X12181967Y-16562388D01*
X12181967Y-16562388D02*
X12181967Y-16524293D01*
X12181967Y-16524293D02*
X12172444Y-16505246D01*
X12172444Y-16505246D02*
X12162920Y-16495722D01*
X12162920Y-16495722D02*
X12143872Y-16486198D01*
X12277206Y-16600484D02*
X12315301Y-16600484D01*
X12315301Y-16600484D02*
X12334348Y-16590960D01*
X12334348Y-16590960D02*
X12343872Y-16581436D01*
X12343872Y-16581436D02*
X12362920Y-16552865D01*
X12362920Y-16552865D02*
X12372444Y-16514769D01*
X12372444Y-16514769D02*
X12372444Y-16438579D01*
X12372444Y-16438579D02*
X12362920Y-16419531D01*
X12362920Y-16419531D02*
X12353396Y-16410008D01*
X12353396Y-16410008D02*
X12334348Y-16400484D01*
X12334348Y-16400484D02*
X12296253Y-16400484D01*
X12296253Y-16400484D02*
X12277206Y-16410008D01*
X12277206Y-16410008D02*
X12267682Y-16419531D01*
X12267682Y-16419531D02*
X12258158Y-16438579D01*
X12258158Y-16438579D02*
X12258158Y-16486198D01*
X12258158Y-16486198D02*
X12267682Y-16505246D01*
X12267682Y-16505246D02*
X12277206Y-16514769D01*
X12277206Y-16514769D02*
X12296253Y-16524293D01*
X12296253Y-16524293D02*
X12334348Y-16524293D01*
X12334348Y-16524293D02*
X12353396Y-16514769D01*
X12353396Y-16514769D02*
X12362920Y-16505246D01*
X12362920Y-16505246D02*
X12372444Y-16486198D01*
X12448634Y-16400484D02*
X12448634Y-16438579D01*
X12524825Y-16400484D02*
X12524825Y-16438579D01*
X12820063Y-16676674D02*
X12810539Y-16667150D01*
X12810539Y-16667150D02*
X12791491Y-16638579D01*
X12791491Y-16638579D02*
X12781968Y-16619531D01*
X12781968Y-16619531D02*
X12772444Y-16590960D01*
X12772444Y-16590960D02*
X12762920Y-16543341D01*
X12762920Y-16543341D02*
X12762920Y-16505246D01*
X12762920Y-16505246D02*
X12772444Y-16457627D01*
X12772444Y-16457627D02*
X12781968Y-16429055D01*
X12781968Y-16429055D02*
X12791491Y-16410008D01*
X12791491Y-16410008D02*
X12810539Y-16381436D01*
X12810539Y-16381436D02*
X12820063Y-16371912D01*
X13001015Y-16600484D02*
X12886729Y-16600484D01*
X12943872Y-16600484D02*
X12943872Y-16400484D01*
X12943872Y-16400484D02*
X12924825Y-16429055D01*
X12924825Y-16429055D02*
X12905777Y-16448103D01*
X12905777Y-16448103D02*
X12886729Y-16457627D01*
X13124825Y-16400484D02*
X13143872Y-16400484D01*
X13143872Y-16400484D02*
X13162920Y-16410008D01*
X13162920Y-16410008D02*
X13172444Y-16419531D01*
X13172444Y-16419531D02*
X13181968Y-16438579D01*
X13181968Y-16438579D02*
X13191491Y-16476674D01*
X13191491Y-16476674D02*
X13191491Y-16524293D01*
X13191491Y-16524293D02*
X13181968Y-16562388D01*
X13181968Y-16562388D02*
X13172444Y-16581436D01*
X13172444Y-16581436D02*
X13162920Y-16590960D01*
X13162920Y-16590960D02*
X13143872Y-16600484D01*
X13143872Y-16600484D02*
X13124825Y-16600484D01*
X13124825Y-16600484D02*
X13105777Y-16590960D01*
X13105777Y-16590960D02*
X13096253Y-16581436D01*
X13096253Y-16581436D02*
X13086729Y-16562388D01*
X13086729Y-16562388D02*
X13077206Y-16524293D01*
X13077206Y-16524293D02*
X13077206Y-16476674D01*
X13077206Y-16476674D02*
X13086729Y-16438579D01*
X13086729Y-16438579D02*
X13096253Y-16419531D01*
X13096253Y-16419531D02*
X13105777Y-16410008D01*
X13105777Y-16410008D02*
X13124825Y-16400484D01*
X13429587Y-16600484D02*
X13429587Y-16400484D01*
X13515301Y-16600484D02*
X13515301Y-16495722D01*
X13515301Y-16495722D02*
X13505777Y-16476674D01*
X13505777Y-16476674D02*
X13486730Y-16467150D01*
X13486730Y-16467150D02*
X13458158Y-16467150D01*
X13458158Y-16467150D02*
X13439110Y-16476674D01*
X13439110Y-16476674D02*
X13429587Y-16486198D01*
X13639110Y-16600484D02*
X13620063Y-16590960D01*
X13620063Y-16590960D02*
X13610539Y-16581436D01*
X13610539Y-16581436D02*
X13601015Y-16562388D01*
X13601015Y-16562388D02*
X13601015Y-16505246D01*
X13601015Y-16505246D02*
X13610539Y-16486198D01*
X13610539Y-16486198D02*
X13620063Y-16476674D01*
X13620063Y-16476674D02*
X13639110Y-16467150D01*
X13639110Y-16467150D02*
X13667682Y-16467150D01*
X13667682Y-16467150D02*
X13686730Y-16476674D01*
X13686730Y-16476674D02*
X13696253Y-16486198D01*
X13696253Y-16486198D02*
X13705777Y-16505246D01*
X13705777Y-16505246D02*
X13705777Y-16562388D01*
X13705777Y-16562388D02*
X13696253Y-16581436D01*
X13696253Y-16581436D02*
X13686730Y-16590960D01*
X13686730Y-16590960D02*
X13667682Y-16600484D01*
X13667682Y-16600484D02*
X13639110Y-16600484D01*
X13820063Y-16600484D02*
X13801015Y-16590960D01*
X13801015Y-16590960D02*
X13791491Y-16571912D01*
X13791491Y-16571912D02*
X13791491Y-16400484D01*
X13972444Y-16590960D02*
X13953396Y-16600484D01*
X13953396Y-16600484D02*
X13915301Y-16600484D01*
X13915301Y-16600484D02*
X13896253Y-16590960D01*
X13896253Y-16590960D02*
X13886730Y-16571912D01*
X13886730Y-16571912D02*
X13886730Y-16495722D01*
X13886730Y-16495722D02*
X13896253Y-16476674D01*
X13896253Y-16476674D02*
X13915301Y-16467150D01*
X13915301Y-16467150D02*
X13953396Y-16467150D01*
X13953396Y-16467150D02*
X13972444Y-16476674D01*
X13972444Y-16476674D02*
X13981968Y-16495722D01*
X13981968Y-16495722D02*
X13981968Y-16514769D01*
X13981968Y-16514769D02*
X13886730Y-16533817D01*
X14058158Y-16590960D02*
X14077206Y-16600484D01*
X14077206Y-16600484D02*
X14115301Y-16600484D01*
X14115301Y-16600484D02*
X14134349Y-16590960D01*
X14134349Y-16590960D02*
X14143872Y-16571912D01*
X14143872Y-16571912D02*
X14143872Y-16562388D01*
X14143872Y-16562388D02*
X14134349Y-16543341D01*
X14134349Y-16543341D02*
X14115301Y-16533817D01*
X14115301Y-16533817D02*
X14086730Y-16533817D01*
X14086730Y-16533817D02*
X14067682Y-16524293D01*
X14067682Y-16524293D02*
X14058158Y-16505246D01*
X14058158Y-16505246D02*
X14058158Y-16495722D01*
X14058158Y-16495722D02*
X14067682Y-16476674D01*
X14067682Y-16476674D02*
X14086730Y-16467150D01*
X14086730Y-16467150D02*
X14115301Y-16467150D01*
X14115301Y-16467150D02*
X14134349Y-16476674D01*
X14210539Y-16676674D02*
X14220063Y-16667150D01*
X14220063Y-16667150D02*
X14239111Y-16638579D01*
X14239111Y-16638579D02*
X14248634Y-16619531D01*
X14248634Y-16619531D02*
X14258158Y-16590960D01*
X14258158Y-16590960D02*
X14267682Y-16543341D01*
X14267682Y-16543341D02*
X14267682Y-16505246D01*
X14267682Y-16505246D02*
X14258158Y-16457627D01*
X14258158Y-16457627D02*
X14248634Y-16429055D01*
X14248634Y-16429055D02*
X14239111Y-16410008D01*
X14239111Y-16410008D02*
X14220063Y-16381436D01*
X14220063Y-16381436D02*
X14210539Y-16371912D01*
X14572444Y-16676674D02*
X14562920Y-16667150D01*
X14562920Y-16667150D02*
X14543872Y-16638579D01*
X14543872Y-16638579D02*
X14534349Y-16619531D01*
X14534349Y-16619531D02*
X14524825Y-16590960D01*
X14524825Y-16590960D02*
X14515301Y-16543341D01*
X14515301Y-16543341D02*
X14515301Y-16505246D01*
X14515301Y-16505246D02*
X14524825Y-16457627D01*
X14524825Y-16457627D02*
X14534349Y-16429055D01*
X14534349Y-16429055D02*
X14543872Y-16410008D01*
X14543872Y-16410008D02*
X14562920Y-16381436D01*
X14562920Y-16381436D02*
X14572444Y-16371912D01*
X14648634Y-16467150D02*
X14648634Y-16600484D01*
X14648634Y-16486198D02*
X14658158Y-16476674D01*
X14658158Y-16476674D02*
X14677206Y-16467150D01*
X14677206Y-16467150D02*
X14705777Y-16467150D01*
X14705777Y-16467150D02*
X14724825Y-16476674D01*
X14724825Y-16476674D02*
X14734349Y-16495722D01*
X14734349Y-16495722D02*
X14734349Y-16600484D01*
X14858158Y-16600484D02*
X14839111Y-16590960D01*
X14839111Y-16590960D02*
X14829587Y-16581436D01*
X14829587Y-16581436D02*
X14820063Y-16562388D01*
X14820063Y-16562388D02*
X14820063Y-16505246D01*
X14820063Y-16505246D02*
X14829587Y-16486198D01*
X14829587Y-16486198D02*
X14839111Y-16476674D01*
X14839111Y-16476674D02*
X14858158Y-16467150D01*
X14858158Y-16467150D02*
X14886730Y-16467150D01*
X14886730Y-16467150D02*
X14905777Y-16476674D01*
X14905777Y-16476674D02*
X14915301Y-16486198D01*
X14915301Y-16486198D02*
X14924825Y-16505246D01*
X14924825Y-16505246D02*
X14924825Y-16562388D01*
X14924825Y-16562388D02*
X14915301Y-16581436D01*
X14915301Y-16581436D02*
X14905777Y-16590960D01*
X14905777Y-16590960D02*
X14886730Y-16600484D01*
X14886730Y-16600484D02*
X14858158Y-16600484D01*
X14981968Y-16467150D02*
X15058158Y-16467150D01*
X15010539Y-16400484D02*
X15010539Y-16571912D01*
X15010539Y-16571912D02*
X15020063Y-16590960D01*
X15020063Y-16590960D02*
X15039111Y-16600484D01*
X15039111Y-16600484D02*
X15058158Y-16600484D01*
X15277206Y-16467150D02*
X15277206Y-16667150D01*
X15277206Y-16476674D02*
X15296253Y-16467150D01*
X15296253Y-16467150D02*
X15334349Y-16467150D01*
X15334349Y-16467150D02*
X15353396Y-16476674D01*
X15353396Y-16476674D02*
X15362920Y-16486198D01*
X15362920Y-16486198D02*
X15372444Y-16505246D01*
X15372444Y-16505246D02*
X15372444Y-16562388D01*
X15372444Y-16562388D02*
X15362920Y-16581436D01*
X15362920Y-16581436D02*
X15353396Y-16590960D01*
X15353396Y-16590960D02*
X15334349Y-16600484D01*
X15334349Y-16600484D02*
X15296253Y-16600484D01*
X15296253Y-16600484D02*
X15277206Y-16590960D01*
X15486730Y-16600484D02*
X15467682Y-16590960D01*
X15467682Y-16590960D02*
X15458158Y-16571912D01*
X15458158Y-16571912D02*
X15458158Y-16400484D01*
X15648634Y-16600484D02*
X15648634Y-16495722D01*
X15648634Y-16495722D02*
X15639111Y-16476674D01*
X15639111Y-16476674D02*
X15620063Y-16467150D01*
X15620063Y-16467150D02*
X15581968Y-16467150D01*
X15581968Y-16467150D02*
X15562920Y-16476674D01*
X15648634Y-16590960D02*
X15629587Y-16600484D01*
X15629587Y-16600484D02*
X15581968Y-16600484D01*
X15581968Y-16600484D02*
X15562920Y-16590960D01*
X15562920Y-16590960D02*
X15553396Y-16571912D01*
X15553396Y-16571912D02*
X15553396Y-16552865D01*
X15553396Y-16552865D02*
X15562920Y-16533817D01*
X15562920Y-16533817D02*
X15581968Y-16524293D01*
X15581968Y-16524293D02*
X15629587Y-16524293D01*
X15629587Y-16524293D02*
X15648634Y-16514769D01*
X15715301Y-16467150D02*
X15791492Y-16467150D01*
X15743873Y-16400484D02*
X15743873Y-16571912D01*
X15743873Y-16571912D02*
X15753396Y-16590960D01*
X15753396Y-16590960D02*
X15772444Y-16600484D01*
X15772444Y-16600484D02*
X15791492Y-16600484D01*
X15934349Y-16590960D02*
X15915301Y-16600484D01*
X15915301Y-16600484D02*
X15877206Y-16600484D01*
X15877206Y-16600484D02*
X15858158Y-16590960D01*
X15858158Y-16590960D02*
X15848634Y-16571912D01*
X15848634Y-16571912D02*
X15848634Y-16495722D01*
X15848634Y-16495722D02*
X15858158Y-16476674D01*
X15858158Y-16476674D02*
X15877206Y-16467150D01*
X15877206Y-16467150D02*
X15915301Y-16467150D01*
X15915301Y-16467150D02*
X15934349Y-16476674D01*
X15934349Y-16476674D02*
X15943873Y-16495722D01*
X15943873Y-16495722D02*
X15943873Y-16514769D01*
X15943873Y-16514769D02*
X15848634Y-16533817D01*
X16115301Y-16600484D02*
X16115301Y-16400484D01*
X16115301Y-16590960D02*
X16096254Y-16600484D01*
X16096254Y-16600484D02*
X16058158Y-16600484D01*
X16058158Y-16600484D02*
X16039111Y-16590960D01*
X16039111Y-16590960D02*
X16029587Y-16581436D01*
X16029587Y-16581436D02*
X16020063Y-16562388D01*
X16020063Y-16562388D02*
X16020063Y-16505246D01*
X16020063Y-16505246D02*
X16029587Y-16486198D01*
X16029587Y-16486198D02*
X16039111Y-16476674D01*
X16039111Y-16476674D02*
X16058158Y-16467150D01*
X16058158Y-16467150D02*
X16096254Y-16467150D01*
X16096254Y-16467150D02*
X16115301Y-16476674D01*
X16191492Y-16676674D02*
X16201015Y-16667150D01*
X16201015Y-16667150D02*
X16220063Y-16638579D01*
X16220063Y-16638579D02*
X16229587Y-16619531D01*
X16229587Y-16619531D02*
X16239111Y-16590960D01*
X16239111Y-16590960D02*
X16248634Y-16543341D01*
X16248634Y-16543341D02*
X16248634Y-16505246D01*
X16248634Y-16505246D02*
X16239111Y-16457627D01*
X16239111Y-16457627D02*
X16229587Y-16429055D01*
X16229587Y-16429055D02*
X16220063Y-16410008D01*
X16220063Y-16410008D02*
X16201015Y-16381436D01*
X16201015Y-16381436D02*
X16191492Y-16371912D01*
X9145000Y-16704000D02*
X9145000Y-16904000D01*
X9045000Y-16804000D02*
X9245000Y-16804000D01*
X9486729Y-16695484D02*
X9610539Y-16695484D01*
X9610539Y-16695484D02*
X9543872Y-16771674D01*
X9543872Y-16771674D02*
X9572444Y-16771674D01*
X9572444Y-16771674D02*
X9591491Y-16781198D01*
X9591491Y-16781198D02*
X9601015Y-16790722D01*
X9601015Y-16790722D02*
X9610539Y-16809770D01*
X9610539Y-16809770D02*
X9610539Y-16857389D01*
X9610539Y-16857389D02*
X9601015Y-16876436D01*
X9601015Y-16876436D02*
X9591491Y-16885960D01*
X9591491Y-16885960D02*
X9572444Y-16895484D01*
X9572444Y-16895484D02*
X9515301Y-16895484D01*
X9515301Y-16895484D02*
X9496253Y-16885960D01*
X9496253Y-16885960D02*
X9486729Y-16876436D01*
X9696253Y-16876436D02*
X9705777Y-16885960D01*
X9705777Y-16885960D02*
X9696253Y-16895484D01*
X9696253Y-16895484D02*
X9686729Y-16885960D01*
X9686729Y-16885960D02*
X9696253Y-16876436D01*
X9696253Y-16876436D02*
X9696253Y-16895484D01*
X9829586Y-16695484D02*
X9848634Y-16695484D01*
X9848634Y-16695484D02*
X9867682Y-16705008D01*
X9867682Y-16705008D02*
X9877205Y-16714531D01*
X9877205Y-16714531D02*
X9886729Y-16733579D01*
X9886729Y-16733579D02*
X9896253Y-16771674D01*
X9896253Y-16771674D02*
X9896253Y-16819293D01*
X9896253Y-16819293D02*
X9886729Y-16857389D01*
X9886729Y-16857389D02*
X9877205Y-16876436D01*
X9877205Y-16876436D02*
X9867682Y-16885960D01*
X9867682Y-16885960D02*
X9848634Y-16895484D01*
X9848634Y-16895484D02*
X9829586Y-16895484D01*
X9829586Y-16895484D02*
X9810539Y-16885960D01*
X9810539Y-16885960D02*
X9801015Y-16876436D01*
X9801015Y-16876436D02*
X9791491Y-16857389D01*
X9791491Y-16857389D02*
X9781967Y-16819293D01*
X9781967Y-16819293D02*
X9781967Y-16771674D01*
X9781967Y-16771674D02*
X9791491Y-16733579D01*
X9791491Y-16733579D02*
X9801015Y-16714531D01*
X9801015Y-16714531D02*
X9810539Y-16705008D01*
X9810539Y-16705008D02*
X9829586Y-16695484D01*
X10077205Y-16695484D02*
X9981967Y-16695484D01*
X9981967Y-16695484D02*
X9972444Y-16790722D01*
X9972444Y-16790722D02*
X9981967Y-16781198D01*
X9981967Y-16781198D02*
X10001015Y-16771674D01*
X10001015Y-16771674D02*
X10048634Y-16771674D01*
X10048634Y-16771674D02*
X10067682Y-16781198D01*
X10067682Y-16781198D02*
X10077205Y-16790722D01*
X10077205Y-16790722D02*
X10086729Y-16809770D01*
X10086729Y-16809770D02*
X10086729Y-16857389D01*
X10086729Y-16857389D02*
X10077205Y-16876436D01*
X10077205Y-16876436D02*
X10067682Y-16885960D01*
X10067682Y-16885960D02*
X10048634Y-16895484D01*
X10048634Y-16895484D02*
X10001015Y-16895484D01*
X10001015Y-16895484D02*
X9981967Y-16885960D01*
X9981967Y-16885960D02*
X9972444Y-16876436D01*
X10210539Y-16695484D02*
X10229586Y-16695484D01*
X10229586Y-16695484D02*
X10248634Y-16705008D01*
X10248634Y-16705008D02*
X10258158Y-16714531D01*
X10258158Y-16714531D02*
X10267682Y-16733579D01*
X10267682Y-16733579D02*
X10277205Y-16771674D01*
X10277205Y-16771674D02*
X10277205Y-16819293D01*
X10277205Y-16819293D02*
X10267682Y-16857389D01*
X10267682Y-16857389D02*
X10258158Y-16876436D01*
X10258158Y-16876436D02*
X10248634Y-16885960D01*
X10248634Y-16885960D02*
X10229586Y-16895484D01*
X10229586Y-16895484D02*
X10210539Y-16895484D01*
X10210539Y-16895484D02*
X10191491Y-16885960D01*
X10191491Y-16885960D02*
X10181967Y-16876436D01*
X10181967Y-16876436D02*
X10172444Y-16857389D01*
X10172444Y-16857389D02*
X10162920Y-16819293D01*
X10162920Y-16819293D02*
X10162920Y-16771674D01*
X10162920Y-16771674D02*
X10172444Y-16733579D01*
X10172444Y-16733579D02*
X10181967Y-16714531D01*
X10181967Y-16714531D02*
X10191491Y-16705008D01*
X10191491Y-16705008D02*
X10210539Y-16695484D01*
X10362920Y-16895484D02*
X10362920Y-16762150D01*
X10362920Y-16781198D02*
X10372444Y-16771674D01*
X10372444Y-16771674D02*
X10391491Y-16762150D01*
X10391491Y-16762150D02*
X10420063Y-16762150D01*
X10420063Y-16762150D02*
X10439110Y-16771674D01*
X10439110Y-16771674D02*
X10448634Y-16790722D01*
X10448634Y-16790722D02*
X10448634Y-16895484D01*
X10448634Y-16790722D02*
X10458158Y-16771674D01*
X10458158Y-16771674D02*
X10477205Y-16762150D01*
X10477205Y-16762150D02*
X10505777Y-16762150D01*
X10505777Y-16762150D02*
X10524825Y-16771674D01*
X10524825Y-16771674D02*
X10534348Y-16790722D01*
X10534348Y-16790722D02*
X10534348Y-16895484D01*
X10629586Y-16895484D02*
X10629586Y-16762150D01*
X10629586Y-16781198D02*
X10639110Y-16771674D01*
X10639110Y-16771674D02*
X10658158Y-16762150D01*
X10658158Y-16762150D02*
X10686729Y-16762150D01*
X10686729Y-16762150D02*
X10705777Y-16771674D01*
X10705777Y-16771674D02*
X10715301Y-16790722D01*
X10715301Y-16790722D02*
X10715301Y-16895484D01*
X10715301Y-16790722D02*
X10724825Y-16771674D01*
X10724825Y-16771674D02*
X10743872Y-16762150D01*
X10743872Y-16762150D02*
X10772444Y-16762150D01*
X10772444Y-16762150D02*
X10791491Y-16771674D01*
X10791491Y-16771674D02*
X10801015Y-16790722D01*
X10801015Y-16790722D02*
X10801015Y-16895484D01*
X11191491Y-16685960D02*
X11020063Y-16943103D01*
X11448634Y-16695484D02*
X11467682Y-16695484D01*
X11467682Y-16695484D02*
X11486729Y-16705008D01*
X11486729Y-16705008D02*
X11496253Y-16714531D01*
X11496253Y-16714531D02*
X11505777Y-16733579D01*
X11505777Y-16733579D02*
X11515301Y-16771674D01*
X11515301Y-16771674D02*
X11515301Y-16819293D01*
X11515301Y-16819293D02*
X11505777Y-16857389D01*
X11505777Y-16857389D02*
X11496253Y-16876436D01*
X11496253Y-16876436D02*
X11486729Y-16885960D01*
X11486729Y-16885960D02*
X11467682Y-16895484D01*
X11467682Y-16895484D02*
X11448634Y-16895484D01*
X11448634Y-16895484D02*
X11429586Y-16885960D01*
X11429586Y-16885960D02*
X11420063Y-16876436D01*
X11420063Y-16876436D02*
X11410539Y-16857389D01*
X11410539Y-16857389D02*
X11401015Y-16819293D01*
X11401015Y-16819293D02*
X11401015Y-16771674D01*
X11401015Y-16771674D02*
X11410539Y-16733579D01*
X11410539Y-16733579D02*
X11420063Y-16714531D01*
X11420063Y-16714531D02*
X11429586Y-16705008D01*
X11429586Y-16705008D02*
X11448634Y-16695484D01*
X11601015Y-16876436D02*
X11610539Y-16885960D01*
X11610539Y-16885960D02*
X11601015Y-16895484D01*
X11601015Y-16895484D02*
X11591491Y-16885960D01*
X11591491Y-16885960D02*
X11601015Y-16876436D01*
X11601015Y-16876436D02*
X11601015Y-16895484D01*
X11801015Y-16895484D02*
X11686729Y-16895484D01*
X11743872Y-16895484D02*
X11743872Y-16695484D01*
X11743872Y-16695484D02*
X11724825Y-16724055D01*
X11724825Y-16724055D02*
X11705777Y-16743103D01*
X11705777Y-16743103D02*
X11686729Y-16752627D01*
X11877206Y-16714531D02*
X11886729Y-16705008D01*
X11886729Y-16705008D02*
X11905777Y-16695484D01*
X11905777Y-16695484D02*
X11953396Y-16695484D01*
X11953396Y-16695484D02*
X11972444Y-16705008D01*
X11972444Y-16705008D02*
X11981967Y-16714531D01*
X11981967Y-16714531D02*
X11991491Y-16733579D01*
X11991491Y-16733579D02*
X11991491Y-16752627D01*
X11991491Y-16752627D02*
X11981967Y-16781198D01*
X11981967Y-16781198D02*
X11867682Y-16895484D01*
X11867682Y-16895484D02*
X11991491Y-16895484D01*
X12115301Y-16695484D02*
X12134348Y-16695484D01*
X12134348Y-16695484D02*
X12153396Y-16705008D01*
X12153396Y-16705008D02*
X12162920Y-16714531D01*
X12162920Y-16714531D02*
X12172444Y-16733579D01*
X12172444Y-16733579D02*
X12181967Y-16771674D01*
X12181967Y-16771674D02*
X12181967Y-16819293D01*
X12181967Y-16819293D02*
X12172444Y-16857389D01*
X12172444Y-16857389D02*
X12162920Y-16876436D01*
X12162920Y-16876436D02*
X12153396Y-16885960D01*
X12153396Y-16885960D02*
X12134348Y-16895484D01*
X12134348Y-16895484D02*
X12115301Y-16895484D01*
X12115301Y-16895484D02*
X12096253Y-16885960D01*
X12096253Y-16885960D02*
X12086729Y-16876436D01*
X12086729Y-16876436D02*
X12077206Y-16857389D01*
X12077206Y-16857389D02*
X12067682Y-16819293D01*
X12067682Y-16819293D02*
X12067682Y-16771674D01*
X12067682Y-16771674D02*
X12077206Y-16733579D01*
X12077206Y-16733579D02*
X12086729Y-16714531D01*
X12086729Y-16714531D02*
X12096253Y-16705008D01*
X12096253Y-16705008D02*
X12115301Y-16695484D01*
X12372444Y-16895484D02*
X12258158Y-16895484D01*
X12315301Y-16895484D02*
X12315301Y-16695484D01*
X12315301Y-16695484D02*
X12296253Y-16724055D01*
X12296253Y-16724055D02*
X12277206Y-16743103D01*
X12277206Y-16743103D02*
X12258158Y-16752627D01*
X12448634Y-16695484D02*
X12448634Y-16733579D01*
X12524825Y-16695484D02*
X12524825Y-16733579D01*
X12820063Y-16971674D02*
X12810539Y-16962150D01*
X12810539Y-16962150D02*
X12791491Y-16933579D01*
X12791491Y-16933579D02*
X12781968Y-16914531D01*
X12781968Y-16914531D02*
X12772444Y-16885960D01*
X12772444Y-16885960D02*
X12762920Y-16838341D01*
X12762920Y-16838341D02*
X12762920Y-16800246D01*
X12762920Y-16800246D02*
X12772444Y-16752627D01*
X12772444Y-16752627D02*
X12781968Y-16724055D01*
X12781968Y-16724055D02*
X12791491Y-16705008D01*
X12791491Y-16705008D02*
X12810539Y-16676436D01*
X12810539Y-16676436D02*
X12820063Y-16666912D01*
X13001015Y-16895484D02*
X12886729Y-16895484D01*
X12943872Y-16895484D02*
X12943872Y-16695484D01*
X12943872Y-16695484D02*
X12924825Y-16724055D01*
X12924825Y-16724055D02*
X12905777Y-16743103D01*
X12905777Y-16743103D02*
X12886729Y-16752627D01*
X13124825Y-16695484D02*
X13143872Y-16695484D01*
X13143872Y-16695484D02*
X13162920Y-16705008D01*
X13162920Y-16705008D02*
X13172444Y-16714531D01*
X13172444Y-16714531D02*
X13181968Y-16733579D01*
X13181968Y-16733579D02*
X13191491Y-16771674D01*
X13191491Y-16771674D02*
X13191491Y-16819293D01*
X13191491Y-16819293D02*
X13181968Y-16857389D01*
X13181968Y-16857389D02*
X13172444Y-16876436D01*
X13172444Y-16876436D02*
X13162920Y-16885960D01*
X13162920Y-16885960D02*
X13143872Y-16895484D01*
X13143872Y-16895484D02*
X13124825Y-16895484D01*
X13124825Y-16895484D02*
X13105777Y-16885960D01*
X13105777Y-16885960D02*
X13096253Y-16876436D01*
X13096253Y-16876436D02*
X13086729Y-16857389D01*
X13086729Y-16857389D02*
X13077206Y-16819293D01*
X13077206Y-16819293D02*
X13077206Y-16771674D01*
X13077206Y-16771674D02*
X13086729Y-16733579D01*
X13086729Y-16733579D02*
X13096253Y-16714531D01*
X13096253Y-16714531D02*
X13105777Y-16705008D01*
X13105777Y-16705008D02*
X13124825Y-16695484D01*
X13429587Y-16895484D02*
X13429587Y-16695484D01*
X13515301Y-16895484D02*
X13515301Y-16790722D01*
X13515301Y-16790722D02*
X13505777Y-16771674D01*
X13505777Y-16771674D02*
X13486730Y-16762150D01*
X13486730Y-16762150D02*
X13458158Y-16762150D01*
X13458158Y-16762150D02*
X13439110Y-16771674D01*
X13439110Y-16771674D02*
X13429587Y-16781198D01*
X13639110Y-16895484D02*
X13620063Y-16885960D01*
X13620063Y-16885960D02*
X13610539Y-16876436D01*
X13610539Y-16876436D02*
X13601015Y-16857389D01*
X13601015Y-16857389D02*
X13601015Y-16800246D01*
X13601015Y-16800246D02*
X13610539Y-16781198D01*
X13610539Y-16781198D02*
X13620063Y-16771674D01*
X13620063Y-16771674D02*
X13639110Y-16762150D01*
X13639110Y-16762150D02*
X13667682Y-16762150D01*
X13667682Y-16762150D02*
X13686730Y-16771674D01*
X13686730Y-16771674D02*
X13696253Y-16781198D01*
X13696253Y-16781198D02*
X13705777Y-16800246D01*
X13705777Y-16800246D02*
X13705777Y-16857389D01*
X13705777Y-16857389D02*
X13696253Y-16876436D01*
X13696253Y-16876436D02*
X13686730Y-16885960D01*
X13686730Y-16885960D02*
X13667682Y-16895484D01*
X13667682Y-16895484D02*
X13639110Y-16895484D01*
X13820063Y-16895484D02*
X13801015Y-16885960D01*
X13801015Y-16885960D02*
X13791491Y-16866912D01*
X13791491Y-16866912D02*
X13791491Y-16695484D01*
X13972444Y-16885960D02*
X13953396Y-16895484D01*
X13953396Y-16895484D02*
X13915301Y-16895484D01*
X13915301Y-16895484D02*
X13896253Y-16885960D01*
X13896253Y-16885960D02*
X13886730Y-16866912D01*
X13886730Y-16866912D02*
X13886730Y-16790722D01*
X13886730Y-16790722D02*
X13896253Y-16771674D01*
X13896253Y-16771674D02*
X13915301Y-16762150D01*
X13915301Y-16762150D02*
X13953396Y-16762150D01*
X13953396Y-16762150D02*
X13972444Y-16771674D01*
X13972444Y-16771674D02*
X13981968Y-16790722D01*
X13981968Y-16790722D02*
X13981968Y-16809770D01*
X13981968Y-16809770D02*
X13886730Y-16828817D01*
X14058158Y-16885960D02*
X14077206Y-16895484D01*
X14077206Y-16895484D02*
X14115301Y-16895484D01*
X14115301Y-16895484D02*
X14134349Y-16885960D01*
X14134349Y-16885960D02*
X14143872Y-16866912D01*
X14143872Y-16866912D02*
X14143872Y-16857389D01*
X14143872Y-16857389D02*
X14134349Y-16838341D01*
X14134349Y-16838341D02*
X14115301Y-16828817D01*
X14115301Y-16828817D02*
X14086730Y-16828817D01*
X14086730Y-16828817D02*
X14067682Y-16819293D01*
X14067682Y-16819293D02*
X14058158Y-16800246D01*
X14058158Y-16800246D02*
X14058158Y-16790722D01*
X14058158Y-16790722D02*
X14067682Y-16771674D01*
X14067682Y-16771674D02*
X14086730Y-16762150D01*
X14086730Y-16762150D02*
X14115301Y-16762150D01*
X14115301Y-16762150D02*
X14134349Y-16771674D01*
X14210539Y-16971674D02*
X14220063Y-16962150D01*
X14220063Y-16962150D02*
X14239111Y-16933579D01*
X14239111Y-16933579D02*
X14248634Y-16914531D01*
X14248634Y-16914531D02*
X14258158Y-16885960D01*
X14258158Y-16885960D02*
X14267682Y-16838341D01*
X14267682Y-16838341D02*
X14267682Y-16800246D01*
X14267682Y-16800246D02*
X14258158Y-16752627D01*
X14258158Y-16752627D02*
X14248634Y-16724055D01*
X14248634Y-16724055D02*
X14239111Y-16705008D01*
X14239111Y-16705008D02*
X14220063Y-16676436D01*
X14220063Y-16676436D02*
X14210539Y-16666912D01*
X14572444Y-16971674D02*
X14562920Y-16962150D01*
X14562920Y-16962150D02*
X14543872Y-16933579D01*
X14543872Y-16933579D02*
X14534349Y-16914531D01*
X14534349Y-16914531D02*
X14524825Y-16885960D01*
X14524825Y-16885960D02*
X14515301Y-16838341D01*
X14515301Y-16838341D02*
X14515301Y-16800246D01*
X14515301Y-16800246D02*
X14524825Y-16752627D01*
X14524825Y-16752627D02*
X14534349Y-16724055D01*
X14534349Y-16724055D02*
X14543872Y-16705008D01*
X14543872Y-16705008D02*
X14562920Y-16676436D01*
X14562920Y-16676436D02*
X14572444Y-16666912D01*
X14648634Y-16762150D02*
X14648634Y-16895484D01*
X14648634Y-16781198D02*
X14658158Y-16771674D01*
X14658158Y-16771674D02*
X14677206Y-16762150D01*
X14677206Y-16762150D02*
X14705777Y-16762150D01*
X14705777Y-16762150D02*
X14724825Y-16771674D01*
X14724825Y-16771674D02*
X14734349Y-16790722D01*
X14734349Y-16790722D02*
X14734349Y-16895484D01*
X14858158Y-16895484D02*
X14839111Y-16885960D01*
X14839111Y-16885960D02*
X14829587Y-16876436D01*
X14829587Y-16876436D02*
X14820063Y-16857389D01*
X14820063Y-16857389D02*
X14820063Y-16800246D01*
X14820063Y-16800246D02*
X14829587Y-16781198D01*
X14829587Y-16781198D02*
X14839111Y-16771674D01*
X14839111Y-16771674D02*
X14858158Y-16762150D01*
X14858158Y-16762150D02*
X14886730Y-16762150D01*
X14886730Y-16762150D02*
X14905777Y-16771674D01*
X14905777Y-16771674D02*
X14915301Y-16781198D01*
X14915301Y-16781198D02*
X14924825Y-16800246D01*
X14924825Y-16800246D02*
X14924825Y-16857389D01*
X14924825Y-16857389D02*
X14915301Y-16876436D01*
X14915301Y-16876436D02*
X14905777Y-16885960D01*
X14905777Y-16885960D02*
X14886730Y-16895484D01*
X14886730Y-16895484D02*
X14858158Y-16895484D01*
X14981968Y-16762150D02*
X15058158Y-16762150D01*
X15010539Y-16695484D02*
X15010539Y-16866912D01*
X15010539Y-16866912D02*
X15020063Y-16885960D01*
X15020063Y-16885960D02*
X15039111Y-16895484D01*
X15039111Y-16895484D02*
X15058158Y-16895484D01*
X15277206Y-16762150D02*
X15277206Y-16962150D01*
X15277206Y-16771674D02*
X15296253Y-16762150D01*
X15296253Y-16762150D02*
X15334349Y-16762150D01*
X15334349Y-16762150D02*
X15353396Y-16771674D01*
X15353396Y-16771674D02*
X15362920Y-16781198D01*
X15362920Y-16781198D02*
X15372444Y-16800246D01*
X15372444Y-16800246D02*
X15372444Y-16857389D01*
X15372444Y-16857389D02*
X15362920Y-16876436D01*
X15362920Y-16876436D02*
X15353396Y-16885960D01*
X15353396Y-16885960D02*
X15334349Y-16895484D01*
X15334349Y-16895484D02*
X15296253Y-16895484D01*
X15296253Y-16895484D02*
X15277206Y-16885960D01*
X15486730Y-16895484D02*
X15467682Y-16885960D01*
X15467682Y-16885960D02*
X15458158Y-16866912D01*
X15458158Y-16866912D02*
X15458158Y-16695484D01*
X15648634Y-16895484D02*
X15648634Y-16790722D01*
X15648634Y-16790722D02*
X15639111Y-16771674D01*
X15639111Y-16771674D02*
X15620063Y-16762150D01*
X15620063Y-16762150D02*
X15581968Y-16762150D01*
X15581968Y-16762150D02*
X15562920Y-16771674D01*
X15648634Y-16885960D02*
X15629587Y-16895484D01*
X15629587Y-16895484D02*
X15581968Y-16895484D01*
X15581968Y-16895484D02*
X15562920Y-16885960D01*
X15562920Y-16885960D02*
X15553396Y-16866912D01*
X15553396Y-16866912D02*
X15553396Y-16847865D01*
X15553396Y-16847865D02*
X15562920Y-16828817D01*
X15562920Y-16828817D02*
X15581968Y-16819293D01*
X15581968Y-16819293D02*
X15629587Y-16819293D01*
X15629587Y-16819293D02*
X15648634Y-16809770D01*
X15715301Y-16762150D02*
X15791492Y-16762150D01*
X15743873Y-16695484D02*
X15743873Y-16866912D01*
X15743873Y-16866912D02*
X15753396Y-16885960D01*
X15753396Y-16885960D02*
X15772444Y-16895484D01*
X15772444Y-16895484D02*
X15791492Y-16895484D01*
X15934349Y-16885960D02*
X15915301Y-16895484D01*
X15915301Y-16895484D02*
X15877206Y-16895484D01*
X15877206Y-16895484D02*
X15858158Y-16885960D01*
X15858158Y-16885960D02*
X15848634Y-16866912D01*
X15848634Y-16866912D02*
X15848634Y-16790722D01*
X15848634Y-16790722D02*
X15858158Y-16771674D01*
X15858158Y-16771674D02*
X15877206Y-16762150D01*
X15877206Y-16762150D02*
X15915301Y-16762150D01*
X15915301Y-16762150D02*
X15934349Y-16771674D01*
X15934349Y-16771674D02*
X15943873Y-16790722D01*
X15943873Y-16790722D02*
X15943873Y-16809770D01*
X15943873Y-16809770D02*
X15848634Y-16828817D01*
X16115301Y-16895484D02*
X16115301Y-16695484D01*
X16115301Y-16885960D02*
X16096254Y-16895484D01*
X16096254Y-16895484D02*
X16058158Y-16895484D01*
X16058158Y-16895484D02*
X16039111Y-16885960D01*
X16039111Y-16885960D02*
X16029587Y-16876436D01*
X16029587Y-16876436D02*
X16020063Y-16857389D01*
X16020063Y-16857389D02*
X16020063Y-16800246D01*
X16020063Y-16800246D02*
X16029587Y-16781198D01*
X16029587Y-16781198D02*
X16039111Y-16771674D01*
X16039111Y-16771674D02*
X16058158Y-16762150D01*
X16058158Y-16762150D02*
X16096254Y-16762150D01*
X16096254Y-16762150D02*
X16115301Y-16771674D01*
X16191492Y-16971674D02*
X16201015Y-16962150D01*
X16201015Y-16962150D02*
X16220063Y-16933579D01*
X16220063Y-16933579D02*
X16229587Y-16914531D01*
X16229587Y-16914531D02*
X16239111Y-16885960D01*
X16239111Y-16885960D02*
X16248634Y-16838341D01*
X16248634Y-16838341D02*
X16248634Y-16800246D01*
X16248634Y-16800246D02*
X16239111Y-16752627D01*
X16239111Y-16752627D02*
X16229587Y-16724055D01*
X16229587Y-16724055D02*
X16220063Y-16705008D01*
X16220063Y-16705008D02*
X16201015Y-16676436D01*
X16201015Y-16676436D02*
X16191492Y-16666912D01*
X9215711Y-17194711D02*
X9215711Y-17053289D01*
X9074289Y-17053289D01*
X9074289Y-17194711D01*
X9215711Y-17194711D01*
X9591491Y-17082150D02*
X9591491Y-17215484D01*
X9543872Y-17005960D02*
X9496253Y-17148817D01*
X9496253Y-17148817D02*
X9620063Y-17148817D01*
X9696253Y-17196436D02*
X9705777Y-17205960D01*
X9705777Y-17205960D02*
X9696253Y-17215484D01*
X9696253Y-17215484D02*
X9686729Y-17205960D01*
X9686729Y-17205960D02*
X9696253Y-17196436D01*
X9696253Y-17196436D02*
X9696253Y-17215484D01*
X9829586Y-17015484D02*
X9848634Y-17015484D01*
X9848634Y-17015484D02*
X9867682Y-17025008D01*
X9867682Y-17025008D02*
X9877205Y-17034531D01*
X9877205Y-17034531D02*
X9886729Y-17053579D01*
X9886729Y-17053579D02*
X9896253Y-17091674D01*
X9896253Y-17091674D02*
X9896253Y-17139293D01*
X9896253Y-17139293D02*
X9886729Y-17177389D01*
X9886729Y-17177389D02*
X9877205Y-17196436D01*
X9877205Y-17196436D02*
X9867682Y-17205960D01*
X9867682Y-17205960D02*
X9848634Y-17215484D01*
X9848634Y-17215484D02*
X9829586Y-17215484D01*
X9829586Y-17215484D02*
X9810539Y-17205960D01*
X9810539Y-17205960D02*
X9801015Y-17196436D01*
X9801015Y-17196436D02*
X9791491Y-17177389D01*
X9791491Y-17177389D02*
X9781967Y-17139293D01*
X9781967Y-17139293D02*
X9781967Y-17091674D01*
X9781967Y-17091674D02*
X9791491Y-17053579D01*
X9791491Y-17053579D02*
X9801015Y-17034531D01*
X9801015Y-17034531D02*
X9810539Y-17025008D01*
X9810539Y-17025008D02*
X9829586Y-17015484D01*
X10020063Y-17015484D02*
X10039110Y-17015484D01*
X10039110Y-17015484D02*
X10058158Y-17025008D01*
X10058158Y-17025008D02*
X10067682Y-17034531D01*
X10067682Y-17034531D02*
X10077205Y-17053579D01*
X10077205Y-17053579D02*
X10086729Y-17091674D01*
X10086729Y-17091674D02*
X10086729Y-17139293D01*
X10086729Y-17139293D02*
X10077205Y-17177389D01*
X10077205Y-17177389D02*
X10067682Y-17196436D01*
X10067682Y-17196436D02*
X10058158Y-17205960D01*
X10058158Y-17205960D02*
X10039110Y-17215484D01*
X10039110Y-17215484D02*
X10020063Y-17215484D01*
X10020063Y-17215484D02*
X10001015Y-17205960D01*
X10001015Y-17205960D02*
X9991491Y-17196436D01*
X9991491Y-17196436D02*
X9981967Y-17177389D01*
X9981967Y-17177389D02*
X9972444Y-17139293D01*
X9972444Y-17139293D02*
X9972444Y-17091674D01*
X9972444Y-17091674D02*
X9981967Y-17053579D01*
X9981967Y-17053579D02*
X9991491Y-17034531D01*
X9991491Y-17034531D02*
X10001015Y-17025008D01*
X10001015Y-17025008D02*
X10020063Y-17015484D01*
X10210539Y-17015484D02*
X10229586Y-17015484D01*
X10229586Y-17015484D02*
X10248634Y-17025008D01*
X10248634Y-17025008D02*
X10258158Y-17034531D01*
X10258158Y-17034531D02*
X10267682Y-17053579D01*
X10267682Y-17053579D02*
X10277205Y-17091674D01*
X10277205Y-17091674D02*
X10277205Y-17139293D01*
X10277205Y-17139293D02*
X10267682Y-17177389D01*
X10267682Y-17177389D02*
X10258158Y-17196436D01*
X10258158Y-17196436D02*
X10248634Y-17205960D01*
X10248634Y-17205960D02*
X10229586Y-17215484D01*
X10229586Y-17215484D02*
X10210539Y-17215484D01*
X10210539Y-17215484D02*
X10191491Y-17205960D01*
X10191491Y-17205960D02*
X10181967Y-17196436D01*
X10181967Y-17196436D02*
X10172444Y-17177389D01*
X10172444Y-17177389D02*
X10162920Y-17139293D01*
X10162920Y-17139293D02*
X10162920Y-17091674D01*
X10162920Y-17091674D02*
X10172444Y-17053579D01*
X10172444Y-17053579D02*
X10181967Y-17034531D01*
X10181967Y-17034531D02*
X10191491Y-17025008D01*
X10191491Y-17025008D02*
X10210539Y-17015484D01*
X10362920Y-17215484D02*
X10362920Y-17082150D01*
X10362920Y-17101198D02*
X10372444Y-17091674D01*
X10372444Y-17091674D02*
X10391491Y-17082150D01*
X10391491Y-17082150D02*
X10420063Y-17082150D01*
X10420063Y-17082150D02*
X10439110Y-17091674D01*
X10439110Y-17091674D02*
X10448634Y-17110722D01*
X10448634Y-17110722D02*
X10448634Y-17215484D01*
X10448634Y-17110722D02*
X10458158Y-17091674D01*
X10458158Y-17091674D02*
X10477205Y-17082150D01*
X10477205Y-17082150D02*
X10505777Y-17082150D01*
X10505777Y-17082150D02*
X10524825Y-17091674D01*
X10524825Y-17091674D02*
X10534348Y-17110722D01*
X10534348Y-17110722D02*
X10534348Y-17215484D01*
X10629586Y-17215484D02*
X10629586Y-17082150D01*
X10629586Y-17101198D02*
X10639110Y-17091674D01*
X10639110Y-17091674D02*
X10658158Y-17082150D01*
X10658158Y-17082150D02*
X10686729Y-17082150D01*
X10686729Y-17082150D02*
X10705777Y-17091674D01*
X10705777Y-17091674D02*
X10715301Y-17110722D01*
X10715301Y-17110722D02*
X10715301Y-17215484D01*
X10715301Y-17110722D02*
X10724825Y-17091674D01*
X10724825Y-17091674D02*
X10743872Y-17082150D01*
X10743872Y-17082150D02*
X10772444Y-17082150D01*
X10772444Y-17082150D02*
X10791491Y-17091674D01*
X10791491Y-17091674D02*
X10801015Y-17110722D01*
X10801015Y-17110722D02*
X10801015Y-17215484D01*
X11191491Y-17005960D02*
X11020063Y-17263103D01*
X11448634Y-17015484D02*
X11467682Y-17015484D01*
X11467682Y-17015484D02*
X11486729Y-17025008D01*
X11486729Y-17025008D02*
X11496253Y-17034531D01*
X11496253Y-17034531D02*
X11505777Y-17053579D01*
X11505777Y-17053579D02*
X11515301Y-17091674D01*
X11515301Y-17091674D02*
X11515301Y-17139293D01*
X11515301Y-17139293D02*
X11505777Y-17177389D01*
X11505777Y-17177389D02*
X11496253Y-17196436D01*
X11496253Y-17196436D02*
X11486729Y-17205960D01*
X11486729Y-17205960D02*
X11467682Y-17215484D01*
X11467682Y-17215484D02*
X11448634Y-17215484D01*
X11448634Y-17215484D02*
X11429586Y-17205960D01*
X11429586Y-17205960D02*
X11420063Y-17196436D01*
X11420063Y-17196436D02*
X11410539Y-17177389D01*
X11410539Y-17177389D02*
X11401015Y-17139293D01*
X11401015Y-17139293D02*
X11401015Y-17091674D01*
X11401015Y-17091674D02*
X11410539Y-17053579D01*
X11410539Y-17053579D02*
X11420063Y-17034531D01*
X11420063Y-17034531D02*
X11429586Y-17025008D01*
X11429586Y-17025008D02*
X11448634Y-17015484D01*
X11601015Y-17196436D02*
X11610539Y-17205960D01*
X11610539Y-17205960D02*
X11601015Y-17215484D01*
X11601015Y-17215484D02*
X11591491Y-17205960D01*
X11591491Y-17205960D02*
X11601015Y-17196436D01*
X11601015Y-17196436D02*
X11601015Y-17215484D01*
X11801015Y-17215484D02*
X11686729Y-17215484D01*
X11743872Y-17215484D02*
X11743872Y-17015484D01*
X11743872Y-17015484D02*
X11724825Y-17044055D01*
X11724825Y-17044055D02*
X11705777Y-17063103D01*
X11705777Y-17063103D02*
X11686729Y-17072627D01*
X11981967Y-17015484D02*
X11886729Y-17015484D01*
X11886729Y-17015484D02*
X11877206Y-17110722D01*
X11877206Y-17110722D02*
X11886729Y-17101198D01*
X11886729Y-17101198D02*
X11905777Y-17091674D01*
X11905777Y-17091674D02*
X11953396Y-17091674D01*
X11953396Y-17091674D02*
X11972444Y-17101198D01*
X11972444Y-17101198D02*
X11981967Y-17110722D01*
X11981967Y-17110722D02*
X11991491Y-17129770D01*
X11991491Y-17129770D02*
X11991491Y-17177389D01*
X11991491Y-17177389D02*
X11981967Y-17196436D01*
X11981967Y-17196436D02*
X11972444Y-17205960D01*
X11972444Y-17205960D02*
X11953396Y-17215484D01*
X11953396Y-17215484D02*
X11905777Y-17215484D01*
X11905777Y-17215484D02*
X11886729Y-17205960D01*
X11886729Y-17205960D02*
X11877206Y-17196436D01*
X12058158Y-17015484D02*
X12191491Y-17015484D01*
X12191491Y-17015484D02*
X12105777Y-17215484D01*
X12362920Y-17015484D02*
X12267682Y-17015484D01*
X12267682Y-17015484D02*
X12258158Y-17110722D01*
X12258158Y-17110722D02*
X12267682Y-17101198D01*
X12267682Y-17101198D02*
X12286729Y-17091674D01*
X12286729Y-17091674D02*
X12334348Y-17091674D01*
X12334348Y-17091674D02*
X12353396Y-17101198D01*
X12353396Y-17101198D02*
X12362920Y-17110722D01*
X12362920Y-17110722D02*
X12372444Y-17129770D01*
X12372444Y-17129770D02*
X12372444Y-17177389D01*
X12372444Y-17177389D02*
X12362920Y-17196436D01*
X12362920Y-17196436D02*
X12353396Y-17205960D01*
X12353396Y-17205960D02*
X12334348Y-17215484D01*
X12334348Y-17215484D02*
X12286729Y-17215484D01*
X12286729Y-17215484D02*
X12267682Y-17205960D01*
X12267682Y-17205960D02*
X12258158Y-17196436D01*
X12448634Y-17015484D02*
X12448634Y-17053579D01*
X12524825Y-17015484D02*
X12524825Y-17053579D01*
X12820063Y-17291674D02*
X12810539Y-17282150D01*
X12810539Y-17282150D02*
X12791491Y-17253579D01*
X12791491Y-17253579D02*
X12781968Y-17234531D01*
X12781968Y-17234531D02*
X12772444Y-17205960D01*
X12772444Y-17205960D02*
X12762920Y-17158341D01*
X12762920Y-17158341D02*
X12762920Y-17120246D01*
X12762920Y-17120246D02*
X12772444Y-17072627D01*
X12772444Y-17072627D02*
X12781968Y-17044055D01*
X12781968Y-17044055D02*
X12791491Y-17025008D01*
X12791491Y-17025008D02*
X12810539Y-16996436D01*
X12810539Y-16996436D02*
X12820063Y-16986912D01*
X12991491Y-17015484D02*
X12896253Y-17015484D01*
X12896253Y-17015484D02*
X12886729Y-17110722D01*
X12886729Y-17110722D02*
X12896253Y-17101198D01*
X12896253Y-17101198D02*
X12915301Y-17091674D01*
X12915301Y-17091674D02*
X12962920Y-17091674D01*
X12962920Y-17091674D02*
X12981968Y-17101198D01*
X12981968Y-17101198D02*
X12991491Y-17110722D01*
X12991491Y-17110722D02*
X13001015Y-17129770D01*
X13001015Y-17129770D02*
X13001015Y-17177389D01*
X13001015Y-17177389D02*
X12991491Y-17196436D01*
X12991491Y-17196436D02*
X12981968Y-17205960D01*
X12981968Y-17205960D02*
X12962920Y-17215484D01*
X12962920Y-17215484D02*
X12915301Y-17215484D01*
X12915301Y-17215484D02*
X12896253Y-17205960D01*
X12896253Y-17205960D02*
X12886729Y-17196436D01*
X13239110Y-17215484D02*
X13239110Y-17015484D01*
X13324825Y-17215484D02*
X13324825Y-17110722D01*
X13324825Y-17110722D02*
X13315301Y-17091674D01*
X13315301Y-17091674D02*
X13296253Y-17082150D01*
X13296253Y-17082150D02*
X13267682Y-17082150D01*
X13267682Y-17082150D02*
X13248634Y-17091674D01*
X13248634Y-17091674D02*
X13239110Y-17101198D01*
X13448634Y-17215484D02*
X13429587Y-17205960D01*
X13429587Y-17205960D02*
X13420063Y-17196436D01*
X13420063Y-17196436D02*
X13410539Y-17177389D01*
X13410539Y-17177389D02*
X13410539Y-17120246D01*
X13410539Y-17120246D02*
X13420063Y-17101198D01*
X13420063Y-17101198D02*
X13429587Y-17091674D01*
X13429587Y-17091674D02*
X13448634Y-17082150D01*
X13448634Y-17082150D02*
X13477206Y-17082150D01*
X13477206Y-17082150D02*
X13496253Y-17091674D01*
X13496253Y-17091674D02*
X13505777Y-17101198D01*
X13505777Y-17101198D02*
X13515301Y-17120246D01*
X13515301Y-17120246D02*
X13515301Y-17177389D01*
X13515301Y-17177389D02*
X13505777Y-17196436D01*
X13505777Y-17196436D02*
X13496253Y-17205960D01*
X13496253Y-17205960D02*
X13477206Y-17215484D01*
X13477206Y-17215484D02*
X13448634Y-17215484D01*
X13629587Y-17215484D02*
X13610539Y-17205960D01*
X13610539Y-17205960D02*
X13601015Y-17186912D01*
X13601015Y-17186912D02*
X13601015Y-17015484D01*
X13781968Y-17205960D02*
X13762920Y-17215484D01*
X13762920Y-17215484D02*
X13724825Y-17215484D01*
X13724825Y-17215484D02*
X13705777Y-17205960D01*
X13705777Y-17205960D02*
X13696253Y-17186912D01*
X13696253Y-17186912D02*
X13696253Y-17110722D01*
X13696253Y-17110722D02*
X13705777Y-17091674D01*
X13705777Y-17091674D02*
X13724825Y-17082150D01*
X13724825Y-17082150D02*
X13762920Y-17082150D01*
X13762920Y-17082150D02*
X13781968Y-17091674D01*
X13781968Y-17091674D02*
X13791491Y-17110722D01*
X13791491Y-17110722D02*
X13791491Y-17129770D01*
X13791491Y-17129770D02*
X13696253Y-17148817D01*
X13867682Y-17205960D02*
X13886730Y-17215484D01*
X13886730Y-17215484D02*
X13924825Y-17215484D01*
X13924825Y-17215484D02*
X13943872Y-17205960D01*
X13943872Y-17205960D02*
X13953396Y-17186912D01*
X13953396Y-17186912D02*
X13953396Y-17177389D01*
X13953396Y-17177389D02*
X13943872Y-17158341D01*
X13943872Y-17158341D02*
X13924825Y-17148817D01*
X13924825Y-17148817D02*
X13896253Y-17148817D01*
X13896253Y-17148817D02*
X13877206Y-17139293D01*
X13877206Y-17139293D02*
X13867682Y-17120246D01*
X13867682Y-17120246D02*
X13867682Y-17110722D01*
X13867682Y-17110722D02*
X13877206Y-17091674D01*
X13877206Y-17091674D02*
X13896253Y-17082150D01*
X13896253Y-17082150D02*
X13924825Y-17082150D01*
X13924825Y-17082150D02*
X13943872Y-17091674D01*
X14020063Y-17291674D02*
X14029587Y-17282150D01*
X14029587Y-17282150D02*
X14048634Y-17253579D01*
X14048634Y-17253579D02*
X14058158Y-17234531D01*
X14058158Y-17234531D02*
X14067682Y-17205960D01*
X14067682Y-17205960D02*
X14077206Y-17158341D01*
X14077206Y-17158341D02*
X14077206Y-17120246D01*
X14077206Y-17120246D02*
X14067682Y-17072627D01*
X14067682Y-17072627D02*
X14058158Y-17044055D01*
X14058158Y-17044055D02*
X14048634Y-17025008D01*
X14048634Y-17025008D02*
X14029587Y-16996436D01*
X14029587Y-16996436D02*
X14020063Y-16986912D01*
X14381968Y-17291674D02*
X14372444Y-17282150D01*
X14372444Y-17282150D02*
X14353396Y-17253579D01*
X14353396Y-17253579D02*
X14343872Y-17234531D01*
X14343872Y-17234531D02*
X14334349Y-17205960D01*
X14334349Y-17205960D02*
X14324825Y-17158341D01*
X14324825Y-17158341D02*
X14324825Y-17120246D01*
X14324825Y-17120246D02*
X14334349Y-17072627D01*
X14334349Y-17072627D02*
X14343872Y-17044055D01*
X14343872Y-17044055D02*
X14353396Y-17025008D01*
X14353396Y-17025008D02*
X14372444Y-16996436D01*
X14372444Y-16996436D02*
X14381968Y-16986912D01*
X14458158Y-17082150D02*
X14458158Y-17215484D01*
X14458158Y-17101198D02*
X14467682Y-17091674D01*
X14467682Y-17091674D02*
X14486730Y-17082150D01*
X14486730Y-17082150D02*
X14515301Y-17082150D01*
X14515301Y-17082150D02*
X14534349Y-17091674D01*
X14534349Y-17091674D02*
X14543872Y-17110722D01*
X14543872Y-17110722D02*
X14543872Y-17215484D01*
X14667682Y-17215484D02*
X14648634Y-17205960D01*
X14648634Y-17205960D02*
X14639111Y-17196436D01*
X14639111Y-17196436D02*
X14629587Y-17177389D01*
X14629587Y-17177389D02*
X14629587Y-17120246D01*
X14629587Y-17120246D02*
X14639111Y-17101198D01*
X14639111Y-17101198D02*
X14648634Y-17091674D01*
X14648634Y-17091674D02*
X14667682Y-17082150D01*
X14667682Y-17082150D02*
X14696253Y-17082150D01*
X14696253Y-17082150D02*
X14715301Y-17091674D01*
X14715301Y-17091674D02*
X14724825Y-17101198D01*
X14724825Y-17101198D02*
X14734349Y-17120246D01*
X14734349Y-17120246D02*
X14734349Y-17177389D01*
X14734349Y-17177389D02*
X14724825Y-17196436D01*
X14724825Y-17196436D02*
X14715301Y-17205960D01*
X14715301Y-17205960D02*
X14696253Y-17215484D01*
X14696253Y-17215484D02*
X14667682Y-17215484D01*
X14791492Y-17082150D02*
X14867682Y-17082150D01*
X14820063Y-17015484D02*
X14820063Y-17186912D01*
X14820063Y-17186912D02*
X14829587Y-17205960D01*
X14829587Y-17205960D02*
X14848634Y-17215484D01*
X14848634Y-17215484D02*
X14867682Y-17215484D01*
X15086730Y-17082150D02*
X15086730Y-17282150D01*
X15086730Y-17091674D02*
X15105777Y-17082150D01*
X15105777Y-17082150D02*
X15143873Y-17082150D01*
X15143873Y-17082150D02*
X15162920Y-17091674D01*
X15162920Y-17091674D02*
X15172444Y-17101198D01*
X15172444Y-17101198D02*
X15181968Y-17120246D01*
X15181968Y-17120246D02*
X15181968Y-17177389D01*
X15181968Y-17177389D02*
X15172444Y-17196436D01*
X15172444Y-17196436D02*
X15162920Y-17205960D01*
X15162920Y-17205960D02*
X15143873Y-17215484D01*
X15143873Y-17215484D02*
X15105777Y-17215484D01*
X15105777Y-17215484D02*
X15086730Y-17205960D01*
X15296253Y-17215484D02*
X15277206Y-17205960D01*
X15277206Y-17205960D02*
X15267682Y-17186912D01*
X15267682Y-17186912D02*
X15267682Y-17015484D01*
X15458158Y-17215484D02*
X15458158Y-17110722D01*
X15458158Y-17110722D02*
X15448634Y-17091674D01*
X15448634Y-17091674D02*
X15429587Y-17082150D01*
X15429587Y-17082150D02*
X15391492Y-17082150D01*
X15391492Y-17082150D02*
X15372444Y-17091674D01*
X15458158Y-17205960D02*
X15439111Y-17215484D01*
X15439111Y-17215484D02*
X15391492Y-17215484D01*
X15391492Y-17215484D02*
X15372444Y-17205960D01*
X15372444Y-17205960D02*
X15362920Y-17186912D01*
X15362920Y-17186912D02*
X15362920Y-17167865D01*
X15362920Y-17167865D02*
X15372444Y-17148817D01*
X15372444Y-17148817D02*
X15391492Y-17139293D01*
X15391492Y-17139293D02*
X15439111Y-17139293D01*
X15439111Y-17139293D02*
X15458158Y-17129770D01*
X15524825Y-17082150D02*
X15601015Y-17082150D01*
X15553396Y-17015484D02*
X15553396Y-17186912D01*
X15553396Y-17186912D02*
X15562920Y-17205960D01*
X15562920Y-17205960D02*
X15581968Y-17215484D01*
X15581968Y-17215484D02*
X15601015Y-17215484D01*
X15743873Y-17205960D02*
X15724825Y-17215484D01*
X15724825Y-17215484D02*
X15686730Y-17215484D01*
X15686730Y-17215484D02*
X15667682Y-17205960D01*
X15667682Y-17205960D02*
X15658158Y-17186912D01*
X15658158Y-17186912D02*
X15658158Y-17110722D01*
X15658158Y-17110722D02*
X15667682Y-17091674D01*
X15667682Y-17091674D02*
X15686730Y-17082150D01*
X15686730Y-17082150D02*
X15724825Y-17082150D01*
X15724825Y-17082150D02*
X15743873Y-17091674D01*
X15743873Y-17091674D02*
X15753396Y-17110722D01*
X15753396Y-17110722D02*
X15753396Y-17129770D01*
X15753396Y-17129770D02*
X15658158Y-17148817D01*
X15924825Y-17215484D02*
X15924825Y-17015484D01*
X15924825Y-17205960D02*
X15905777Y-17215484D01*
X15905777Y-17215484D02*
X15867682Y-17215484D01*
X15867682Y-17215484D02*
X15848634Y-17205960D01*
X15848634Y-17205960D02*
X15839111Y-17196436D01*
X15839111Y-17196436D02*
X15829587Y-17177389D01*
X15829587Y-17177389D02*
X15829587Y-17120246D01*
X15829587Y-17120246D02*
X15839111Y-17101198D01*
X15839111Y-17101198D02*
X15848634Y-17091674D01*
X15848634Y-17091674D02*
X15867682Y-17082150D01*
X15867682Y-17082150D02*
X15905777Y-17082150D01*
X15905777Y-17082150D02*
X15924825Y-17091674D01*
X16001015Y-17291674D02*
X16010539Y-17282150D01*
X16010539Y-17282150D02*
X16029587Y-17253579D01*
X16029587Y-17253579D02*
X16039111Y-17234531D01*
X16039111Y-17234531D02*
X16048634Y-17205960D01*
X16048634Y-17205960D02*
X16058158Y-17158341D01*
X16058158Y-17158341D02*
X16058158Y-17120246D01*
X16058158Y-17120246D02*
X16048634Y-17072627D01*
X16048634Y-17072627D02*
X16039111Y-17044055D01*
X16039111Y-17044055D02*
X16029587Y-17025008D01*
X16029587Y-17025008D02*
X16010539Y-16996436D01*
X16010539Y-16996436D02*
X16001015Y-16986912D01*
M02*
