M48
; DRILL file KiCad 10.0.5 date 2026-08-27T00:57:08
; FORMAT={-:-/ absolute / metric / decimal}
; #@! TF.CreationDate,2026-08-27T00:57:08+09:00
; #@! TF.GenerationSoftware,Kicad,Pcbnew,10.0.5
; #@! TF.FileFunction,Plated,1,2,PTH
FMAT,2
METRIC
; #@! TA.AperFunction,Plated,PTH,ComponentDrill
T1C0.200
; #@! TA.AperFunction,Plated,PTH,ViaDrill
T2C0.300
; #@! TA.AperFunction,Plated,PTH,ViaDrill
T3C0.400
; #@! TA.AperFunction,Plated,PTH,ComponentDrill
T4C0.600
; #@! TA.AperFunction,Plated,PTH,ComponentDrill
T5C1.000
%
G90
G05
T1
X106.31Y-100.8
X106.31Y-102.2
X107.01Y-100.1
X107.01Y-101.5
X107.01Y-102.9
X107.71Y-100.8
X107.71Y-102.2
X108.41Y-100.1
X108.41Y-101.5
X108.41Y-102.9
X109.11Y-100.8
X109.11Y-102.2
T2
X99.782Y-67.04
X102.115Y-123.123
X102.734Y-96.4
X103.997Y-144.07
X104.077Y-121.166
X104.935Y-100.035
X104.988Y-102.133
X105.375Y-146.92
X105.687Y-90.4
X106.181Y-122.043
X109.375Y-98.788
X109.429Y-97.958
X111.593Y-125.44
X111.918Y-79.499
X112.055Y-92.63
X113.414Y-96.237
X115.089Y-101.981
X116.133Y-81.225
X116.461Y-106.042
X118.012Y-111.101
X119.089Y-119.6
X120.451Y-78.72
X120.765Y-122.19
X121.631Y-127.659
X123.437Y-101.792
X124.067Y-126.219
X124.225Y-97.299
X126.356Y-67.04
X126.742Y-96.24
X126.91Y-60.631
X127.109Y-64.875
X129.158Y-103.541
X129.309Y-105.002
X130.418Y-60.191
X131.227Y-60.482
X140.444Y-77.634
X141.12Y-61.198
X141.12Y-64.12
X144.072Y-67.04
X145.615Y-65.646
X149.127Y-60.358
X149.978Y-61.2
X149.978Y-146.145
X155.883Y-146.145
X156.5Y-144.0
X161.812Y-93.32
X161.812Y-96.24
X167.694Y-105.0
X169.999Y-101.808
X176.552Y-151.72
T3
X147.0Y-66.0
T5
X118.22Y-146.0
X120.76Y-146.0
X123.3Y-146.0
X125.84Y-146.0
X128.38Y-146.0
X128.5Y-89.0
X130.92Y-146.0
X131.04Y-89.0
X133.46Y-146.0
X133.58Y-89.0
X136.0Y-146.0
X136.12Y-89.0
X149.92Y-144.0
X152.46Y-144.0
X155.0Y-144.0
X171.5Y-98.0
X171.5Y-100.54
X171.5Y-103.08
X171.5Y-105.62
X171.5Y-108.16
T4
X124.18Y-57.95G85X124.18Y-58.55
G05
X124.18Y-61.88G85X124.18Y-62.98
G05
X132.82Y-57.95G85X132.82Y-58.55
G05
X132.82Y-61.88G85X132.82Y-62.98
G05
M30
