%TF.GenerationSoftware,KiCad,Pcbnew,10.0.5*%
%TF.CreationDate,2026-08-27T00:57:08+09:00*%
%TF.ProjectId,OdytsseySwitch,4f647974-7373-4657-9953-77697463682e,rev?*%
%TF.SameCoordinates,Original*%
%TF.FileFunction,Copper,L1,Top*%
%TF.FilePolarity,Positive*%
%FSLAX46Y46*%
G04 Gerber Fmt 4.6, Leading zero omitted, Abs format (unit mm)*
G04 Created by KiCad (PCBNEW 10.0.5) date 2026-08-27 00:57:08*
%MOMM*%
%LPD*%
G01*
G04 APERTURE LIST*
%TA.AperFunction,ComponentPad*%
%ADD10R,1.700000X1.700000*%
%TD*%
%TA.AperFunction,ComponentPad*%
%ADD11C,1.700000*%
%TD*%
%TA.AperFunction,ComponentPad*%
%ADD12O,1.000000X1.600000*%
%TD*%
%TA.AperFunction,ComponentPad*%
%ADD13O,1.000000X2.100000*%
%TD*%
%TA.AperFunction,ComponentPad*%
%ADD14C,0.600000*%
%TD*%
%TA.AperFunction,ViaPad*%
%ADD15C,0.600000*%
%TD*%
%TA.AperFunction,ViaPad*%
%ADD16C,0.800000*%
%TD*%
%TA.AperFunction,Conductor*%
%ADD17C,0.300000*%
%TD*%
%TA.AperFunction,Conductor*%
%ADD18C,0.200000*%
%TD*%
%TA.AperFunction,Conductor*%
%ADD19C,0.500000*%
%TD*%
G04 APERTURE END LIST*
D10*
%TO.P,J2,1,Pin_1_1*%
%TO.N,GND*%
X128500000Y-89000000D03*
D11*
%TO.P,J2,2,Pin_2_2*%
%TO.N,+3V3*%
X131040000Y-89000000D03*
%TO.P,J2,3,Pin_3_3*%
%TO.N,/OLED_SCL*%
X133580000Y-89000000D03*
%TO.P,J2,4,Pin_4_4*%
%TO.N,/OLED_SDA*%
X136120000Y-89000000D03*
%TD*%
D10*
%TO.P,J7,1,Pin_1_1*%
%TO.N,GND*%
X171500000Y-98000000D03*
D11*
%TO.P,J7,2,Pin_2_2*%
%TO.N,+3V3*%
X171500000Y-100540000D03*
%TO.P,J7,3,Pin_3_3*%
%TO.N,/JOY_VRX*%
X171500000Y-103080000D03*
%TO.P,J7,4,Pin_4_4*%
%TO.N,/JOY_VRY*%
X171500000Y-105620000D03*
%TO.P,J7,5,Pin_5_5*%
%TO.N,/JOY_SW*%
X171500000Y-108160000D03*
%TD*%
D10*
%TO.P,J5,1,Pin_1_1*%
%TO.N,VBUS*%
X155000000Y-144000000D03*
D11*
%TO.P,J5,2,Pin_2_2*%
%TO.N,/RGB_DIN*%
X152460000Y-144000000D03*
%TO.P,J5,3,Pin_3_3*%
%TO.N,GND*%
X149920000Y-144000000D03*
%TD*%
D12*
%TO.P,J1,SH,SHIELD_SH*%
%TO.N,GND*%
X124180000Y-58250000D03*
D13*
X124180000Y-62429999D03*
D12*
X132820000Y-58250001D03*
D13*
X132820000Y-62430000D03*
%TD*%
D10*
%TO.P,J6,1,Pin_1_1*%
%TO.N,+3V3*%
X136000000Y-146000000D03*
D11*
%TO.P,J6,2,Pin_2_2*%
%TO.N,GND*%
X133460000Y-146000000D03*
%TO.P,J6,3,Pin_3_3*%
%TO.N,/UART_TX*%
X130920000Y-146000000D03*
%TO.P,J6,4,Pin_4_4*%
%TO.N,/UART_RX*%
X128380000Y-146000000D03*
%TO.P,J6,5,Pin_5_5*%
%TO.N,/EXP_GPIO10*%
X125840000Y-146000000D03*
%TO.P,J6,6,Pin_6_6*%
%TO.N,/EXP_GPIO11*%
X123300000Y-146000000D03*
%TO.P,J6,7,Pin_7_7*%
%TO.N,/EXP_GPIO12*%
X120760000Y-146000000D03*
%TO.P,J6,8,Pin_8_8*%
%TO.N,/EXP_GPIO13*%
X118220000Y-146000000D03*
%TD*%
D14*
%TO.P,U1,41,GND_41*%
%TO.N,GND*%
X107009998Y-100100000D03*
X108409998Y-100100001D03*
X106309998Y-100800000D03*
X109109998Y-100800001D03*
X107709998Y-100800001D03*
X108409999Y-101500001D03*
X107009998Y-101500001D03*
X109110000Y-102200001D03*
X107710000Y-102200001D03*
X106309999Y-102200001D03*
X108410000Y-102900001D03*
X107010000Y-102900001D03*
%TD*%
D15*
%TO.N,GND*%
X124225000Y-97299038D03*
X124067000Y-126219038D03*
X103997296Y-144069616D03*
%TO.N,+3V3*%
X102734500Y-96400000D03*
X161812500Y-96240000D03*
X123436700Y-101792100D03*
X105375000Y-146920000D03*
X176552000Y-151720000D03*
%TO.N,/OLED_SDA*%
X129308800Y-105001600D03*
X116460800Y-106042500D03*
%TO.N,/CC2*%
X131227400Y-60482500D03*
X149977700Y-61200000D03*
%TO.N,/KEY3*%
X140444100Y-77633600D03*
X111918200Y-79498800D03*
%TO.N,/JOY_SW*%
X112055000Y-92630000D03*
X161812500Y-93320000D03*
D16*
%TO.N,VBUS*%
X147000000Y-66000000D03*
D15*
X99781800Y-67040000D03*
X126356100Y-67040000D03*
X145614600Y-65646000D03*
X156500000Y-144000000D03*
%TO.N,/RGB_DIN*%
X155883100Y-146145000D03*
%TO.N,/CC1*%
X149127400Y-60357900D03*
X126910400Y-60630800D03*
%TO.N,/USBC_DP*%
X141119600Y-64120000D03*
X127108600Y-64875100D03*
%TO.N,/USBC_DM*%
X141119600Y-61198400D03*
X130417600Y-60191000D03*
%TO.N,/USB_DP_MCU*%
X120450700Y-78720000D03*
X144072300Y-67040000D03*
%TO.N,/JOY_VRY*%
X167693900Y-105000000D03*
X104988200Y-102132800D03*
%TO.N,/RGB_DIN_MCU*%
X119088700Y-119600000D03*
X149977700Y-146145000D03*
%TO.N,/BOOT_N*%
X111592600Y-125440000D03*
X102114900Y-123123200D03*
%TO.N,/KEY5*%
X129158000Y-103541200D03*
X109429100Y-97958000D03*
%TO.N,/UART_RX*%
X106180700Y-122042800D03*
%TO.N,/EXP_GPIO11*%
X121631100Y-127659000D03*
X120765000Y-122190200D03*
%TO.N,/EXP_GPIO13*%
X104076600Y-121166000D03*
X115088800Y-101981200D03*
%TO.N,/LED_CTRL*%
X126741700Y-96240000D03*
X113414500Y-96236800D03*
%TO.N,/KEY2*%
X116132600Y-81225300D03*
X105687200Y-90400000D03*
%TO.N,/KEY4*%
X109375200Y-98787900D03*
X118012200Y-111101100D03*
%TO.N,/JOY_VRX*%
X104935400Y-100035000D03*
X169999300Y-101808400D03*
%TD*%
%TO.N,GND*%
D17*
X124817000Y-124920000D02*
X124067000Y-126219038D01*
%TO.N,+3V3*%
D18*
X176552000Y-151720000D02*
X142871700Y-151720000D01*
X171500000Y-100540000D02*
X163738500Y-100540000D01*
X133911400Y-147224800D02*
X105679800Y-147224800D01*
X115201400Y-96878300D02*
X103212800Y-96878300D01*
X126638800Y-98590000D02*
X123436700Y-101792100D01*
X103212800Y-96878300D02*
X102734500Y-96400000D01*
X142871700Y-151720000D02*
X137151700Y-146000000D01*
X136000000Y-146000000D02*
X137151700Y-146000000D01*
X134848300Y-146287900D02*
X133911400Y-147224800D01*
X136000000Y-146000000D02*
X134848300Y-146000000D01*
X105679800Y-147224800D02*
X105375000Y-146920000D01*
X123436700Y-101792100D02*
X120115200Y-101792100D01*
X161788500Y-98590000D02*
X126638800Y-98590000D01*
X161788500Y-96264000D02*
X161812500Y-96240000D01*
X161788500Y-98590000D02*
X161788500Y-96264000D01*
X120115200Y-101792100D02*
X115201400Y-96878300D01*
X134848300Y-146000000D02*
X134848300Y-146287900D01*
X163738500Y-100540000D02*
X161788500Y-98590000D01*
%TO.N,/OLED_SDA*%
X128267900Y-106042500D02*
X129308800Y-105001600D01*
X116460800Y-106042500D02*
X128267900Y-106042500D01*
%TO.N,/CC2*%
X131227400Y-60482500D02*
X138330900Y-60482500D01*
X138330900Y-60482500D02*
X139651500Y-61803100D01*
X139651500Y-61803100D02*
X149374600Y-61803100D01*
X149374600Y-61803100D02*
X149977700Y-61200000D01*
%TO.N,/KEY3*%
X138013000Y-80064700D02*
X112484100Y-80064700D01*
X140444100Y-77633600D02*
X138013000Y-80064700D01*
X112484100Y-80064700D02*
X111918200Y-79498800D01*
%TO.N,/JOY_SW*%
X112055000Y-92630000D02*
X161122500Y-92630000D01*
X161122500Y-92630000D02*
X161812500Y-93320000D01*
%TO.N,VBUS*%
X127750100Y-65646000D02*
X126356100Y-67040000D01*
D19*
X156500000Y-144000000D02*
X200000000Y-144000000D01*
D18*
X126356100Y-67040000D02*
X99781800Y-67040000D01*
X145614600Y-65646000D02*
X127750100Y-65646000D01*
D19*
X200000000Y-66000000D02*
X147000000Y-66000000D01*
X200000000Y-144000000D02*
X200000000Y-66000000D01*
%TO.N,/RGB_DIN*%
D18*
X152460000Y-144000000D02*
X154605000Y-146145000D01*
X154605000Y-146145000D02*
X155883100Y-146145000D01*
%TO.N,/CC1*%
X128122000Y-59419200D02*
X148188700Y-59419200D01*
X126910400Y-60630800D02*
X128122000Y-59419200D01*
X148188700Y-59419200D02*
X149127400Y-60357900D01*
%TO.N,/USBC_DP*%
X127863700Y-64120000D02*
X127108600Y-64875100D01*
X141119600Y-64120000D02*
X127863700Y-64120000D01*
%TO.N,/USBC_DM*%
X130760200Y-59848400D02*
X139769600Y-59848400D01*
X139769600Y-59848400D02*
X141119600Y-61198400D01*
X130417600Y-60191000D02*
X130760200Y-59848400D01*
%TO.N,/USB_DP_MCU*%
X129660100Y-67040000D02*
X120450700Y-76249400D01*
X144072300Y-67040000D02*
X129660100Y-67040000D01*
X120450700Y-76249400D02*
X120450700Y-78720000D01*
%TO.N,/JOY_VRY*%
X109357300Y-103509500D02*
X106364900Y-103509500D01*
X167693900Y-105000000D02*
X167073900Y-104380000D01*
X106364900Y-103509500D02*
X104988200Y-102132800D01*
X118338800Y-104380000D02*
X115314900Y-101356100D01*
X111510700Y-101356100D02*
X109357300Y-103509500D01*
X167073900Y-104380000D02*
X118338800Y-104380000D01*
X171500000Y-105620000D02*
X168313900Y-105620000D01*
X168313900Y-105620000D02*
X167693900Y-105000000D01*
X115314900Y-101356100D02*
X111510700Y-101356100D01*
%TO.N,/RGB_DIN_MCU*%
X120474400Y-119600000D02*
X119088700Y-119600000D01*
X147019400Y-146145000D02*
X120474400Y-119600000D01*
X149977700Y-146145000D02*
X147019400Y-146145000D01*
%TO.N,/BOOT_N*%
X102970300Y-123123200D02*
X104663900Y-121429600D01*
X104663900Y-121429600D02*
X107582200Y-121429600D01*
X107582200Y-121429600D02*
X111592600Y-125440000D01*
X102114900Y-123123200D02*
X102970300Y-123123200D01*
%TO.N,/KEY5*%
X112655800Y-97958000D02*
X118239000Y-103541200D01*
X109429100Y-97958000D02*
X112655800Y-97958000D01*
X118239000Y-103541200D02*
X129158000Y-103541200D01*
%TO.N,/UART_RX*%
X106180700Y-124316800D02*
X127863900Y-146000000D01*
X106180700Y-122042800D02*
X106180700Y-124316800D01*
X127863900Y-146000000D02*
X128380000Y-146000000D01*
%TO.N,/EXP_GPIO11*%
X120765000Y-122190200D02*
X119434900Y-123520300D01*
X121317100Y-127659000D02*
X121631100Y-127659000D01*
X119434900Y-125776800D02*
X121317100Y-127659000D01*
X119434900Y-123520300D02*
X119434900Y-125776800D01*
%TO.N,/EXP_GPIO13*%
X112699200Y-112543400D02*
X117466900Y-112543400D01*
X115089200Y-101980800D02*
X115088800Y-101981200D01*
X115090800Y-107210700D02*
X115090800Y-101980800D01*
X118638700Y-110758600D02*
X115090800Y-107210700D01*
X117466900Y-112543400D02*
X118638700Y-111371600D01*
X115090800Y-101980800D02*
X115089200Y-101980800D01*
X118638700Y-111371600D02*
X118638700Y-110758600D01*
X104076600Y-121166000D02*
X112699200Y-112543400D01*
%TO.N,/LED_CTRL*%
X113414500Y-96236900D02*
X113414500Y-96236800D01*
X126738600Y-96236900D02*
X113414500Y-96236900D01*
X126741700Y-96240000D02*
X126738600Y-96236900D01*
%TO.N,/KEY2*%
X116132600Y-81225300D02*
X114861900Y-81225300D01*
X114861900Y-81225300D02*
X105687200Y-90400000D01*
%TO.N,/KEY4*%
X118012200Y-111101100D02*
X113091500Y-111101100D01*
X107405200Y-98787900D02*
X109375200Y-98787900D01*
X113091500Y-111101100D02*
X104337000Y-102346600D01*
X104337000Y-102346600D02*
X104337000Y-101856100D01*
X104337000Y-101856100D02*
X107405200Y-98787900D01*
%TO.N,/JOY_VRX*%
X120065400Y-102393900D02*
X114989800Y-97318300D01*
X169413800Y-102393900D02*
X120065400Y-102393900D01*
X114989800Y-97318300D02*
X107652100Y-97318300D01*
X107652100Y-97318300D02*
X104935400Y-100035000D01*
X171500000Y-103080000D02*
X171270900Y-103080000D01*
X171270900Y-103080000D02*
X169999300Y-101808400D01*
X169999300Y-101808400D02*
X169413800Y-102393900D01*
%TD*%
%TA.AperFunction,Conductor*%
%TO.N,GND*%
G36*
X112507090Y-98377407D02*
G01*
X112518903Y-98387496D01*
X114918003Y-100786596D01*
X114945780Y-100841113D01*
X114936209Y-100901545D01*
X114892944Y-100944810D01*
X114847999Y-100955600D01*
X111457973Y-100955600D01*
X111356113Y-100982893D01*
X111356112Y-100982893D01*
X111356110Y-100982894D01*
X111356109Y-100982894D01*
X111264789Y-101035618D01*
X109220403Y-103080004D01*
X109165886Y-103107781D01*
X109150399Y-103109000D01*
X106571801Y-103109000D01*
X106513610Y-103090093D01*
X106501797Y-103080004D01*
X105617696Y-102195903D01*
X105589919Y-102141386D01*
X105588700Y-102125899D01*
X105588700Y-102053744D01*
X105572531Y-101993400D01*
X105547777Y-101901016D01*
X105468720Y-101764084D01*
X105356916Y-101652280D01*
X105341517Y-101643389D01*
X105310343Y-101625391D01*
X105269403Y-101579921D01*
X105263008Y-101519071D01*
X105289838Y-101469653D01*
X107542097Y-99217396D01*
X107596614Y-99189619D01*
X107612101Y-99188400D01*
X108885456Y-99188400D01*
X108943647Y-99207307D01*
X108955459Y-99217396D01*
X109006481Y-99268417D01*
X109006484Y-99268420D01*
X109143416Y-99347477D01*
X109296143Y-99388400D01*
X109296145Y-99388400D01*
X109454255Y-99388400D01*
X109454257Y-99388400D01*
X109606984Y-99347477D01*
X109743916Y-99268420D01*
X109855720Y-99156616D01*
X109934777Y-99019684D01*
X109975700Y-98866957D01*
X109975700Y-98708843D01*
X109934777Y-98556116D01*
X109906419Y-98506999D01*
X109893698Y-98447152D01*
X109918585Y-98391256D01*
X109971573Y-98360663D01*
X109992156Y-98358500D01*
X112448899Y-98358500D01*
X112507090Y-98377407D01*
G37*
%TD.AperFunction*%
%TA.AperFunction,Conductor*%
G36*
X201502992Y-54500681D02*
G01*
X201795310Y-54518362D01*
X201807165Y-54519802D01*
X202092281Y-54572051D01*
X202103883Y-54574911D01*
X202380623Y-54661147D01*
X202391786Y-54665380D01*
X202656117Y-54784346D01*
X202656119Y-54784347D01*
X202666702Y-54789902D01*
X202914758Y-54939856D01*
X202924583Y-54946638D01*
X203152755Y-55125399D01*
X203161704Y-55133326D01*
X203366673Y-55338295D01*
X203374599Y-55347243D01*
X203495481Y-55501538D01*
X203553356Y-55575409D01*
X203560147Y-55585248D01*
X203710096Y-55833295D01*
X203715652Y-55843880D01*
X203834616Y-56108206D01*
X203838855Y-56119384D01*
X203925087Y-56396113D01*
X203927948Y-56407721D01*
X203980196Y-56692827D01*
X203981637Y-56704694D01*
X203999319Y-56997006D01*
X203999500Y-57002984D01*
X203999500Y-152997015D01*
X203999319Y-153002993D01*
X203981637Y-153295304D01*
X203980196Y-153307171D01*
X203927948Y-153592277D01*
X203925087Y-153603885D01*
X203838855Y-153880615D01*
X203834616Y-153891793D01*
X203715652Y-154156118D01*
X203710096Y-154166703D01*
X203560142Y-154414758D01*
X203553356Y-154424590D01*
X203374599Y-154652755D01*
X203366672Y-154661704D01*
X203161704Y-154866672D01*
X203152755Y-154874599D01*
X202924590Y-155053356D01*
X202914758Y-155060142D01*
X202677212Y-155203744D01*
X202666703Y-155210097D01*
X202656118Y-155215652D01*
X202391793Y-155334616D01*
X202380615Y-155338855D01*
X202103885Y-155425087D01*
X202092277Y-155427948D01*
X201807171Y-155480196D01*
X201795304Y-155481637D01*
X201523993Y-155498048D01*
X201502991Y-155499319D01*
X201497015Y-155499500D01*
X95502985Y-155499500D01*
X95497008Y-155499319D01*
X95473822Y-155497916D01*
X95204694Y-155481637D01*
X95192827Y-155480196D01*
X94907721Y-155427948D01*
X94896113Y-155425087D01*
X94619384Y-155338855D01*
X94608206Y-155334616D01*
X94343880Y-155215652D01*
X94333295Y-155210096D01*
X94172942Y-155113160D01*
X94085245Y-155060145D01*
X94075413Y-155053358D01*
X93847243Y-154874599D01*
X93838295Y-154866673D01*
X93633326Y-154661704D01*
X93625399Y-154652755D01*
X93446638Y-154424583D01*
X93439856Y-154414758D01*
X93289902Y-154166703D01*
X93284347Y-154156119D01*
X93165383Y-153891793D01*
X93161147Y-153880623D01*
X93074911Y-153603883D01*
X93072051Y-153592278D01*
X93019803Y-153307172D01*
X93018362Y-153295304D01*
X93000681Y-153002992D01*
X93000500Y-152997015D01*
X93000500Y-127098999D01*
X93019407Y-127040808D01*
X93068907Y-127004844D01*
X93099499Y-126999999D01*
X98500002Y-127000000D01*
X98500002Y-123044143D01*
X101514400Y-123044143D01*
X101514400Y-123202257D01*
X101555323Y-123354984D01*
X101634380Y-123491916D01*
X101746184Y-123603720D01*
X101883116Y-123682777D01*
X102035843Y-123723700D01*
X102035845Y-123723700D01*
X102193955Y-123723700D01*
X102193957Y-123723700D01*
X102346684Y-123682777D01*
X102483616Y-123603720D01*
X102509129Y-123578206D01*
X102534641Y-123552696D01*
X102589158Y-123524919D01*
X102604644Y-123523700D01*
X103023025Y-123523700D01*
X103023027Y-123523700D01*
X103124888Y-123496407D01*
X103124890Y-123496405D01*
X103124892Y-123496405D01*
X103216208Y-123443683D01*
X103216208Y-123443682D01*
X103216213Y-123443680D01*
X104800797Y-121859096D01*
X104855314Y-121831319D01*
X104870801Y-121830100D01*
X105486990Y-121830100D01*
X105545181Y-121849007D01*
X105581145Y-121898507D01*
X105582617Y-121954721D01*
X105580200Y-121963740D01*
X105580200Y-121963743D01*
X105580200Y-122121857D01*
X105621123Y-122274584D01*
X105700180Y-122411516D01*
X105751205Y-122462541D01*
X105778981Y-122517056D01*
X105780200Y-122532543D01*
X105780200Y-124264073D01*
X105780200Y-124369527D01*
X105804270Y-124459359D01*
X105807494Y-124471392D01*
X105860216Y-124562708D01*
X105860218Y-124562710D01*
X105860220Y-124562713D01*
X124147008Y-142849500D01*
X125978004Y-144680496D01*
X126005781Y-144735013D01*
X125996210Y-144795445D01*
X125952945Y-144838710D01*
X125908000Y-144849500D01*
X125749451Y-144849500D01*
X125570593Y-144877828D01*
X125398362Y-144933788D01*
X125237008Y-145016002D01*
X125227700Y-145022765D01*
X125090499Y-145122447D01*
X124962447Y-145250499D01*
X124951922Y-145264986D01*
X124856002Y-145397008D01*
X124773788Y-145558362D01*
X124717828Y-145730593D01*
X124689500Y-145909450D01*
X124689500Y-146090549D01*
X124717828Y-146269406D01*
X124773788Y-146441637D01*
X124836742Y-146565192D01*
X124856004Y-146602994D01*
X124902587Y-146667111D01*
X124921494Y-146725300D01*
X124902587Y-146783491D01*
X124853087Y-146819455D01*
X124822494Y-146824300D01*
X124317506Y-146824300D01*
X124259315Y-146805393D01*
X124223351Y-146755893D01*
X124223351Y-146694707D01*
X124237410Y-146667113D01*
X124283996Y-146602994D01*
X124366211Y-146441639D01*
X124422171Y-146269409D01*
X124450500Y-146090546D01*
X124450500Y-145909454D01*
X124450500Y-145909450D01*
X124422171Y-145730593D01*
X124422171Y-145730591D01*
X124366211Y-145558361D01*
X124283996Y-145397006D01*
X124177553Y-145250499D01*
X124049501Y-145122447D01*
X123902994Y-145016004D01*
X123902993Y-145016003D01*
X123902991Y-145016002D01*
X123741637Y-144933788D01*
X123569406Y-144877828D01*
X123390549Y-144849500D01*
X123390546Y-144849500D01*
X123209454Y-144849500D01*
X123209451Y-144849500D01*
X123030593Y-144877828D01*
X122858362Y-144933788D01*
X122697008Y-145016002D01*
X122687700Y-145022765D01*
X122550499Y-145122447D01*
X122422447Y-145250499D01*
X122411922Y-145264986D01*
X122316002Y-145397008D01*
X122233788Y-145558362D01*
X122177828Y-145730593D01*
X122149500Y-145909450D01*
X122149500Y-146090549D01*
X122177828Y-146269406D01*
X122233788Y-146441637D01*
X122296742Y-146565192D01*
X122316004Y-146602994D01*
X122362587Y-146667111D01*
X122381494Y-146725300D01*
X122362587Y-146783491D01*
X122313087Y-146819455D01*
X122282494Y-146824300D01*
X121777506Y-146824300D01*
X121719315Y-146805393D01*
X121683351Y-146755893D01*
X121683351Y-146694707D01*
X121697410Y-146667113D01*
X121743996Y-146602994D01*
X121826211Y-146441639D01*
X121882171Y-146269409D01*
X121910500Y-146090546D01*
X121910500Y-145909454D01*
X121910500Y-145909450D01*
X121882171Y-145730593D01*
X121882171Y-145730591D01*
X121826211Y-145558361D01*
X121743996Y-145397006D01*
X121637553Y-145250499D01*
X121509501Y-145122447D01*
X121362994Y-145016004D01*
X121362993Y-145016003D01*
X121362991Y-145016002D01*
X121201637Y-144933788D01*
X121029406Y-144877828D01*
X120850549Y-144849500D01*
X120850546Y-144849500D01*
X120669454Y-144849500D01*
X120669451Y-144849500D01*
X120490593Y-144877828D01*
X120318362Y-144933788D01*
X120157008Y-145016002D01*
X120147700Y-145022765D01*
X120010499Y-145122447D01*
X119882447Y-145250499D01*
X119871922Y-145264986D01*
X119776002Y-145397008D01*
X119693788Y-145558362D01*
X119637828Y-145730593D01*
X119609500Y-145909450D01*
X119609500Y-146090549D01*
X119637828Y-146269406D01*
X119693788Y-146441637D01*
X119756742Y-146565192D01*
X119776004Y-146602994D01*
X119822587Y-146667111D01*
X119841494Y-146725300D01*
X119822587Y-146783491D01*
X119773087Y-146819455D01*
X119742494Y-146824300D01*
X119237506Y-146824300D01*
X119179315Y-146805393D01*
X119143351Y-146755893D01*
X119143351Y-146694707D01*
X119157410Y-146667113D01*
X119203996Y-146602994D01*
X119286211Y-146441639D01*
X119342171Y-146269409D01*
X119370500Y-146090546D01*
X119370500Y-145909454D01*
X119370500Y-145909450D01*
X119342171Y-145730593D01*
X119342171Y-145730591D01*
X119286211Y-145558361D01*
X119203996Y-145397006D01*
X119097553Y-145250499D01*
X118969501Y-145122447D01*
X118822994Y-145016004D01*
X118822993Y-145016003D01*
X118822991Y-145016002D01*
X118661637Y-144933788D01*
X118489406Y-144877828D01*
X118310549Y-144849500D01*
X118310546Y-144849500D01*
X118129454Y-144849500D01*
X118129451Y-144849500D01*
X117950593Y-144877828D01*
X117778362Y-144933788D01*
X117617008Y-145016002D01*
X117607700Y-145022765D01*
X117470499Y-145122447D01*
X117342447Y-145250499D01*
X117331922Y-145264986D01*
X117236002Y-145397008D01*
X117153788Y-145558362D01*
X117097828Y-145730593D01*
X117069500Y-145909450D01*
X117069500Y-146090549D01*
X117097828Y-146269406D01*
X117153788Y-146441637D01*
X117216742Y-146565192D01*
X117236004Y-146602994D01*
X117282587Y-146667111D01*
X117301494Y-146725300D01*
X117282587Y-146783491D01*
X117233087Y-146819455D01*
X117202494Y-146824300D01*
X106047006Y-146824300D01*
X105988815Y-146805393D01*
X105952851Y-146755893D01*
X105951379Y-146750923D01*
X105946897Y-146734196D01*
X105934577Y-146688216D01*
X105855520Y-146551284D01*
X105743716Y-146439480D01*
X105606784Y-146360423D01*
X105454057Y-146319500D01*
X105295943Y-146319500D01*
X105143216Y-146360423D01*
X105006284Y-146439480D01*
X104894480Y-146551284D01*
X104815423Y-146688216D01*
X104774500Y-146840943D01*
X104774500Y-146999057D01*
X104815423Y-147151784D01*
X104894480Y-147288716D01*
X105006284Y-147400520D01*
X105143216Y-147479577D01*
X105295943Y-147520500D01*
X105368100Y-147520500D01*
X105426291Y-147539407D01*
X105428662Y-147541432D01*
X105428741Y-147541331D01*
X105433891Y-147545283D01*
X105525208Y-147598005D01*
X105525206Y-147598005D01*
X105525210Y-147598006D01*
X105525212Y-147598007D01*
X105627073Y-147625300D01*
X105627075Y-147625300D01*
X133964125Y-147625300D01*
X133964127Y-147625300D01*
X134065988Y-147598007D01*
X134065990Y-147598005D01*
X134065992Y-147598005D01*
X134157308Y-147545283D01*
X134157308Y-147545282D01*
X134157313Y-147545280D01*
X134728839Y-146973751D01*
X134783354Y-146945975D01*
X134843786Y-146955546D01*
X134887051Y-146998811D01*
X134889405Y-147003766D01*
X134897794Y-147022765D01*
X134977235Y-147102206D01*
X135080009Y-147147585D01*
X135105135Y-147150500D01*
X136894864Y-147150499D01*
X136919991Y-147147585D01*
X137022765Y-147102206D01*
X137102206Y-147022765D01*
X137147585Y-146919991D01*
X137150500Y-146894865D01*
X137150499Y-146804198D01*
X137169406Y-146746010D01*
X137218905Y-146710046D01*
X137280091Y-146710045D01*
X137319503Y-146734196D01*
X142551218Y-151965910D01*
X142551220Y-151965913D01*
X142625787Y-152040480D01*
X142656341Y-152058120D01*
X142695082Y-152080488D01*
X142695085Y-152080489D01*
X142717113Y-152093207D01*
X142818970Y-152120500D01*
X142818972Y-152120501D01*
X142818973Y-152120501D01*
X142930490Y-152120501D01*
X142930506Y-152120500D01*
X176062256Y-152120500D01*
X176120447Y-152139407D01*
X176132259Y-152149496D01*
X176183281Y-152200517D01*
X176183284Y-152200520D01*
X176320216Y-152279577D01*
X176472943Y-152320500D01*
X176472945Y-152320500D01*
X176631055Y-152320500D01*
X176631057Y-152320500D01*
X176783784Y-152279577D01*
X176920716Y-152200520D01*
X177032520Y-152088716D01*
X177111577Y-151951784D01*
X177152500Y-151799057D01*
X177152500Y-151640943D01*
X177111577Y-151488216D01*
X177032520Y-151351284D01*
X176920716Y-151239480D01*
X176783784Y-151160423D01*
X176631057Y-151119500D01*
X176472943Y-151119500D01*
X176320216Y-151160423D01*
X176183281Y-151239482D01*
X176132259Y-151290504D01*
X176077742Y-151318281D01*
X176062256Y-151319500D01*
X143078600Y-151319500D01*
X143020409Y-151300593D01*
X143008596Y-151290504D01*
X142837592Y-151119500D01*
X137397613Y-145679520D01*
X137397610Y-145679518D01*
X137397608Y-145679516D01*
X137306291Y-145626794D01*
X137306292Y-145626794D01*
X137223876Y-145604711D01*
X137172561Y-145571387D01*
X137150635Y-145514265D01*
X137150499Y-145509084D01*
X137150499Y-145105139D01*
X137150499Y-145105136D01*
X137147585Y-145080009D01*
X137102206Y-144977235D01*
X137022765Y-144897794D01*
X136919991Y-144852415D01*
X136919990Y-144852414D01*
X136919988Y-144852414D01*
X136894868Y-144849500D01*
X135105139Y-144849500D01*
X135105136Y-144849501D01*
X135080009Y-144852414D01*
X134977235Y-144897794D01*
X134897794Y-144977235D01*
X134852414Y-145080011D01*
X134849500Y-145105130D01*
X134849500Y-145509085D01*
X134830593Y-145567276D01*
X134781093Y-145603240D01*
X134776138Y-145604707D01*
X134693713Y-145626793D01*
X134693712Y-145626793D01*
X134693710Y-145626794D01*
X134693709Y-145626794D01*
X134602389Y-145679518D01*
X134527818Y-145754089D01*
X134473337Y-145848453D01*
X134427867Y-145889394D01*
X134367017Y-145895790D01*
X134314029Y-145865197D01*
X134290503Y-145818266D01*
X134277335Y-145752066D01*
X134213260Y-145597374D01*
X134120240Y-145458159D01*
X134001840Y-145339759D01*
X133862625Y-145246739D01*
X133707934Y-145182664D01*
X133543720Y-145150000D01*
X133376279Y-145150000D01*
X133212065Y-145182664D01*
X133057374Y-145246739D01*
X132918159Y-145339759D01*
X132799759Y-145458159D01*
X132706739Y-145597374D01*
X132642664Y-145752065D01*
X132610000Y-145916279D01*
X132610000Y-146083720D01*
X132642664Y-146247934D01*
X132706739Y-146402625D01*
X132799759Y-146541840D01*
X132913215Y-146655296D01*
X132940992Y-146709813D01*
X132931421Y-146770245D01*
X132888156Y-146813510D01*
X132843211Y-146824300D01*
X131937506Y-146824300D01*
X131879315Y-146805393D01*
X131843351Y-146755893D01*
X131843351Y-146694707D01*
X131857410Y-146667113D01*
X131903996Y-146602994D01*
X131986211Y-146441639D01*
X132042171Y-146269409D01*
X132070500Y-146090546D01*
X132070500Y-145909454D01*
X132070500Y-145909450D01*
X132042171Y-145730593D01*
X132042171Y-145730591D01*
X131986211Y-145558361D01*
X131903996Y-145397006D01*
X131797553Y-145250499D01*
X131669501Y-145122447D01*
X131522994Y-145016004D01*
X131522993Y-145016003D01*
X131522991Y-145016002D01*
X131361637Y-144933788D01*
X131189406Y-144877828D01*
X131010549Y-144849500D01*
X131010546Y-144849500D01*
X130829454Y-144849500D01*
X130829451Y-144849500D01*
X130650593Y-144877828D01*
X130478362Y-144933788D01*
X130317008Y-145016002D01*
X130307700Y-145022765D01*
X130170499Y-145122447D01*
X130042447Y-145250499D01*
X130031922Y-145264986D01*
X129936002Y-145397008D01*
X129853788Y-145558362D01*
X129797828Y-145730593D01*
X129769500Y-145909450D01*
X129769500Y-146090549D01*
X129797828Y-146269406D01*
X129853788Y-146441637D01*
X129916742Y-146565192D01*
X129936004Y-146602994D01*
X129982587Y-146667111D01*
X130001494Y-146725300D01*
X129982587Y-146783491D01*
X129933087Y-146819455D01*
X129902494Y-146824300D01*
X129397506Y-146824300D01*
X129339315Y-146805393D01*
X129303351Y-146755893D01*
X129303351Y-146694707D01*
X129317410Y-146667113D01*
X129363996Y-146602994D01*
X129446211Y-146441639D01*
X129502171Y-146269409D01*
X129530500Y-146090546D01*
X129530500Y-145909454D01*
X129530500Y-145909450D01*
X129502171Y-145730593D01*
X129502171Y-145730591D01*
X129446211Y-145558361D01*
X129363996Y-145397006D01*
X129257553Y-145250499D01*
X129129501Y-145122447D01*
X128982994Y-145016004D01*
X128982993Y-145016003D01*
X128982991Y-145016002D01*
X128821637Y-144933788D01*
X128649406Y-144877828D01*
X128470549Y-144849500D01*
X128470546Y-144849500D01*
X128289454Y-144849500D01*
X128289451Y-144849500D01*
X128110593Y-144877828D01*
X127938362Y-144933788D01*
X127777006Y-145016003D01*
X127777002Y-145016006D01*
X127653866Y-145105468D01*
X127595675Y-145124375D01*
X127537484Y-145105467D01*
X127525672Y-145095379D01*
X113724075Y-131293783D01*
X113696298Y-131239266D01*
X113705869Y-131178834D01*
X113749134Y-131135569D01*
X113802386Y-131127135D01*
X113802539Y-131125195D01*
X113806417Y-131125500D01*
X113806421Y-131125500D01*
X113983582Y-131125500D01*
X114071067Y-131111643D01*
X114158555Y-131097786D01*
X114327042Y-131043042D01*
X114484890Y-130962614D01*
X114628214Y-130858483D01*
X114753483Y-130733214D01*
X114857614Y-130589890D01*
X114938042Y-130432042D01*
X114992786Y-130263555D01*
X115013565Y-130132366D01*
X115020500Y-130088582D01*
X115020500Y-129911417D01*
X115013107Y-129864740D01*
X115011167Y-129852493D01*
X116724500Y-129852493D01*
X116724500Y-130147506D01*
X116759936Y-130416671D01*
X116763007Y-130439993D01*
X116821470Y-130658183D01*
X116839361Y-130724953D01*
X116952253Y-130997499D01*
X116952255Y-130997503D01*
X116952257Y-130997507D01*
X117056946Y-131178834D01*
X117099764Y-131252997D01*
X117279348Y-131487035D01*
X117279350Y-131487037D01*
X117279354Y-131487042D01*
X117487958Y-131695646D01*
X117487962Y-131695649D01*
X117487964Y-131695651D01*
X117722002Y-131875235D01*
X117722006Y-131875238D01*
X117977493Y-132022743D01*
X118250048Y-132135639D01*
X118535007Y-132211993D01*
X118827494Y-132250500D01*
X118827495Y-132250500D01*
X119122505Y-132250500D01*
X119122506Y-132250500D01*
X119414993Y-132211993D01*
X119699952Y-132135639D01*
X119972507Y-132022743D01*
X120227994Y-131875238D01*
X120462042Y-131695646D01*
X120670646Y-131487042D01*
X120850238Y-131252994D01*
X120997743Y-130997507D01*
X121110639Y-130724952D01*
X121186993Y-130439993D01*
X121225500Y-130147506D01*
X121225500Y-129911417D01*
X122929500Y-129911417D01*
X122929500Y-130088582D01*
X122957213Y-130263552D01*
X123006963Y-130416671D01*
X123011958Y-130432042D01*
X123092386Y-130589890D01*
X123196517Y-130733214D01*
X123321786Y-130858483D01*
X123465110Y-130962614D01*
X123622958Y-131043042D01*
X123791445Y-131097786D01*
X123861435Y-131108871D01*
X123966418Y-131125500D01*
X123966421Y-131125500D01*
X124143582Y-131125500D01*
X124231067Y-131111643D01*
X124318555Y-131097786D01*
X124487042Y-131043042D01*
X124644890Y-130962614D01*
X124788214Y-130858483D01*
X124913483Y-130733214D01*
X125017614Y-130589890D01*
X125098042Y-130432042D01*
X125152786Y-130263555D01*
X125173565Y-130132366D01*
X125180500Y-130088582D01*
X125180500Y-129911417D01*
X125152786Y-129736447D01*
X125152786Y-129736445D01*
X125098042Y-129567958D01*
X125017614Y-129410110D01*
X124913483Y-129266786D01*
X124788214Y-129141517D01*
X124644890Y-129037386D01*
X124644889Y-129037385D01*
X124644887Y-129037384D01*
X124487040Y-128956957D01*
X124318552Y-128902213D01*
X124143582Y-128874500D01*
X124143579Y-128874500D01*
X123966421Y-128874500D01*
X123966418Y-128874500D01*
X123791447Y-128902213D01*
X123622959Y-128956957D01*
X123465112Y-129037384D01*
X123321787Y-129141516D01*
X123196516Y-129266787D01*
X123092384Y-129410112D01*
X123011957Y-129567959D01*
X122957213Y-129736447D01*
X122929500Y-129911417D01*
X121225500Y-129911417D01*
X121225500Y-129852494D01*
X121186993Y-129560007D01*
X121110639Y-129275048D01*
X120997743Y-129002493D01*
X120850238Y-128747006D01*
X120762897Y-128633181D01*
X120670651Y-128512964D01*
X120670649Y-128512962D01*
X120670646Y-128512958D01*
X120462042Y-128304354D01*
X120462037Y-128304350D01*
X120462035Y-128304348D01*
X120227997Y-128124764D01*
X120227994Y-128124762D01*
X119972507Y-127977257D01*
X119972503Y-127977255D01*
X119972499Y-127977253D01*
X119699953Y-127864361D01*
X119633183Y-127846470D01*
X119414993Y-127788007D01*
X119414986Y-127788006D01*
X119122506Y-127749500D01*
X118827494Y-127749500D01*
X118827493Y-127749500D01*
X118535013Y-127788006D01*
X118535011Y-127788006D01*
X118535007Y-127788007D01*
X118383584Y-127828580D01*
X118250046Y-127864361D01*
X117977500Y-127977253D01*
X117722002Y-128124764D01*
X117487964Y-128304348D01*
X117279348Y-128512964D01*
X117099764Y-128747002D01*
X116952253Y-129002500D01*
X116839361Y-129275046D01*
X116827998Y-129317454D01*
X116763007Y-129560007D01*
X116763006Y-129560011D01*
X116763006Y-129560013D01*
X116724500Y-129852493D01*
X115011167Y-129852493D01*
X114992786Y-129736447D01*
X114992786Y-129736445D01*
X114938042Y-129567958D01*
X114857614Y-129410110D01*
X114832574Y-129375645D01*
X114813666Y-129317454D01*
X114832573Y-129259264D01*
X114882073Y-129223300D01*
X114925585Y-129219301D01*
X115048628Y-129235500D01*
X115048629Y-129235500D01*
X115281371Y-129235500D01*
X115281372Y-129235500D01*
X115512126Y-129205121D01*
X115736940Y-129144882D01*
X115951969Y-129055815D01*
X116153532Y-128939442D01*
X116338181Y-128797756D01*
X116502756Y-128633181D01*
X116644442Y-128448532D01*
X116760815Y-128246969D01*
X116849882Y-128031940D01*
X116910121Y-127807126D01*
X116940500Y-127576372D01*
X116940500Y-127343628D01*
X116910121Y-127112874D01*
X116849882Y-126888060D01*
X116760815Y-126673031D01*
X116751410Y-126656742D01*
X116644443Y-126471470D01*
X116644442Y-126471468D01*
X116502756Y-126286819D01*
X116338181Y-126122244D01*
X116338176Y-126122240D01*
X116338174Y-126122238D01*
X116213439Y-126026526D01*
X116153532Y-125980558D01*
X116153529Y-125980556D01*
X115951970Y-125864185D01*
X115951965Y-125864183D01*
X115736945Y-125775120D01*
X115736944Y-125775119D01*
X115736940Y-125775118D01*
X115512126Y-125714879D01*
X115512123Y-125714878D01*
X115512121Y-125714878D01*
X115281373Y-125684500D01*
X115281372Y-125684500D01*
X115048628Y-125684500D01*
X115048626Y-125684500D01*
X114817881Y-125714878D01*
X114817876Y-125714878D01*
X114593067Y-125775116D01*
X114593054Y-125775120D01*
X114378034Y-125864183D01*
X114378029Y-125864185D01*
X114176470Y-125980556D01*
X113991825Y-126122238D01*
X113827238Y-126286825D01*
X113685556Y-126471470D01*
X113569185Y-126673029D01*
X113569183Y-126673034D01*
X113480120Y-126888054D01*
X113480116Y-126888067D01*
X113419878Y-127112876D01*
X113419878Y-127112881D01*
X113389500Y-127343626D01*
X113389500Y-127576373D01*
X113419878Y-127807118D01*
X113419878Y-127807123D01*
X113480116Y-128031932D01*
X113480120Y-128031945D01*
X113569183Y-128246965D01*
X113569185Y-128246970D01*
X113685556Y-128448529D01*
X113827238Y-128633174D01*
X113827240Y-128633176D01*
X113827244Y-128633181D01*
X113899561Y-128705498D01*
X113927337Y-128760013D01*
X113917766Y-128820445D01*
X113874501Y-128863710D01*
X113829556Y-128874500D01*
X113806418Y-128874500D01*
X113631447Y-128902213D01*
X113462959Y-128956957D01*
X113305112Y-129037384D01*
X113161787Y-129141516D01*
X113036516Y-129266787D01*
X112932384Y-129410112D01*
X112851957Y-129567959D01*
X112797213Y-129736447D01*
X112769500Y-129911417D01*
X112769500Y-130088583D01*
X112769805Y-130092461D01*
X112767871Y-130092613D01*
X112759415Y-130145894D01*
X112716136Y-130189144D01*
X112655701Y-130198696D01*
X112601216Y-130170924D01*
X109608772Y-127178480D01*
X106610196Y-124179903D01*
X106582419Y-124125386D01*
X106581200Y-124109899D01*
X106581200Y-122532543D01*
X106600107Y-122474352D01*
X106610190Y-122462545D01*
X106661220Y-122411516D01*
X106740277Y-122274584D01*
X106781200Y-122121857D01*
X106781200Y-121963743D01*
X106778783Y-121954721D01*
X106781986Y-121893619D01*
X106820493Y-121846070D01*
X106874410Y-121830100D01*
X107375299Y-121830100D01*
X107433490Y-121849007D01*
X107445303Y-121859096D01*
X110963104Y-125376897D01*
X110990881Y-125431414D01*
X110992100Y-125446901D01*
X110992100Y-125519057D01*
X111033023Y-125671784D01*
X111112080Y-125808716D01*
X111223884Y-125920520D01*
X111360816Y-125999577D01*
X111513543Y-126040500D01*
X111513545Y-126040500D01*
X111671655Y-126040500D01*
X111671657Y-126040500D01*
X111824384Y-125999577D01*
X111961316Y-125920520D01*
X112073120Y-125808716D01*
X112152177Y-125671784D01*
X112193100Y-125519057D01*
X112193100Y-125360943D01*
X112152177Y-125208216D01*
X112073120Y-125071284D01*
X111961316Y-124959480D01*
X111824384Y-124880423D01*
X111671657Y-124839500D01*
X111671655Y-124839500D01*
X111599501Y-124839500D01*
X111541310Y-124820593D01*
X111529497Y-124810504D01*
X110250081Y-123531088D01*
X110186563Y-123467570D01*
X119034400Y-123467570D01*
X119034400Y-123467573D01*
X119034400Y-125724073D01*
X119034400Y-125829527D01*
X119055568Y-125908529D01*
X119061694Y-125931392D01*
X119114416Y-126022708D01*
X119114418Y-126022710D01*
X119114420Y-126022713D01*
X120996618Y-127904910D01*
X120996620Y-127904913D01*
X121071187Y-127979480D01*
X121116850Y-128005843D01*
X121133620Y-128015525D01*
X121154114Y-128031250D01*
X121262384Y-128139520D01*
X121399316Y-128218577D01*
X121552043Y-128259500D01*
X121552045Y-128259500D01*
X121710155Y-128259500D01*
X121710157Y-128259500D01*
X121862884Y-128218577D01*
X121999816Y-128139520D01*
X122111620Y-128027716D01*
X122190677Y-127890784D01*
X122231600Y-127738057D01*
X122231600Y-127579943D01*
X122190677Y-127427216D01*
X122111620Y-127290284D01*
X121999816Y-127178480D01*
X121862884Y-127099423D01*
X121710157Y-127058500D01*
X121552043Y-127058500D01*
X121399316Y-127099423D01*
X121399314Y-127099424D01*
X121395060Y-127100564D01*
X121333959Y-127097361D01*
X121299433Y-127074940D01*
X121049020Y-126824526D01*
X121021243Y-126770010D01*
X121030814Y-126709578D01*
X121074079Y-126666313D01*
X121134511Y-126656742D01*
X121144633Y-126658893D01*
X121167874Y-126665121D01*
X121398628Y-126695500D01*
X121398629Y-126695500D01*
X121631371Y-126695500D01*
X121631372Y-126695500D01*
X121862126Y-126665121D01*
X122086940Y-126604882D01*
X122301969Y-126515815D01*
X122503532Y-126399442D01*
X122688181Y-126257756D01*
X122852756Y-126093181D01*
X122994442Y-125908532D01*
X123110815Y-125706969D01*
X123199882Y-125491940D01*
X123260121Y-125267126D01*
X123290500Y-125036372D01*
X123290500Y-124803628D01*
X123260121Y-124572874D01*
X123199882Y-124348060D01*
X123110815Y-124133031D01*
X122994442Y-123931468D01*
X122852756Y-123746819D01*
X122688181Y-123582244D01*
X122688176Y-123582240D01*
X122688174Y-123582238D01*
X122538735Y-123467570D01*
X122503532Y-123440558D01*
X122373896Y-123365712D01*
X122301970Y-123324185D01*
X122301965Y-123324183D01*
X122086945Y-123235120D01*
X122086944Y-123235119D01*
X122086940Y-123235118D01*
X121862126Y-123174879D01*
X121862123Y-123174878D01*
X121862121Y-123174878D01*
X121631373Y-123144500D01*
X121631372Y-123144500D01*
X121398628Y-123144500D01*
X121398626Y-123144500D01*
X121167881Y-123174878D01*
X121167876Y-123174878D01*
X120943067Y-123235116D01*
X120943054Y-123235120D01*
X120728034Y-123324183D01*
X120728029Y-123324185D01*
X120526470Y-123440556D01*
X120341825Y-123582238D01*
X120177238Y-123746825D01*
X120035558Y-123931467D01*
X120020136Y-123958179D01*
X119974666Y-123999119D01*
X119913816Y-124005514D01*
X119860828Y-123974921D01*
X119835942Y-123919025D01*
X119835400Y-123908678D01*
X119835400Y-123727201D01*
X119854307Y-123669010D01*
X119864396Y-123657197D01*
X120701897Y-122819696D01*
X120756414Y-122791919D01*
X120771901Y-122790700D01*
X120844055Y-122790700D01*
X120844057Y-122790700D01*
X120996784Y-122749777D01*
X121133716Y-122670720D01*
X121245520Y-122558916D01*
X121324577Y-122421984D01*
X121365500Y-122269257D01*
X121365500Y-122111143D01*
X121324577Y-121958416D01*
X121245520Y-121821484D01*
X121133716Y-121709680D01*
X120996784Y-121630623D01*
X120844057Y-121589700D01*
X120685943Y-121589700D01*
X120533216Y-121630623D01*
X120396284Y-121709680D01*
X120284480Y-121821484D01*
X120205423Y-121958416D01*
X120164500Y-122111144D01*
X120164500Y-122183299D01*
X120145593Y-122241490D01*
X120135504Y-122253303D01*
X119114416Y-123274391D01*
X119061695Y-123365706D01*
X119061693Y-123365710D01*
X119061693Y-123365712D01*
X119040802Y-123443680D01*
X119040801Y-123443679D01*
X119034400Y-123467570D01*
X110186563Y-123467570D01*
X109130508Y-122411515D01*
X107828113Y-121109120D01*
X107828110Y-121109118D01*
X107828109Y-121109117D01*
X107828108Y-121109116D01*
X107736791Y-121056394D01*
X107736793Y-121056394D01*
X107697270Y-121045804D01*
X107634927Y-121029100D01*
X107634925Y-121029100D01*
X105018901Y-121029100D01*
X104960710Y-121010193D01*
X104924746Y-120960693D01*
X104924746Y-120899507D01*
X104948897Y-120860096D01*
X106288050Y-119520943D01*
X118488200Y-119520943D01*
X118488200Y-119679057D01*
X118529123Y-119831784D01*
X118608180Y-119968716D01*
X118719984Y-120080520D01*
X118856916Y-120159577D01*
X119009643Y-120200500D01*
X119009645Y-120200500D01*
X119167755Y-120200500D01*
X119167757Y-120200500D01*
X119320484Y-120159577D01*
X119457416Y-120080520D01*
X119482929Y-120055006D01*
X119508441Y-120029496D01*
X119562958Y-120001719D01*
X119578444Y-120000500D01*
X120267499Y-120000500D01*
X120325690Y-120019407D01*
X120337503Y-120029496D01*
X146773487Y-146465480D01*
X146773489Y-146465481D01*
X146773490Y-146465482D01*
X146773491Y-146465483D01*
X146864808Y-146518205D01*
X146864806Y-146518205D01*
X146864810Y-146518206D01*
X146864812Y-146518207D01*
X146966673Y-146545500D01*
X149487956Y-146545500D01*
X149546147Y-146564407D01*
X149557959Y-146574496D01*
X149586455Y-146602991D01*
X149608984Y-146625520D01*
X149745916Y-146704577D01*
X149898643Y-146745500D01*
X149898645Y-146745500D01*
X150056755Y-146745500D01*
X150056757Y-146745500D01*
X150209484Y-146704577D01*
X150346416Y-146625520D01*
X150458220Y-146513716D01*
X150537277Y-146376784D01*
X150578200Y-146224057D01*
X150578200Y-146065943D01*
X150537277Y-145913216D01*
X150458220Y-145776284D01*
X150346416Y-145664480D01*
X150209484Y-145585423D01*
X150056757Y-145544500D01*
X149898643Y-145544500D01*
X149745916Y-145585423D01*
X149663628Y-145632932D01*
X149608981Y-145664482D01*
X149557959Y-145715504D01*
X149503442Y-145743281D01*
X149487956Y-145744500D01*
X147226301Y-145744500D01*
X147168110Y-145725593D01*
X147156297Y-145715504D01*
X145357072Y-143916279D01*
X149070000Y-143916279D01*
X149070000Y-144083720D01*
X149102664Y-144247934D01*
X149166739Y-144402625D01*
X149259759Y-144541840D01*
X149378159Y-144660240D01*
X149517374Y-144753260D01*
X149672065Y-144817335D01*
X149836279Y-144849999D01*
X149836283Y-144850000D01*
X150003717Y-144850000D01*
X150003720Y-144849999D01*
X150167934Y-144817335D01*
X150322625Y-144753260D01*
X150461840Y-144660240D01*
X150580240Y-144541840D01*
X150673260Y-144402625D01*
X150737335Y-144247934D01*
X150769999Y-144083720D01*
X150770000Y-144083716D01*
X150770000Y-143916283D01*
X150769999Y-143916279D01*
X150737335Y-143752065D01*
X150673260Y-143597374D01*
X150580240Y-143458159D01*
X150461840Y-143339759D01*
X150322625Y-143246739D01*
X150167934Y-143182664D01*
X150003720Y-143150000D01*
X149836279Y-143150000D01*
X149672065Y-143182664D01*
X149517374Y-143246739D01*
X149378159Y-143339759D01*
X149259759Y-143458159D01*
X149166739Y-143597374D01*
X149102664Y-143752065D01*
X149070000Y-143916279D01*
X145357072Y-143916279D01*
X132727143Y-131286350D01*
X132699366Y-131231833D01*
X132708937Y-131171401D01*
X132752202Y-131128136D01*
X132812634Y-131118565D01*
X132812635Y-131118565D01*
X132856419Y-131125500D01*
X132856421Y-131125500D01*
X133033582Y-131125500D01*
X133121067Y-131111643D01*
X133208555Y-131097786D01*
X133377042Y-131043042D01*
X133534890Y-130962614D01*
X133678214Y-130858483D01*
X133803483Y-130733214D01*
X133907614Y-130589890D01*
X133988042Y-130432042D01*
X134042786Y-130263555D01*
X134063565Y-130132366D01*
X134070500Y-130088582D01*
X134070500Y-129911417D01*
X134063107Y-129864740D01*
X134061167Y-129852493D01*
X135774500Y-129852493D01*
X135774500Y-130147506D01*
X135809936Y-130416671D01*
X135813007Y-130439993D01*
X135871470Y-130658183D01*
X135889361Y-130724953D01*
X136002253Y-130997499D01*
X136002255Y-130997503D01*
X136002257Y-130997507D01*
X136106946Y-131178834D01*
X136149764Y-131252997D01*
X136329348Y-131487035D01*
X136329350Y-131487037D01*
X136329354Y-131487042D01*
X136537958Y-131695646D01*
X136537962Y-131695649D01*
X136537964Y-131695651D01*
X136772002Y-131875235D01*
X136772006Y-131875238D01*
X137027493Y-132022743D01*
X137300048Y-132135639D01*
X137585007Y-132211993D01*
X137877494Y-132250500D01*
X137877495Y-132250500D01*
X138172505Y-132250500D01*
X138172506Y-132250500D01*
X138464993Y-132211993D01*
X138749952Y-132135639D01*
X139022507Y-132022743D01*
X139277994Y-131875238D01*
X139512042Y-131695646D01*
X139720646Y-131487042D01*
X139900238Y-131252994D01*
X140047743Y-130997507D01*
X140160639Y-130724952D01*
X140236993Y-130439993D01*
X140275500Y-130147506D01*
X140275500Y-129911417D01*
X141979500Y-129911417D01*
X141979500Y-130088582D01*
X142007213Y-130263552D01*
X142056963Y-130416671D01*
X142061958Y-130432042D01*
X142142386Y-130589890D01*
X142246517Y-130733214D01*
X142371786Y-130858483D01*
X142515110Y-130962614D01*
X142672958Y-131043042D01*
X142841445Y-131097786D01*
X142911435Y-131108871D01*
X143016418Y-131125500D01*
X143016421Y-131125500D01*
X143193582Y-131125500D01*
X143281067Y-131111643D01*
X143368555Y-131097786D01*
X143537042Y-131043042D01*
X143694890Y-130962614D01*
X143838214Y-130858483D01*
X143963483Y-130733214D01*
X144067614Y-130589890D01*
X144148042Y-130432042D01*
X144202786Y-130263555D01*
X144223565Y-130132366D01*
X144230500Y-130088582D01*
X144230500Y-129911417D01*
X144202786Y-129736447D01*
X144202786Y-129736445D01*
X144148042Y-129567958D01*
X144067614Y-129410110D01*
X143963483Y-129266786D01*
X143838214Y-129141517D01*
X143694890Y-129037386D01*
X143694889Y-129037385D01*
X143694887Y-129037384D01*
X143537040Y-128956957D01*
X143368552Y-128902213D01*
X143193582Y-128874500D01*
X143193579Y-128874500D01*
X143016421Y-128874500D01*
X143016418Y-128874500D01*
X142841447Y-128902213D01*
X142672959Y-128956957D01*
X142515112Y-129037384D01*
X142371787Y-129141516D01*
X142246516Y-129266787D01*
X142142384Y-129410112D01*
X142061957Y-129567959D01*
X142007213Y-129736447D01*
X141979500Y-129911417D01*
X140275500Y-129911417D01*
X140275500Y-129852494D01*
X140236993Y-129560007D01*
X140160639Y-129275048D01*
X140047743Y-129002493D01*
X139900238Y-128747006D01*
X139812897Y-128633181D01*
X139720651Y-128512964D01*
X139720649Y-128512962D01*
X139720646Y-128512958D01*
X139512042Y-128304354D01*
X139512037Y-128304350D01*
X139512035Y-128304348D01*
X139277997Y-128124764D01*
X139277994Y-128124762D01*
X139022507Y-127977257D01*
X139022503Y-127977255D01*
X139022499Y-127977253D01*
X138749953Y-127864361D01*
X138683183Y-127846470D01*
X138464993Y-127788007D01*
X138464986Y-127788006D01*
X138172506Y-127749500D01*
X137877494Y-127749500D01*
X137877493Y-127749500D01*
X137585013Y-127788006D01*
X137585011Y-127788006D01*
X137585007Y-127788007D01*
X137433584Y-127828580D01*
X137300046Y-127864361D01*
X137027500Y-127977253D01*
X136772002Y-128124764D01*
X136537964Y-128304348D01*
X136329348Y-128512964D01*
X136149764Y-128747002D01*
X136002253Y-129002500D01*
X135889361Y-129275046D01*
X135877998Y-129317454D01*
X135813007Y-129560007D01*
X135813006Y-129560011D01*
X135813006Y-129560013D01*
X135774500Y-129852493D01*
X134061167Y-129852493D01*
X134042786Y-129736447D01*
X134042786Y-129736445D01*
X133988042Y-129567958D01*
X133907614Y-129410110D01*
X133882574Y-129375645D01*
X133863666Y-129317454D01*
X133882573Y-129259264D01*
X133932073Y-129223300D01*
X133975585Y-129219301D01*
X134098628Y-129235500D01*
X134098629Y-129235500D01*
X134331371Y-129235500D01*
X134331372Y-129235500D01*
X134562126Y-129205121D01*
X134786940Y-129144882D01*
X135001969Y-129055815D01*
X135203532Y-128939442D01*
X135388181Y-128797756D01*
X135552756Y-128633181D01*
X135694442Y-128448532D01*
X135810815Y-128246969D01*
X135899882Y-128031940D01*
X135960121Y-127807126D01*
X135990500Y-127576372D01*
X135990500Y-127343628D01*
X135960121Y-127112874D01*
X135899882Y-126888060D01*
X135810815Y-126673031D01*
X135801410Y-126656742D01*
X135694443Y-126471470D01*
X135694442Y-126471468D01*
X135552756Y-126286819D01*
X135388181Y-126122244D01*
X135388176Y-126122240D01*
X135388174Y-126122238D01*
X135263439Y-126026526D01*
X135203532Y-125980558D01*
X135203529Y-125980556D01*
X135001970Y-125864185D01*
X135001965Y-125864183D01*
X134786945Y-125775120D01*
X134786944Y-125775119D01*
X134786940Y-125775118D01*
X134562126Y-125714879D01*
X134562123Y-125714878D01*
X134562121Y-125714878D01*
X134331373Y-125684500D01*
X134331372Y-125684500D01*
X134098628Y-125684500D01*
X134098626Y-125684500D01*
X133867881Y-125714878D01*
X133867876Y-125714878D01*
X133643067Y-125775116D01*
X133643054Y-125775120D01*
X133428034Y-125864183D01*
X133428029Y-125864185D01*
X133226470Y-125980556D01*
X133041825Y-126122238D01*
X132877238Y-126286825D01*
X132735556Y-126471470D01*
X132619185Y-126673029D01*
X132619183Y-126673034D01*
X132530120Y-126888054D01*
X132530116Y-126888067D01*
X132469878Y-127112876D01*
X132469878Y-127112881D01*
X132439500Y-127343626D01*
X132439500Y-127576373D01*
X132469878Y-127807118D01*
X132469878Y-127807123D01*
X132530116Y-128031932D01*
X132530120Y-128031945D01*
X132619183Y-128246965D01*
X132619185Y-128246970D01*
X132735556Y-128448529D01*
X132877238Y-128633174D01*
X132877240Y-128633176D01*
X132877244Y-128633181D01*
X132949561Y-128705498D01*
X132977337Y-128760013D01*
X132967766Y-128820445D01*
X132924501Y-128863710D01*
X132879556Y-128874500D01*
X132856418Y-128874500D01*
X132681447Y-128902213D01*
X132512959Y-128956957D01*
X132355112Y-129037384D01*
X132211787Y-129141516D01*
X132086516Y-129266787D01*
X131982384Y-129410112D01*
X131901957Y-129567959D01*
X131847213Y-129736447D01*
X131819500Y-129911417D01*
X131819500Y-130088583D01*
X131819499Y-130088583D01*
X131826434Y-130132366D01*
X131816862Y-130192798D01*
X131773597Y-130236062D01*
X131713165Y-130245633D01*
X131658649Y-130217856D01*
X126311184Y-124870391D01*
X126244419Y-124803626D01*
X138789500Y-124803626D01*
X138789500Y-125036373D01*
X138819878Y-125267118D01*
X138819878Y-125267123D01*
X138880116Y-125491932D01*
X138880120Y-125491945D01*
X138969183Y-125706965D01*
X138969185Y-125706970D01*
X139085556Y-125908529D01*
X139227238Y-126093174D01*
X139227240Y-126093176D01*
X139227244Y-126093181D01*
X139391819Y-126257756D01*
X139391823Y-126257759D01*
X139391825Y-126257761D01*
X139470397Y-126318051D01*
X139576468Y-126399442D01*
X139778031Y-126515815D01*
X139993060Y-126604882D01*
X140217874Y-126665121D01*
X140448628Y-126695500D01*
X140448629Y-126695500D01*
X140681371Y-126695500D01*
X140681372Y-126695500D01*
X140912126Y-126665121D01*
X141136940Y-126604882D01*
X141351969Y-126515815D01*
X141553532Y-126399442D01*
X141738181Y-126257756D01*
X141902756Y-126093181D01*
X142044442Y-125908532D01*
X142160815Y-125706969D01*
X142249882Y-125491940D01*
X142310121Y-125267126D01*
X142340500Y-125036372D01*
X142340500Y-124803628D01*
X142310121Y-124572874D01*
X142249882Y-124348060D01*
X142160815Y-124133031D01*
X142044442Y-123931468D01*
X141902756Y-123746819D01*
X141738181Y-123582244D01*
X141738176Y-123582240D01*
X141738174Y-123582238D01*
X141588735Y-123467570D01*
X141553532Y-123440558D01*
X141423896Y-123365712D01*
X141351970Y-123324185D01*
X141351965Y-123324183D01*
X141136945Y-123235120D01*
X141136944Y-123235119D01*
X141136940Y-123235118D01*
X140912126Y-123174879D01*
X140912123Y-123174878D01*
X140912121Y-123174878D01*
X140681373Y-123144500D01*
X140681372Y-123144500D01*
X140448628Y-123144500D01*
X140448626Y-123144500D01*
X140217881Y-123174878D01*
X140217876Y-123174878D01*
X139993067Y-123235116D01*
X139993054Y-123235120D01*
X139778034Y-123324183D01*
X139778029Y-123324185D01*
X139576470Y-123440556D01*
X139391825Y-123582238D01*
X139227238Y-123746825D01*
X139085556Y-123931470D01*
X138969185Y-124133029D01*
X138969183Y-124133034D01*
X138880120Y-124348054D01*
X138880116Y-124348067D01*
X138819878Y-124572876D01*
X138819878Y-124572881D01*
X138789500Y-124803626D01*
X126244419Y-124803626D01*
X123551936Y-122111143D01*
X120720313Y-119279520D01*
X120720310Y-119279518D01*
X120720309Y-119279517D01*
X120720308Y-119279516D01*
X120628991Y-119226794D01*
X120628993Y-119226794D01*
X120589470Y-119216204D01*
X120527127Y-119199500D01*
X120527125Y-119199500D01*
X119578444Y-119199500D01*
X119520253Y-119180593D01*
X119508441Y-119170504D01*
X119457418Y-119119482D01*
X119457416Y-119119480D01*
X119320484Y-119040423D01*
X119167757Y-118999500D01*
X119009643Y-118999500D01*
X118856916Y-119040423D01*
X118719984Y-119119480D01*
X118608180Y-119231284D01*
X118529123Y-119368216D01*
X118488200Y-119520943D01*
X106288050Y-119520943D01*
X112836097Y-112972896D01*
X112890614Y-112945119D01*
X112906101Y-112943900D01*
X117519625Y-112943900D01*
X117519627Y-112943900D01*
X117621488Y-112916607D01*
X117621490Y-112916605D01*
X117621492Y-112916605D01*
X117712808Y-112863883D01*
X117712808Y-112863882D01*
X117712813Y-112863880D01*
X118959180Y-111617513D01*
X118989805Y-111564467D01*
X119011869Y-111526253D01*
X119011879Y-111526234D01*
X119011906Y-111526188D01*
X119011907Y-111526187D01*
X119039200Y-111424327D01*
X119039200Y-110705873D01*
X119011907Y-110604013D01*
X119011907Y-110604012D01*
X119011907Y-110604011D01*
X118959183Y-110512691D01*
X118959182Y-110512690D01*
X118959181Y-110512689D01*
X118959180Y-110512687D01*
X116515943Y-108069450D01*
X170349500Y-108069450D01*
X170349500Y-108250549D01*
X170377828Y-108429406D01*
X170377829Y-108429409D01*
X170433789Y-108601639D01*
X170516004Y-108762994D01*
X170622447Y-108909501D01*
X170750499Y-109037553D01*
X170897006Y-109143996D01*
X171058361Y-109226211D01*
X171230591Y-109282171D01*
X171302136Y-109293502D01*
X171409451Y-109310500D01*
X171409454Y-109310500D01*
X171590549Y-109310500D01*
X171679977Y-109296335D01*
X171769409Y-109282171D01*
X171941639Y-109226211D01*
X172102994Y-109143996D01*
X172249501Y-109037553D01*
X172377553Y-108909501D01*
X172483996Y-108762994D01*
X172566211Y-108601639D01*
X172622171Y-108429409D01*
X172650500Y-108250546D01*
X172650500Y-108069454D01*
X172650500Y-108069450D01*
X172622171Y-107890593D01*
X172622171Y-107890591D01*
X172566211Y-107718361D01*
X172483996Y-107557006D01*
X172377553Y-107410499D01*
X172249501Y-107282447D01*
X172102994Y-107176004D01*
X172102993Y-107176003D01*
X172102991Y-107176002D01*
X171941637Y-107093788D01*
X171769406Y-107037828D01*
X171590549Y-107009500D01*
X171590546Y-107009500D01*
X171409454Y-107009500D01*
X171409451Y-107009500D01*
X171230593Y-107037828D01*
X171058362Y-107093788D01*
X170897008Y-107176002D01*
X170823752Y-107229225D01*
X170750499Y-107282447D01*
X170622447Y-107410499D01*
X170569225Y-107483752D01*
X170516002Y-107557008D01*
X170433788Y-107718362D01*
X170377828Y-107890593D01*
X170349500Y-108069450D01*
X116515943Y-108069450D01*
X115520296Y-107073803D01*
X115492519Y-107019286D01*
X115491300Y-107003799D01*
X115491300Y-102468943D01*
X115510207Y-102410752D01*
X115520290Y-102398945D01*
X115569320Y-102349916D01*
X115569322Y-102349911D01*
X115569325Y-102349909D01*
X115573269Y-102344770D01*
X115574817Y-102345958D01*
X115613578Y-102311040D01*
X115674427Y-102304628D01*
X115723873Y-102331466D01*
X118018320Y-104625913D01*
X118018319Y-104625913D01*
X118092887Y-104700480D01*
X118184213Y-104753207D01*
X118286073Y-104780500D01*
X128617341Y-104780500D01*
X128675532Y-104799407D01*
X128711496Y-104848907D01*
X128712968Y-104905122D01*
X128708300Y-104922543D01*
X128708300Y-104994699D01*
X128689393Y-105052890D01*
X128679304Y-105064703D01*
X128131003Y-105613004D01*
X128076486Y-105640781D01*
X128060999Y-105642000D01*
X116950544Y-105642000D01*
X116892353Y-105623093D01*
X116880541Y-105613004D01*
X116829518Y-105561982D01*
X116829516Y-105561980D01*
X116692584Y-105482923D01*
X116539857Y-105442000D01*
X116381743Y-105442000D01*
X116229016Y-105482923D01*
X116092084Y-105561980D01*
X115980280Y-105673784D01*
X115901223Y-105810716D01*
X115860300Y-105963443D01*
X115860300Y-106121557D01*
X115901223Y-106274284D01*
X115980280Y-106411216D01*
X116092084Y-106523020D01*
X116229016Y-106602077D01*
X116381743Y-106643000D01*
X116381745Y-106643000D01*
X116539855Y-106643000D01*
X116539857Y-106643000D01*
X116692584Y-106602077D01*
X116829516Y-106523020D01*
X116855029Y-106497506D01*
X116880541Y-106471996D01*
X116935058Y-106444219D01*
X116950544Y-106443000D01*
X128320625Y-106443000D01*
X128320627Y-106443000D01*
X128422488Y-106415707D01*
X128422490Y-106415705D01*
X128422492Y-106415705D01*
X128513808Y-106362983D01*
X128513808Y-106362982D01*
X128513813Y-106362980D01*
X129245697Y-105631096D01*
X129300214Y-105603319D01*
X129315701Y-105602100D01*
X129387855Y-105602100D01*
X129387857Y-105602100D01*
X129540584Y-105561177D01*
X129677516Y-105482120D01*
X129789320Y-105370316D01*
X129868377Y-105233384D01*
X129909300Y-105080657D01*
X129909300Y-104922543D01*
X129904632Y-104905121D01*
X129907835Y-104844021D01*
X129946340Y-104796471D01*
X130000259Y-104780500D01*
X166866999Y-104780500D01*
X166925190Y-104799407D01*
X166937003Y-104809496D01*
X167064404Y-104936897D01*
X167092181Y-104991414D01*
X167093400Y-105006901D01*
X167093400Y-105079057D01*
X167134323Y-105231784D01*
X167213380Y-105368716D01*
X167325184Y-105480520D01*
X167462116Y-105559577D01*
X167614843Y-105600500D01*
X167686999Y-105600500D01*
X167745190Y-105619407D01*
X167757003Y-105629496D01*
X167993420Y-105865913D01*
X167993419Y-105865913D01*
X168067987Y-105940480D01*
X168159313Y-105993207D01*
X168261173Y-106020500D01*
X170352161Y-106020500D01*
X170410352Y-106039407D01*
X170440368Y-106074552D01*
X170516004Y-106222994D01*
X170622447Y-106369501D01*
X170750499Y-106497553D01*
X170897006Y-106603996D01*
X171058361Y-106686211D01*
X171230591Y-106742171D01*
X171302136Y-106753502D01*
X171409451Y-106770500D01*
X171409454Y-106770500D01*
X171590549Y-106770500D01*
X171679977Y-106756335D01*
X171769409Y-106742171D01*
X171941639Y-106686211D01*
X172102994Y-106603996D01*
X172249501Y-106497553D01*
X172377553Y-106369501D01*
X172483996Y-106222994D01*
X172566211Y-106061639D01*
X172622171Y-105889409D01*
X172650500Y-105710546D01*
X172650500Y-105529454D01*
X172650500Y-105529450D01*
X172625295Y-105370315D01*
X172622171Y-105350591D01*
X172566211Y-105178361D01*
X172483996Y-105017006D01*
X172377553Y-104870499D01*
X172249501Y-104742447D01*
X172102994Y-104636004D01*
X172102993Y-104636003D01*
X172102991Y-104636002D01*
X171941637Y-104553788D01*
X171769406Y-104497828D01*
X171590549Y-104469500D01*
X171590546Y-104469500D01*
X171409454Y-104469500D01*
X171409451Y-104469500D01*
X171230593Y-104497828D01*
X171058362Y-104553788D01*
X170897008Y-104636002D01*
X170823752Y-104689225D01*
X170750499Y-104742447D01*
X170622447Y-104870499D01*
X170585797Y-104920944D01*
X170516002Y-105017008D01*
X170506475Y-105035707D01*
X170440369Y-105165446D01*
X170397106Y-105208710D01*
X170352161Y-105219500D01*
X168520801Y-105219500D01*
X168462610Y-105200593D01*
X168450797Y-105190504D01*
X168323396Y-105063103D01*
X168295619Y-105008586D01*
X168294400Y-104993099D01*
X168294400Y-104920944D01*
X168294400Y-104920943D01*
X168253477Y-104768216D01*
X168174420Y-104631284D01*
X168062616Y-104519480D01*
X167925684Y-104440423D01*
X167772957Y-104399500D01*
X167772955Y-104399500D01*
X167700801Y-104399500D01*
X167642610Y-104380593D01*
X167630798Y-104370504D01*
X167319813Y-104059520D01*
X167319808Y-104059516D01*
X167228491Y-104006794D01*
X167228493Y-104006794D01*
X167188970Y-103996204D01*
X167126627Y-103979500D01*
X167126625Y-103979500D01*
X129769818Y-103979500D01*
X129711627Y-103960593D01*
X129675663Y-103911093D01*
X129675663Y-103849907D01*
X129684078Y-103831005D01*
X129717577Y-103772984D01*
X129758500Y-103620257D01*
X129758500Y-103462143D01*
X129717577Y-103309416D01*
X129638520Y-103172484D01*
X129526716Y-103060680D01*
X129389784Y-102981623D01*
X129389781Y-102981622D01*
X129385477Y-102979137D01*
X129344536Y-102933667D01*
X129338140Y-102872817D01*
X129368733Y-102819829D01*
X129424628Y-102794942D01*
X129434977Y-102794400D01*
X169466525Y-102794400D01*
X169466527Y-102794400D01*
X169568388Y-102767107D01*
X169568390Y-102767105D01*
X169568392Y-102767105D01*
X169659708Y-102714383D01*
X169659708Y-102714382D01*
X169659713Y-102714380D01*
X169929297Y-102444795D01*
X169983812Y-102417019D01*
X170044244Y-102426590D01*
X170069303Y-102444796D01*
X170349990Y-102725483D01*
X170377767Y-102780000D01*
X170377767Y-102810974D01*
X170349500Y-102989450D01*
X170349500Y-103170549D01*
X170377828Y-103349406D01*
X170433788Y-103521637D01*
X170484037Y-103620257D01*
X170516004Y-103682994D01*
X170622447Y-103829501D01*
X170750499Y-103957553D01*
X170897006Y-104063996D01*
X171058361Y-104146211D01*
X171230591Y-104202171D01*
X171302136Y-104213502D01*
X171409451Y-104230500D01*
X171409454Y-104230500D01*
X171590549Y-104230500D01*
X171679977Y-104216335D01*
X171769409Y-104202171D01*
X171941639Y-104146211D01*
X172102994Y-104063996D01*
X172249501Y-103957553D01*
X172377553Y-103829501D01*
X172483996Y-103682994D01*
X172566211Y-103521639D01*
X172622171Y-103349409D01*
X172636335Y-103259977D01*
X172650500Y-103170549D01*
X172650500Y-102989450D01*
X172622601Y-102813307D01*
X172622171Y-102810591D01*
X172566211Y-102638361D01*
X172483996Y-102477006D01*
X172377553Y-102330499D01*
X172249501Y-102202447D01*
X172102994Y-102096004D01*
X172102993Y-102096003D01*
X172102991Y-102096002D01*
X171941637Y-102013788D01*
X171769406Y-101957828D01*
X171590549Y-101929500D01*
X171590546Y-101929500D01*
X171409454Y-101929500D01*
X171409451Y-101929500D01*
X171230593Y-101957828D01*
X171058361Y-102013788D01*
X170932138Y-102078102D01*
X170871705Y-102087673D01*
X170817189Y-102059896D01*
X170628796Y-101871503D01*
X170601019Y-101816986D01*
X170599800Y-101801499D01*
X170599800Y-101729344D01*
X170599707Y-101728997D01*
X170558877Y-101576616D01*
X170479820Y-101439684D01*
X170368016Y-101327880D01*
X170231084Y-101248823D01*
X170078357Y-101207900D01*
X169920243Y-101207900D01*
X169828349Y-101232523D01*
X169767516Y-101248823D01*
X169630584Y-101327880D01*
X169518780Y-101439684D01*
X169439723Y-101576616D01*
X169398800Y-101729344D01*
X169398800Y-101801499D01*
X169379893Y-101859690D01*
X169369804Y-101871503D01*
X169276903Y-101964404D01*
X169222386Y-101992181D01*
X169206899Y-101993400D01*
X124133464Y-101993400D01*
X124075273Y-101974493D01*
X124039309Y-101924993D01*
X124038075Y-101877815D01*
X124036353Y-101877589D01*
X124037200Y-101871156D01*
X124037200Y-101799001D01*
X124056107Y-101740810D01*
X124066196Y-101728997D01*
X126775697Y-99019496D01*
X126830214Y-98991719D01*
X126845701Y-98990500D01*
X161581599Y-98990500D01*
X161639790Y-99009407D01*
X161651603Y-99019496D01*
X163418020Y-100785913D01*
X163418019Y-100785913D01*
X163473220Y-100841113D01*
X163492587Y-100860480D01*
X163583913Y-100913207D01*
X163685773Y-100940500D01*
X170352161Y-100940500D01*
X170410352Y-100959407D01*
X170440368Y-100994552D01*
X170516004Y-101142994D01*
X170622447Y-101289501D01*
X170750499Y-101417553D01*
X170897006Y-101523996D01*
X171058361Y-101606211D01*
X171230591Y-101662171D01*
X171302136Y-101673502D01*
X171409451Y-101690500D01*
X171409454Y-101690500D01*
X171590549Y-101690500D01*
X171679977Y-101676335D01*
X171769409Y-101662171D01*
X171941639Y-101606211D01*
X172102994Y-101523996D01*
X172249501Y-101417553D01*
X172377553Y-101289501D01*
X172483996Y-101142994D01*
X172566211Y-100981639D01*
X172622171Y-100809409D01*
X172636335Y-100719977D01*
X172650500Y-100630549D01*
X172650500Y-100449450D01*
X172622171Y-100270593D01*
X172622171Y-100270591D01*
X172566211Y-100098361D01*
X172483996Y-99937006D01*
X172377553Y-99790499D01*
X172249501Y-99662447D01*
X172102994Y-99556004D01*
X172102993Y-99556003D01*
X172102991Y-99556002D01*
X171941637Y-99473788D01*
X171769406Y-99417828D01*
X171590549Y-99389500D01*
X171590546Y-99389500D01*
X171409454Y-99389500D01*
X171409451Y-99389500D01*
X171230593Y-99417828D01*
X171058362Y-99473788D01*
X170897008Y-99556002D01*
X170823752Y-99609225D01*
X170750499Y-99662447D01*
X170622447Y-99790499D01*
X170613208Y-99803216D01*
X170516002Y-99937008D01*
X170483452Y-100000893D01*
X170440369Y-100085446D01*
X170397106Y-100128710D01*
X170352161Y-100139500D01*
X163945401Y-100139500D01*
X163887210Y-100120593D01*
X163875397Y-100110504D01*
X162217996Y-98453103D01*
X162190219Y-98398586D01*
X162189000Y-98383099D01*
X162189000Y-97150001D01*
X170650000Y-97150001D01*
X170650000Y-98849999D01*
X170650001Y-98850000D01*
X172349999Y-98850000D01*
X172350000Y-98849999D01*
X172350000Y-97150001D01*
X172349999Y-97150000D01*
X170650001Y-97150000D01*
X170650000Y-97150001D01*
X162189000Y-97150001D01*
X162189000Y-96753743D01*
X162207907Y-96695552D01*
X162217990Y-96683745D01*
X162293020Y-96608716D01*
X162372077Y-96471784D01*
X162413000Y-96319057D01*
X162413000Y-96160943D01*
X162372077Y-96008216D01*
X162293020Y-95871284D01*
X162181216Y-95759480D01*
X162044284Y-95680423D01*
X161891557Y-95639500D01*
X161733443Y-95639500D01*
X161580716Y-95680423D01*
X161443784Y-95759480D01*
X161331980Y-95871284D01*
X161252923Y-96008216D01*
X161212000Y-96160943D01*
X161212000Y-96319057D01*
X161252923Y-96471784D01*
X161331980Y-96608716D01*
X161359005Y-96635741D01*
X161386781Y-96690256D01*
X161388000Y-96705743D01*
X161388000Y-98090500D01*
X161369093Y-98148691D01*
X161319593Y-98184655D01*
X161289000Y-98189500D01*
X126691527Y-98189500D01*
X126586073Y-98189500D01*
X126523729Y-98206204D01*
X126484207Y-98216794D01*
X126392891Y-98269516D01*
X123499803Y-101162604D01*
X123445286Y-101190381D01*
X123429799Y-101191600D01*
X123357643Y-101191600D01*
X123204916Y-101232523D01*
X123106227Y-101289501D01*
X123067981Y-101311582D01*
X123016959Y-101362604D01*
X122962442Y-101390381D01*
X122946956Y-101391600D01*
X120322100Y-101391600D01*
X120263909Y-101372693D01*
X120252096Y-101362604D01*
X115695897Y-96806404D01*
X115668120Y-96751887D01*
X115677691Y-96691455D01*
X115720956Y-96648190D01*
X115765901Y-96637400D01*
X126248856Y-96637400D01*
X126307047Y-96656307D01*
X126318859Y-96666396D01*
X126348016Y-96695552D01*
X126372984Y-96720520D01*
X126509916Y-96799577D01*
X126662643Y-96840500D01*
X126662645Y-96840500D01*
X126820755Y-96840500D01*
X126820757Y-96840500D01*
X126973484Y-96799577D01*
X127110416Y-96720520D01*
X127222220Y-96608716D01*
X127301277Y-96471784D01*
X127342200Y-96319057D01*
X127342200Y-96160943D01*
X127301277Y-96008216D01*
X127222220Y-95871284D01*
X127110416Y-95759480D01*
X126973484Y-95680423D01*
X126820757Y-95639500D01*
X126662643Y-95639500D01*
X126509916Y-95680423D01*
X126378524Y-95756282D01*
X126372981Y-95759482D01*
X126325059Y-95807404D01*
X126270542Y-95835181D01*
X126255056Y-95836400D01*
X113904344Y-95836400D01*
X113846153Y-95817493D01*
X113834341Y-95807404D01*
X113783218Y-95756282D01*
X113783216Y-95756280D01*
X113646284Y-95677223D01*
X113493557Y-95636300D01*
X113335443Y-95636300D01*
X113182716Y-95677223D01*
X113045784Y-95756280D01*
X112933980Y-95868084D01*
X112854923Y-96005016D01*
X112814000Y-96157743D01*
X112814000Y-96315857D01*
X112815363Y-96320943D01*
X112824000Y-96353178D01*
X112820797Y-96414279D01*
X112782292Y-96461829D01*
X112728373Y-96477800D01*
X103434000Y-96477800D01*
X103375809Y-96458893D01*
X103339845Y-96409393D01*
X103335000Y-96378800D01*
X103335000Y-96320944D01*
X103335000Y-96320943D01*
X103294077Y-96168216D01*
X103215020Y-96031284D01*
X103103216Y-95919480D01*
X102966284Y-95840423D01*
X102813557Y-95799500D01*
X102655443Y-95799500D01*
X102502716Y-95840423D01*
X102365784Y-95919480D01*
X102253980Y-96031284D01*
X102174923Y-96168216D01*
X102134000Y-96320943D01*
X102134000Y-96479057D01*
X102174923Y-96631784D01*
X102253980Y-96768716D01*
X102365784Y-96880520D01*
X102502716Y-96959577D01*
X102655443Y-97000500D01*
X102727599Y-97000500D01*
X102785790Y-97019407D01*
X102797603Y-97029496D01*
X102892320Y-97124213D01*
X102892319Y-97124213D01*
X102966887Y-97198780D01*
X103058213Y-97251507D01*
X103160073Y-97278800D01*
X106886199Y-97278800D01*
X106944390Y-97297707D01*
X106980354Y-97347207D01*
X106980354Y-97408393D01*
X106956203Y-97447804D01*
X104998503Y-99405504D01*
X104943986Y-99433281D01*
X104928499Y-99434500D01*
X104856343Y-99434500D01*
X104703616Y-99475423D01*
X104566684Y-99554480D01*
X104454880Y-99666284D01*
X104375823Y-99803216D01*
X104334900Y-99955943D01*
X104334900Y-100114057D01*
X104375823Y-100266784D01*
X104454880Y-100403716D01*
X104566684Y-100515520D01*
X104703616Y-100594577D01*
X104797077Y-100619619D01*
X104848390Y-100652943D01*
X104870317Y-100710065D01*
X104854481Y-100769165D01*
X104841457Y-100785250D01*
X104016516Y-101610191D01*
X103963795Y-101701506D01*
X103963793Y-101701510D01*
X103963793Y-101701512D01*
X103949281Y-101755673D01*
X103949281Y-101755674D01*
X103949280Y-101755673D01*
X103941263Y-101785596D01*
X103936500Y-101803373D01*
X103936500Y-102293873D01*
X103936500Y-102399327D01*
X103952075Y-102457456D01*
X103963794Y-102501192D01*
X104016516Y-102592508D01*
X104016518Y-102592510D01*
X104016520Y-102592513D01*
X112771018Y-111347010D01*
X112771020Y-111347013D01*
X112845587Y-111421580D01*
X112876141Y-111439220D01*
X112914882Y-111461588D01*
X112914885Y-111461589D01*
X112936913Y-111474307D01*
X113038770Y-111501600D01*
X113038772Y-111501601D01*
X113038773Y-111501601D01*
X113150290Y-111501601D01*
X113150306Y-111501600D01*
X117522456Y-111501600D01*
X117580647Y-111520507D01*
X117592459Y-111530596D01*
X117643482Y-111581618D01*
X117643484Y-111581620D01*
X117670465Y-111597197D01*
X117711405Y-111642665D01*
X117717802Y-111703515D01*
X117690969Y-111752936D01*
X117330004Y-112113903D01*
X117275487Y-112141681D01*
X117260000Y-112142900D01*
X112751927Y-112142900D01*
X112646473Y-112142900D01*
X112584129Y-112159604D01*
X112544607Y-112170194D01*
X112453291Y-112222916D01*
X104139703Y-120536504D01*
X104085186Y-120564281D01*
X104069699Y-120565500D01*
X103997543Y-120565500D01*
X103844816Y-120606423D01*
X103707884Y-120685480D01*
X103596080Y-120797284D01*
X103517023Y-120934216D01*
X103476100Y-121086943D01*
X103476100Y-121245057D01*
X103517023Y-121397784D01*
X103596080Y-121534716D01*
X103707884Y-121646520D01*
X103707886Y-121646521D01*
X103707890Y-121646525D01*
X103713030Y-121650469D01*
X103711801Y-121652070D01*
X103746575Y-121690684D01*
X103752976Y-121751534D01*
X103726142Y-121800962D01*
X102833403Y-122693703D01*
X102778886Y-122721481D01*
X102763399Y-122722700D01*
X102604644Y-122722700D01*
X102546453Y-122703793D01*
X102534641Y-122693704D01*
X102483618Y-122642682D01*
X102483616Y-122642680D01*
X102346684Y-122563623D01*
X102193957Y-122522700D01*
X102035843Y-122522700D01*
X101883116Y-122563623D01*
X101746184Y-122642680D01*
X101634380Y-122754484D01*
X101555323Y-122891416D01*
X101514400Y-123044143D01*
X98500002Y-123044143D01*
X98500001Y-92550943D01*
X111454500Y-92550943D01*
X111454500Y-92709057D01*
X111495423Y-92861784D01*
X111574480Y-92998716D01*
X111686284Y-93110520D01*
X111823216Y-93189577D01*
X111975943Y-93230500D01*
X111975945Y-93230500D01*
X112134055Y-93230500D01*
X112134057Y-93230500D01*
X112286784Y-93189577D01*
X112423716Y-93110520D01*
X112449229Y-93085006D01*
X112474741Y-93059496D01*
X112529258Y-93031719D01*
X112544744Y-93030500D01*
X160915599Y-93030500D01*
X160973790Y-93049407D01*
X160985603Y-93059496D01*
X161183004Y-93256897D01*
X161210781Y-93311414D01*
X161212000Y-93326901D01*
X161212000Y-93399057D01*
X161252923Y-93551784D01*
X161331980Y-93688716D01*
X161443784Y-93800520D01*
X161580716Y-93879577D01*
X161733443Y-93920500D01*
X161733445Y-93920500D01*
X161891555Y-93920500D01*
X161891557Y-93920500D01*
X162044284Y-93879577D01*
X162181216Y-93800520D01*
X162293020Y-93688716D01*
X162372077Y-93551784D01*
X162413000Y-93399057D01*
X162413000Y-93240943D01*
X162372077Y-93088216D01*
X162293020Y-92951284D01*
X162181216Y-92839480D01*
X162044284Y-92760423D01*
X161891557Y-92719500D01*
X161891555Y-92719500D01*
X161819401Y-92719500D01*
X161761210Y-92700593D01*
X161749398Y-92690504D01*
X161368413Y-92309520D01*
X161368408Y-92309516D01*
X161277091Y-92256794D01*
X161277093Y-92256794D01*
X161237570Y-92246204D01*
X161175227Y-92229500D01*
X161175225Y-92229500D01*
X112544744Y-92229500D01*
X112486553Y-92210593D01*
X112474741Y-92200504D01*
X112423718Y-92149482D01*
X112423716Y-92149480D01*
X112286784Y-92070423D01*
X112134057Y-92029500D01*
X111975943Y-92029500D01*
X111823216Y-92070423D01*
X111686284Y-92149480D01*
X111574480Y-92261284D01*
X111495423Y-92398216D01*
X111454500Y-92550943D01*
X98500001Y-92550943D01*
X98500001Y-90320943D01*
X105086700Y-90320943D01*
X105086700Y-90479057D01*
X105127623Y-90631784D01*
X105206680Y-90768716D01*
X105318484Y-90880520D01*
X105455416Y-90959577D01*
X105608143Y-91000500D01*
X105608145Y-91000500D01*
X105766255Y-91000500D01*
X105766257Y-91000500D01*
X105918984Y-90959577D01*
X106055916Y-90880520D01*
X106167720Y-90768716D01*
X106246777Y-90631784D01*
X106287700Y-90479057D01*
X106287700Y-90406901D01*
X106306607Y-90348710D01*
X106316696Y-90336897D01*
X108503592Y-88150001D01*
X127650000Y-88150001D01*
X127650000Y-89849999D01*
X127650001Y-89850000D01*
X129349999Y-89850000D01*
X129350000Y-89849999D01*
X129350000Y-88909450D01*
X129889500Y-88909450D01*
X129889500Y-89090549D01*
X129917828Y-89269406D01*
X129973788Y-89441637D01*
X130003525Y-89500000D01*
X130056004Y-89602994D01*
X130162447Y-89749501D01*
X130290499Y-89877553D01*
X130437006Y-89983996D01*
X130598361Y-90066211D01*
X130770591Y-90122171D01*
X130842136Y-90133502D01*
X130949451Y-90150500D01*
X130949454Y-90150500D01*
X131130549Y-90150500D01*
X131219977Y-90136335D01*
X131309409Y-90122171D01*
X131481639Y-90066211D01*
X131642994Y-89983996D01*
X131789501Y-89877553D01*
X131917553Y-89749501D01*
X132023996Y-89602994D01*
X132106211Y-89441639D01*
X132162171Y-89269409D01*
X132190500Y-89090546D01*
X132190500Y-88909454D01*
X132190500Y-88909450D01*
X132429500Y-88909450D01*
X132429500Y-89090549D01*
X132457828Y-89269406D01*
X132513788Y-89441637D01*
X132543525Y-89500000D01*
X132596004Y-89602994D01*
X132702447Y-89749501D01*
X132830499Y-89877553D01*
X132977006Y-89983996D01*
X133138361Y-90066211D01*
X133310591Y-90122171D01*
X133382136Y-90133502D01*
X133489451Y-90150500D01*
X133489454Y-90150500D01*
X133670549Y-90150500D01*
X133759977Y-90136335D01*
X133849409Y-90122171D01*
X134021639Y-90066211D01*
X134182994Y-89983996D01*
X134329501Y-89877553D01*
X134457553Y-89749501D01*
X134563996Y-89602994D01*
X134646211Y-89441639D01*
X134702171Y-89269409D01*
X134730500Y-89090546D01*
X134730500Y-88909454D01*
X134730500Y-88909450D01*
X134969500Y-88909450D01*
X134969500Y-89090549D01*
X134997828Y-89269406D01*
X135053788Y-89441637D01*
X135083525Y-89500000D01*
X135136004Y-89602994D01*
X135242447Y-89749501D01*
X135370499Y-89877553D01*
X135517006Y-89983996D01*
X135678361Y-90066211D01*
X135850591Y-90122171D01*
X135922136Y-90133502D01*
X136029451Y-90150500D01*
X136029454Y-90150500D01*
X136210549Y-90150500D01*
X136299977Y-90136335D01*
X136389409Y-90122171D01*
X136561639Y-90066211D01*
X136722994Y-89983996D01*
X136869501Y-89877553D01*
X136997553Y-89749501D01*
X137103996Y-89602994D01*
X137186211Y-89441639D01*
X137242171Y-89269409D01*
X137270500Y-89090546D01*
X137270500Y-88909454D01*
X137270500Y-88909450D01*
X137242171Y-88730593D01*
X137242171Y-88730591D01*
X137186211Y-88558361D01*
X137103996Y-88397006D01*
X136997553Y-88250499D01*
X136869501Y-88122447D01*
X136722994Y-88016004D01*
X136722993Y-88016003D01*
X136722991Y-88016002D01*
X136561637Y-87933788D01*
X136389406Y-87877828D01*
X136210549Y-87849500D01*
X136210546Y-87849500D01*
X136029454Y-87849500D01*
X136029451Y-87849500D01*
X135850593Y-87877828D01*
X135678362Y-87933788D01*
X135517008Y-88016002D01*
X135443752Y-88069225D01*
X135370499Y-88122447D01*
X135242447Y-88250499D01*
X135189225Y-88323752D01*
X135136002Y-88397008D01*
X135053788Y-88558362D01*
X134997828Y-88730593D01*
X134969500Y-88909450D01*
X134730500Y-88909450D01*
X134702171Y-88730593D01*
X134702171Y-88730591D01*
X134646211Y-88558361D01*
X134563996Y-88397006D01*
X134457553Y-88250499D01*
X134329501Y-88122447D01*
X134182994Y-88016004D01*
X134182993Y-88016003D01*
X134182991Y-88016002D01*
X134021637Y-87933788D01*
X133849406Y-87877828D01*
X133670549Y-87849500D01*
X133670546Y-87849500D01*
X133489454Y-87849500D01*
X133489451Y-87849500D01*
X133310593Y-87877828D01*
X133138362Y-87933788D01*
X132977008Y-88016002D01*
X132903752Y-88069225D01*
X132830499Y-88122447D01*
X132702447Y-88250499D01*
X132649225Y-88323752D01*
X132596002Y-88397008D01*
X132513788Y-88558362D01*
X132457828Y-88730593D01*
X132429500Y-88909450D01*
X132190500Y-88909450D01*
X132162171Y-88730593D01*
X132162171Y-88730591D01*
X132106211Y-88558361D01*
X132023996Y-88397006D01*
X131917553Y-88250499D01*
X131789501Y-88122447D01*
X131642994Y-88016004D01*
X131642993Y-88016003D01*
X131642991Y-88016002D01*
X131481637Y-87933788D01*
X131309406Y-87877828D01*
X131130549Y-87849500D01*
X131130546Y-87849500D01*
X130949454Y-87849500D01*
X130949451Y-87849500D01*
X130770593Y-87877828D01*
X130598362Y-87933788D01*
X130437008Y-88016002D01*
X130363752Y-88069225D01*
X130290499Y-88122447D01*
X130162447Y-88250499D01*
X130109225Y-88323752D01*
X130056002Y-88397008D01*
X129973788Y-88558362D01*
X129917828Y-88730593D01*
X129889500Y-88909450D01*
X129350000Y-88909450D01*
X129350000Y-88150001D01*
X129349999Y-88150000D01*
X127650001Y-88150000D01*
X127650000Y-88150001D01*
X108503592Y-88150001D01*
X114998797Y-81654796D01*
X115053314Y-81627019D01*
X115068801Y-81625800D01*
X115642856Y-81625800D01*
X115701047Y-81644707D01*
X115712859Y-81654796D01*
X115763881Y-81705817D01*
X115763884Y-81705820D01*
X115900816Y-81784877D01*
X116053543Y-81825800D01*
X116053545Y-81825800D01*
X116211655Y-81825800D01*
X116211657Y-81825800D01*
X116364384Y-81784877D01*
X116501316Y-81705820D01*
X116613120Y-81594016D01*
X116692177Y-81457084D01*
X116733100Y-81304357D01*
X116733100Y-81146243D01*
X116692177Y-80993516D01*
X116613120Y-80856584D01*
X116501316Y-80744780D01*
X116364384Y-80665723D01*
X116342376Y-80659826D01*
X116291064Y-80626503D01*
X116269137Y-80569381D01*
X116284973Y-80510281D01*
X116332523Y-80471776D01*
X116368001Y-80465200D01*
X138065725Y-80465200D01*
X138065727Y-80465200D01*
X138167588Y-80437907D01*
X138167590Y-80437905D01*
X138167592Y-80437905D01*
X138258908Y-80385183D01*
X138258908Y-80385182D01*
X138258913Y-80385180D01*
X140380996Y-78263095D01*
X140435513Y-78235319D01*
X140451000Y-78234100D01*
X140523155Y-78234100D01*
X140523157Y-78234100D01*
X140675884Y-78193177D01*
X140812816Y-78114120D01*
X140924620Y-78002316D01*
X141003677Y-77865384D01*
X141044600Y-77712657D01*
X141044600Y-77554543D01*
X141006250Y-77411417D01*
X141344500Y-77411417D01*
X141344500Y-77588582D01*
X141372213Y-77763552D01*
X141426957Y-77932040D01*
X141462764Y-78002316D01*
X141507386Y-78089890D01*
X141611517Y-78233214D01*
X141736786Y-78358483D01*
X141880110Y-78462614D01*
X142037958Y-78543042D01*
X142206445Y-78597786D01*
X142276435Y-78608871D01*
X142381418Y-78625500D01*
X142381421Y-78625500D01*
X142558582Y-78625500D01*
X142646067Y-78611643D01*
X142733555Y-78597786D01*
X142902042Y-78543042D01*
X143059890Y-78462614D01*
X143203214Y-78358483D01*
X143328483Y-78233214D01*
X143432614Y-78089890D01*
X143513042Y-77932042D01*
X143567786Y-77763555D01*
X143586167Y-77647505D01*
X143595500Y-77588582D01*
X143595500Y-77411417D01*
X143588107Y-77364740D01*
X143586167Y-77352494D01*
X145299500Y-77352494D01*
X145299500Y-77647506D01*
X145338007Y-77939993D01*
X145384664Y-78114119D01*
X145414361Y-78224953D01*
X145527253Y-78497499D01*
X145527255Y-78497503D01*
X145527257Y-78497507D01*
X145674762Y-78752994D01*
X145674764Y-78752997D01*
X145854348Y-78987035D01*
X145854350Y-78987037D01*
X145854354Y-78987042D01*
X146062958Y-79195646D01*
X146062962Y-79195649D01*
X146062964Y-79195651D01*
X146225670Y-79320500D01*
X146297006Y-79375238D01*
X146552493Y-79522743D01*
X146825048Y-79635639D01*
X147110007Y-79711993D01*
X147402494Y-79750500D01*
X147402495Y-79750500D01*
X147697505Y-79750500D01*
X147697506Y-79750500D01*
X147989993Y-79711993D01*
X148274952Y-79635639D01*
X148547507Y-79522743D01*
X148802994Y-79375238D01*
X149037042Y-79195646D01*
X149245646Y-78987042D01*
X149425238Y-78752994D01*
X149572743Y-78497507D01*
X149685639Y-78224952D01*
X149761993Y-77939993D01*
X149800500Y-77647506D01*
X149800500Y-77411417D01*
X151504500Y-77411417D01*
X151504500Y-77588582D01*
X151532213Y-77763552D01*
X151586957Y-77932040D01*
X151622764Y-78002316D01*
X151667386Y-78089890D01*
X151771517Y-78233214D01*
X151896786Y-78358483D01*
X152040110Y-78462614D01*
X152197958Y-78543042D01*
X152366445Y-78597786D01*
X152436435Y-78608871D01*
X152541418Y-78625500D01*
X152541421Y-78625500D01*
X152718582Y-78625500D01*
X152806067Y-78611643D01*
X152893555Y-78597786D01*
X153062042Y-78543042D01*
X153219890Y-78462614D01*
X153363214Y-78358483D01*
X153488483Y-78233214D01*
X153592614Y-78089890D01*
X153673042Y-77932042D01*
X153727786Y-77763555D01*
X153746167Y-77647505D01*
X153755500Y-77588582D01*
X153755500Y-77411417D01*
X153727786Y-77236447D01*
X153727786Y-77236445D01*
X153673042Y-77067958D01*
X153592614Y-76910110D01*
X153488483Y-76766786D01*
X153363214Y-76641517D01*
X153219890Y-76537386D01*
X153219889Y-76537385D01*
X153219887Y-76537384D01*
X153062040Y-76456957D01*
X152893552Y-76402213D01*
X152718582Y-76374500D01*
X152718579Y-76374500D01*
X152541421Y-76374500D01*
X152541418Y-76374500D01*
X152366447Y-76402213D01*
X152197959Y-76456957D01*
X152040112Y-76537384D01*
X151896787Y-76641516D01*
X151771516Y-76766787D01*
X151667384Y-76910112D01*
X151586957Y-77067959D01*
X151532213Y-77236447D01*
X151504500Y-77411417D01*
X149800500Y-77411417D01*
X149800500Y-77352494D01*
X149761993Y-77060007D01*
X149685639Y-76775048D01*
X149572743Y-76502493D01*
X149425238Y-76247006D01*
X149337897Y-76133181D01*
X149245651Y-76012964D01*
X149245649Y-76012962D01*
X149245646Y-76012958D01*
X149037042Y-75804354D01*
X149037037Y-75804350D01*
X149037035Y-75804348D01*
X148802997Y-75624764D01*
X148802994Y-75624762D01*
X148547507Y-75477257D01*
X148547503Y-75477255D01*
X148547499Y-75477253D01*
X148274953Y-75364361D01*
X148208183Y-75346470D01*
X147989993Y-75288007D01*
X147989986Y-75288006D01*
X147697506Y-75249500D01*
X147402494Y-75249500D01*
X147402493Y-75249500D01*
X147110013Y-75288006D01*
X147110011Y-75288006D01*
X147110007Y-75288007D01*
X146958584Y-75328580D01*
X146825046Y-75364361D01*
X146552500Y-75477253D01*
X146297002Y-75624764D01*
X146062964Y-75804348D01*
X145854348Y-76012964D01*
X145674764Y-76247002D01*
X145527253Y-76502500D01*
X145414361Y-76775046D01*
X145402998Y-76817454D01*
X145338007Y-77060007D01*
X145338006Y-77060011D01*
X145338006Y-77060013D01*
X145314778Y-77236445D01*
X145299500Y-77352494D01*
X143586167Y-77352494D01*
X143567786Y-77236447D01*
X143567786Y-77236445D01*
X143513042Y-77067958D01*
X143432614Y-76910110D01*
X143407574Y-76875645D01*
X143388666Y-76817454D01*
X143407573Y-76759264D01*
X143457073Y-76723300D01*
X143500585Y-76719301D01*
X143623628Y-76735500D01*
X143623629Y-76735500D01*
X143856371Y-76735500D01*
X143856372Y-76735500D01*
X144087126Y-76705121D01*
X144311940Y-76644882D01*
X144526969Y-76555815D01*
X144728532Y-76439442D01*
X144913181Y-76297756D01*
X145077756Y-76133181D01*
X145219442Y-75948532D01*
X145335815Y-75746969D01*
X145424882Y-75531940D01*
X145485121Y-75307126D01*
X145515500Y-75076372D01*
X145515500Y-74843628D01*
X145485121Y-74612874D01*
X145424882Y-74388060D01*
X145335815Y-74173031D01*
X145219442Y-73971468D01*
X145077756Y-73786819D01*
X144913181Y-73622244D01*
X144913176Y-73622240D01*
X144913174Y-73622238D01*
X144728529Y-73480556D01*
X144526970Y-73364185D01*
X144526965Y-73364183D01*
X144311945Y-73275120D01*
X144311944Y-73275119D01*
X144311940Y-73275118D01*
X144087126Y-73214879D01*
X144087123Y-73214878D01*
X144087121Y-73214878D01*
X143856373Y-73184500D01*
X143856372Y-73184500D01*
X143623628Y-73184500D01*
X143623626Y-73184500D01*
X143392881Y-73214878D01*
X143392876Y-73214878D01*
X143168067Y-73275116D01*
X143168054Y-73275120D01*
X142953034Y-73364183D01*
X142953029Y-73364185D01*
X142751470Y-73480556D01*
X142566825Y-73622238D01*
X142402238Y-73786825D01*
X142260556Y-73971470D01*
X142144185Y-74173029D01*
X142144183Y-74173034D01*
X142055120Y-74388054D01*
X142055116Y-74388067D01*
X141994878Y-74612876D01*
X141994878Y-74612881D01*
X141964500Y-74843626D01*
X141964500Y-75076373D01*
X141994878Y-75307118D01*
X141994878Y-75307123D01*
X142055116Y-75531932D01*
X142055120Y-75531945D01*
X142144183Y-75746965D01*
X142144185Y-75746970D01*
X142177316Y-75804354D01*
X142260558Y-75948532D01*
X142306526Y-76008439D01*
X142402238Y-76133174D01*
X142402240Y-76133176D01*
X142402244Y-76133181D01*
X142474561Y-76205498D01*
X142502337Y-76260013D01*
X142492766Y-76320445D01*
X142449501Y-76363710D01*
X142404556Y-76374500D01*
X142381418Y-76374500D01*
X142206447Y-76402213D01*
X142037959Y-76456957D01*
X141880112Y-76537384D01*
X141736787Y-76641516D01*
X141611516Y-76766787D01*
X141507384Y-76910112D01*
X141426957Y-77067959D01*
X141372213Y-77236447D01*
X141344500Y-77411417D01*
X141006250Y-77411417D01*
X141003677Y-77401816D01*
X140924620Y-77264884D01*
X140812816Y-77153080D01*
X140675884Y-77074023D01*
X140523157Y-77033100D01*
X140365043Y-77033100D01*
X140234951Y-77067958D01*
X140212316Y-77074023D01*
X140075384Y-77153080D01*
X139963580Y-77264884D01*
X139884523Y-77401816D01*
X139843600Y-77554544D01*
X139843600Y-77626699D01*
X139824693Y-77684890D01*
X139814604Y-77696703D01*
X137876103Y-79635204D01*
X137821586Y-79662981D01*
X137806099Y-79664200D01*
X129621969Y-79664200D01*
X129563778Y-79645293D01*
X129527814Y-79595793D01*
X129527814Y-79534607D01*
X129563778Y-79485107D01*
X129572457Y-79479470D01*
X129752994Y-79375238D01*
X129987042Y-79195646D01*
X130195646Y-78987042D01*
X130375238Y-78752994D01*
X130522743Y-78497507D01*
X130635639Y-78224952D01*
X130711993Y-77939993D01*
X130750500Y-77647506D01*
X130750500Y-77411417D01*
X132454500Y-77411417D01*
X132454500Y-77588582D01*
X132482213Y-77763552D01*
X132536957Y-77932040D01*
X132572764Y-78002316D01*
X132617386Y-78089890D01*
X132721517Y-78233214D01*
X132846786Y-78358483D01*
X132990110Y-78462614D01*
X133147958Y-78543042D01*
X133316445Y-78597786D01*
X133386435Y-78608871D01*
X133491418Y-78625500D01*
X133491421Y-78625500D01*
X133668582Y-78625500D01*
X133756067Y-78611643D01*
X133843555Y-78597786D01*
X134012042Y-78543042D01*
X134169890Y-78462614D01*
X134313214Y-78358483D01*
X134438483Y-78233214D01*
X134542614Y-78089890D01*
X134623042Y-77932042D01*
X134677786Y-77763555D01*
X134696167Y-77647505D01*
X134705500Y-77588582D01*
X134705500Y-77411417D01*
X134677786Y-77236447D01*
X134677786Y-77236445D01*
X134623042Y-77067958D01*
X134542614Y-76910110D01*
X134438483Y-76766786D01*
X134313214Y-76641517D01*
X134169890Y-76537386D01*
X134169889Y-76537385D01*
X134169887Y-76537384D01*
X134012040Y-76456957D01*
X133843552Y-76402213D01*
X133668582Y-76374500D01*
X133668579Y-76374500D01*
X133491421Y-76374500D01*
X133491418Y-76374500D01*
X133316447Y-76402213D01*
X133147959Y-76456957D01*
X132990112Y-76537384D01*
X132846787Y-76641516D01*
X132721516Y-76766787D01*
X132617384Y-76910112D01*
X132536957Y-77067959D01*
X132482213Y-77236447D01*
X132454500Y-77411417D01*
X130750500Y-77411417D01*
X130750500Y-77352494D01*
X130711993Y-77060007D01*
X130635639Y-76775048D01*
X130522743Y-76502493D01*
X130375238Y-76247006D01*
X130287897Y-76133181D01*
X130195651Y-76012964D01*
X130195649Y-76012962D01*
X130195646Y-76012958D01*
X129987042Y-75804354D01*
X129987037Y-75804350D01*
X129987035Y-75804348D01*
X129752997Y-75624764D01*
X129752994Y-75624762D01*
X129497507Y-75477257D01*
X129497503Y-75477255D01*
X129497499Y-75477253D01*
X129224953Y-75364361D01*
X129158183Y-75346470D01*
X128939993Y-75288007D01*
X128939986Y-75288006D01*
X128647506Y-75249500D01*
X128352494Y-75249500D01*
X128352493Y-75249500D01*
X128060013Y-75288006D01*
X128060011Y-75288006D01*
X128060007Y-75288007D01*
X127908584Y-75328580D01*
X127775046Y-75364361D01*
X127502500Y-75477253D01*
X127247002Y-75624764D01*
X127012964Y-75804348D01*
X126804348Y-76012964D01*
X126624764Y-76247002D01*
X126477253Y-76502500D01*
X126364361Y-76775046D01*
X126352998Y-76817454D01*
X126288007Y-77060007D01*
X126288006Y-77060011D01*
X126288006Y-77060013D01*
X126264778Y-77236445D01*
X126249500Y-77352494D01*
X126249500Y-77647506D01*
X126288007Y-77939993D01*
X126334664Y-78114119D01*
X126364361Y-78224953D01*
X126477253Y-78497499D01*
X126477255Y-78497503D01*
X126477257Y-78497507D01*
X126624762Y-78752994D01*
X126624764Y-78752997D01*
X126804348Y-78987035D01*
X126804350Y-78987037D01*
X126804354Y-78987042D01*
X127012958Y-79195646D01*
X127012962Y-79195649D01*
X127012964Y-79195651D01*
X127175670Y-79320500D01*
X127247006Y-79375238D01*
X127427532Y-79479464D01*
X127468472Y-79524933D01*
X127474868Y-79585783D01*
X127444275Y-79638771D01*
X127388380Y-79663658D01*
X127378031Y-79664200D01*
X112691001Y-79664200D01*
X112632810Y-79645293D01*
X112620997Y-79635204D01*
X112547696Y-79561903D01*
X112519919Y-79507386D01*
X112518700Y-79491899D01*
X112518700Y-79419744D01*
X112518700Y-79419743D01*
X112477777Y-79267016D01*
X112398720Y-79130084D01*
X112286916Y-79018280D01*
X112149984Y-78939223D01*
X111997257Y-78898300D01*
X111839143Y-78898300D01*
X111686416Y-78939223D01*
X111549484Y-79018280D01*
X111437680Y-79130084D01*
X111358623Y-79267016D01*
X111317700Y-79419743D01*
X111317700Y-79577857D01*
X111358623Y-79730584D01*
X111437680Y-79867516D01*
X111549484Y-79979320D01*
X111686416Y-80058377D01*
X111839143Y-80099300D01*
X111911299Y-80099300D01*
X111969490Y-80118207D01*
X111981303Y-80128296D01*
X112163620Y-80310613D01*
X112163619Y-80310613D01*
X112238187Y-80385180D01*
X112329513Y-80437907D01*
X112431373Y-80465200D01*
X112431375Y-80465200D01*
X115897199Y-80465200D01*
X115955390Y-80484107D01*
X115991354Y-80533607D01*
X115991354Y-80594793D01*
X115955390Y-80644293D01*
X115922824Y-80659825D01*
X115900816Y-80665723D01*
X115763881Y-80744782D01*
X115712859Y-80795804D01*
X115658342Y-80823581D01*
X115642856Y-80824800D01*
X114914627Y-80824800D01*
X114809173Y-80824800D01*
X114746829Y-80841504D01*
X114707307Y-80852094D01*
X114615991Y-80904816D01*
X105750303Y-89770504D01*
X105695786Y-89798281D01*
X105680299Y-89799500D01*
X105608143Y-89799500D01*
X105455416Y-89840423D01*
X105318484Y-89919480D01*
X105206680Y-90031284D01*
X105127623Y-90168216D01*
X105086700Y-90320943D01*
X98500001Y-90320943D01*
X98500001Y-79000000D01*
X98500000Y-79000000D01*
X93099500Y-79000000D01*
X93041309Y-78981093D01*
X93005345Y-78931593D01*
X93000500Y-78901000D01*
X93000500Y-77411417D01*
X103244500Y-77411417D01*
X103244500Y-77588582D01*
X103272213Y-77763552D01*
X103326957Y-77932040D01*
X103362764Y-78002316D01*
X103407386Y-78089890D01*
X103511517Y-78233214D01*
X103636786Y-78358483D01*
X103780110Y-78462614D01*
X103937958Y-78543042D01*
X104106445Y-78597786D01*
X104176435Y-78608871D01*
X104281418Y-78625500D01*
X104281421Y-78625500D01*
X104458582Y-78625500D01*
X104546067Y-78611643D01*
X104633555Y-78597786D01*
X104802042Y-78543042D01*
X104959890Y-78462614D01*
X105103214Y-78358483D01*
X105228483Y-78233214D01*
X105332614Y-78089890D01*
X105413042Y-77932042D01*
X105467786Y-77763555D01*
X105486167Y-77647505D01*
X105495500Y-77588582D01*
X105495500Y-77411417D01*
X105488107Y-77364740D01*
X105486167Y-77352494D01*
X107199500Y-77352494D01*
X107199500Y-77647506D01*
X107238007Y-77939993D01*
X107284664Y-78114119D01*
X107314361Y-78224953D01*
X107427253Y-78497499D01*
X107427255Y-78497503D01*
X107427257Y-78497507D01*
X107574762Y-78752994D01*
X107574764Y-78752997D01*
X107754348Y-78987035D01*
X107754350Y-78987037D01*
X107754354Y-78987042D01*
X107962958Y-79195646D01*
X107962962Y-79195649D01*
X107962964Y-79195651D01*
X108125670Y-79320500D01*
X108197006Y-79375238D01*
X108452493Y-79522743D01*
X108725048Y-79635639D01*
X109010007Y-79711993D01*
X109302494Y-79750500D01*
X109302495Y-79750500D01*
X109597505Y-79750500D01*
X109597506Y-79750500D01*
X109889993Y-79711993D01*
X110174952Y-79635639D01*
X110447507Y-79522743D01*
X110702994Y-79375238D01*
X110937042Y-79195646D01*
X111145646Y-78987042D01*
X111325238Y-78752994D01*
X111389930Y-78640943D01*
X119850200Y-78640943D01*
X119850200Y-78799057D01*
X119891123Y-78951784D01*
X119970180Y-79088716D01*
X120081984Y-79200520D01*
X120218916Y-79279577D01*
X120371643Y-79320500D01*
X120371645Y-79320500D01*
X120529755Y-79320500D01*
X120529757Y-79320500D01*
X120682484Y-79279577D01*
X120819416Y-79200520D01*
X120931220Y-79088716D01*
X121010277Y-78951784D01*
X121051200Y-78799057D01*
X121051200Y-78640943D01*
X121010277Y-78488216D01*
X120931220Y-78351284D01*
X120931217Y-78351281D01*
X120880196Y-78300259D01*
X120852419Y-78245742D01*
X120851200Y-78230256D01*
X120851200Y-76456300D01*
X120870107Y-76398109D01*
X120880190Y-76386302D01*
X122790232Y-74476259D01*
X122844747Y-74448484D01*
X122905179Y-74458055D01*
X122948444Y-74501320D01*
X122958015Y-74561752D01*
X122955861Y-74571886D01*
X122944880Y-74612868D01*
X122944878Y-74612881D01*
X122914500Y-74843626D01*
X122914500Y-75076373D01*
X122944878Y-75307118D01*
X122944878Y-75307123D01*
X123005116Y-75531932D01*
X123005120Y-75531945D01*
X123094183Y-75746965D01*
X123094185Y-75746970D01*
X123127316Y-75804354D01*
X123210558Y-75948532D01*
X123256526Y-76008439D01*
X123352238Y-76133174D01*
X123352240Y-76133176D01*
X123352244Y-76133181D01*
X123424561Y-76205498D01*
X123452337Y-76260013D01*
X123442766Y-76320445D01*
X123399501Y-76363710D01*
X123354556Y-76374500D01*
X123331418Y-76374500D01*
X123156447Y-76402213D01*
X122987959Y-76456957D01*
X122830112Y-76537384D01*
X122686787Y-76641516D01*
X122561516Y-76766787D01*
X122457384Y-76910112D01*
X122376957Y-77067959D01*
X122322213Y-77236447D01*
X122294500Y-77411417D01*
X122294500Y-77588582D01*
X122322213Y-77763552D01*
X122376957Y-77932040D01*
X122412764Y-78002316D01*
X122457386Y-78089890D01*
X122561517Y-78233214D01*
X122686786Y-78358483D01*
X122830110Y-78462614D01*
X122987958Y-78543042D01*
X123156445Y-78597786D01*
X123226435Y-78608871D01*
X123331418Y-78625500D01*
X123331421Y-78625500D01*
X123508582Y-78625500D01*
X123596067Y-78611643D01*
X123683555Y-78597786D01*
X123852042Y-78543042D01*
X124009890Y-78462614D01*
X124153214Y-78358483D01*
X124278483Y-78233214D01*
X124382614Y-78089890D01*
X124463042Y-77932042D01*
X124517786Y-77763555D01*
X124536167Y-77647505D01*
X124545500Y-77588582D01*
X124545500Y-77411417D01*
X124517786Y-77236447D01*
X124517786Y-77236445D01*
X124463042Y-77067958D01*
X124382614Y-76910110D01*
X124357574Y-76875645D01*
X124338666Y-76817454D01*
X124357573Y-76759264D01*
X124407073Y-76723300D01*
X124450585Y-76719301D01*
X124573628Y-76735500D01*
X124573629Y-76735500D01*
X124806371Y-76735500D01*
X124806372Y-76735500D01*
X125037126Y-76705121D01*
X125261940Y-76644882D01*
X125476969Y-76555815D01*
X125678532Y-76439442D01*
X125863181Y-76297756D01*
X126027756Y-76133181D01*
X126169442Y-75948532D01*
X126285815Y-75746969D01*
X126374882Y-75531940D01*
X126435121Y-75307126D01*
X126465500Y-75076372D01*
X126465500Y-74843628D01*
X126435121Y-74612874D01*
X126374882Y-74388060D01*
X126285815Y-74173031D01*
X126169442Y-73971468D01*
X126027756Y-73786819D01*
X125863181Y-73622244D01*
X125863176Y-73622240D01*
X125863174Y-73622238D01*
X125678529Y-73480556D01*
X125476970Y-73364185D01*
X125476965Y-73364183D01*
X125261945Y-73275120D01*
X125261944Y-73275119D01*
X125261940Y-73275118D01*
X125037126Y-73214879D01*
X125037123Y-73214878D01*
X125037121Y-73214878D01*
X124806373Y-73184500D01*
X124806372Y-73184500D01*
X124573628Y-73184500D01*
X124573626Y-73184500D01*
X124342881Y-73214878D01*
X124342868Y-73214880D01*
X124301886Y-73225861D01*
X124240785Y-73222658D01*
X124193236Y-73184152D01*
X124177401Y-73125051D01*
X124199329Y-73067930D01*
X124206251Y-73060240D01*
X124962865Y-72303626D01*
X129264500Y-72303626D01*
X129264500Y-72536373D01*
X129294878Y-72767118D01*
X129294878Y-72767123D01*
X129355116Y-72991932D01*
X129355120Y-72991945D01*
X129444183Y-73206965D01*
X129444185Y-73206970D01*
X129560556Y-73408529D01*
X129702238Y-73593174D01*
X129702240Y-73593176D01*
X129702244Y-73593181D01*
X129866819Y-73757756D01*
X129866823Y-73757759D01*
X129866825Y-73757761D01*
X129945397Y-73818051D01*
X130051468Y-73899442D01*
X130253031Y-74015815D01*
X130468060Y-74104882D01*
X130692874Y-74165121D01*
X130923628Y-74195500D01*
X130923629Y-74195500D01*
X131156371Y-74195500D01*
X131156372Y-74195500D01*
X131387126Y-74165121D01*
X131611940Y-74104882D01*
X131826969Y-74015815D01*
X132028532Y-73899442D01*
X132213181Y-73757756D01*
X132377756Y-73593181D01*
X132519442Y-73408532D01*
X132635815Y-73206969D01*
X132724882Y-72991940D01*
X132785121Y-72767126D01*
X132815500Y-72536372D01*
X132815500Y-72303628D01*
X132815500Y-72303626D01*
X148314500Y-72303626D01*
X148314500Y-72536373D01*
X148344878Y-72767118D01*
X148344878Y-72767123D01*
X148405116Y-72991932D01*
X148405120Y-72991945D01*
X148494183Y-73206965D01*
X148494185Y-73206970D01*
X148610556Y-73408529D01*
X148752238Y-73593174D01*
X148752240Y-73593176D01*
X148752244Y-73593181D01*
X148916819Y-73757756D01*
X148916823Y-73757759D01*
X148916825Y-73757761D01*
X148995397Y-73818051D01*
X149101468Y-73899442D01*
X149303031Y-74015815D01*
X149518060Y-74104882D01*
X149742874Y-74165121D01*
X149973628Y-74195500D01*
X149973629Y-74195500D01*
X150206371Y-74195500D01*
X150206372Y-74195500D01*
X150437126Y-74165121D01*
X150661940Y-74104882D01*
X150876969Y-74015815D01*
X151078532Y-73899442D01*
X151263181Y-73757756D01*
X151427756Y-73593181D01*
X151569442Y-73408532D01*
X151685815Y-73206969D01*
X151774882Y-72991940D01*
X151835121Y-72767126D01*
X151865500Y-72536372D01*
X151865500Y-72303628D01*
X151835121Y-72072874D01*
X151774882Y-71848060D01*
X151685815Y-71633031D01*
X151569442Y-71431468D01*
X151427756Y-71246819D01*
X151263181Y-71082244D01*
X151263176Y-71082240D01*
X151263174Y-71082238D01*
X151078529Y-70940556D01*
X150876970Y-70824185D01*
X150876965Y-70824183D01*
X150661945Y-70735120D01*
X150661944Y-70735119D01*
X150661940Y-70735118D01*
X150437126Y-70674879D01*
X150437123Y-70674878D01*
X150437121Y-70674878D01*
X150206373Y-70644500D01*
X150206372Y-70644500D01*
X149973628Y-70644500D01*
X149973626Y-70644500D01*
X149742881Y-70674878D01*
X149742876Y-70674878D01*
X149518067Y-70735116D01*
X149518054Y-70735120D01*
X149303034Y-70824183D01*
X149303029Y-70824185D01*
X149101470Y-70940556D01*
X148916825Y-71082238D01*
X148752238Y-71246825D01*
X148610556Y-71431470D01*
X148494185Y-71633029D01*
X148494183Y-71633034D01*
X148405120Y-71848054D01*
X148405116Y-71848067D01*
X148344878Y-72072876D01*
X148344878Y-72072881D01*
X148314500Y-72303626D01*
X132815500Y-72303626D01*
X132785121Y-72072874D01*
X132724882Y-71848060D01*
X132635815Y-71633031D01*
X132519442Y-71431468D01*
X132377756Y-71246819D01*
X132213181Y-71082244D01*
X132213176Y-71082240D01*
X132213174Y-71082238D01*
X132028529Y-70940556D01*
X131826970Y-70824185D01*
X131826965Y-70824183D01*
X131611945Y-70735120D01*
X131611944Y-70735119D01*
X131611940Y-70735118D01*
X131387126Y-70674879D01*
X131387123Y-70674878D01*
X131387121Y-70674878D01*
X131156373Y-70644500D01*
X131156372Y-70644500D01*
X130923628Y-70644500D01*
X130923626Y-70644500D01*
X130692881Y-70674878D01*
X130692876Y-70674878D01*
X130468067Y-70735116D01*
X130468054Y-70735120D01*
X130253034Y-70824183D01*
X130253029Y-70824185D01*
X130051470Y-70940556D01*
X129866825Y-71082238D01*
X129702238Y-71246825D01*
X129560556Y-71431470D01*
X129444185Y-71633029D01*
X129444183Y-71633034D01*
X129355120Y-71848054D01*
X129355116Y-71848067D01*
X129294878Y-72072876D01*
X129294878Y-72072881D01*
X129264500Y-72303626D01*
X124962865Y-72303626D01*
X129796997Y-67469496D01*
X129851514Y-67441719D01*
X129867001Y-67440500D01*
X143582556Y-67440500D01*
X143640747Y-67459407D01*
X143652559Y-67469496D01*
X143703581Y-67520517D01*
X143703584Y-67520520D01*
X143840516Y-67599577D01*
X143993243Y-67640500D01*
X143993245Y-67640500D01*
X144151355Y-67640500D01*
X144151357Y-67640500D01*
X144304084Y-67599577D01*
X144441016Y-67520520D01*
X144552820Y-67408716D01*
X144631877Y-67271784D01*
X144672800Y-67119057D01*
X144672800Y-66960943D01*
X144631877Y-66808216D01*
X144552820Y-66671284D01*
X144441016Y-66559480D01*
X144304084Y-66480423D01*
X144151357Y-66439500D01*
X143993243Y-66439500D01*
X143840516Y-66480423D01*
X143703581Y-66559482D01*
X143652559Y-66610504D01*
X143598042Y-66638281D01*
X143582556Y-66639500D01*
X129607373Y-66639500D01*
X129505513Y-66666793D01*
X129505512Y-66666793D01*
X129505507Y-66666795D01*
X129493757Y-66673580D01*
X129493756Y-66673579D01*
X129414189Y-66719518D01*
X120130216Y-76003491D01*
X120077493Y-76094811D01*
X120077492Y-76094811D01*
X120077493Y-76094812D01*
X120050200Y-76196673D01*
X120050200Y-78230256D01*
X120031293Y-78288447D01*
X120021204Y-78300259D01*
X119970182Y-78351281D01*
X119970180Y-78351283D01*
X119970180Y-78351284D01*
X119891123Y-78488216D01*
X119850200Y-78640943D01*
X111389930Y-78640943D01*
X111472743Y-78497507D01*
X111585639Y-78224952D01*
X111661993Y-77939993D01*
X111700500Y-77647506D01*
X111700500Y-77411417D01*
X113404500Y-77411417D01*
X113404500Y-77588582D01*
X113432213Y-77763552D01*
X113486957Y-77932040D01*
X113522764Y-78002316D01*
X113567386Y-78089890D01*
X113671517Y-78233214D01*
X113796786Y-78358483D01*
X113940110Y-78462614D01*
X114097958Y-78543042D01*
X114266445Y-78597786D01*
X114336435Y-78608871D01*
X114441418Y-78625500D01*
X114441421Y-78625500D01*
X114618582Y-78625500D01*
X114706067Y-78611643D01*
X114793555Y-78597786D01*
X114962042Y-78543042D01*
X115119890Y-78462614D01*
X115263214Y-78358483D01*
X115388483Y-78233214D01*
X115492614Y-78089890D01*
X115573042Y-77932042D01*
X115627786Y-77763555D01*
X115646167Y-77647505D01*
X115655500Y-77588582D01*
X115655500Y-77411417D01*
X115627786Y-77236447D01*
X115627786Y-77236445D01*
X115573042Y-77067958D01*
X115492614Y-76910110D01*
X115388483Y-76766786D01*
X115263214Y-76641517D01*
X115119890Y-76537386D01*
X115119889Y-76537385D01*
X115119887Y-76537384D01*
X114962040Y-76456957D01*
X114793552Y-76402213D01*
X114618582Y-76374500D01*
X114618579Y-76374500D01*
X114441421Y-76374500D01*
X114441418Y-76374500D01*
X114266447Y-76402213D01*
X114097959Y-76456957D01*
X113940112Y-76537384D01*
X113796787Y-76641516D01*
X113671516Y-76766787D01*
X113567384Y-76910112D01*
X113486957Y-77067959D01*
X113432213Y-77236447D01*
X113404500Y-77411417D01*
X111700500Y-77411417D01*
X111700500Y-77352494D01*
X111661993Y-77060007D01*
X111585639Y-76775048D01*
X111472743Y-76502493D01*
X111325238Y-76247006D01*
X111237897Y-76133181D01*
X111145651Y-76012964D01*
X111145649Y-76012962D01*
X111145646Y-76012958D01*
X110937042Y-75804354D01*
X110937037Y-75804350D01*
X110937035Y-75804348D01*
X110702997Y-75624764D01*
X110702994Y-75624762D01*
X110447507Y-75477257D01*
X110447503Y-75477255D01*
X110447499Y-75477253D01*
X110174953Y-75364361D01*
X110108183Y-75346470D01*
X109889993Y-75288007D01*
X109889986Y-75288006D01*
X109597506Y-75249500D01*
X109302494Y-75249500D01*
X109302493Y-75249500D01*
X109010013Y-75288006D01*
X109010011Y-75288006D01*
X109010007Y-75288007D01*
X108858584Y-75328580D01*
X108725046Y-75364361D01*
X108452500Y-75477253D01*
X108197002Y-75624764D01*
X107962964Y-75804348D01*
X107754348Y-76012964D01*
X107574764Y-76247002D01*
X107427253Y-76502500D01*
X107314361Y-76775046D01*
X107302998Y-76817454D01*
X107238007Y-77060007D01*
X107238006Y-77060011D01*
X107238006Y-77060013D01*
X107214778Y-77236445D01*
X107199500Y-77352494D01*
X105486167Y-77352494D01*
X105467786Y-77236447D01*
X105467786Y-77236445D01*
X105413042Y-77067958D01*
X105332614Y-76910110D01*
X105307574Y-76875645D01*
X105288666Y-76817454D01*
X105307573Y-76759264D01*
X105357073Y-76723300D01*
X105400585Y-76719301D01*
X105523628Y-76735500D01*
X105523629Y-76735500D01*
X105756371Y-76735500D01*
X105756372Y-76735500D01*
X105987126Y-76705121D01*
X106211940Y-76644882D01*
X106426969Y-76555815D01*
X106628532Y-76439442D01*
X106813181Y-76297756D01*
X106977756Y-76133181D01*
X107119442Y-75948532D01*
X107235815Y-75746969D01*
X107324882Y-75531940D01*
X107385121Y-75307126D01*
X107415500Y-75076372D01*
X107415500Y-74843628D01*
X107385121Y-74612874D01*
X107324882Y-74388060D01*
X107235815Y-74173031D01*
X107119442Y-73971468D01*
X106977756Y-73786819D01*
X106813181Y-73622244D01*
X106813176Y-73622240D01*
X106813174Y-73622238D01*
X106628529Y-73480556D01*
X106426970Y-73364185D01*
X106426965Y-73364183D01*
X106211945Y-73275120D01*
X106211944Y-73275119D01*
X106211940Y-73275118D01*
X105987126Y-73214879D01*
X105987123Y-73214878D01*
X105987121Y-73214878D01*
X105756373Y-73184500D01*
X105756372Y-73184500D01*
X105523628Y-73184500D01*
X105523626Y-73184500D01*
X105292881Y-73214878D01*
X105292876Y-73214878D01*
X105068067Y-73275116D01*
X105068054Y-73275120D01*
X104853034Y-73364183D01*
X104853029Y-73364185D01*
X104651470Y-73480556D01*
X104466825Y-73622238D01*
X104302238Y-73786825D01*
X104160556Y-73971470D01*
X104044185Y-74173029D01*
X104044183Y-74173034D01*
X103955120Y-74388054D01*
X103955116Y-74388067D01*
X103894878Y-74612876D01*
X103894878Y-74612881D01*
X103864500Y-74843626D01*
X103864500Y-75076373D01*
X103894878Y-75307118D01*
X103894878Y-75307123D01*
X103955116Y-75531932D01*
X103955120Y-75531945D01*
X104044183Y-75746965D01*
X104044185Y-75746970D01*
X104077316Y-75804354D01*
X104160558Y-75948532D01*
X104206526Y-76008439D01*
X104302238Y-76133174D01*
X104302240Y-76133176D01*
X104302244Y-76133181D01*
X104374561Y-76205498D01*
X104402337Y-76260013D01*
X104392766Y-76320445D01*
X104349501Y-76363710D01*
X104304556Y-76374500D01*
X104281418Y-76374500D01*
X104106447Y-76402213D01*
X103937959Y-76456957D01*
X103780112Y-76537384D01*
X103636787Y-76641516D01*
X103511516Y-76766787D01*
X103407384Y-76910112D01*
X103326957Y-77067959D01*
X103272213Y-77236447D01*
X103244500Y-77411417D01*
X93000500Y-77411417D01*
X93000500Y-72303626D01*
X110214500Y-72303626D01*
X110214500Y-72536373D01*
X110244878Y-72767118D01*
X110244878Y-72767123D01*
X110305116Y-72991932D01*
X110305120Y-72991945D01*
X110394183Y-73206965D01*
X110394185Y-73206970D01*
X110510556Y-73408529D01*
X110652238Y-73593174D01*
X110652240Y-73593176D01*
X110652244Y-73593181D01*
X110816819Y-73757756D01*
X110816823Y-73757759D01*
X110816825Y-73757761D01*
X110895397Y-73818051D01*
X111001468Y-73899442D01*
X111203031Y-74015815D01*
X111418060Y-74104882D01*
X111642874Y-74165121D01*
X111873628Y-74195500D01*
X111873629Y-74195500D01*
X112106371Y-74195500D01*
X112106372Y-74195500D01*
X112337126Y-74165121D01*
X112561940Y-74104882D01*
X112776969Y-74015815D01*
X112978532Y-73899442D01*
X113163181Y-73757756D01*
X113327756Y-73593181D01*
X113469442Y-73408532D01*
X113585815Y-73206969D01*
X113674882Y-72991940D01*
X113735121Y-72767126D01*
X113765500Y-72536372D01*
X113765500Y-72303628D01*
X113735121Y-72072874D01*
X113674882Y-71848060D01*
X113585815Y-71633031D01*
X113469442Y-71431468D01*
X113327756Y-71246819D01*
X113163181Y-71082244D01*
X113163176Y-71082240D01*
X113163174Y-71082238D01*
X112978529Y-70940556D01*
X112776970Y-70824185D01*
X112776965Y-70824183D01*
X112561945Y-70735120D01*
X112561944Y-70735119D01*
X112561940Y-70735118D01*
X112337126Y-70674879D01*
X112337123Y-70674878D01*
X112337121Y-70674878D01*
X112106373Y-70644500D01*
X112106372Y-70644500D01*
X111873628Y-70644500D01*
X111873626Y-70644500D01*
X111642881Y-70674878D01*
X111642876Y-70674878D01*
X111418067Y-70735116D01*
X111418054Y-70735120D01*
X111203034Y-70824183D01*
X111203029Y-70824185D01*
X111001470Y-70940556D01*
X110816825Y-71082238D01*
X110652238Y-71246825D01*
X110510556Y-71431470D01*
X110394185Y-71633029D01*
X110394183Y-71633034D01*
X110305120Y-71848054D01*
X110305116Y-71848067D01*
X110244878Y-72072876D01*
X110244878Y-72072881D01*
X110214500Y-72303626D01*
X93000500Y-72303626D01*
X93000500Y-66960943D01*
X99181300Y-66960943D01*
X99181300Y-67119057D01*
X99222223Y-67271784D01*
X99301280Y-67408716D01*
X99413084Y-67520520D01*
X99550016Y-67599577D01*
X99702743Y-67640500D01*
X99702745Y-67640500D01*
X99860855Y-67640500D01*
X99860857Y-67640500D01*
X100013584Y-67599577D01*
X100150516Y-67520520D01*
X100176029Y-67495006D01*
X100201541Y-67469496D01*
X100256058Y-67441719D01*
X100271544Y-67440500D01*
X125866356Y-67440500D01*
X125924547Y-67459407D01*
X125936359Y-67469496D01*
X125987381Y-67520517D01*
X125987384Y-67520520D01*
X126124316Y-67599577D01*
X126277043Y-67640500D01*
X126277045Y-67640500D01*
X126435155Y-67640500D01*
X126435157Y-67640500D01*
X126587884Y-67599577D01*
X126724816Y-67520520D01*
X126836620Y-67408716D01*
X126915677Y-67271784D01*
X126956600Y-67119057D01*
X126956600Y-67046900D01*
X126975507Y-66988709D01*
X126985596Y-66976896D01*
X127886996Y-66075496D01*
X127941513Y-66047719D01*
X127957000Y-66046500D01*
X145124856Y-66046500D01*
X145183047Y-66065407D01*
X145194859Y-66075496D01*
X145245881Y-66126517D01*
X145245884Y-66126520D01*
X145382816Y-66205577D01*
X145535543Y-66246500D01*
X145535545Y-66246500D01*
X145693655Y-66246500D01*
X145693657Y-66246500D01*
X145846384Y-66205577D01*
X145983316Y-66126520D01*
X146095120Y-66014716D01*
X146114764Y-65980690D01*
X146160232Y-65939750D01*
X146221082Y-65933354D01*
X146274071Y-65963946D01*
X146298958Y-66019842D01*
X146299500Y-66030191D01*
X146299500Y-66068995D01*
X146326420Y-66204327D01*
X146326420Y-66204329D01*
X146379222Y-66331806D01*
X146379228Y-66331817D01*
X146455885Y-66446541D01*
X146553458Y-66544114D01*
X146668182Y-66620771D01*
X146668193Y-66620777D01*
X146710452Y-66638281D01*
X146795672Y-66673580D01*
X146931007Y-66700500D01*
X146931008Y-66700500D01*
X147068992Y-66700500D01*
X147068993Y-66700500D01*
X147204328Y-66673580D01*
X147331811Y-66620775D01*
X147412014Y-66567184D01*
X147467016Y-66550500D01*
X199350500Y-66550500D01*
X199408691Y-66569407D01*
X199444655Y-66618907D01*
X199449500Y-66649500D01*
X199449500Y-143350500D01*
X199430593Y-143408691D01*
X199381093Y-143444655D01*
X199350500Y-143449500D01*
X156773390Y-143449500D01*
X156735505Y-143441964D01*
X156731789Y-143440424D01*
X156672529Y-143424545D01*
X156579057Y-143399500D01*
X156420943Y-143399500D01*
X156275120Y-143438572D01*
X156214021Y-143435370D01*
X156166471Y-143396865D01*
X156150499Y-143342946D01*
X156150499Y-143105139D01*
X156150499Y-143105136D01*
X156147585Y-143080009D01*
X156102206Y-142977235D01*
X156022765Y-142897794D01*
X155919991Y-142852415D01*
X155919990Y-142852414D01*
X155919988Y-142852414D01*
X155894868Y-142849500D01*
X154105139Y-142849500D01*
X154105136Y-142849501D01*
X154080009Y-142852414D01*
X153977235Y-142897794D01*
X153897794Y-142977235D01*
X153852414Y-143080011D01*
X153849500Y-143105130D01*
X153849500Y-144584099D01*
X153830593Y-144642290D01*
X153781093Y-144678254D01*
X153719907Y-144678254D01*
X153680496Y-144654103D01*
X153554841Y-144528448D01*
X153527064Y-144473931D01*
X153530689Y-144427854D01*
X153582171Y-144269409D01*
X153582172Y-144269404D01*
X153610500Y-144090549D01*
X153610500Y-143909450D01*
X153582171Y-143730593D01*
X153582171Y-143730591D01*
X153526211Y-143558361D01*
X153443996Y-143397006D01*
X153337553Y-143250499D01*
X153209501Y-143122447D01*
X153062994Y-143016004D01*
X153062993Y-143016003D01*
X153062991Y-143016002D01*
X152901637Y-142933788D01*
X152729406Y-142877828D01*
X152550549Y-142849500D01*
X152550546Y-142849500D01*
X152369454Y-142849500D01*
X152369451Y-142849500D01*
X152190593Y-142877828D01*
X152018362Y-142933788D01*
X151857008Y-143016002D01*
X151783752Y-143069225D01*
X151710499Y-143122447D01*
X151582447Y-143250499D01*
X151529225Y-143323752D01*
X151476002Y-143397008D01*
X151393788Y-143558362D01*
X151337828Y-143730593D01*
X151309500Y-143909450D01*
X151309500Y-144090549D01*
X151337828Y-144269406D01*
X151393788Y-144441637D01*
X151473899Y-144598864D01*
X151476004Y-144602994D01*
X151582447Y-144749501D01*
X151710499Y-144877553D01*
X151857006Y-144983996D01*
X152018361Y-145066211D01*
X152190591Y-145122171D01*
X152262136Y-145133502D01*
X152369451Y-145150500D01*
X152369454Y-145150500D01*
X152550549Y-145150500D01*
X152729404Y-145122172D01*
X152729405Y-145122171D01*
X152729409Y-145122171D01*
X152887854Y-145070690D01*
X152949037Y-145070690D01*
X152988448Y-145094841D01*
X154359087Y-146465480D01*
X154359089Y-146465481D01*
X154359090Y-146465482D01*
X154359091Y-146465483D01*
X154450408Y-146518205D01*
X154450406Y-146518205D01*
X154450410Y-146518206D01*
X154450412Y-146518207D01*
X154552273Y-146545500D01*
X154657727Y-146545500D01*
X155393356Y-146545500D01*
X155451547Y-146564407D01*
X155463359Y-146574496D01*
X155491855Y-146602991D01*
X155514384Y-146625520D01*
X155651316Y-146704577D01*
X155804043Y-146745500D01*
X155804045Y-146745500D01*
X155962155Y-146745500D01*
X155962157Y-146745500D01*
X156114884Y-146704577D01*
X156251816Y-146625520D01*
X156363620Y-146513716D01*
X156442677Y-146376784D01*
X156483600Y-146224057D01*
X156483600Y-146065943D01*
X156442677Y-145913216D01*
X156363620Y-145776284D01*
X156251816Y-145664480D01*
X156114884Y-145585423D01*
X155962157Y-145544500D01*
X155804043Y-145544500D01*
X155651316Y-145585423D01*
X155569028Y-145632932D01*
X155514381Y-145664482D01*
X155463359Y-145715504D01*
X155408842Y-145743281D01*
X155393356Y-145744500D01*
X154811901Y-145744500D01*
X154753710Y-145725593D01*
X154741897Y-145715504D01*
X154345896Y-145319503D01*
X154318119Y-145264986D01*
X154327690Y-145204554D01*
X154370955Y-145161289D01*
X154415900Y-145150499D01*
X155894861Y-145150499D01*
X155894864Y-145150499D01*
X155919991Y-145147585D01*
X156022765Y-145102206D01*
X156102206Y-145022765D01*
X156147585Y-144919991D01*
X156150500Y-144894865D01*
X156150499Y-144657052D01*
X156169406Y-144598864D01*
X156218906Y-144562900D01*
X156275120Y-144561427D01*
X156420943Y-144600500D01*
X156420945Y-144600500D01*
X156579055Y-144600500D01*
X156579057Y-144600500D01*
X156731784Y-144559577D01*
X156731786Y-144559575D01*
X156731789Y-144559575D01*
X156735505Y-144558036D01*
X156773390Y-144550500D01*
X200072474Y-144550500D01*
X200072475Y-144550500D01*
X200212485Y-144512984D01*
X200212487Y-144512982D01*
X200212489Y-144512982D01*
X200338010Y-144440512D01*
X200338010Y-144440511D01*
X200338015Y-144440509D01*
X200440509Y-144338015D01*
X200480122Y-144269404D01*
X200512982Y-144212489D01*
X200512982Y-144212487D01*
X200512984Y-144212485D01*
X200550500Y-144072475D01*
X200550500Y-65927525D01*
X200512984Y-65787515D01*
X200512982Y-65787512D01*
X200512982Y-65787510D01*
X200440512Y-65661989D01*
X200440510Y-65661987D01*
X200440509Y-65661985D01*
X200338015Y-65559491D01*
X200338012Y-65559489D01*
X200338010Y-65559487D01*
X200212488Y-65487017D01*
X200212489Y-65487017D01*
X200169880Y-65475600D01*
X200072475Y-65449500D01*
X200072474Y-65449500D01*
X147467016Y-65449500D01*
X147412014Y-65432815D01*
X147331817Y-65379228D01*
X147331806Y-65379222D01*
X147204328Y-65326420D01*
X147068995Y-65299500D01*
X147068993Y-65299500D01*
X146931007Y-65299500D01*
X146931004Y-65299500D01*
X146795672Y-65326420D01*
X146795670Y-65326420D01*
X146668193Y-65379222D01*
X146668182Y-65379228D01*
X146553458Y-65455885D01*
X146455885Y-65553458D01*
X146396415Y-65642461D01*
X146348364Y-65680340D01*
X146287226Y-65682742D01*
X146236353Y-65648748D01*
X146215176Y-65591345D01*
X146215100Y-65587459D01*
X146215100Y-65566944D01*
X146213102Y-65559487D01*
X146174177Y-65414216D01*
X146095120Y-65277284D01*
X145983316Y-65165480D01*
X145846384Y-65086423D01*
X145693657Y-65045500D01*
X145535543Y-65045500D01*
X145382816Y-65086423D01*
X145331750Y-65115906D01*
X145245881Y-65165482D01*
X145194859Y-65216504D01*
X145140342Y-65244281D01*
X145124856Y-65245500D01*
X127808906Y-65245500D01*
X127808890Y-65245499D01*
X127802827Y-65245499D01*
X127758925Y-65245499D01*
X127700734Y-65226592D01*
X127664770Y-65177092D01*
X127664770Y-65115906D01*
X127667459Y-65108617D01*
X127668176Y-65106885D01*
X127668177Y-65106884D01*
X127709100Y-64954157D01*
X127709100Y-64882000D01*
X127728007Y-64823809D01*
X127738096Y-64811996D01*
X128000596Y-64549496D01*
X128055113Y-64521719D01*
X128070600Y-64520500D01*
X140629856Y-64520500D01*
X140688047Y-64539407D01*
X140699859Y-64549496D01*
X140750881Y-64600517D01*
X140750884Y-64600520D01*
X140887816Y-64679577D01*
X141040543Y-64720500D01*
X141040545Y-64720500D01*
X141198655Y-64720500D01*
X141198657Y-64720500D01*
X141351384Y-64679577D01*
X141488316Y-64600520D01*
X141600120Y-64488716D01*
X141679177Y-64351784D01*
X141720100Y-64199057D01*
X141720100Y-64040943D01*
X141679177Y-63888216D01*
X141600120Y-63751284D01*
X141488316Y-63639480D01*
X141351384Y-63560423D01*
X141198657Y-63519500D01*
X141040543Y-63519500D01*
X140887816Y-63560423D01*
X140750881Y-63639482D01*
X140699859Y-63690504D01*
X140645342Y-63718281D01*
X140629856Y-63719500D01*
X127922506Y-63719500D01*
X127922490Y-63719499D01*
X127916427Y-63719499D01*
X127810973Y-63719499D01*
X127810970Y-63719499D01*
X127709113Y-63746792D01*
X127709109Y-63746794D01*
X127617787Y-63799519D01*
X127543219Y-63874086D01*
X127543220Y-63874087D01*
X127171703Y-64245604D01*
X127117186Y-64273381D01*
X127101699Y-64274600D01*
X127029543Y-64274600D01*
X126876816Y-64315523D01*
X126739884Y-64394580D01*
X126628080Y-64506384D01*
X126549023Y-64643316D01*
X126508100Y-64796043D01*
X126508100Y-64954157D01*
X126549023Y-65106884D01*
X126628080Y-65243816D01*
X126739884Y-65355620D01*
X126876816Y-65434677D01*
X127029543Y-65475600D01*
X127029545Y-65475600D01*
X127115099Y-65475600D01*
X127173290Y-65494507D01*
X127209254Y-65544007D01*
X127209254Y-65605193D01*
X127185103Y-65644604D01*
X126419203Y-66410504D01*
X126364686Y-66438281D01*
X126349199Y-66439500D01*
X126277043Y-66439500D01*
X126124316Y-66480423D01*
X125987381Y-66559482D01*
X125936359Y-66610504D01*
X125881842Y-66638281D01*
X125866356Y-66639500D01*
X100271544Y-66639500D01*
X100213353Y-66620593D01*
X100201541Y-66610504D01*
X100150518Y-66559482D01*
X100150516Y-66559480D01*
X100013584Y-66480423D01*
X99860857Y-66439500D01*
X99702743Y-66439500D01*
X99550016Y-66480423D01*
X99413084Y-66559480D01*
X99301280Y-66671284D01*
X99222223Y-66808216D01*
X99181300Y-66960943D01*
X93000500Y-66960943D01*
X93000500Y-61814170D01*
X123680000Y-61814170D01*
X123680000Y-63045827D01*
X123714074Y-63172991D01*
X123714076Y-63172995D01*
X123779899Y-63287003D01*
X123872995Y-63380099D01*
X123987003Y-63445922D01*
X123987007Y-63445924D01*
X124114171Y-63479998D01*
X124114173Y-63479999D01*
X124245827Y-63479999D01*
X124245828Y-63479998D01*
X124372992Y-63445924D01*
X124372996Y-63445922D01*
X124487004Y-63380099D01*
X124580100Y-63287003D01*
X124645923Y-63172995D01*
X124645925Y-63172991D01*
X124679999Y-63045827D01*
X124680000Y-63045825D01*
X124680000Y-61824233D01*
X125034500Y-61824233D01*
X125034500Y-61975765D01*
X125054126Y-62049012D01*
X125073720Y-62122138D01*
X125149481Y-62253359D01*
X125149483Y-62253361D01*
X125149485Y-62253364D01*
X125256635Y-62360514D01*
X125256637Y-62360515D01*
X125256639Y-62360517D01*
X125387861Y-62436278D01*
X125387859Y-62436278D01*
X125387863Y-62436279D01*
X125387865Y-62436280D01*
X125534234Y-62475499D01*
X125534236Y-62475499D01*
X125685764Y-62475499D01*
X125685766Y-62475499D01*
X125832135Y-62436280D01*
X125832137Y-62436278D01*
X125832139Y-62436278D01*
X125963360Y-62360517D01*
X125963360Y-62360516D01*
X125963365Y-62360514D01*
X126070515Y-62253364D01*
X126070518Y-62253359D01*
X126146279Y-62122138D01*
X126146280Y-62122135D01*
X126146281Y-62122134D01*
X126185500Y-61975765D01*
X126185500Y-61824234D01*
X130814499Y-61824234D01*
X130814499Y-61975766D01*
X130834125Y-62049012D01*
X130853719Y-62122139D01*
X130929480Y-62253360D01*
X130929482Y-62253362D01*
X130929484Y-62253365D01*
X131036634Y-62360515D01*
X131036636Y-62360516D01*
X131036638Y-62360518D01*
X131167860Y-62436279D01*
X131167858Y-62436279D01*
X131167862Y-62436280D01*
X131167864Y-62436281D01*
X131314233Y-62475500D01*
X131314235Y-62475500D01*
X131465763Y-62475500D01*
X131465765Y-62475500D01*
X131612134Y-62436281D01*
X131612136Y-62436279D01*
X131612138Y-62436279D01*
X131743359Y-62360518D01*
X131743359Y-62360517D01*
X131743364Y-62360515D01*
X131850514Y-62253365D01*
X131850517Y-62253360D01*
X131926278Y-62122139D01*
X131926278Y-62122137D01*
X131926280Y-62122135D01*
X131965499Y-61975766D01*
X131965499Y-61824234D01*
X131962803Y-61814171D01*
X132320000Y-61814171D01*
X132320000Y-63045828D01*
X132354074Y-63172992D01*
X132354076Y-63172996D01*
X132419899Y-63287004D01*
X132512995Y-63380100D01*
X132627003Y-63445923D01*
X132627007Y-63445925D01*
X132754171Y-63479999D01*
X132754173Y-63480000D01*
X132885827Y-63480000D01*
X132885828Y-63479999D01*
X133012992Y-63445925D01*
X133012996Y-63445923D01*
X133127004Y-63380100D01*
X133220100Y-63287004D01*
X133285923Y-63172996D01*
X133285925Y-63172992D01*
X133319999Y-63045828D01*
X133320000Y-63045826D01*
X133320000Y-61814173D01*
X133319999Y-61814171D01*
X133285925Y-61687007D01*
X133285923Y-61687003D01*
X133220100Y-61572995D01*
X133127004Y-61479899D01*
X133012996Y-61414076D01*
X133012992Y-61414074D01*
X132885828Y-61380000D01*
X132754171Y-61380000D01*
X132627007Y-61414074D01*
X132627003Y-61414076D01*
X132512995Y-61479899D01*
X132419899Y-61572995D01*
X132354076Y-61687003D01*
X132354074Y-61687007D01*
X132320000Y-61814171D01*
X131962803Y-61814171D01*
X131926280Y-61677865D01*
X131926278Y-61677862D01*
X131926278Y-61677860D01*
X131850517Y-61546639D01*
X131850515Y-61546637D01*
X131850514Y-61546635D01*
X131743364Y-61439485D01*
X131743361Y-61439483D01*
X131743359Y-61439481D01*
X131612137Y-61363720D01*
X131612139Y-61363720D01*
X131555346Y-61348503D01*
X131465765Y-61324500D01*
X131314233Y-61324500D01*
X131224651Y-61348503D01*
X131167859Y-61363720D01*
X131036638Y-61439481D01*
X130929480Y-61546639D01*
X130853719Y-61677860D01*
X130831824Y-61759576D01*
X130814499Y-61824234D01*
X126185500Y-61824234D01*
X126185500Y-61824233D01*
X126146281Y-61677864D01*
X126146279Y-61677860D01*
X126146279Y-61677859D01*
X126070518Y-61546638D01*
X126070516Y-61546636D01*
X126070515Y-61546634D01*
X125963365Y-61439484D01*
X125963362Y-61439482D01*
X125963360Y-61439480D01*
X125832138Y-61363719D01*
X125832140Y-61363719D01*
X125775347Y-61348502D01*
X125685766Y-61324499D01*
X125534234Y-61324499D01*
X125444652Y-61348502D01*
X125387860Y-61363719D01*
X125256639Y-61439480D01*
X125149481Y-61546638D01*
X125073720Y-61677859D01*
X125068914Y-61695795D01*
X125034500Y-61824233D01*
X124680000Y-61824233D01*
X124680000Y-61814172D01*
X124679999Y-61814170D01*
X124645925Y-61687006D01*
X124645923Y-61687002D01*
X124580100Y-61572994D01*
X124487004Y-61479898D01*
X124372996Y-61414075D01*
X124372992Y-61414073D01*
X124245828Y-61379999D01*
X124114171Y-61379999D01*
X123987007Y-61414073D01*
X123987003Y-61414075D01*
X123872995Y-61479898D01*
X123779899Y-61572994D01*
X123714076Y-61687002D01*
X123714074Y-61687006D01*
X123680000Y-61814170D01*
X93000500Y-61814170D01*
X93000500Y-60551743D01*
X126309900Y-60551743D01*
X126309900Y-60709857D01*
X126350823Y-60862584D01*
X126429880Y-60999516D01*
X126541684Y-61111320D01*
X126678616Y-61190377D01*
X126831343Y-61231300D01*
X126831345Y-61231300D01*
X126989455Y-61231300D01*
X126989457Y-61231300D01*
X127142184Y-61190377D01*
X127279116Y-61111320D01*
X127390920Y-60999516D01*
X127469977Y-60862584D01*
X127510900Y-60709857D01*
X127510900Y-60637701D01*
X127529807Y-60579510D01*
X127539896Y-60567697D01*
X128258897Y-59848696D01*
X128313414Y-59820919D01*
X128328901Y-59819700D01*
X129767649Y-59819700D01*
X129825840Y-59838607D01*
X129861804Y-59888107D01*
X129861804Y-59949293D01*
X129859112Y-59956589D01*
X129858024Y-59959213D01*
X129858023Y-59959216D01*
X129817100Y-60111943D01*
X129817100Y-60270057D01*
X129858023Y-60422784D01*
X129937080Y-60559716D01*
X130048884Y-60671520D01*
X130185816Y-60750577D01*
X130338543Y-60791500D01*
X130338545Y-60791500D01*
X130496656Y-60791500D01*
X130496657Y-60791500D01*
X130610122Y-60761097D01*
X130671222Y-60764298D01*
X130718772Y-60802803D01*
X130721480Y-60807222D01*
X130746880Y-60851216D01*
X130858684Y-60963020D01*
X130995616Y-61042077D01*
X131148343Y-61083000D01*
X131148345Y-61083000D01*
X131306455Y-61083000D01*
X131306457Y-61083000D01*
X131459184Y-61042077D01*
X131596116Y-60963020D01*
X131621629Y-60937506D01*
X131647141Y-60911996D01*
X131701658Y-60884219D01*
X131717144Y-60883000D01*
X138123999Y-60883000D01*
X138182190Y-60901907D01*
X138194003Y-60911996D01*
X139331020Y-62049013D01*
X139331019Y-62049013D01*
X139404141Y-62122134D01*
X139405587Y-62123580D01*
X139496913Y-62176307D01*
X139598773Y-62203600D01*
X139598775Y-62203600D01*
X149427325Y-62203600D01*
X149427327Y-62203600D01*
X149529188Y-62176307D01*
X149529190Y-62176305D01*
X149529192Y-62176305D01*
X149620508Y-62123583D01*
X149620508Y-62123582D01*
X149620513Y-62123580D01*
X149768330Y-61975763D01*
X149914598Y-61829496D01*
X149969114Y-61801719D01*
X149984601Y-61800500D01*
X150056755Y-61800500D01*
X150056757Y-61800500D01*
X150209484Y-61759577D01*
X150346416Y-61680520D01*
X150458220Y-61568716D01*
X150537277Y-61431784D01*
X150578200Y-61279057D01*
X150578200Y-61120943D01*
X150537277Y-60968216D01*
X150458220Y-60831284D01*
X150346416Y-60719480D01*
X150209484Y-60640423D01*
X150056757Y-60599500D01*
X149898643Y-60599500D01*
X149833399Y-60616981D01*
X149772298Y-60613779D01*
X149724748Y-60575274D01*
X149708913Y-60516173D01*
X149712150Y-60495736D01*
X149727900Y-60436957D01*
X149727900Y-60278843D01*
X149686977Y-60126116D01*
X149607920Y-59989184D01*
X149496116Y-59877380D01*
X149359184Y-59798323D01*
X149206457Y-59757400D01*
X149206455Y-59757400D01*
X149134301Y-59757400D01*
X149076110Y-59738493D01*
X149064297Y-59728404D01*
X148434613Y-59098720D01*
X148434610Y-59098718D01*
X148434609Y-59098717D01*
X148434608Y-59098716D01*
X148343291Y-59045994D01*
X148343293Y-59045994D01*
X148303770Y-59035404D01*
X148241427Y-59018700D01*
X133296780Y-59018700D01*
X133238589Y-58999793D01*
X133202625Y-58950293D01*
X133202625Y-58889107D01*
X133218238Y-58859432D01*
X133220102Y-58857001D01*
X133285923Y-58742997D01*
X133285925Y-58742993D01*
X133319999Y-58615829D01*
X133320000Y-58615827D01*
X133320000Y-57884174D01*
X133319999Y-57884172D01*
X133285925Y-57757008D01*
X133285923Y-57757004D01*
X133220100Y-57642996D01*
X133127004Y-57549900D01*
X133012996Y-57484077D01*
X133012992Y-57484075D01*
X132885828Y-57450001D01*
X132754171Y-57450001D01*
X132627007Y-57484075D01*
X132627003Y-57484077D01*
X132512995Y-57549900D01*
X132419899Y-57642996D01*
X132354076Y-57757004D01*
X132354074Y-57757008D01*
X132320000Y-57884172D01*
X132320000Y-58615829D01*
X132354074Y-58742993D01*
X132354076Y-58742997D01*
X132419897Y-58857001D01*
X132421762Y-58859432D01*
X132422494Y-58861499D01*
X132423145Y-58862627D01*
X132422936Y-58862747D01*
X132442186Y-58917108D01*
X132424809Y-58975774D01*
X132376267Y-59013021D01*
X132343220Y-59018700D01*
X128174727Y-59018700D01*
X128069273Y-59018700D01*
X128006929Y-59035404D01*
X127967407Y-59045994D01*
X127876091Y-59098716D01*
X126973503Y-60001304D01*
X126918986Y-60029081D01*
X126903499Y-60030300D01*
X126831343Y-60030300D01*
X126678616Y-60071223D01*
X126541684Y-60150280D01*
X126429880Y-60262084D01*
X126350823Y-60399016D01*
X126309900Y-60551743D01*
X93000500Y-60551743D01*
X93000500Y-57884171D01*
X123680000Y-57884171D01*
X123680000Y-58615828D01*
X123714074Y-58742992D01*
X123714076Y-58742996D01*
X123779899Y-58857004D01*
X123872995Y-58950100D01*
X123987003Y-59015923D01*
X123987007Y-59015925D01*
X124114171Y-59049999D01*
X124114173Y-59050000D01*
X124245827Y-59050000D01*
X124245828Y-59049999D01*
X124372992Y-59015925D01*
X124372996Y-59015923D01*
X124487004Y-58950100D01*
X124580100Y-58857004D01*
X124645923Y-58742996D01*
X124645925Y-58742992D01*
X124679999Y-58615828D01*
X124680000Y-58615826D01*
X124680000Y-57884173D01*
X124679999Y-57884171D01*
X124645925Y-57757007D01*
X124645923Y-57757003D01*
X124580100Y-57642995D01*
X124487004Y-57549899D01*
X124372996Y-57484076D01*
X124372992Y-57484074D01*
X124245828Y-57450000D01*
X124114171Y-57450000D01*
X123987007Y-57484074D01*
X123987003Y-57484076D01*
X123872995Y-57549899D01*
X123779899Y-57642995D01*
X123714076Y-57757003D01*
X123714074Y-57757007D01*
X123680000Y-57884171D01*
X93000500Y-57884171D01*
X93000500Y-57002984D01*
X93000681Y-56997007D01*
X93018362Y-56704695D01*
X93018363Y-56704694D01*
X93018362Y-56704687D01*
X93019801Y-56692836D01*
X93072052Y-56407714D01*
X93074906Y-56396131D01*
X93161152Y-56119355D01*
X93165374Y-56108224D01*
X93284349Y-55843873D01*
X93289898Y-55833302D01*
X93439860Y-55585233D01*
X93446631Y-55575423D01*
X93625406Y-55347234D01*
X93633318Y-55338302D01*
X93838302Y-55133318D01*
X93847234Y-55125406D01*
X94075423Y-54946631D01*
X94085233Y-54939860D01*
X94333302Y-54789898D01*
X94343873Y-54784349D01*
X94608224Y-54665374D01*
X94619355Y-54661152D01*
X94896131Y-54574906D01*
X94907714Y-54572052D01*
X95192836Y-54519801D01*
X95204687Y-54518362D01*
X95497008Y-54500681D01*
X95502985Y-54500500D01*
X95565892Y-54500500D01*
X201434108Y-54500500D01*
X201497015Y-54500500D01*
X201502992Y-54500681D01*
G37*
%TD.AperFunction*%
%TD*%
M02*
