%TF.GenerationSoftware,KiCad,Pcbnew,10.0.5*%
%TF.CreationDate,2026-08-27T09:57:43+09:00*%
%TF.ProjectId,OdytsseySwitch,4f647974-7373-4657-9953-77697463682e,rev?*%
%TF.SameCoordinates,Original*%
%TF.FileFunction,Soldermask,Top*%
%TF.FilePolarity,Negative*%
%FSLAX46Y46*%
G04 Gerber Fmt 4.6, Leading zero omitted, Abs format (unit mm)*
G04 Created by KiCad (PCBNEW 10.0.5) date 2026-08-27 09:57:43*
%MOMM*%
%LPD*%
G01*
G04 APERTURE LIST*
%ADD10R,1.000000X1.900000*%
%ADD11C,1.750000*%
%ADD12C,3.050000*%
%ADD13C,4.000000*%
%ADD14R,1.900000X1.000000*%
%ADD15C,0.650000*%
%ADD16O,1.000000X1.600000*%
%ADD17O,1.000000X2.100000*%
G04 APERTURE END LIST*
D10*
%TO.C,J2*%
X124690000Y-90650000D03*
X127230000Y-87350000D03*
X129770000Y-90650000D03*
X132310000Y-87350000D03*
%TD*%
D11*
%TO.C,SW3*%
X142470000Y-77500000D03*
D12*
X143740000Y-74960000D03*
D13*
X147550000Y-77500000D03*
D12*
X150090000Y-72420000D03*
D11*
X152630000Y-77500000D03*
%TD*%
%TO.C,SW1*%
X104370000Y-77500000D03*
D12*
X105640000Y-74960000D03*
D13*
X109450000Y-77500000D03*
D12*
X111990000Y-72420000D03*
D11*
X114530000Y-77500000D03*
%TD*%
%TO.C,SW5*%
X132945000Y-130000000D03*
D12*
X134215000Y-127460000D03*
D13*
X138025000Y-130000000D03*
D12*
X140565000Y-124920000D03*
D11*
X143105000Y-130000000D03*
%TD*%
%TO.C,SW2*%
X123420000Y-77500000D03*
D12*
X124690000Y-74960000D03*
D13*
X128500000Y-77500000D03*
D12*
X131040000Y-72420000D03*
D11*
X133580000Y-77500000D03*
%TD*%
%TO.C,SW4*%
X113895000Y-130000000D03*
D12*
X115165000Y-127460000D03*
D13*
X118975000Y-130000000D03*
D12*
X121515000Y-124920000D03*
D11*
X124055000Y-130000000D03*
%TD*%
D14*
%TO.C,J7*%
X169850000Y-92920000D03*
X173150000Y-95460000D03*
X169850000Y-98000000D03*
X173150000Y-100540000D03*
X169850000Y-103080000D03*
%TD*%
D15*
%TO.C,J1*%
X125610000Y-61899999D03*
X131389999Y-61900000D03*
D16*
X124180000Y-58250000D03*
D17*
X124180000Y-62429999D03*
D16*
X132820000Y-58250001D03*
D17*
X132820000Y-62430000D03*
%TD*%
M02*
